<svg width="1089" height="448" viewBox="0 0 1089 448" fill="none" xmlns="http://www.w3.org/2000/svg">
<path d="M2.38984 330.652L27.0103 323.546L66.7981 362.599L128.349 344.836L88.5614 305.783L113.182 298.678L213.729 397.368L189.108 404.473L145.586 361.754L84.0347 379.518L127.557 422.236L102.937 429.342L2.38984 330.652Z" fill="#EA9D8B"/>
<path d="M289.642 345.174L240.594 359.33L253.282 385.953L229.431 392.836L176.778 280.324L200.052 273.607L348.493 358.475L324.642 365.358L289.642 345.174ZM265.861 331.604L213.217 301.187L232.2 341.319L265.861 331.604Z" fill="#EA9D8B"/>
<path d="M425.024 338.943C411.431 342.866 397.223 344.229 382.399 343.034C367.703 341.802 353.544 338.165 339.921 332.124C326.203 325.988 314.125 317.797 303.687 307.552C293.345 297.401 287.197 287.621 285.244 278.211C283.323 268.671 285.465 260.269 291.671 253.004C297.909 245.609 307.76 239.969 321.225 236.083C334.176 232.345 347.744 230.923 361.929 231.816L376.76 249.793C369.426 249.599 362.716 249.772 356.629 250.312C350.575 250.722 344.598 251.778 338.7 253.48C324.979 257.44 317.56 263.594 316.443 271.944C315.454 280.257 320.178 289.536 330.616 299.781C341.053 310.026 353.023 317.214 366.524 321.345C380.153 325.439 393.764 325.524 407.356 321.602C413.383 319.862 418.418 317.801 422.462 315.418C426.634 312.998 430.647 310.015 434.502 306.47L454.719 322.893C447.489 329.966 437.591 335.316 425.024 338.943Z" fill="#EA9D8B"/>
<path d="M378.928 221.984L403.548 214.879L504.095 313.569L479.474 320.674L378.928 221.984ZM452.872 260.849L455.29 199.947L484.142 191.62L481.34 252.634L584.688 290.31L555.836 298.637L452.872 260.849Z" fill="#EA9D8B"/>
<path d="M499.744 187.117L550.139 172.573C562.962 168.873 576.386 167.553 590.41 168.614C604.562 169.638 618.242 173.048 631.449 178.845C644.656 184.642 656.431 192.616 666.772 202.767C677.114 212.918 683.247 222.521 685.17 231.574C687.092 240.628 684.999 248.59 678.891 255.461C672.911 262.295 663.509 267.563 650.686 271.263L600.291 285.807L499.744 187.117ZM634.311 255.191C647.134 251.49 653.911 245.764 654.642 238.012C655.406 230.13 650.473 220.972 639.844 210.539C629.215 200.106 617.533 192.956 604.8 189.09C592.099 185.093 579.337 184.945 566.514 188.646L540.739 196.084L608.537 262.63L634.311 255.191Z" fill="#EA9D8B"/>
<path d="M795.205 232.11C776.74 237.439 758.853 237.554 741.544 232.454C724.139 227.26 708.399 217.755 694.322 203.939L636.867 147.544L661.487 140.439L714.203 192.181C721.193 199.042 727.868 204.535 734.227 208.659C740.49 212.69 747.159 215.326 754.232 216.569C761.434 217.774 769.203 217.174 777.538 214.769C785.873 212.363 790.992 209.244 792.894 205.411C794.925 201.541 794.476 197.11 791.546 192.117C788.521 187.03 783.513 181.056 776.523 174.195L723.808 122.453L748.428 115.348L805.884 171.742C819.96 185.559 826.34 197.766 825.023 208.362C823.61 218.865 813.671 226.781 795.205 232.11Z" fill="#EA9D8B"/>
<path d="M776.691 107.191L801.312 100.086L901.859 198.776L877.238 205.881L776.691 107.191ZM850.636 146.056L853.053 85.1537L881.905 76.8271L879.103 137.841L982.452 175.517L953.6 183.844L850.636 146.056Z" fill="#EA9D8B"/>
<path d="M897.508 72.3242L983.68 47.4555L1001.49 64.9377L940.517 82.5346L961.919 103.541L1009.24 89.8859L1027.05 107.368L979.73 121.024L1005.44 146.26L1068.34 128.108L1086.15 145.59L998.055 171.014L897.508 72.3242Z" fill="#EA9D8B"/>
<path d="M2.38984 332.08L27.0103 324.975L66.7981 364.028L128.349 346.265L88.5614 307.211L113.182 300.106L213.729 398.796L189.108 405.902L145.586 363.183L84.0347 380.946L127.557 423.665L102.937 430.77L2.38984 332.08Z" fill="#EA9D8B"/>
<path d="M289.642 346.603L240.594 360.758L253.282 387.381L229.431 394.265L176.778 281.752L200.052 275.036L348.493 359.904L324.642 366.787L289.642 346.603ZM265.861 333.033L213.217 302.616L232.2 342.747L265.861 333.033Z" fill="#EA9D8B"/>
<path d="M425.024 340.371C411.431 344.294 397.223 345.658 382.399 344.463C367.703 343.231 353.544 339.594 339.921 333.552C326.203 327.416 314.125 319.226 303.687 308.981C293.345 298.83 287.197 289.05 285.244 279.64C283.323 270.1 285.465 261.697 291.671 254.433C297.909 247.038 307.76 241.397 321.225 237.512C334.176 233.774 347.744 232.352 361.929 233.245L376.76 251.222C369.426 251.028 362.716 251.2 356.629 251.741C350.575 252.15 344.598 253.206 338.7 254.908C324.979 258.868 317.56 265.023 316.443 273.373C315.454 281.686 320.178 290.964 330.616 301.209C341.053 311.454 353.023 318.642 366.524 322.773C380.153 326.867 393.764 326.953 407.356 323.03C413.383 321.291 418.418 319.23 422.462 316.846C426.634 314.426 430.647 311.443 434.502 307.898L454.719 324.321C447.489 331.395 437.591 336.745 425.024 340.371Z" fill="#EA9D8B"/>
<path d="M378.928 223.413L403.548 216.308L504.095 314.998L479.474 322.103L378.928 223.413ZM452.872 262.278L455.29 201.375L484.142 193.049L481.34 254.062L584.688 291.739L555.836 300.065L452.872 262.278Z" fill="#EA9D8B"/>
<path d="M499.744 188.546L550.139 174.002C562.962 170.301 576.386 168.981 590.41 170.043C604.562 171.067 618.242 174.477 631.449 180.274C644.656 186.071 656.431 194.045 666.772 204.196C677.114 214.347 683.247 223.949 685.17 233.003C687.092 242.056 684.999 250.019 678.891 256.89C672.911 263.724 663.509 268.991 650.686 272.692L600.291 287.236L499.744 188.546ZM634.311 256.62C647.134 252.919 653.911 247.193 654.642 239.441C655.406 231.558 650.473 222.4 639.844 211.967C629.215 201.534 617.533 194.385 604.8 190.519C592.099 186.522 579.337 186.374 566.514 190.074L540.739 197.513L608.537 264.058L634.311 256.62Z" fill="#EA9D8B"/>
<path d="M795.205 233.539C776.74 238.868 758.853 238.982 741.544 233.883C724.139 228.689 708.399 219.184 694.322 205.367L636.867 148.973L661.487 141.867L714.203 193.609C721.193 200.471 727.868 205.963 734.227 210.088C740.49 214.118 747.159 216.755 754.232 217.997C761.434 219.203 769.203 218.603 777.538 216.197C785.873 213.792 790.992 210.673 792.894 206.84C794.925 202.97 794.476 198.538 791.546 193.546C788.521 188.459 783.513 182.485 776.523 175.624L723.808 123.882L748.428 116.777L805.884 173.171C819.96 186.988 826.34 199.194 825.023 209.791C823.61 220.294 813.671 228.21 795.205 233.539Z" fill="#EA9D8B"/>
<path d="M776.691 108.62L801.312 101.515L901.859 200.205L877.238 207.31L776.691 108.62ZM850.636 147.485L853.053 86.5823L881.905 78.2557L879.103 139.269L982.452 176.946L953.6 185.272L850.636 147.485Z" fill="#EA9D8B"/>
<path d="M897.508 73.7528L983.68 48.8841L1001.49 66.3663L940.517 83.9632L961.919 104.97L1009.24 91.3145L1027.05 108.797L979.73 122.452L1005.44 147.689L1068.34 129.537L1086.15 147.019L998.055 172.443L897.508 73.7528Z" fill="#EA9D8B"/>
<path d="M2.38984 333.509L27.0103 326.403L66.7981 365.456L128.349 347.693L88.5614 308.64L113.182 301.535L213.729 400.225L189.108 407.33L145.586 364.611L84.0347 382.375L127.557 425.093L102.937 432.199L2.38984 333.509Z" fill="#EA9D8B"/>
<path d="M289.642 348.031L240.594 362.187L253.282 388.81L229.431 395.693L176.778 283.181L200.052 276.464L348.493 361.332L324.642 368.215L289.642 348.031ZM265.861 334.461L213.217 304.044L232.2 344.176L265.861 334.461Z" fill="#EA9D8B"/>
<path d="M425.024 341.8C411.431 345.723 397.223 347.087 382.399 345.892C367.703 344.66 353.544 341.023 339.921 334.981C326.203 328.845 314.125 320.654 303.687 310.409C293.345 300.258 287.197 290.478 285.244 281.069C283.323 271.528 285.465 263.126 291.671 255.862C297.909 248.466 307.76 242.826 321.225 238.94C334.176 235.202 347.744 233.78 361.929 234.673L376.76 252.651C369.426 252.456 362.716 252.629 356.629 253.169C350.575 253.579 344.598 254.635 338.7 256.337C324.979 260.297 317.56 266.451 316.443 274.801C315.454 283.114 320.178 292.393 330.616 302.638C341.053 312.883 353.023 320.071 366.524 324.202C380.153 328.296 393.764 328.381 407.356 324.459C413.383 322.719 418.418 320.658 422.462 318.275C426.634 315.855 430.647 312.872 434.502 309.327L454.719 325.75C447.489 332.823 437.591 338.173 425.024 341.8Z" fill="#EA9D8B"/>
<path d="M378.928 224.842L403.548 217.736L504.095 316.426L479.474 323.532L378.928 224.842ZM452.872 263.706L455.29 202.804L484.142 194.477L481.34 255.491L584.688 293.167L555.836 301.494L452.872 263.706Z" fill="#EA9D8B"/>
<path d="M499.744 189.974L550.139 175.431C562.962 171.73 576.386 170.41 590.41 171.471C604.562 172.495 618.242 175.906 631.449 181.703C644.656 187.499 656.431 195.473 666.772 205.624C677.114 215.775 683.247 225.378 685.17 234.431C687.092 243.485 684.999 251.447 678.891 258.318C672.911 265.152 663.509 270.42 650.686 274.121L600.291 288.664L499.744 189.974ZM634.311 258.048C647.134 254.348 653.911 248.621 654.642 240.869C655.406 232.987 650.473 223.829 639.844 213.396C629.215 202.963 617.533 195.813 604.8 191.947C592.099 187.95 579.337 187.802 566.514 191.503L540.739 198.941L608.537 265.487L634.311 258.048Z" fill="#EA9D8B"/>
<path d="M795.205 234.967C776.74 240.296 758.853 240.411 741.544 235.311C724.139 230.117 708.399 220.612 694.322 206.796L636.867 150.401L661.487 143.296L714.203 195.038C721.193 201.899 727.868 207.392 734.227 211.516C740.49 215.547 747.159 218.183 754.232 219.426C761.434 220.631 769.203 220.031 777.538 217.626C785.873 215.22 790.992 212.101 792.894 208.268C794.925 204.398 794.476 199.967 791.546 194.974C788.521 189.888 783.513 183.914 776.523 177.052L723.808 125.311L748.428 118.205L805.884 174.599C819.96 188.416 826.34 200.623 825.023 211.219C823.61 221.722 813.671 229.638 795.205 234.967Z" fill="#EA9D8B"/>
<path d="M776.691 110.049L801.312 102.943L901.859 201.633L877.238 208.739L776.691 110.049ZM850.636 148.913L853.053 88.0108L881.905 79.6842L879.103 140.698L982.452 178.374L953.6 186.701L850.636 148.913Z" fill="#EA9D8B"/>
<path d="M897.508 75.1814L983.68 50.3126L1001.49 67.7948L940.517 85.3917L961.919 106.399L1009.24 92.743L1027.05 110.225L979.73 123.881L1005.44 149.117L1068.34 130.965L1086.15 148.448L998.055 173.871L897.508 75.1814Z" fill="#EA9D8B"/>
<path d="M2.38984 334.937L27.0103 327.832L66.7981 366.885L128.349 349.122L88.5614 310.069L113.182 302.963L213.729 401.653L189.108 408.759L145.586 366.04L84.0347 383.803L127.557 426.522L102.937 433.627L2.38984 334.937Z" fill="#EA9D8B"/>
<path d="M289.642 349.46L240.594 363.615L253.282 390.239L229.431 397.122L176.778 284.61L200.052 277.893L348.493 362.761L324.642 369.644L289.642 349.46ZM265.861 335.89L213.217 305.473L232.2 345.604L265.861 335.89Z" fill="#EA9D8B"/>
<path d="M425.024 343.229C411.431 347.151 397.223 348.515 382.399 347.32C367.703 346.088 353.544 342.451 339.921 336.409C326.203 330.273 314.125 322.083 303.687 311.838C293.345 301.687 287.197 291.907 285.244 282.497C283.323 272.957 285.465 264.554 291.671 257.29C297.909 249.895 307.76 244.255 321.225 240.369C334.176 236.631 347.744 235.209 361.929 236.102L376.76 254.079C369.426 253.885 362.716 254.058 356.629 254.598C350.575 255.007 344.598 256.063 338.7 257.766C324.979 261.725 317.56 267.88 316.443 276.23C315.454 284.543 320.178 293.822 330.616 304.067C341.053 314.312 353.023 321.499 366.524 325.63C380.153 329.724 393.764 329.81 407.356 325.887C413.383 324.148 418.418 322.087 422.462 319.704C426.634 317.283 430.647 314.301 434.502 310.756L454.719 327.179C447.489 334.252 437.591 339.602 425.024 343.229Z" fill="#EA9D8B"/>
<path d="M378.928 226.27L403.548 219.165L504.095 317.855L479.474 324.96L378.928 226.27ZM452.872 265.135L455.29 204.232L484.142 195.906L481.34 256.919L584.688 294.596L555.836 302.922L452.872 265.135Z" fill="#EA9D8B"/>
<path d="M499.744 191.403L550.139 176.859C562.962 173.158 576.386 171.839 590.41 172.9C604.562 173.924 618.242 177.334 631.449 183.131C644.656 188.928 656.431 196.902 666.772 207.053C677.114 217.204 683.247 226.806 685.17 235.86C687.092 244.913 684.999 252.876 678.891 259.747C672.911 266.581 663.509 271.849 650.686 275.549L600.291 290.093L499.744 191.403ZM634.311 259.477C647.134 255.776 653.911 250.05 654.643 242.298C655.406 234.415 650.473 225.257 639.844 214.825C629.215 204.392 617.533 197.242 604.8 193.376C592.099 189.379 579.337 189.231 566.514 192.932L540.739 200.37L608.537 266.915L634.311 259.477Z" fill="#EA9D8B"/>
<path d="M795.205 236.396C776.74 241.725 758.853 241.839 741.544 236.74C724.139 231.546 708.399 222.041 694.322 208.224L636.867 151.83L661.487 144.725L714.203 196.466C721.193 203.328 727.868 208.821 734.227 212.945C740.49 216.975 747.159 219.612 754.232 220.854C761.434 222.06 769.203 221.46 777.538 219.054C785.873 216.649 790.992 213.53 792.894 209.697C794.925 205.827 794.476 201.395 791.546 196.403C788.521 191.316 783.513 185.342 776.523 178.481L723.808 126.739L748.428 119.634L805.884 176.028C819.96 189.845 826.34 202.051 825.023 212.648C823.61 223.151 813.671 231.067 795.205 236.396Z" fill="#EA9D8B"/>
<path d="M776.691 111.477L801.312 104.372L901.859 203.062L877.238 210.167L776.691 111.477ZM850.636 150.342L853.053 89.4395L881.905 81.1129L879.103 142.126L982.452 179.803L953.6 188.13L850.636 150.342Z" fill="#EA9D8B"/>
<path d="M897.508 76.61L983.68 51.7412L1001.49 69.2235L940.517 86.8203L961.919 107.827L1009.24 94.1716L1027.05 111.654L979.73 125.309L1005.44 150.546L1068.34 132.394L1086.15 149.876L998.055 175.3L897.508 76.61Z" fill="#EA9D8B"/>
<path d="M2.38984 336.366L27.0103 329.261L66.7981 368.314L128.349 350.55L88.5614 311.497L113.182 304.392L213.729 403.082L189.108 410.187L145.586 367.469L84.0347 385.232L127.557 427.951L102.937 435.056L2.38984 336.366Z" fill="#EA9D8B"/>
<path d="M289.642 350.889L240.594 365.044L253.282 391.667L229.431 398.55L176.778 286.038L200.052 279.321L348.493 364.189L324.642 371.073L289.642 350.889ZM265.861 337.319L213.217 306.902L232.2 347.033L265.861 337.319Z" fill="#EA9D8B"/>
<path d="M425.024 344.657C411.431 348.58 397.223 349.944 382.399 348.749C367.703 347.517 353.544 343.88 339.921 337.838C326.203 331.702 314.125 323.512 303.687 313.267C293.345 303.116 287.197 293.335 285.244 283.926C283.323 274.385 285.465 265.983 291.671 258.719C297.909 251.324 307.76 245.683 321.225 241.797C334.176 238.06 347.744 236.637 361.929 237.53L376.76 255.508C369.426 255.313 362.716 255.486 356.629 256.027C350.575 256.436 344.598 257.492 338.7 259.194C324.979 263.154 317.56 269.309 316.443 277.658C315.454 285.971 320.178 295.25 330.616 305.495C341.053 315.74 353.023 322.928 366.524 327.059C380.153 331.153 393.764 331.239 407.356 327.316C413.383 325.576 418.418 323.515 422.462 321.132C426.634 318.712 430.647 315.729 434.502 312.184L454.719 328.607C447.489 335.68 437.591 341.03 425.024 344.657Z" fill="#EA9D8B"/>
<path d="M378.928 227.699L403.548 220.593L504.095 319.283L479.474 326.389L378.928 227.699ZM452.872 266.564L455.29 205.661L484.142 197.334L481.34 258.348L584.688 296.024L555.836 304.351L452.872 266.564Z" fill="#EA9D8B"/>
<path d="M499.744 192.832L550.139 178.288C562.962 174.587 576.386 173.267 590.41 174.328C604.562 175.352 618.242 178.763 631.449 184.56C644.656 190.357 656.431 198.331 666.772 208.482C677.114 218.633 683.247 228.235 685.17 237.288C687.092 246.342 684.999 254.304 678.891 261.175C672.911 268.01 663.509 273.277 650.686 276.978L600.291 291.522L499.744 192.832ZM634.311 260.905C647.134 257.205 653.911 251.478 654.642 243.727C655.406 235.844 650.473 226.686 639.844 216.253C629.215 205.82 617.533 198.671 604.8 194.805C592.099 190.808 579.337 190.659 566.514 194.36L540.739 201.799L608.537 268.344L634.311 260.905Z" fill="#EA9D8B"/>
<path d="M795.205 237.824C776.74 243.153 758.853 243.268 741.544 238.168C724.139 232.975 708.399 223.469 694.322 209.653L636.867 153.258L661.487 146.153L714.203 197.895C721.193 204.756 727.868 210.249 734.227 214.374C740.49 218.404 747.159 221.04 754.232 222.283C761.434 223.488 769.203 222.888 777.538 220.483C785.873 218.078 790.992 214.958 792.894 211.125C794.925 207.255 794.476 202.824 791.546 197.831C788.521 192.745 783.513 186.771 776.523 179.909L723.808 128.168L748.428 121.062L805.884 177.457C819.96 191.273 826.34 203.48 825.023 214.077C823.61 224.579 813.671 232.495 795.205 237.824Z" fill="#EA9D8B"/>
<path d="M776.691 112.906L801.312 105.8L901.859 204.49L877.238 211.596L776.691 112.906ZM850.636 151.771L853.053 90.868L881.905 82.5414L879.103 143.555L982.452 181.231L953.6 189.558L850.636 151.771Z" fill="#EA9D8B"/>
<path d="M897.508 78.0385L983.68 53.1698L1001.49 70.652L940.517 88.2489L961.919 109.256L1009.24 95.6002L1027.05 113.082L979.73 126.738L1005.44 151.974L1068.34 133.822L1086.15 151.305L998.055 176.729L897.508 78.0385Z" fill="#EA9D8B"/>
<path d="M2.38984 337.794L27.0103 330.689L66.7981 369.742L128.349 351.979L88.5614 312.926L113.182 305.82L213.729 404.51L189.108 411.616L145.586 368.897L84.0347 386.66L127.557 429.379L102.937 436.485L2.38984 337.794Z" fill="#EA9D8B"/>
<path d="M289.642 352.317L240.594 366.472L253.282 393.096L229.431 399.979L176.778 287.467L200.052 280.75L348.493 365.618L324.642 372.501L289.642 352.317ZM265.861 338.747L213.217 308.33L232.2 348.462L265.861 338.747Z" fill="#EA9D8B"/>
<path d="M425.024 346.086C411.431 350.008 397.223 351.372 382.399 350.177C367.703 348.945 353.544 345.308 339.921 339.266C326.203 333.13 314.125 324.94 303.687 314.695C293.345 304.544 287.197 294.764 285.244 285.354C283.323 275.814 285.465 267.411 291.671 260.147C297.909 252.752 307.76 247.112 321.225 243.226C334.176 239.488 347.744 238.066 361.929 238.959L376.76 256.936C369.426 256.742 362.716 256.915 356.629 257.455C350.575 257.864 344.598 258.92 338.7 260.623C324.979 264.582 317.56 270.737 316.443 279.087C315.454 287.4 320.178 296.679 330.616 306.924C341.053 317.169 353.023 324.357 366.524 328.488C380.153 332.581 393.764 332.667 407.356 328.744C413.383 327.005 418.418 324.944 422.462 322.561C426.634 320.14 430.647 317.158 434.502 313.613L454.719 330.036C447.489 337.109 437.591 342.459 425.024 346.086Z" fill="#EA9D8B"/>
<path d="M378.928 229.127L403.548 222.022L504.095 320.712L479.474 327.817L378.928 229.127ZM452.872 267.992L455.29 207.089L484.142 198.763L481.34 259.776L584.688 297.453L555.836 305.78L452.872 267.992Z" fill="#EA9D8B"/>
<path d="M499.744 194.26L550.139 179.716C562.962 176.016 576.386 174.696 590.41 175.757C604.562 176.781 618.242 180.191 631.449 185.988C644.656 191.785 656.431 199.759 666.772 209.91C677.114 220.061 683.247 229.663 685.17 238.717C687.092 247.77 684.999 255.733 678.891 262.604C672.911 269.438 663.509 274.706 650.686 278.406L600.291 292.95L499.744 194.26ZM634.311 262.334C647.134 258.633 653.911 252.907 654.642 245.155C655.406 237.272 650.473 228.115 639.844 217.682C629.215 207.249 617.533 200.099 604.8 196.233C592.099 192.236 579.337 192.088 566.514 195.789L540.739 203.227L608.537 269.772L634.311 262.334Z" fill="#EA9D8B"/>
<path d="M795.205 239.253C776.74 244.582 758.853 244.696 741.544 239.597C724.139 234.403 708.399 224.898 694.322 211.081L636.867 154.687L661.487 147.582L714.203 199.323C721.193 206.185 727.868 211.678 734.227 215.802C740.49 219.833 747.159 222.469 754.232 223.712C761.434 224.917 769.203 224.317 777.538 221.912C785.873 219.506 790.992 216.387 792.894 212.554C794.925 208.684 794.476 204.253 791.546 199.26C788.521 194.173 783.513 188.199 776.523 181.338L723.808 129.596L748.428 122.491L805.884 178.885C819.96 192.702 826.34 204.908 825.023 215.505C823.61 226.008 813.671 233.924 795.205 239.253Z" fill="#EA9D8B"/>
<path d="M776.691 114.334L801.312 107.229L901.859 205.919L877.238 213.024L776.691 114.334ZM850.636 153.199L853.053 92.2965L881.905 83.9699L879.103 144.984L982.452 182.66L953.6 190.987L850.636 153.199Z" fill="#EA9D8B"/>
<path d="M897.508 79.4671L983.68 54.5983L1001.49 72.0805L940.517 89.6774L961.919 110.684L1009.24 97.0287L1027.05 114.511L979.73 128.167L1005.44 153.403L1068.34 135.251L1086.15 152.733L998.055 178.157L897.508 79.4671Z" fill="#EA9D8B"/>
<path d="M2.38984 339.223L27.0103 332.118L66.7981 371.171L128.349 353.407L88.5614 314.354L113.182 307.249L213.729 405.939L189.108 413.044L145.586 370.326L84.0347 388.089L127.557 430.808L102.937 437.913L2.38984 339.223Z" fill="#EA9D8B"/>
<path d="M289.642 353.746L240.594 367.901L253.282 394.524L229.431 401.408L176.778 288.895L200.052 282.179L348.493 367.046L324.642 373.93L289.642 353.746ZM265.861 340.176L213.217 309.759L232.2 349.89L265.861 340.176Z" fill="#EA9D8B"/>
<path d="M425.024 347.514C411.431 351.437 397.223 352.801 382.399 351.606C367.703 350.374 353.544 346.737 339.921 340.695C326.203 334.559 314.125 326.369 303.687 316.124C293.345 305.973 287.197 296.192 285.244 286.783C283.323 277.242 285.465 268.84 291.671 261.576C297.909 254.181 307.76 248.54 321.225 244.654C334.176 240.917 347.744 239.494 361.929 240.387L376.76 258.365C369.426 258.17 362.716 258.343 356.629 258.884C350.575 259.293 344.598 260.349 338.7 262.051C324.979 266.011 317.56 272.166 316.443 280.516C315.454 288.828 320.178 298.107 330.616 308.352C341.053 318.597 353.023 325.785 366.524 329.916C380.153 334.01 393.764 334.096 407.356 330.173C413.383 328.434 418.418 326.372 422.462 323.989C426.634 321.569 430.647 318.586 434.502 315.041L454.719 331.464C447.489 338.538 437.591 343.887 425.024 347.514Z" fill="#EA9D8B"/>
<path d="M378.928 230.556L403.548 223.45L504.095 322.14L479.474 329.246L378.928 230.556ZM452.872 269.421L455.29 208.518L484.142 200.191L481.34 261.205L584.688 298.882L555.836 307.208L452.872 269.421Z" fill="#EA9D8B"/>
<path d="M499.744 195.689L550.139 181.145C562.962 177.444 576.386 176.124 590.41 177.185C604.562 178.209 618.242 181.62 631.449 187.417C644.656 193.214 656.431 201.188 666.772 211.339C677.114 221.49 683.247 231.092 685.17 240.145C687.092 249.199 684.999 257.161 678.891 264.033C672.911 270.867 663.509 276.134 650.686 279.835L600.291 294.379L499.744 195.689ZM634.311 263.763C647.134 260.062 653.911 254.336 654.642 246.584C655.406 238.701 650.473 229.543 639.844 219.11C629.215 208.677 617.533 201.528 604.8 197.662C592.099 193.665 579.337 193.517 566.514 197.217L540.739 204.656L608.537 271.201L634.311 263.763Z" fill="#EA9D8B"/>
<path d="M795.205 240.681C776.74 246.01 758.853 246.125 741.544 241.025C724.139 235.832 708.399 226.327 694.322 212.51L636.867 156.116L661.487 149.01L714.203 200.752C721.193 207.613 727.868 213.106 734.227 217.231C740.49 221.261 747.159 223.898 754.232 225.14C761.434 226.346 769.203 225.746 777.538 223.34C785.873 220.935 790.992 217.815 792.894 213.982C794.925 210.112 794.476 205.681 791.546 200.689C788.521 195.602 783.513 189.628 776.523 182.767L723.808 131.025L748.428 123.919L805.884 180.314C819.96 194.13 826.34 206.337 825.023 216.934C823.61 227.436 813.671 235.352 795.205 240.681Z" fill="#EA9D8B"/>
<path d="M776.691 115.763L801.312 108.657L901.859 207.348L877.238 214.453L776.691 115.763ZM850.636 154.628L853.053 93.7251L881.905 85.3985L879.103 146.412L982.452 184.089L953.6 192.415L850.636 154.628Z" fill="#EA9D8B"/>
<path d="M897.508 80.8956L983.68 56.0269L1001.49 73.5091L940.517 91.106L961.919 112.113L1009.24 98.4573L1027.05 115.94L979.73 129.595L1005.44 154.832L1068.34 136.68L1086.15 154.162L998.055 179.586L897.508 80.8956Z" fill="#EA9D8B"/>
<path d="M2.38984 340.652L27.0103 333.546L66.7981 372.599L128.349 354.836L88.5614 315.783L113.182 308.677L213.729 407.368L189.108 414.473L145.586 371.754L84.0347 389.518L127.557 432.236L102.937 439.342L2.38984 340.652Z" fill="#EA9D8B"/>
<path d="M289.642 355.174L240.594 369.329L253.282 395.953L229.431 402.836L176.778 290.324L200.052 283.607L348.493 368.475L324.642 375.358L289.642 355.174ZM265.861 341.604L213.217 311.187L232.2 351.319L265.861 341.604Z" fill="#EA9D8B"/>
<path d="M425.024 348.943C411.431 352.865 397.223 354.229 382.399 353.034C367.703 351.802 353.544 348.165 339.921 342.123C326.203 335.988 314.125 327.797 303.687 317.552C293.345 307.401 287.197 297.621 285.244 288.211C283.323 278.671 285.465 270.269 291.671 263.004C297.909 255.609 307.76 249.969 321.225 246.083C334.176 242.345 347.744 240.923 361.929 241.816L376.76 259.793C369.426 259.599 362.716 259.772 356.629 260.312C350.575 260.722 344.598 261.777 338.7 263.48C324.979 267.44 317.56 273.594 316.443 281.944C315.454 290.257 320.178 299.536 330.616 309.781C341.053 320.026 353.023 327.214 366.524 331.345C380.153 335.439 393.764 335.524 407.356 331.601C413.383 329.862 418.418 327.801 422.462 325.418C426.634 322.998 430.647 320.015 434.502 316.47L454.719 332.893C447.489 339.966 437.591 345.316 425.024 348.943Z" fill="#EA9D8B"/>
<path d="M378.928 231.984L403.548 224.879L504.095 323.569L479.474 330.674L378.928 231.984ZM452.872 270.849L455.29 209.947L484.142 201.62L481.34 262.634L584.688 300.31L555.836 308.637L452.872 270.849Z" fill="#EA9D8B"/>
<path d="M499.744 197.117L550.139 182.573C562.962 178.873 576.386 177.553 590.41 178.614C604.562 179.638 618.242 183.048 631.449 188.845C644.656 194.642 656.431 202.616 666.772 212.767C677.114 222.918 683.247 232.52 685.17 241.574C687.092 250.628 684.999 258.59 678.891 265.461C672.911 272.295 663.509 277.563 650.686 281.263L600.291 295.807L499.744 197.117ZM634.311 265.191C647.134 261.49 653.911 255.764 654.642 248.012C655.406 240.13 650.473 230.972 639.844 220.539C629.215 210.106 617.533 202.956 604.8 199.09C592.099 195.093 579.337 194.945 566.514 198.646L540.739 206.084L608.537 272.629L634.311 265.191Z" fill="#EA9D8B"/>
<path d="M795.205 242.11C776.74 247.439 758.853 247.554 741.544 242.454C724.139 237.26 708.399 227.755 694.322 213.938L636.867 157.544L661.487 150.439L714.203 202.181C721.193 209.042 727.868 214.535 734.227 218.659C740.49 222.69 747.159 225.326 754.232 226.569C761.434 227.774 769.203 227.174 777.538 224.769C785.873 222.363 790.992 219.244 792.894 215.411C794.925 211.541 794.476 207.11 791.546 202.117C788.521 197.03 783.513 191.056 776.523 184.195L723.808 132.453L748.428 125.348L805.884 181.742C819.96 195.559 826.34 207.766 825.023 218.362C823.61 228.865 813.671 236.781 795.205 242.11Z" fill="#EA9D8B"/>
<path d="M776.691 117.191L801.312 110.086L901.859 208.776L877.238 215.881L776.691 117.191ZM850.636 156.056L853.053 95.1537L881.905 86.8271L879.103 147.841L982.452 185.517L953.6 193.844L850.636 156.056Z" fill="#EA9D8B"/>
<path d="M897.508 82.3242L983.68 57.4554L1001.49 74.9377L940.517 92.5345L961.919 113.541L1009.24 99.8858L1027.05 117.368L979.73 131.024L1005.44 156.26L1068.34 138.108L1086.15 155.59L998.055 181.014L897.508 82.3242Z" fill="#EA9D8B"/>
<path d="M2.38984 342.08L27.0103 334.975L66.7981 374.028L128.349 356.264L88.5614 317.211L113.182 310.106L213.729 408.796L189.108 415.901L145.586 373.183L84.0347 390.946L127.557 433.665L102.937 440.77L2.38984 342.08Z" fill="#EA9D8B"/>
<path d="M289.642 356.603L240.594 370.758L253.282 397.381L229.431 404.265L176.778 291.752L200.052 285.036L348.493 369.904L324.642 376.787L289.642 356.603ZM265.861 343.033L213.217 312.616L232.2 352.747L265.861 343.033Z" fill="#EA9D8B"/>
<path d="M425.024 350.371C411.431 354.294 397.223 355.658 382.399 354.463C367.703 353.231 353.544 349.594 339.921 343.552C326.203 337.416 314.125 329.226 303.687 318.981C293.345 308.83 287.197 299.05 285.244 289.64C283.323 280.099 285.465 271.697 291.671 264.433C297.909 257.038 307.76 251.397 321.225 247.512C334.176 243.774 347.744 242.352 361.929 243.245L376.76 261.222C369.426 261.028 362.716 261.2 356.629 261.741C350.575 262.15 344.598 263.206 338.7 264.908C324.979 268.868 317.56 275.023 316.443 283.373C315.454 291.685 320.178 300.964 330.616 311.209C341.053 321.454 353.023 328.642 366.524 332.773C380.153 336.867 393.764 336.953 407.356 333.03C413.383 331.291 418.418 329.229 422.462 326.846C426.634 324.426 430.647 321.443 434.502 317.898L454.719 334.321C447.489 341.395 437.591 346.745 425.024 350.371Z" fill="#EA9D8B"/>
<path d="M378.928 233.413L403.548 226.308L504.095 324.998L479.474 332.103L378.928 233.413ZM452.872 272.278L455.29 211.375L484.142 203.049L481.34 264.062L584.688 301.739L555.836 310.065L452.872 272.278Z" fill="#EA9D8B"/>
<path d="M499.744 198.546L550.139 184.002C562.962 180.301 576.386 178.981 590.41 180.042C604.562 181.067 618.242 184.477 631.449 190.274C644.656 196.071 656.431 204.045 666.772 214.196C677.114 224.347 683.247 233.949 685.17 243.003C687.092 252.056 684.999 260.019 678.891 266.89C672.911 273.724 663.509 278.991 650.686 282.692L600.291 297.236L499.744 198.546ZM634.311 266.62C647.134 262.919 653.911 257.193 654.642 249.441C655.406 241.558 650.473 232.4 639.844 221.967C629.215 211.534 617.533 204.385 604.8 200.519C592.099 196.522 579.337 196.374 566.514 200.074L540.739 207.513L608.537 274.058L634.311 266.62Z" fill="#EA9D8B"/>
<path d="M795.205 243.539C776.74 248.868 758.853 248.982 741.544 243.882C724.139 238.689 708.399 229.184 694.322 215.367L636.867 158.973L661.487 151.867L714.203 203.609C721.193 210.47 727.868 215.963 734.227 220.088C740.49 224.118 747.159 226.755 754.232 227.997C761.434 229.203 769.203 228.603 777.538 226.197C785.873 223.792 790.992 220.673 792.894 216.84C794.925 212.97 794.476 208.538 791.546 203.546C788.521 198.459 783.513 192.485 776.523 185.624L723.808 133.882L748.428 126.777L805.884 183.171C819.96 196.987 826.34 209.194 825.023 219.791C823.61 230.294 813.671 238.209 795.205 243.539Z" fill="#EA9D8B"/>
<path d="M776.691 118.62L801.312 111.515L901.859 210.205L877.238 217.31L776.691 118.62ZM850.636 157.485L853.053 96.5823L881.905 88.2557L879.103 149.269L982.452 186.946L953.6 195.272L850.636 157.485Z" fill="#EA9D8B"/>
<path d="M897.508 83.7528L983.68 58.884L1001.49 76.3663L940.517 93.9631L961.919 114.97L1009.24 101.314L1027.05 118.797L979.73 132.452L1005.44 157.689L1068.34 139.537L1086.15 157.019L998.055 182.443L897.508 83.7528Z" fill="#EA9D8B"/>
<path d="M2.38984 343.509L27.0103 336.403L66.7981 375.456L128.349 357.693L88.5614 318.64L113.182 311.535L213.729 410.225L189.108 417.33L145.586 374.611L84.0347 392.375L127.557 435.093L102.937 442.199L2.38984 343.509Z" fill="#EA9D8B"/>
<path d="M289.642 358.031L240.594 372.187L253.282 398.81L229.431 405.693L176.778 293.181L200.052 286.464L348.493 371.332L324.642 378.215L289.642 358.031ZM265.861 344.461L213.217 314.044L232.2 354.176L265.861 344.461Z" fill="#EA9D8B"/>
<path d="M425.024 351.8C411.431 355.723 397.223 357.086 382.399 355.891C367.703 354.659 353.544 351.023 339.921 344.981C326.203 338.845 314.125 330.654 303.687 320.409C293.345 310.258 287.197 300.478 285.244 291.069C283.323 281.528 285.465 273.126 291.671 265.861C297.909 258.466 307.76 252.826 321.225 248.94C334.176 245.202 347.744 243.78 361.929 244.673L376.76 262.651C369.426 262.456 362.716 262.629 356.629 263.169C350.575 263.579 344.598 264.635 338.7 266.337C324.979 270.297 317.56 276.451 316.443 284.801C315.454 293.114 320.178 302.393 330.616 312.638C341.053 322.883 353.023 330.071 366.524 334.202C380.153 338.296 393.764 338.381 407.356 334.459C413.383 332.719 418.418 330.658 422.462 328.275C426.634 325.855 430.647 322.872 434.502 319.327L454.719 335.75C447.489 342.823 437.591 348.173 425.024 351.8Z" fill="#EA9D8B"/>
<path d="M378.928 234.841L403.548 227.736L504.095 326.426L479.474 333.531L378.928 234.841ZM452.872 273.706L455.29 212.804L484.142 204.477L481.34 265.491L584.688 303.167L555.836 311.494L452.872 273.706Z" fill="#EA9D8B"/>
<path d="M499.744 199.974L550.139 185.43C562.962 181.73 576.386 180.41 590.41 181.471C604.562 182.495 618.242 185.906 631.449 191.702C644.656 197.499 656.431 205.473 666.772 215.624C677.114 225.775 683.247 235.378 685.17 244.431C687.092 253.485 684.999 261.447 678.891 268.318C672.911 275.152 663.509 280.42 650.686 284.121L600.291 298.664L499.744 199.974ZM634.311 268.048C647.134 264.347 653.911 258.621 654.642 250.869C655.406 242.987 650.473 233.829 639.844 223.396C629.215 212.963 617.533 205.813 604.8 201.947C592.099 197.95 579.337 197.802 566.514 201.503L540.739 208.941L608.537 275.487L634.311 268.048Z" fill="#EA9D8B"/>
<path d="M795.205 244.967C776.74 250.296 758.853 250.411 741.544 245.311C724.139 240.117 708.399 230.612 694.322 216.796L636.867 160.401L661.487 153.296L714.203 205.038C721.193 211.899 727.868 217.392 734.227 221.516C740.49 225.547 747.159 228.183 754.232 229.426C761.434 230.631 769.203 230.031 777.538 227.626C785.873 225.22 790.992 222.101 792.894 218.268C794.925 214.398 794.476 209.967 791.546 204.974C788.521 199.888 783.513 193.914 776.523 187.052L723.808 135.31L748.428 128.205L805.884 184.599C819.96 198.416 826.34 210.623 825.023 221.219C823.61 231.722 813.671 239.638 795.205 244.967Z" fill="#EA9D8B"/>
<path d="M776.691 120.048L801.312 112.943L901.859 211.633L877.238 218.739L776.691 120.048ZM850.636 158.913L853.053 98.0108L881.905 89.6842L879.103 150.698L982.452 188.374L953.6 196.701L850.636 158.913Z" fill="#EA9D8B"/>
<path d="M897.508 85.1813L983.68 60.3125L1001.49 77.7948L940.517 95.3917L961.919 116.399L1009.24 102.743L1027.05 120.225L979.73 133.881L1005.44 159.117L1068.34 140.965L1086.15 158.447L998.055 183.871L897.508 85.1813Z" fill="#EA9D8B"/>
<path d="M2.38984 344.937L27.0103 337.832L66.7981 376.885L128.349 359.122L88.5614 320.069L113.182 312.963L213.729 411.653L189.108 418.759L145.586 376.04L84.0347 393.803L127.557 436.522L102.937 443.627L2.38984 344.937Z" fill="#EA9D8B"/>
<path d="M289.642 359.46L240.594 373.615L253.282 400.238L229.431 407.122L176.778 294.61L200.052 287.893L348.493 372.761L324.642 379.644L289.642 359.46ZM265.861 345.89L213.217 315.473L232.2 355.604L265.861 345.89Z" fill="#EA9D8B"/>
<path d="M425.024 353.228C411.431 357.151 397.223 358.515 382.399 357.32C367.703 356.088 353.544 352.451 339.921 346.409C326.203 340.273 314.125 332.083 303.687 321.838C293.345 311.687 287.197 301.907 285.244 292.497C283.323 282.957 285.465 274.554 291.671 267.29C297.909 259.895 307.76 254.254 321.225 250.369C334.176 246.631 347.744 245.209 361.929 246.102L376.76 264.079C369.426 263.885 362.716 264.058 356.629 264.598C350.575 265.007 344.598 266.063 338.7 267.766C324.979 271.725 317.56 277.88 316.443 286.23C315.454 294.543 320.178 303.821 330.616 314.066C341.053 324.311 353.023 331.499 366.524 335.63C380.153 339.724 393.764 339.81 407.356 335.887C413.383 334.148 418.418 332.087 422.462 329.703C426.634 327.283 430.647 324.301 434.502 320.755L454.719 337.179C447.489 344.252 437.591 349.602 425.024 353.228Z" fill="#EA9D8B"/>
<path d="M378.928 236.27L403.548 229.165L504.095 327.855L479.474 334.96L378.928 236.27ZM452.872 275.135L455.29 214.232L484.142 205.906L481.34 266.919L584.688 304.596L555.836 312.922L452.872 275.135Z" fill="#EA9D8B"/>
<path d="M499.744 201.403L550.139 186.859C562.962 183.158 576.386 181.839 590.41 182.9C604.562 183.924 618.242 187.334 631.449 193.131C644.656 198.928 656.431 206.902 666.772 217.053C677.114 227.204 683.247 236.806 685.17 245.86C687.092 254.913 684.999 262.876 678.891 269.747C672.911 276.581 663.509 281.848 650.686 285.549L600.291 300.093L499.744 201.403ZM634.311 269.477C647.134 265.776 653.911 260.05 654.643 252.298C655.406 244.415 650.473 235.257 639.844 224.824C629.215 214.392 617.533 207.242 604.8 203.376C592.099 199.379 579.337 199.231 566.514 202.931L540.739 210.37L608.537 276.915L634.311 269.477Z" fill="#EA9D8B"/>
<path d="M795.205 246.396C776.74 251.725 758.853 251.839 741.544 246.74C724.139 241.546 708.399 232.041 694.322 218.224L636.867 161.83L661.487 154.725L714.203 206.466C721.193 213.328 727.868 218.82 734.227 222.945C740.49 226.975 747.159 229.612 754.232 230.854C761.434 232.06 769.203 231.46 777.538 229.054C785.873 226.649 790.992 223.53 792.894 219.697C794.925 215.827 794.476 211.395 791.546 206.403C788.521 201.316 783.514 195.342 776.523 188.481L723.808 136.739L748.428 129.634L805.884 186.028C819.96 199.845 826.34 212.051 825.023 222.648C823.61 233.151 813.671 241.067 795.205 246.396Z" fill="#EA9D8B"/>
<path d="M776.691 121.477L801.312 114.372L901.859 213.062L877.238 220.167L776.691 121.477ZM850.636 160.342L853.053 99.4394L881.905 91.1128L879.103 152.126L982.452 189.803L953.6 198.129L850.636 160.342Z" fill="#EA9D8B"/>
<path d="M897.508 86.6099L983.68 61.7412L1001.49 79.2234L940.517 96.8203L961.919 117.827L1009.24 104.172L1027.05 121.654L979.73 135.309L1005.44 160.546L1068.34 142.394L1086.15 159.876L998.055 185.3L897.508 86.6099Z" fill="#EA9D8B"/>
<path d="M2.38984 346.366L27.0103 339.261L66.7981 378.314L128.349 360.55L88.5614 321.497L113.182 314.392L213.729 413.082L189.108 420.187L145.586 377.468L84.0347 395.232L127.557 437.951L102.937 445.056L2.38984 346.366Z" fill="#EA9D8B"/>
<path d="M289.642 360.889L240.594 375.044L253.282 401.667L229.431 408.55L176.778 296.038L200.052 289.321L348.493 374.189L324.642 381.073L289.642 360.889ZM265.861 347.319L213.217 316.902L232.2 357.033L265.861 347.319Z" fill="#EA9D8B"/>
<path d="M425.024 354.657C411.431 358.58 397.223 359.944 382.399 358.749C367.703 357.517 353.544 353.88 339.921 347.838C326.203 341.702 314.125 333.511 303.687 323.267C293.345 313.116 287.197 303.335 285.244 293.926C283.323 284.385 285.465 275.983 291.671 268.719C297.909 261.324 307.76 255.683 321.225 251.797C334.176 248.06 347.744 246.637 361.929 247.53L376.76 265.508C369.426 265.313 362.716 265.486 356.629 266.027C350.575 266.436 344.598 267.492 338.7 269.194C324.979 273.154 317.56 279.309 316.443 287.658C315.454 295.971 320.178 305.25 330.616 315.495C341.053 325.74 353.023 332.928 366.524 337.059C380.153 341.153 393.764 341.239 407.356 337.316C413.383 335.576 418.418 333.515 422.462 331.132C426.634 328.712 430.647 325.729 434.502 322.184L454.719 338.607C447.489 345.68 437.591 351.03 425.024 354.657Z" fill="#EA9D8B"/>
<path d="M378.928 237.699L403.548 230.593L504.095 329.283L479.474 336.389L378.928 237.699ZM452.872 276.563L455.29 215.661L484.142 207.334L481.34 268.348L584.688 306.024L555.836 314.351L452.872 276.563Z" fill="#EA9D8B"/>
<path d="M499.744 202.831L550.139 188.288C562.962 184.587 576.386 183.267 590.41 184.328C604.562 185.352 618.242 188.763 631.449 194.56C644.656 200.357 656.431 208.331 666.772 218.482C677.114 228.632 683.247 238.235 685.17 247.288C687.092 256.342 684.999 264.304 678.891 271.175C672.911 278.01 663.509 283.277 650.686 286.978L600.291 301.521L499.744 202.831ZM634.311 270.905C647.134 267.205 653.911 261.478 654.642 253.727C655.406 245.844 650.473 236.686 639.844 226.253C629.215 215.82 617.533 208.671 604.8 204.805C592.099 200.808 579.337 200.659 566.514 204.36L540.739 211.798L608.537 278.344L634.311 270.905Z" fill="#EA9D8B"/>
<path d="M795.205 247.824C776.74 253.153 758.853 253.268 741.544 248.168C724.139 242.974 708.399 233.469 694.322 219.653L636.867 163.258L661.487 156.153L714.203 207.895C721.193 214.756 727.868 220.249 734.227 224.373C740.49 228.404 747.159 231.04 754.232 232.283C761.434 233.488 769.203 232.888 777.538 230.483C785.873 228.077 790.992 224.958 792.894 221.125C794.925 217.255 794.476 212.824 791.546 207.831C788.521 202.745 783.513 196.771 776.523 189.909L723.808 138.168L748.428 131.062L805.884 187.457C819.96 201.273 826.34 213.48 825.023 224.077C823.61 234.579 813.671 242.495 795.205 247.824Z" fill="#EA9D8B"/>
<path d="M776.691 122.906L801.312 115.8L901.859 214.49L877.238 221.596L776.691 122.906ZM850.636 161.771L853.053 100.868L881.905 92.5414L879.103 153.555L982.452 191.231L953.6 199.558L850.636 161.771Z" fill="#EA9D8B"/>
<path d="M897.508 88.0385L983.68 63.1697L1001.49 80.652L940.517 98.2488L961.919 119.256L1009.24 105.6L1027.05 123.082L979.73 136.738L1005.44 161.974L1068.34 143.822L1086.15 161.305L998.055 186.729L897.508 88.0385Z" fill="#EA9D8B"/>
<path d="M2.38984 329.223L27.0103 322.118L66.7981 361.171L128.349 343.407L88.5614 304.354L113.182 297.249L213.729 395.939L189.108 403.044L145.586 360.326L84.0347 378.089L127.557 420.808L102.937 427.913L2.38984 329.223Z" fill="#EA9D8B"/>
<path d="M289.642 343.746L240.594 357.901L253.282 384.524L229.431 391.408L176.778 278.895L200.052 272.179L348.493 357.046L324.642 363.93L289.642 343.746ZM265.861 330.176L213.217 299.759L232.2 339.89L265.861 330.176Z" fill="#EA9D8B"/>
<path d="M425.024 337.514C411.431 341.437 397.223 342.801 382.399 341.606C367.703 340.374 353.544 336.737 339.921 330.695C326.203 324.559 314.125 316.369 303.687 306.124C293.345 295.973 287.197 286.192 285.244 276.783C283.323 267.242 285.465 258.84 291.671 251.576C297.909 244.181 307.76 238.54 321.225 234.655C334.176 230.917 347.744 229.495 361.929 230.388L376.76 248.365C369.426 248.17 362.716 248.343 356.629 248.884C350.575 249.293 344.598 250.349 338.7 252.051C324.979 256.011 317.56 262.166 316.443 270.516C315.454 278.828 320.178 288.107 330.616 298.352C341.053 308.597 353.023 315.785 366.524 319.916C380.153 324.01 393.764 324.096 407.356 320.173C413.383 318.434 418.418 316.372 422.462 313.989C426.634 311.569 430.647 308.586 434.502 305.041L454.719 321.464C447.489 328.538 437.591 333.888 425.024 337.514Z" fill="#EA9D8B"/>
<path d="M378.928 220.556L403.548 213.45L504.095 312.141L479.474 319.246L378.928 220.556ZM452.872 259.421L455.29 198.518L484.142 190.192L481.34 251.205L584.688 288.882L555.836 297.208L452.872 259.421Z" fill="#EA9D8B"/>
<path d="M499.744 185.689L550.139 171.145C562.962 167.444 576.386 166.124 590.41 167.185C604.562 168.209 618.242 171.62 631.449 177.417C644.656 183.214 656.431 191.188 666.772 201.339C677.114 211.49 683.247 221.092 685.17 230.146C687.092 239.199 684.999 247.162 678.891 254.033C672.911 260.867 663.509 266.134 650.686 269.835L600.291 284.379L499.744 185.689ZM634.311 253.763C647.134 250.062 653.911 244.336 654.642 236.584C655.406 228.701 650.473 219.543 639.844 209.11C629.215 198.677 617.533 191.528 604.8 187.662C592.099 183.665 579.337 183.517 566.514 187.217L540.739 194.656L608.537 261.201L634.311 253.763Z" fill="#EA9D8B"/>
<path d="M795.205 230.681C776.74 236.01 758.853 236.125 741.544 231.025C724.139 225.832 708.399 216.327 694.322 202.51L636.867 146.116L661.487 139.01L714.203 190.752C721.193 197.613 727.868 203.106 734.227 207.231C740.49 211.261 747.159 213.898 754.232 215.14C761.434 216.346 769.203 215.746 777.538 213.34C785.873 210.935 790.992 207.816 792.894 203.983C794.925 200.113 794.476 195.681 791.546 190.689C788.521 185.602 783.513 179.628 776.523 172.767L723.808 121.025L748.428 113.92L805.884 170.314C819.96 184.13 826.34 196.337 825.023 206.934C823.61 217.437 813.671 225.352 795.205 230.681Z" fill="#EA9D8B"/>
<path d="M776.691 105.763L801.312 98.6576L901.859 197.348L877.238 204.453L776.691 105.763ZM850.636 144.628L853.053 83.7252L881.905 75.3986L879.103 136.412L982.452 174.089L953.6 182.415L850.636 144.628Z" fill="#EA9D8B"/>
<path d="M897.508 70.8957L983.68 46.027L1001.49 63.5092L940.517 81.1061L961.919 102.113L1009.24 88.4573L1027.05 105.94L979.73 119.595L1005.44 144.832L1068.34 126.68L1086.15 144.162L998.055 169.586L897.508 70.8957Z" fill="#EA9D8B"/>
<path d="M2.38984 327.795L27.0103 320.689L66.7981 359.742L128.349 341.979L88.5614 302.926L113.182 295.82L213.729 394.511L189.108 401.616L145.586 358.897L84.0347 376.661L127.557 419.379L102.937 426.485L2.38984 327.795Z" fill="#EA9D8B"/>
<path d="M289.642 342.317L240.594 356.472L253.282 383.096L229.431 389.979L176.778 277.467L200.052 270.75L348.493 355.618L324.642 362.501L289.642 342.317ZM265.861 328.747L213.217 298.33L232.2 338.462L265.861 328.747Z" fill="#EA9D8B"/>
<path d="M425.024 336.086C411.431 340.008 397.223 341.372 382.399 340.177C367.703 338.945 353.544 335.308 339.921 329.267C326.203 323.131 314.125 314.94 303.687 304.695C293.345 294.544 287.197 284.764 285.244 275.354C283.323 265.814 285.465 257.412 291.671 250.147C297.909 242.752 307.76 237.112 321.225 233.226C334.176 229.488 347.744 228.066 361.929 228.959L376.76 246.936C369.426 246.742 362.716 246.915 356.629 247.455C350.575 247.865 344.598 248.92 338.7 250.623C324.979 254.583 317.56 260.737 316.443 269.087C315.454 277.4 320.178 286.679 330.616 296.924C341.053 307.169 353.023 314.357 366.524 318.488C380.153 322.582 393.764 322.667 407.356 318.744C413.383 317.005 418.418 314.944 422.462 312.561C426.634 310.141 430.647 307.158 434.502 303.613L454.719 320.036C447.489 327.109 437.591 332.459 425.024 336.086Z" fill="#EA9D8B"/>
<path d="M378.928 219.127L403.548 212.022L504.095 310.712L479.474 317.817L378.928 219.127ZM452.872 257.992L455.29 197.09L484.142 188.763L481.34 249.777L584.688 287.453L555.836 295.78L452.872 257.992Z" fill="#EA9D8B"/>
<path d="M499.744 184.26L550.139 169.716C562.962 166.016 576.386 164.696 590.41 165.757C604.562 166.781 618.242 170.191 631.449 175.988C644.656 181.785 656.431 189.759 666.772 199.91C677.114 210.061 683.247 219.663 685.17 228.717C687.092 237.771 684.999 245.733 678.891 252.604C672.911 259.438 663.509 264.706 650.686 268.406L600.291 282.95L499.744 184.26ZM634.311 252.334C647.134 248.633 653.911 242.907 654.643 235.155C655.406 227.273 650.473 218.115 639.844 207.682C629.215 197.249 617.533 190.099 604.8 186.233C592.099 182.236 579.337 182.088 566.514 185.789L540.739 193.227L608.537 259.772L634.311 252.334Z" fill="#EA9D8B"/>
<path d="M795.205 229.253C776.74 234.582 758.853 234.697 741.544 229.597C724.139 224.403 708.399 214.898 694.322 201.081L636.867 144.687L661.487 137.582L714.203 189.324C721.193 196.185 727.868 201.678 734.227 205.802C740.49 209.833 747.159 212.469 754.232 213.712C761.434 214.917 769.203 214.317 777.538 211.912C785.873 209.506 790.992 206.387 792.894 202.554C794.925 198.684 794.476 194.253 791.546 189.26C788.521 184.173 783.513 178.199 776.523 171.338L723.808 119.596L748.428 112.491L805.884 168.885C819.96 182.702 826.34 194.909 825.023 205.505C823.61 216.008 813.671 223.924 795.205 229.253Z" fill="#EA9D8B"/>
<path d="M776.691 104.334L801.312 97.229L901.859 195.919L877.238 203.024L776.691 104.334ZM850.636 143.199L853.053 82.2966L881.905 73.97L879.103 134.984L982.452 172.66L953.6 180.987L850.636 143.199Z" fill="#EA9D8B"/>
<path d="M897.508 69.4672L983.68 44.5984L1001.49 62.0806L940.517 79.6775L961.919 100.684L1009.24 87.0288L1027.05 104.511L979.73 118.167L1005.44 143.403L1068.34 125.251L1086.15 142.733L998.055 168.157L897.508 69.4672Z" fill="#EA9D8B"/>
<path d="M2.38984 326.366L27.0103 319.261L66.7981 358.314L128.349 340.55L88.5614 301.497L113.182 294.392L213.729 393.082L189.108 400.187L145.586 357.469L84.0347 375.232L127.557 417.951L102.937 425.056L2.38984 326.366Z" fill="#EA9D8B"/>
<path d="M289.642 340.889L240.594 355.044L253.282 381.667L229.431 388.55L176.778 276.038L200.052 269.321L348.493 354.189L324.642 361.073L289.642 340.889ZM265.861 327.319L213.217 296.902L232.2 337.033L265.861 327.319Z" fill="#EA9D8B"/>
<path d="M425.024 334.657C411.431 338.58 397.223 339.944 382.399 338.749C367.703 337.517 353.544 333.88 339.921 327.838C326.203 321.702 314.125 313.512 303.687 303.267C293.345 293.116 287.197 283.335 285.244 273.926C283.323 264.385 285.465 255.983 291.671 248.719C297.909 241.324 307.76 235.683 321.225 231.797C334.176 228.06 347.744 226.637 361.929 227.53L376.76 245.508C369.426 245.313 362.716 245.486 356.629 246.027C350.575 246.436 344.598 247.492 338.7 249.194C324.979 253.154 317.56 259.309 316.443 267.658C315.454 275.971 320.178 285.25 330.616 295.495C341.053 305.74 353.023 312.928 366.524 317.059C380.153 321.153 393.764 321.239 407.356 317.316C413.383 315.576 418.418 313.515 422.462 311.132C426.634 308.712 430.647 305.729 434.502 302.184L454.719 318.607C447.489 325.68 437.591 331.03 425.024 334.657Z" fill="#EA9D8B"/>
<path d="M378.928 217.699L403.548 210.593L504.095 309.283L479.474 316.389L378.928 217.699ZM452.872 256.564L455.29 195.661L484.142 187.334L481.34 248.348L584.688 286.024L555.836 294.351L452.872 256.564Z" fill="#EA9D8B"/>
<path d="M499.744 182.832L550.139 168.288C562.962 164.587 576.386 163.267 590.41 164.328C604.562 165.352 618.242 168.763 631.449 174.56C644.656 180.357 656.431 188.331 666.772 198.482C677.114 208.633 683.247 218.235 685.17 227.288C687.092 236.342 684.999 244.304 678.891 251.175C672.911 258.01 663.509 263.277 650.686 266.978L600.291 281.522L499.744 182.832ZM634.311 250.905C647.134 247.205 653.911 241.478 654.642 233.727C655.406 225.844 650.473 216.686 639.844 206.253C629.215 195.82 617.533 188.671 604.8 184.805C592.099 180.808 579.337 180.659 566.514 184.36L540.739 191.799L608.537 258.344L634.311 250.905Z" fill="#EA9D8B"/>
<path d="M795.205 227.824C776.74 233.153 758.853 233.268 741.544 228.168C724.139 222.975 708.399 213.469 694.322 199.653L636.867 143.258L661.487 136.153L714.203 187.895C721.193 194.756 727.868 200.249 734.227 204.374C740.49 208.404 747.159 211.04 754.232 212.283C761.434 213.488 769.203 212.888 777.538 210.483C785.873 208.078 790.992 204.958 792.894 201.125C794.925 197.255 794.476 192.824 791.546 187.831C788.521 182.745 783.513 176.771 776.523 169.909L723.808 118.168L748.428 111.062L805.884 167.457C819.96 181.273 826.34 193.48 825.023 204.077C823.61 214.579 813.671 222.495 795.205 227.824Z" fill="#EA9D8B"/>
<path d="M776.691 102.906L801.312 95.8004L901.859 194.49L877.238 201.596L776.691 102.906ZM850.636 141.771L853.053 80.868L881.905 72.5414L879.103 133.555L982.452 171.231L953.6 179.558L850.636 141.771Z" fill="#EA9D8B"/>
<path d="M897.508 68.0385L983.68 43.1698L1001.49 60.652L940.517 78.2489L961.919 99.2558L1009.24 85.6002L1027.05 103.082L979.73 116.738L1005.44 141.974L1068.34 123.822L1086.15 141.305L998.055 166.729L897.508 68.0385Z" fill="#EA9D8B"/>
<path d="M2.38984 324.937L27.0103 317.832L66.7981 356.885L128.349 339.122L88.5614 300.069L113.182 292.963L213.729 391.653L189.108 398.759L145.586 356.04L84.0347 373.803L127.557 416.522L102.937 423.628L2.38984 324.937Z" fill="#EA9D8B"/>
<path d="M289.642 339.46L240.594 353.615L253.282 380.239L229.431 387.122L176.778 274.61L200.052 267.893L348.493 352.761L324.642 359.644L289.642 339.46ZM265.861 325.89L213.217 295.473L232.2 335.605L265.861 325.89Z" fill="#EA9D8B"/>
<path d="M425.024 333.229C411.431 337.151 397.223 338.515 382.399 337.32C367.703 336.088 353.544 332.451 339.921 326.409C326.203 320.273 314.125 312.083 303.687 301.838C293.345 291.687 287.197 281.907 285.244 272.497C283.323 262.957 285.465 254.554 291.671 247.29C297.909 239.895 307.76 234.255 321.225 230.369C334.176 226.631 347.744 225.209 361.929 226.102L376.76 244.079C369.426 243.885 362.716 244.058 356.629 244.598C350.575 245.007 344.598 246.063 338.7 247.766C324.979 251.725 317.56 257.88 316.443 266.23C315.454 274.543 320.178 283.822 330.616 294.067C341.053 304.312 353.023 311.5 366.524 315.631C380.153 319.725 393.764 319.81 407.356 315.887C413.383 314.148 418.418 312.087 422.462 309.704C426.634 307.283 430.647 304.301 434.502 300.756L454.719 317.179C447.489 324.252 437.591 329.602 425.024 333.229Z" fill="#EA9D8B"/>
<path d="M378.928 216.27L403.548 209.165L504.095 307.855L479.474 314.96L378.928 216.27ZM452.872 255.135L455.29 194.232L484.142 185.906L481.34 246.919L584.688 284.596L555.836 292.923L452.872 255.135Z" fill="#EA9D8B"/>
<path d="M499.744 181.403L550.139 166.859C562.962 163.159 576.386 161.839 590.41 162.9C604.562 163.924 618.242 167.334 631.449 173.131C644.656 178.928 656.431 186.902 666.772 197.053C677.114 207.204 683.247 216.806 685.17 225.86C687.092 234.913 684.999 242.876 678.891 249.747C672.911 256.581 663.509 261.849 650.686 265.549L600.291 280.093L499.744 181.403ZM634.311 249.477C647.134 245.776 653.911 240.05 654.643 232.298C655.406 224.415 650.473 215.258 639.844 204.825C629.215 194.392 617.533 187.242 604.8 183.376C592.099 179.379 579.337 179.231 566.514 182.932L540.739 190.37L608.537 256.915L634.311 249.477Z" fill="#EA9D8B"/>
<path d="M795.205 226.396C776.74 231.725 758.853 231.839 741.544 226.74C724.139 221.546 708.399 212.041 694.322 198.224L636.867 141.83L661.487 134.725L714.203 186.466C721.193 193.328 727.868 198.821 734.227 202.945C740.49 206.976 747.159 209.612 754.232 210.855C761.434 212.06 769.203 211.46 777.538 209.055C785.873 206.649 790.992 203.53 792.894 199.697C794.925 195.827 794.476 191.396 791.546 186.403C788.521 181.316 783.513 175.342 776.523 168.481L723.808 116.739L748.428 109.634L805.884 166.028C819.96 179.845 826.34 192.051 825.023 202.648C823.61 213.151 813.671 221.067 795.205 226.396Z" fill="#EA9D8B"/>
<path d="M776.691 101.477L801.312 94.3719L901.859 193.062L877.238 200.167L776.691 101.477ZM850.636 140.342L853.053 79.4395L881.905 71.1129L879.103 132.127L982.452 169.803L953.6 178.13L850.636 140.342Z" fill="#EA9D8B"/>
<path d="M897.508 66.61L983.68 41.7413L1001.49 59.2235L940.517 76.8204L961.919 97.8273L1009.24 84.1717L1027.05 101.654L979.73 115.31L1005.44 140.546L1068.34 122.394L1086.15 139.876L998.055 165.3L897.508 66.61Z" fill="#EA9D8B"/>
<path d="M2.38984 323.509L27.0103 316.403L66.7981 355.457L128.349 337.693L88.5614 298.64L113.182 291.535L213.729 390.225L189.108 397.33L145.586 354.611L84.0347 372.375L127.557 415.094L102.937 422.199L2.38984 323.509Z" fill="#EA9D8B"/>
<path d="M289.642 338.031L240.594 352.187L253.282 378.81L229.431 385.693L176.778 273.181L200.052 266.464L348.493 351.332L324.642 358.216L289.642 338.031ZM265.861 324.462L213.217 294.044L232.2 334.176L265.861 324.462Z" fill="#EA9D8B"/>
<path d="M425.024 331.8C411.431 335.723 397.223 337.087 382.399 335.892C367.703 334.66 353.544 331.023 339.921 324.981C326.203 318.845 314.125 310.654 303.687 300.409C293.345 290.258 287.197 280.478 285.244 271.069C283.323 261.528 285.465 253.126 291.671 245.862C297.909 238.466 307.76 232.826 321.225 228.94C334.176 225.203 347.744 223.78 361.929 224.673L376.76 242.651C369.426 242.456 362.716 242.629 356.629 243.169C350.575 243.579 344.598 244.635 338.7 246.337C324.979 250.297 317.56 256.452 316.443 264.801C315.454 273.114 320.178 282.393 330.616 292.638C341.053 302.883 353.023 310.071 366.524 314.202C380.153 318.296 393.764 318.381 407.356 314.459C413.383 312.719 418.418 310.658 422.462 308.275C426.634 305.855 430.647 302.872 434.502 299.327L454.719 315.75C447.489 322.823 437.591 328.173 425.024 331.8Z" fill="#EA9D8B"/>
<path d="M378.928 214.842L403.548 207.736L504.095 306.426L479.474 313.532L378.928 214.842ZM452.872 253.706L455.29 192.804L484.142 184.477L481.34 245.491L584.688 283.167L555.836 291.494L452.872 253.706Z" fill="#EA9D8B"/>
<path d="M499.744 179.974L550.139 165.431C562.962 161.73 576.386 160.41 590.41 161.471C604.562 162.495 618.242 165.906 631.449 171.703C644.656 177.5 656.431 185.473 666.772 195.624C677.114 205.775 683.247 215.378 685.17 224.431C687.092 233.485 684.999 241.447 678.891 248.318C672.911 255.153 663.509 260.42 650.686 264.121L600.291 278.664L499.744 179.974ZM634.311 248.048C647.134 244.348 653.911 238.621 654.642 230.87C655.406 222.987 650.473 213.829 639.844 203.396C629.215 192.963 617.533 185.814 604.8 181.947C592.099 177.95 579.337 177.802 566.514 181.503L540.739 188.941L608.537 255.487L634.311 248.048Z" fill="#EA9D8B"/>
<path d="M795.205 224.967C776.74 230.296 758.853 230.411 741.544 225.311C724.139 220.117 708.399 210.612 694.322 196.796L636.867 140.401L661.487 133.296L714.203 185.038C721.193 191.899 727.868 197.392 734.227 201.516C740.49 205.547 747.159 208.183 754.232 209.426C761.434 210.631 769.203 210.031 777.538 207.626C785.873 205.22 790.992 202.101 792.894 198.268C794.925 194.398 794.476 189.967 791.546 184.974C788.521 179.888 783.513 173.914 776.523 167.052L723.808 115.311L748.428 108.205L805.884 164.6C819.96 178.416 826.34 190.623 825.023 201.22C823.61 211.722 813.671 219.638 795.205 224.967Z" fill="#EA9D8B"/>
<path d="M776.691 100.049L801.312 92.9433L901.859 191.633L877.238 198.739L776.691 100.049ZM850.636 138.913L853.053 78.0109L881.905 69.6843L879.103 130.698L982.452 168.374L953.6 176.701L850.636 138.913Z" fill="#EA9D8B"/>
<path d="M897.508 65.1814L983.68 40.3127L1001.49 57.7949L940.517 75.3918L961.919 96.3987L1009.24 82.7431L1027.05 100.225L979.73 113.881L1005.44 139.117L1068.34 120.965L1086.15 138.448L998.055 163.871L897.508 65.1814Z" fill="#EA9D8B"/>
<path d="M2.38984 322.08L27.0103 314.975L66.7981 354.028L128.349 336.265L88.5614 297.212L113.182 290.106L213.729 388.796L189.108 395.902L145.586 353.183L84.0347 370.946L127.557 413.665L102.937 420.77L2.38984 322.08Z" fill="#EA9D8B"/>
<path d="M289.642 336.603L240.594 350.758L253.282 377.381L229.431 384.265L176.778 271.753L200.052 265.036L348.493 349.904L324.642 356.787L289.642 336.603ZM265.861 323.033L213.217 292.616L232.2 332.747L265.861 323.033Z" fill="#EA9D8B"/>
<path d="M425.024 330.371C411.431 334.294 397.223 335.658 382.399 334.463C367.703 333.231 353.544 329.594 339.921 323.552C326.203 317.416 314.125 309.226 303.687 298.981C293.345 288.83 287.197 279.05 285.244 269.64C283.323 260.1 285.465 251.697 291.671 244.433C297.909 237.038 307.76 231.397 321.225 227.512C334.176 223.774 347.744 222.352 361.929 223.245L376.76 241.222C369.426 241.028 362.716 241.201 356.629 241.741C350.575 242.15 344.598 243.206 338.7 244.908C324.979 248.868 317.56 255.023 316.443 263.373C315.454 271.686 320.178 280.964 330.616 291.209C341.053 301.454 353.023 308.642 366.524 312.773C380.153 316.867 393.764 316.953 407.356 313.03C413.383 311.291 418.418 309.23 422.462 306.846C426.634 304.426 430.647 301.444 434.502 297.898L454.719 314.322C447.489 321.395 437.591 326.745 425.024 330.371Z" fill="#EA9D8B"/>
<path d="M378.928 213.413L403.548 206.308L504.095 304.998L479.474 312.103L378.928 213.413ZM452.872 252.278L455.29 191.375L484.142 183.049L481.34 244.062L584.688 281.739L555.836 290.065L452.872 252.278Z" fill="#EA9D8B"/>
<path d="M499.744 178.546L550.139 164.002C562.962 160.301 576.386 158.982 590.41 160.043C604.562 161.067 618.242 164.477 631.449 170.274C644.656 176.071 656.431 184.045 666.772 194.196C677.114 204.347 683.247 213.949 685.17 223.003C687.092 232.056 684.999 240.019 678.891 246.89C672.911 253.724 663.509 258.991 650.686 262.692L600.291 277.236L499.744 178.546ZM634.311 246.62C647.134 242.919 653.911 237.193 654.643 229.441C655.406 221.558 650.473 212.4 639.844 201.967C629.215 191.534 617.533 184.385 604.8 180.519C592.099 176.522 579.337 176.374 566.514 180.074L540.739 187.513L608.537 254.058L634.311 246.62Z" fill="#EA9D8B"/>
<path d="M795.205 223.539C776.74 228.868 758.853 228.982 741.544 223.883C724.139 218.689 708.399 209.184 694.322 195.367L636.867 138.973L661.487 131.867L714.203 183.609C721.193 190.471 727.868 195.963 734.227 200.088C740.49 204.118 747.159 206.755 754.232 207.997C761.434 209.203 769.203 208.603 777.538 206.197C785.873 203.792 790.992 200.673 792.894 196.84C794.925 192.97 794.476 188.538 791.546 183.546C788.521 178.459 783.513 172.485 776.523 165.624L723.808 113.882L748.428 106.777L805.884 163.171C819.96 176.988 826.34 189.194 825.023 199.791C823.61 210.294 813.671 218.21 795.205 223.539Z" fill="#EA9D8B"/>
<path d="M776.691 98.6201L801.312 91.5147L901.859 190.205L877.238 197.31L776.691 98.6201ZM850.636 137.485L853.053 76.5823L881.905 68.2557L879.103 129.269L982.452 166.946L953.6 175.272L850.636 137.485Z" fill="#EA9D8B"/>
<path d="M897.508 63.7529L983.68 38.8841L1001.49 56.3663L940.517 73.9632L961.919 94.9701L1009.24 81.3145L1027.05 98.7967L979.73 112.452L1005.44 137.689L1068.34 119.537L1086.15 137.019L998.055 162.443L897.508 63.7529Z" fill="#EA9D8B"/>
<path d="M2.38984 320.652L27.0103 313.546L66.7981 352.599L128.349 334.836L88.5614 295.783L113.182 288.678L213.729 387.368L189.108 394.473L145.586 351.754L84.0347 369.518L127.557 412.236L102.937 419.342L2.38984 320.652Z" fill="#EA9D8B"/>
<path d="M289.642 335.174L240.594 349.33L253.282 375.953L229.431 382.836L176.778 270.324L200.052 263.607L348.493 348.475L324.642 355.358L289.642 335.174ZM265.861 321.604L213.217 291.187L232.2 331.319L265.861 321.604Z" fill="#EA9D8B"/>
<path d="M425.024 328.943C411.431 332.866 397.223 334.229 382.399 333.034C367.703 331.802 353.544 328.166 339.921 322.124C326.203 315.988 314.125 307.797 303.687 297.552C293.345 287.401 287.197 277.621 285.244 268.212C283.323 258.671 285.465 250.269 291.671 243.004C297.909 235.609 307.76 229.969 321.225 226.083C334.176 222.345 347.744 220.923 361.929 221.816L376.76 239.794C369.426 239.599 362.716 239.772 356.629 240.312C350.575 240.722 344.598 241.778 338.7 243.48C324.979 247.44 317.56 253.594 316.443 261.944C315.454 270.257 320.178 279.536 330.616 289.781C341.053 300.026 353.023 307.214 366.524 311.345C380.153 315.439 393.764 315.524 407.356 311.602C413.383 309.862 418.418 307.801 422.462 305.418C426.634 302.998 430.647 300.015 434.502 296.47L454.719 312.893C447.489 319.966 437.591 325.316 425.024 328.943Z" fill="#EA9D8B"/>
<path d="M378.928 211.984L403.548 204.879L504.095 303.569L479.474 310.675L378.928 211.984ZM452.872 250.849L455.29 189.947L484.142 181.62L481.34 242.634L584.688 280.31L555.836 288.637L452.872 250.849Z" fill="#EA9D8B"/>
<path d="M499.744 177.117L550.139 162.574C562.962 158.873 576.386 157.553 590.41 158.614C604.562 159.638 618.242 163.049 631.449 168.845C644.656 174.642 656.431 182.616 666.772 192.767C677.114 202.918 683.247 212.521 685.17 221.574C687.092 230.628 684.999 238.59 678.891 245.461C672.911 252.295 663.509 257.563 650.686 261.264L600.291 275.807L499.744 177.117ZM634.311 245.191C647.134 241.49 653.911 235.764 654.642 228.012C655.406 220.13 650.473 210.972 639.844 200.539C629.215 190.106 617.533 182.956 604.8 179.09C592.099 175.093 579.337 174.945 566.514 178.646L540.739 186.084L608.537 252.63L634.311 245.191Z" fill="#EA9D8B"/>
<path d="M795.205 222.11C776.74 227.439 758.853 227.554 741.544 222.454C724.139 217.26 708.399 207.755 694.322 193.939L636.867 137.544L661.487 130.439L714.203 182.181C721.193 189.042 727.868 194.535 734.227 198.659C740.49 202.69 747.159 205.326 754.232 206.569C761.434 207.774 769.203 207.174 777.538 204.769C785.873 202.363 790.992 199.244 792.894 195.411C794.925 191.541 794.476 187.11 791.546 182.117C788.521 177.031 783.513 171.057 776.523 164.195L723.808 112.453L748.428 105.348L805.884 161.742C819.96 175.559 826.34 187.766 825.023 198.362C823.61 208.865 813.671 216.781 795.205 222.11Z" fill="#EA9D8B"/>
<path d="M776.691 97.1915L801.312 90.0861L901.859 188.776L877.238 195.882L776.691 97.1915ZM850.636 136.056L853.053 75.1538L881.905 66.8272L879.103 127.841L982.452 165.517L953.6 173.844L850.636 136.056Z" fill="#EA9D8B"/>
<path d="M897.508 62.3243L983.68 37.4555L1001.49 54.9378L940.517 72.5347L961.919 93.5415L1009.24 79.8859L1027.05 97.3682L979.73 111.024L1005.44 136.26L1068.34 118.108L1086.15 135.59L998.055 161.014L897.508 62.3243Z" fill="#EA9D8B"/>
<path d="M2.38984 319.223L27.0103 312.118L66.7981 351.171L128.349 333.408L88.5614 294.354L113.182 287.249L213.729 385.939L189.108 393.044L145.586 350.326L84.0347 368.089L127.557 410.808L102.937 417.913L2.38984 319.223Z" fill="#EA9D8B"/>
<path d="M289.642 333.746L240.594 347.901L253.282 374.524L229.431 381.408L176.778 268.895L200.052 262.179L348.493 347.047L324.642 353.93L289.642 333.746ZM265.861 320.176L213.217 289.759L232.2 329.89L265.861 320.176Z" fill="#EA9D8B"/>
<path d="M425.024 327.514C411.431 331.437 397.223 332.801 382.399 331.606C367.703 330.374 353.544 326.737 339.921 320.695C326.203 314.559 314.125 306.369 303.687 296.124C293.345 285.973 287.197 276.193 285.244 266.783C283.323 257.242 285.465 248.84 291.671 241.576C297.909 234.181 307.76 228.54 321.225 224.655C334.176 220.917 347.744 219.495 361.929 220.388L376.76 238.365C369.426 238.171 362.716 238.343 356.629 238.884C350.575 239.293 344.598 240.349 338.7 242.051C324.979 246.011 317.56 252.166 316.443 260.516C315.454 268.828 320.178 278.107 330.616 288.352C341.053 298.597 353.023 305.785 366.524 309.916C380.153 314.01 393.764 314.096 407.356 310.173C413.383 308.434 418.418 306.372 422.462 303.989C426.634 301.569 430.647 298.586 434.502 295.041L454.719 311.464C447.489 318.538 437.591 323.888 425.024 327.514Z" fill="#EA9D8B"/>
<path d="M378.928 210.556L403.548 203.451L504.095 302.141L479.474 309.246L378.928 210.556ZM452.872 249.421L455.29 188.518L484.142 180.192L481.34 241.205L584.688 278.882L555.836 287.208L452.872 249.421Z" fill="#EA9D8B"/>
<path d="M499.744 175.689L550.139 161.145C562.962 157.444 576.386 156.124 590.41 157.185C604.562 158.21 618.242 161.62 631.449 167.417C644.656 173.214 656.431 181.188 666.772 191.339C677.114 201.49 683.247 211.092 685.17 220.146C687.092 229.199 684.999 237.162 678.891 244.033C672.911 250.867 663.509 256.134 650.686 259.835L600.291 274.379L499.744 175.689ZM634.311 243.763C647.134 240.062 653.911 234.336 654.643 226.584C655.406 218.701 650.473 209.543 639.844 199.11C629.215 188.677 617.533 181.528 604.8 177.662C592.099 173.665 579.337 173.517 566.514 177.217L540.739 184.656L608.537 251.201L634.311 243.763Z" fill="#EA9D8B"/>
<path d="M795.205 220.682C776.74 226.011 758.853 226.125 741.544 221.025C724.139 215.832 708.399 206.327 694.322 192.51L636.867 136.116L661.487 129.01L714.203 180.752C721.193 187.613 727.868 193.106 734.227 197.231C740.49 201.261 747.159 203.898 754.232 205.14C761.434 206.346 769.203 205.746 777.538 203.34C785.873 200.935 790.992 197.816 792.894 193.983C794.925 190.113 794.476 185.681 791.546 180.689C788.521 175.602 783.513 169.628 776.523 162.767L723.808 111.025L748.428 103.92L805.884 160.314C819.96 174.13 826.34 186.337 825.023 196.934C823.61 207.437 813.671 215.352 795.205 220.682Z" fill="#EA9D8B"/>
<path d="M776.691 95.7629L801.312 88.6576L901.859 187.348L877.238 194.453L776.691 95.7629ZM850.636 134.628L853.053 73.7252L881.905 65.3986L879.103 126.412L982.452 164.089L953.6 172.415L850.636 134.628Z" fill="#EA9D8B"/>
<path d="M897.508 60.8957L983.68 36.027L1001.49 53.5092L940.517 71.1061L961.919 92.113L1009.24 78.4574L1027.05 95.9396L979.73 109.595L1005.44 134.832L1068.34 116.68L1086.15 134.162L998.055 159.586L897.508 60.8957Z" fill="#EA9D8B"/>
<path d="M2.38984 317.795L27.0103 310.689L66.7981 349.742L128.349 331.979L88.5614 292.926L113.182 285.821L213.729 384.511L189.108 391.616L145.586 348.897L84.0347 366.661L127.557 409.379L102.937 416.485L2.38984 317.795Z" fill="#EA9D8B"/>
<path d="M289.642 332.317L240.594 346.473L253.282 373.096L229.431 379.979L176.778 267.467L200.052 260.75L348.493 345.618L324.642 352.501L289.642 332.317ZM265.861 318.747L213.217 288.33L232.2 328.462L265.861 318.747Z" fill="#EA9D8B"/>
<path d="M425.024 326.086C411.431 330.009 397.223 331.372 382.399 330.177C367.703 328.945 353.544 325.308 339.921 319.267C326.203 313.131 314.125 304.94 303.687 294.695C293.345 284.544 287.197 274.764 285.244 265.354C283.323 255.814 285.465 247.412 291.671 240.147C297.909 232.752 307.76 227.112 321.225 223.226C334.176 219.488 347.744 218.066 361.929 218.959L376.76 236.937C369.426 236.742 362.716 236.915 356.629 237.455C350.575 237.865 344.598 238.921 338.7 240.623C324.979 244.583 317.56 250.737 316.443 259.087C315.454 267.4 320.178 276.679 330.616 286.924C341.053 297.169 353.023 304.357 366.524 308.488C380.153 312.582 393.764 312.667 407.356 308.745C413.383 307.005 418.418 304.944 422.462 302.561C426.634 300.141 430.647 297.158 434.502 293.613L454.719 310.036C447.489 317.109 437.591 322.459 425.024 326.086Z" fill="#EA9D8B"/>
<path d="M378.928 209.127L403.548 202.022L504.095 300.712L479.474 307.817L378.928 209.127ZM452.872 247.992L455.29 187.09L484.142 178.763L481.34 239.777L584.688 277.453L555.836 285.78L452.872 247.992Z" fill="#EA9D8B"/>
<path d="M499.744 174.26L550.139 159.716C562.962 156.016 576.386 154.696 590.41 155.757C604.562 156.781 618.242 160.191 631.449 165.988C644.656 171.785 656.431 179.759 666.772 189.91C677.114 200.061 683.247 209.664 685.17 218.717C687.092 227.771 684.999 235.733 678.891 242.604C672.911 249.438 663.509 254.706 650.686 258.407L600.291 272.95L499.744 174.26ZM634.311 242.334C647.134 238.633 653.911 232.907 654.643 225.155C655.406 217.273 650.473 208.115 639.844 197.682C629.215 187.249 617.533 180.099 604.8 176.233C592.099 172.236 579.337 172.088 566.514 175.789L540.739 183.227L608.537 249.773L634.311 242.334Z" fill="#EA9D8B"/>
<path d="M795.205 219.253C776.74 224.582 758.853 224.697 741.544 219.597C724.139 214.403 708.399 204.898 694.322 191.082L636.867 134.687L661.487 127.582L714.203 179.324C721.193 186.185 727.868 191.678 734.227 195.802C740.49 199.833 747.159 202.469 754.232 203.712C761.434 204.917 769.203 204.317 777.538 201.912C785.873 199.506 790.992 196.387 792.894 192.554C794.925 188.684 794.476 184.253 791.546 179.26C788.521 174.173 783.513 168.199 776.523 161.338L723.808 109.596L748.428 102.491L805.884 158.885C819.96 172.702 826.34 184.909 825.023 195.505C823.61 206.008 813.671 213.924 795.205 219.253Z" fill="#EA9D8B"/>
<path d="M776.691 94.3344L801.312 87.2291L901.859 185.919L877.238 193.024L776.691 94.3344ZM850.636 133.199L853.053 72.2967L881.905 63.9701L879.103 124.984L982.452 162.66L953.6 170.987L850.636 133.199Z" fill="#EA9D8B"/>
<path d="M897.508 59.4672L983.68 34.5985L1001.49 52.0807L940.517 69.6776L961.919 90.6845L1009.24 77.0289L1027.05 94.5111L979.73 108.167L1005.44 133.403L1068.34 115.251L1086.15 132.733L998.055 158.157L897.508 59.4672Z" fill="#EA9D8B"/>
<path d="M2.38984 316.366L27.0103 309.261L66.7981 348.314L128.349 330.55L88.5614 291.497L113.182 284.392L213.729 383.082L189.108 390.187L145.586 347.469L84.0347 365.232L127.557 407.951L102.937 415.056L2.38984 316.366Z" fill="#EA9D8B"/>
<path d="M289.642 330.889L240.594 345.044L253.282 371.667L229.431 378.55L176.778 266.038L200.052 259.321L348.493 344.189L324.642 351.073L289.642 330.889ZM265.861 317.319L213.217 286.902L232.2 327.033L265.861 317.319Z" fill="#EA9D8B"/>
<path d="M425.024 324.657C411.431 328.58 397.223 329.944 382.399 328.749C367.703 327.517 353.544 323.88 339.921 317.838C326.203 311.702 314.125 303.512 303.687 293.267C293.345 283.116 287.197 273.335 285.244 263.926C283.323 254.385 285.465 245.983 291.671 238.719C297.909 231.324 307.76 225.683 321.225 221.797C334.176 218.06 347.744 216.637 361.929 217.53L376.76 235.508C369.426 235.313 362.716 235.486 356.629 236.027C350.575 236.436 344.598 237.492 338.7 239.194C324.979 243.154 317.56 249.309 316.443 257.659C315.454 265.971 320.178 275.25 330.616 285.495C341.053 295.74 353.023 302.928 366.524 307.059C380.153 311.153 393.764 311.239 407.356 307.316C413.383 305.577 418.418 303.515 422.462 301.132C426.634 298.712 430.647 295.729 434.502 292.184L454.719 308.607C447.489 315.68 437.591 321.03 425.024 324.657Z" fill="#EA9D8B"/>
<path d="M378.928 207.699L403.548 200.593L504.095 299.283L479.474 306.389L378.928 207.699ZM452.872 246.564L455.29 185.661L484.142 177.334L481.34 238.348L584.688 276.024L555.836 284.351L452.872 246.564Z" fill="#EA9D8B"/>
<path d="M499.744 172.832L550.139 158.288C562.962 154.587 576.386 153.267 590.41 154.328C604.562 155.352 618.242 158.763 631.449 164.56C644.656 170.357 656.431 178.331 666.772 188.482C677.114 198.633 683.247 208.235 685.17 217.288C687.092 226.342 684.999 234.304 678.891 241.176C672.911 248.01 663.509 253.277 650.686 256.978L600.291 271.522L499.744 172.832ZM634.311 240.905C647.134 237.205 653.911 231.479 654.642 223.727C655.406 215.844 650.473 206.686 639.844 196.253C629.215 185.82 617.533 178.671 604.8 174.805C592.099 170.808 579.337 170.659 566.514 174.36L540.739 181.799L608.537 248.344L634.311 240.905Z" fill="#EA9D8B"/>
<path d="M795.205 217.824C776.74 223.153 758.853 223.268 741.544 218.168C724.139 212.975 708.399 203.47 694.322 189.653L636.867 133.259L661.487 126.153L714.203 177.895C721.193 184.756 727.868 190.249 734.227 194.374C740.49 198.404 747.159 201.041 754.232 202.283C761.434 203.489 769.203 202.889 777.538 200.483C785.873 198.078 790.992 194.958 792.894 191.125C794.925 187.255 794.476 182.824 791.546 177.831C788.521 172.745 783.513 166.771 776.523 159.91L723.808 108.168L748.428 101.062L805.884 157.457C819.96 171.273 826.34 183.48 825.023 194.077C823.61 204.579 813.671 212.495 795.205 217.824Z" fill="#EA9D8B"/>
<path d="M776.691 92.9058L801.312 85.8005L901.859 184.491L877.238 191.596L776.691 92.9058ZM850.636 131.771L853.053 70.8681L881.905 62.5415L879.103 123.555L982.452 161.232L953.6 169.558L850.636 131.771Z" fill="#EA9D8B"/>
<path d="M897.508 58.0386L983.68 33.1699L1001.49 50.6521L940.517 68.249L961.919 89.2559L1009.24 75.6003L1027.05 93.0825L979.73 106.738L1005.44 131.975L1068.34 113.823L1086.15 131.305L998.055 156.729L897.508 58.0386Z" fill="#EA9D8B"/>
<path d="M2.38984 314.937L27.0103 307.832L66.7981 346.885L128.349 329.122L88.5614 290.069L113.182 282.963L213.729 381.653L189.108 388.759L145.586 346.04L84.0347 363.803L127.557 406.522L102.937 413.628L2.38984 314.937Z" fill="#EA9D8B"/>
<path d="M289.642 329.46L240.594 343.615L253.282 370.239L229.431 377.122L176.778 264.61L200.052 257.893L348.493 342.761L324.642 349.644L289.642 329.46ZM265.861 315.89L213.217 285.473L232.2 325.605L265.861 315.89Z" fill="#EA9D8B"/>
<path d="M425.024 323.229C411.431 327.151 397.223 328.515 382.399 327.32C367.703 326.088 353.544 322.451 339.921 316.409C326.203 310.273 314.125 302.083 303.687 291.838C293.345 281.687 287.197 271.907 285.244 262.497C283.323 252.957 285.465 244.554 291.671 237.29C297.909 229.895 307.76 224.255 321.225 220.369C334.176 216.631 347.744 215.209 361.929 216.102L376.76 234.079C369.426 233.885 362.716 234.058 356.629 234.598C350.575 235.008 344.598 236.063 338.7 237.766C324.979 241.725 317.56 247.88 316.443 256.23C315.454 264.543 320.178 273.822 330.616 284.067C341.053 294.312 353.023 301.5 366.524 305.631C380.153 309.724 393.764 309.81 407.356 305.887C413.383 304.148 418.418 302.087 422.462 299.704C426.634 297.283 430.647 294.301 434.502 290.756L454.719 307.179C447.489 314.252 437.591 319.602 425.024 323.229Z" fill="#EA9D8B"/>
<path d="M378.928 206.27L403.548 199.165L504.095 297.855L479.474 304.96L378.928 206.27ZM452.872 245.135L455.29 184.232L484.142 175.906L481.34 236.919L584.688 274.596L555.836 282.923L452.872 245.135Z" fill="#EA9D8B"/>
<path d="M499.744 171.403L550.139 156.859C562.962 153.159 576.386 151.839 590.41 152.9C604.562 153.924 618.242 157.334 631.449 163.131C644.656 168.928 656.431 176.902 666.772 187.053C677.114 197.204 683.247 206.806 685.17 215.86C687.092 224.913 684.999 232.876 678.891 239.747C672.911 246.581 663.509 251.849 650.686 255.549L600.291 270.093L499.744 171.403ZM634.311 239.477C647.134 235.776 653.911 230.05 654.642 222.298C655.406 214.415 650.473 205.258 639.844 194.825C629.215 184.392 617.533 177.242 604.8 173.376C592.099 169.379 579.337 169.231 566.514 172.932L540.739 180.37L608.537 246.915L634.311 239.477Z" fill="#EA9D8B"/>
<path d="M795.205 216.396C776.74 221.725 758.853 221.839 741.544 216.74C724.139 211.546 708.399 202.041 694.322 188.224L636.867 131.83L661.487 124.725L714.203 176.466C721.193 183.328 727.868 188.821 734.227 192.945C740.49 196.976 747.159 199.612 754.232 200.855C761.434 202.06 769.203 201.46 777.538 199.055C785.873 196.649 790.992 193.53 792.894 189.697C794.925 185.827 794.476 181.396 791.546 176.403C788.521 171.316 783.513 165.342 776.523 158.481L723.808 106.739L748.428 99.6339L805.884 156.028C819.96 169.845 826.34 182.051 825.023 192.648C823.61 203.151 813.671 211.067 795.205 216.396Z" fill="#EA9D8B"/>
<path d="M776.691 91.4773L801.312 84.3719L901.859 183.062L877.238 190.167L776.691 91.4773ZM850.636 130.342L853.053 69.4396L881.905 61.113L879.103 122.127L982.452 159.803L953.6 168.13L850.636 130.342Z" fill="#EA9D8B"/>
<path d="M897.508 56.6101L983.68 31.7413L1001.49 49.2236L940.517 66.8204L961.919 87.8273L1009.24 74.1717L1027.05 91.6539L979.73 105.31L1005.44 130.546L1068.34 112.394L1086.15 129.876L998.055 155.3L897.508 56.6101Z" fill="#EA9D8B"/>
<path d="M1.99827 313.797L26.5945 306.699L66.1315 345.506L127.622 327.76L88.085 288.953L112.681 281.854L212.594 379.922L187.998 387.021L144.75 344.571L83.2595 362.317L126.508 404.767L101.911 411.865L1.99827 313.797Z" fill="#AFE0D0"/>
<path d="M288.56 327.905L239.56 342.046L252.108 368.519L228.281 375.395L176.215 263.519L199.466 256.809L347.226 341.068L323.399 347.945L288.56 327.905ZM264.888 314.432L212.487 284.233L231.26 324.137L264.888 314.432Z" fill="#AFE0D0"/>
<path d="M423.671 321.545C410.092 325.464 395.909 326.837 381.122 325.666C366.464 324.458 352.351 320.856 338.783 314.861C325.121 308.773 313.103 300.638 302.731 290.458C292.455 280.371 286.361 270.648 284.451 261.289C282.574 251.799 284.747 243.437 290.97 236.202C297.225 228.837 307.079 223.214 320.53 219.332C333.468 215.598 347.013 214.167 361.162 215.039L375.886 232.907C368.569 232.722 361.873 232.902 355.797 233.447C349.754 233.861 343.787 234.919 337.894 236.619C324.187 240.575 316.758 246.708 315.608 255.016C314.586 263.288 319.262 272.514 329.633 282.694C340.005 292.875 351.918 300.012 365.373 304.106C378.955 308.163 392.536 308.232 406.115 304.313C412.136 302.575 417.168 300.518 421.213 298.143C425.386 295.73 429.403 292.758 433.264 289.226L453.368 305.541C446.124 312.587 436.225 317.922 423.671 321.545Z" fill="#AFE0D0"/>
<path d="M378.165 205.237L402.762 198.138L502.675 296.207L478.078 303.305L378.165 205.237ZM451.785 243.816L454.452 183.221L483.276 174.902L480.224 235.608L583.189 272.97L554.365 281.289L451.785 243.816Z" fill="#AFE0D0"/>
<path d="M498.863 170.404L549.208 155.874C562.019 152.177 575.418 150.848 589.407 151.887C603.524 152.889 617.159 156.266 630.313 162.018C643.467 167.77 655.183 175.689 665.459 185.776C675.736 195.863 681.815 205.409 683.695 214.414C685.576 223.42 683.455 231.344 677.331 238.187C671.335 244.994 661.932 250.246 649.121 253.943L598.776 268.472L498.863 170.404ZM632.85 237.971C645.66 234.274 652.447 228.569 653.208 220.856C654.003 213.013 649.119 203.907 638.557 193.54C627.995 183.173 616.369 176.074 603.68 172.242C591.024 168.281 578.29 168.148 565.48 171.846L539.731 179.277L607.101 245.403L632.85 237.971Z" fill="#AFE0D0"/>
<path d="M793.488 214.817C775.041 220.141 757.192 220.276 739.943 215.223C722.598 210.076 706.932 200.638 692.944 186.909L635.85 130.87L660.447 123.772L712.83 175.187C719.776 182.005 726.413 187.462 732.741 191.558C738.974 195.561 745.617 198.176 752.67 199.404C759.851 200.594 767.605 199.988 775.931 197.585C784.258 195.182 789.379 192.073 791.293 188.257C793.336 184.404 792.906 179.996 790.004 175.032C787.007 169.975 782.035 164.038 775.089 157.22L722.706 105.804L747.302 98.7054L804.395 154.744C818.383 168.474 824.698 180.611 823.339 191.155C821.885 201.606 811.935 209.493 793.488 214.817Z" fill="#AFE0D0"/>
<path d="M775.537 90.5568L800.133 83.4585L900.047 181.527L875.45 188.625L775.537 90.5568ZM849.157 129.136L851.824 68.5408L880.648 60.2225L877.596 120.929L980.561 158.291L951.737 166.609L849.157 129.136Z" fill="#AFE0D0"/>
<path d="M896.235 55.724L982.322 30.8797L1000.02 48.2518L939.106 65.8314L960.374 86.7059L1007.64 73.0637L1025.34 90.4357L978.073 104.078L1003.62 129.155L1066.46 111.021L1084.16 128.393L996.148 153.792L896.235 55.724Z" fill="#AFE0D0"/>
<path fill-rule="evenodd" clip-rule="evenodd" d="M84.2595 333.953L145.75 316.208L188.998 358.657L213.594 351.559L113.681 253.491L89.085 260.589L128.622 299.396L67.1315 317.142L27.5945 278.335L2.99827 285.433L102.911 383.501L127.508 376.403L84.2595 333.953ZM120.81 374.71L77.5617 332.261L146.739 312.296L189.987 354.746L206.897 349.866L112.693 257.402L95.7828 262.282L135.32 301.089L66.143 321.053L26.606 282.246L9.69608 287.126L103.9 379.59L120.81 374.71ZM289.434 295.952L324.272 315.992L339.926 311.474L200.609 232.029L182.782 237.174L231.872 342.658L247.525 338.141L234.977 311.668L289.434 295.952ZM253.108 340.155L229.281 347.032L177.215 235.155L200.466 228.445L348.226 312.704L324.399 319.581L289.56 299.541L240.56 313.683L253.108 340.155ZM274.149 287.31L229.688 300.142L204.866 247.381L274.149 287.31ZM213.487 255.869L232.26 295.773L265.888 286.069L213.487 255.869ZM291.97 207.838C285.747 215.073 283.574 223.435 285.451 232.925C287.361 242.284 293.455 252.007 303.731 262.094C314.103 272.275 326.121 280.409 339.783 286.497C353.351 292.492 367.464 296.094 382.122 297.302C396.909 298.474 411.092 297.1 424.671 293.181C437.225 289.558 447.124 284.223 454.368 277.178L434.264 260.862C433.431 261.624 432.59 262.361 431.742 263.071C428.661 265.651 425.485 267.887 422.213 269.779C418.168 272.155 413.136 274.211 407.115 275.949C393.536 279.868 379.955 279.799 366.373 275.742C352.918 271.648 341.005 264.511 330.633 254.33C320.262 244.15 315.586 234.924 316.608 226.652C317.758 218.344 325.187 212.212 338.894 208.256C344.787 206.555 350.755 205.497 356.797 205.083C361.506 204.661 366.587 204.458 372.04 204.474C373.624 204.478 375.239 204.501 376.886 204.543L362.162 186.675C348.013 185.803 334.468 187.234 321.53 190.968C308.079 194.85 298.225 200.474 291.97 207.838ZM359.716 189.517C347.554 189.086 335.782 190.481 324.384 193.77C311.514 197.484 302.215 202.822 296.33 209.752L296.326 209.756L296.321 209.761C290.478 216.555 288.433 224.391 290.201 233.336C291.994 242.109 297.716 251.309 307.575 260.985C317.541 270.768 328.956 278.461 341.785 284.18C354.535 289.813 367.733 293.179 381.481 294.313C395.365 295.412 408.8 294.135 421.816 290.379C432.879 287.186 441.756 282.615 448.485 276.659L435.137 265.826C432.173 268.249 429.104 270.383 425.924 272.222C421.591 274.767 416.256 276.937 409.969 278.751C395.536 282.916 380.56 282.962 365.33 278.413L365.309 278.407L365.289 278.4C350.467 273.89 337.658 266.107 326.79 255.439C315.91 244.76 310.708 234.773 311.834 225.66L311.835 225.648L311.837 225.636C313.124 216.336 321.488 209.653 336.039 205.454C342.217 203.671 348.545 202.539 355.026 202.09C359.566 201.685 364.411 201.476 369.557 201.46L359.716 189.517ZM403.762 169.775L379.165 176.873L479.078 274.941L503.675 267.843L403.762 169.775ZM452.785 215.452L555.365 252.925L584.189 244.607L481.224 207.245L484.276 146.539L455.452 154.857L452.785 215.452ZM460.176 157.119L457.665 214.167L554.511 249.546L573.92 243.944L476.331 208.533L479.191 151.632L460.176 157.119ZM496.977 266.15L402.773 173.686L385.863 178.566L480.067 271.03L496.977 266.15ZM590.407 123.524C576.418 122.485 563.019 123.814 550.208 127.511L499.863 142.04L599.776 240.108L650.121 225.579C662.932 221.882 672.335 216.63 678.331 209.824C684.455 202.98 686.576 195.056 684.695 186.051C682.815 177.045 676.736 167.499 666.459 157.412C656.183 147.325 644.467 139.406 631.313 133.654C618.159 127.902 604.524 124.526 590.407 123.524ZM600.765 236.197L647.267 222.777C659.524 219.239 668.377 214.26 673.995 207.882L674.001 207.876L674.006 207.87C679.73 201.474 681.711 194.092 679.949 185.656C678.193 177.25 672.501 168.224 662.616 158.522C652.731 148.819 641.623 141.356 629.345 135.987C617.022 130.598 604.318 127.455 591.124 126.518L591.111 126.517L591.099 126.516C577.99 125.543 565.32 126.775 553.063 130.313L506.561 143.733L600.765 236.197ZM608.101 217.039L540.731 150.913L566.48 143.482C579.29 139.785 592.024 139.917 604.68 143.879C617.369 147.71 628.995 154.809 639.557 165.176C650.119 175.543 655.003 184.649 654.208 192.492C653.447 200.205 646.66 205.911 633.85 209.608L608.101 217.039ZM605.788 141.227C591.449 136.747 577.288 136.737 563.625 140.68L534.033 149.22L607.112 220.95L636.705 212.41C650.357 208.47 658.12 202.2 658.987 193.447C659.871 184.728 654.4 174.864 643.4 164.067C632.415 153.284 619.917 145.501 605.788 141.227ZM733.741 163.194C727.413 159.098 720.776 153.641 713.83 146.823L661.447 95.4077L636.85 102.506L693.944 158.545C707.932 172.275 723.598 181.713 740.943 186.859C758.192 191.912 776.041 191.777 794.488 186.453C812.935 181.13 822.885 173.242 824.339 162.791C825.698 152.247 819.383 140.11 805.395 126.381L748.302 70.3416L723.706 77.44L776.089 128.856C783.035 135.674 788.007 141.611 791.004 146.668C793.906 151.632 794.336 156.04 792.293 159.893C790.379 163.709 785.258 166.818 776.931 169.221C768.605 171.624 760.851 172.231 753.67 171.04C746.617 169.812 739.974 167.197 733.741 163.194ZM796.892 161.452C794.577 166.045 788.567 169.489 779.786 172.023C770.984 174.563 762.235 175.371 753.648 173.947L753.615 173.941L753.583 173.936C745.355 172.504 737.724 169.458 730.778 164.997L730.759 164.985C723.999 160.609 717.082 154.897 709.987 147.933L660.458 99.3188L643.548 104.199L697.787 157.436C711.307 170.706 726.065 179.462 741.958 184.18C757.477 188.724 773.94 188.757 791.633 183.651C809.326 178.545 818.254 171.183 819.567 161.782C820.808 152.119 815.072 140.76 801.552 127.49L747.314 74.2527L730.404 79.1328L779.932 127.747C787.027 134.711 792.249 140.913 795.451 146.315L795.456 146.323L795.46 146.33C798.705 151.88 799.26 156.97 796.892 161.452ZM801.133 55.0947L776.537 62.193L876.45 160.261L901.047 153.163L801.133 55.0947ZM850.157 100.772L952.737 138.245L981.561 129.927L878.596 92.5648L881.648 31.8586L852.824 40.177L850.157 100.772ZM857.548 42.4395L855.037 99.4874L951.883 134.866L971.292 129.264L873.703 93.8529L876.563 36.9519L857.548 42.4395ZM894.349 151.47L800.145 59.0057L783.235 63.8859L877.439 156.35L894.349 151.47ZM1004.62 100.792L979.073 75.7141L1026.34 62.0719L1008.64 44.6999L961.374 58.342L940.106 37.4675L1001.02 19.888L983.322 2.51591L897.235 27.3602L997.148 125.428L1085.16 100.029L1067.46 82.6574L1004.62 100.792ZM1066.47 86.5685L1003.63 104.703L972.375 74.0213L1019.65 60.3791L1007.66 48.6109L960.385 62.2531L933.409 35.7747L994.323 18.1952L982.333 6.42698L903.933 29.053L998.137 121.517L1078.46 98.3367L1066.47 86.5685Z" fill="white"/>
</svg>
