<svg width="1231" height="501" viewBox="0 0 1231 501" fill="none" xmlns="http://www.w3.org/2000/svg">
<path d="M52.6204 367.994L77.2166 360.896L116.754 399.703L178.244 381.957L138.707 343.15L163.303 336.052L263.217 434.12L238.62 441.218L195.372 398.769L133.882 416.515L177.13 458.964L152.534 466.063L52.6204 367.994ZM339.182 382.102L290.182 396.244L302.73 422.716L278.903 429.593L226.837 317.716L250.088 311.006L397.849 395.266L374.021 402.142L339.182 382.102ZM315.51 368.63L263.109 338.43L281.882 378.335L315.51 368.63ZM474.293 375.742C460.714 379.661 446.531 381.035 431.744 379.863C417.086 378.655 402.973 375.054 389.405 369.059C375.743 362.97 363.725 354.836 353.354 344.655C343.077 334.568 336.983 324.845 335.073 315.486C333.197 305.996 335.369 297.634 341.592 290.4C347.848 283.035 357.701 277.411 371.152 273.529C384.091 269.795 397.635 268.364 411.785 269.236L426.508 287.104C419.191 286.919 412.495 287.099 406.419 287.644C400.377 288.059 394.409 289.116 388.516 290.817C374.809 294.773 367.38 300.905 366.23 309.214C365.209 317.485 369.884 326.711 380.256 336.892C390.628 347.072 402.541 354.209 415.995 358.303C429.577 362.36 443.158 362.429 456.737 358.51C462.758 356.773 467.791 354.716 471.835 352.34C476.008 349.927 480.025 346.955 483.887 343.423L503.99 359.739C496.746 366.785 486.847 372.119 474.293 375.742ZM428.787 259.434L453.384 252.336L553.297 350.404L528.701 357.502L428.787 259.434ZM502.407 298.013L505.074 237.418L533.898 229.1L530.847 289.806L633.811 327.168L604.987 335.486L502.407 298.013ZM549.485 224.601L599.83 210.072C612.641 206.375 626.041 205.046 640.029 206.085C654.146 207.087 667.782 210.464 680.935 216.215C694.089 221.967 705.805 229.887 716.081 239.974C726.358 250.061 732.437 259.607 734.318 268.612C736.198 277.617 734.077 285.541 727.953 292.385C721.957 299.191 712.554 304.443 699.744 308.14L649.398 322.669L549.485 224.601ZM683.472 292.169C696.283 288.472 703.069 282.767 703.831 275.054C704.625 267.21 699.742 258.105 689.179 247.737C678.617 237.37 666.991 230.271 654.302 226.44C641.646 222.478 628.913 222.346 616.102 226.043L590.353 233.474L657.723 299.6L683.472 292.169ZM844.11 269.015C825.663 274.338 807.814 274.474 790.565 269.42C773.22 264.274 757.554 254.836 743.566 241.106L686.473 185.067L711.069 177.969L763.452 229.385C770.398 236.203 777.035 241.66 783.363 245.756C789.596 249.758 796.239 252.373 803.292 253.601C810.473 254.792 818.227 254.186 826.554 251.783C834.881 249.379 840.001 246.27 841.916 242.454C843.958 238.602 843.529 234.193 840.626 229.23C837.629 224.173 832.657 218.235 825.711 211.417L773.328 160.001L797.924 152.903L855.017 208.942C869.005 222.671 875.32 234.808 873.961 245.352C872.507 255.803 862.557 263.691 844.11 269.015ZM826.159 144.754L850.756 137.656L950.669 235.724L926.073 242.822L826.159 144.754ZM899.779 183.333L902.446 122.738L931.27 114.42L928.218 175.126L1031.18 212.488L1002.36 220.806L899.779 183.333ZM946.857 109.921L1032.94 85.0771L1050.64 102.449L989.729 120.029L1011 140.903L1058.27 127.261L1075.97 144.633L1028.69 158.275L1054.24 183.353L1117.08 165.219L1134.78 182.591L1046.77 207.99L946.857 109.921Z" fill="#AFE0D0"/>
<path d="M53.6204 339.631L50.7658 336.829L46.9226 337.938L49.7773 340.74L53.6204 339.631ZM78.2166 332.532L82.0598 331.423L79.2051 328.621L75.362 329.73L78.2166 332.532ZM117.754 371.339L113.911 372.448L116.765 375.25L120.608 374.141L117.754 371.339ZM179.244 353.593L182.099 356.395L185.942 355.286L183.087 352.484L179.244 353.593ZM139.707 314.786L136.852 311.984L133.009 313.093L135.864 315.895L139.707 314.786ZM164.303 307.688L168.146 306.579L165.292 303.777L161.449 304.886L164.303 307.688ZM264.217 405.756L267.071 408.558L270.914 407.449L268.06 404.647L264.217 405.756ZM239.62 412.854L235.777 413.964L238.632 416.766L242.475 415.656L239.62 412.854ZM196.372 370.405L200.215 369.296L197.361 366.494L193.518 367.603L196.372 370.405ZM134.882 388.151L132.027 385.349L128.184 386.458L131.039 389.26L134.882 388.151ZM178.13 430.6L180.984 433.402L184.828 432.293L181.973 429.491L178.13 430.6ZM153.534 437.699L149.69 438.808L152.545 441.61L156.388 440.501L153.534 437.699ZM56.4751 342.433L81.0713 335.334L75.362 329.73L50.7658 336.829L56.4751 342.433ZM74.3735 333.641L113.911 372.448L121.597 370.23L82.0598 331.423L74.3735 333.641ZM120.608 374.141L182.099 356.395L176.39 350.791L114.899 368.537L120.608 374.141ZM183.087 352.484L143.55 313.677L135.864 315.895L175.401 354.702L183.087 352.484ZM142.562 317.588L167.158 310.49L161.449 304.886L136.852 311.984L142.562 317.588ZM160.46 308.797L260.373 406.865L268.06 404.647L168.146 306.579L160.46 308.797ZM261.362 402.954L236.766 410.053L242.475 415.656L267.071 408.558L261.362 402.954ZM243.463 411.745L200.215 369.296L192.529 371.514L235.777 413.964L243.463 411.745ZM193.518 367.603L132.027 385.349L137.736 390.953L199.227 373.207L193.518 367.603ZM131.039 389.26L174.287 431.709L181.973 429.491L138.725 387.042L131.039 389.26ZM175.275 427.798L150.679 434.897L156.388 440.501L180.984 433.402L175.275 427.798ZM157.377 436.59L57.4636 338.521L49.7773 340.74L149.69 438.808L157.377 436.59ZM340.182 353.739L342.869 351.767L340.056 350.149L337.328 350.937L340.182 353.739ZM291.182 367.88L288.327 365.078L285.599 365.865L286.612 368.003L291.182 367.88ZM303.73 394.353L306.585 397.154L309.313 396.367L308.3 394.23L303.73 394.353ZM279.903 401.229L275.325 401.335L277.311 405.603L282.758 404.031L279.903 401.229ZM227.837 289.352L224.982 286.55L222.27 287.333L223.259 289.458L227.837 289.352ZM251.088 282.642L253.752 280.658L250.945 279.058L248.233 279.84L251.088 282.642ZM398.849 366.902L401.703 369.704L407.149 368.132L401.513 364.918L398.849 366.902ZM375.021 373.778L372.335 375.75L375.148 377.368L377.876 376.58L375.021 373.778ZM316.51 340.266L319.364 343.068L324.771 341.508L319.201 338.298L316.51 340.266ZM264.109 310.066L266.8 308.098L255.488 301.579L259.536 310.182L264.109 310.066ZM282.882 349.971L278.309 350.087L280.31 354.339L285.737 352.773L282.882 349.971ZM337.328 350.937L288.327 365.078L294.037 370.682L343.037 356.541L337.328 350.937ZM286.612 368.003L299.161 394.475L308.3 394.23L295.752 367.757L286.612 368.003ZM300.876 391.551L277.048 398.427L282.758 404.031L306.585 397.154L300.876 391.551ZM284.481 401.123L232.415 289.246L223.259 289.458L275.325 401.335L284.481 401.123ZM230.692 292.154L253.943 285.444L248.233 279.84L224.982 286.55L230.692 292.154ZM248.424 284.626L396.184 368.886L401.513 364.918L253.752 280.658L248.424 284.626ZM395.994 364.1L372.166 370.976L377.876 376.58L401.703 369.704L395.994 364.1ZM377.708 371.807L342.869 351.767L337.496 355.71L372.335 375.75L377.708 371.807ZM319.201 338.298L266.8 308.098L261.417 312.035L313.818 342.234L319.201 338.298ZM259.536 310.182L278.309 350.087L287.455 349.855L268.682 309.95L259.536 310.182ZM285.737 352.773L319.364 343.068L313.655 337.464L280.027 347.169L285.737 352.773ZM432.744 351.5L433.373 354.488L433.386 354.489L433.398 354.49L432.744 351.5ZM390.405 340.695L388.387 343.005L388.399 343.01L388.41 343.015L390.405 340.695ZM336.074 287.122L331.323 286.707L331.324 286.713L331.325 286.719L336.074 287.122ZM342.592 262.036L346.944 263.959L346.948 263.954L346.952 263.949L342.592 262.036ZM412.785 240.872L416.928 240.09L415.267 238.074L411.997 237.873L412.785 240.872ZM427.508 258.74L428.566 261.752L434.909 261.912L431.651 257.958L427.508 258.74ZM407.419 259.28L409.124 262.278L409.191 262.274L409.257 262.268L407.419 259.28ZM367.23 280.85L362.459 279.833L362.457 279.845L362.456 279.858L367.23 280.85ZM416.995 329.939L415.911 332.598L415.932 332.604L415.952 332.61L416.995 329.939ZM472.835 323.976L469.134 321.527L469.124 321.532L469.115 321.538L472.835 323.976ZM484.887 315.059L488.379 313.638L483.921 310.02L480.717 312.949L484.887 315.059ZM504.99 331.375L509.211 333.437L510.832 331.86L508.483 329.954L504.99 331.375ZM472.438 344.576C459.418 348.334 445.978 349.61 432.091 348.51L433.398 354.49C449.084 355.732 464.01 354.26 478.148 350.18L472.438 344.576ZM432.115 348.512C418.36 347.378 405.157 344.011 392.401 338.374L388.41 343.015C402.789 349.369 417.811 353.205 433.373 354.488L432.115 348.512ZM392.423 338.384C379.588 332.665 368.167 324.969 358.197 315.182L350.51 317.401C361.284 327.975 373.897 336.548 388.387 343.005L392.423 338.384ZM358.197 315.182C348.335 305.503 342.613 296.301 340.822 287.526L331.325 286.719C333.354 296.661 339.818 306.906 350.51 317.401L358.197 315.182ZM340.824 287.538C339.055 278.591 341.099 270.753 346.944 263.959L338.241 260.113C331.64 267.787 329.338 276.674 331.323 286.707L340.824 287.538ZM346.952 263.949C352.837 257.02 362.136 251.682 375.007 247.968L369.297 242.364C355.265 246.413 344.858 252.322 338.232 260.123L346.952 263.949ZM375.007 247.968C387.412 244.387 400.26 243.051 413.572 243.872L411.997 237.873C397.01 236.949 382.769 238.476 369.297 242.364L375.007 247.968ZM408.641 241.655L423.364 259.523L431.651 257.958L416.928 240.09L408.641 241.655ZM426.45 255.729C418.903 255.539 411.942 255.723 405.582 256.293L409.257 262.268C415.048 261.748 421.479 261.573 428.566 261.752L426.45 255.729ZM405.715 256.283C399.211 256.729 392.86 257.862 386.661 259.651L392.371 265.255C397.958 263.643 403.543 262.661 409.124 262.278L405.715 256.283ZM386.661 259.651C372.111 263.85 363.746 270.533 362.459 279.833L372.002 281.866C373.014 274.549 379.507 268.967 392.371 265.255L386.661 259.651ZM362.456 279.858C361.33 288.97 366.532 298.958 377.412 309.637L385.099 307.419C375.235 297.737 371.087 289.273 372.005 281.842L362.456 279.858ZM377.412 309.637C388.28 320.304 401.089 328.088 415.911 332.598L418.078 327.281C405.992 323.603 394.975 317.112 385.099 307.419L377.412 309.637ZM415.952 332.61C431.182 337.159 446.158 337.114 460.592 332.948L454.882 327.344C442.157 331.017 429.972 330.833 418.037 327.268L415.952 332.61ZM460.592 332.948C466.882 331.133 472.22 328.961 476.555 326.415L469.115 321.538C465.361 323.743 460.633 325.685 454.882 327.344L460.592 332.948ZM476.537 326.425C480.915 323.894 485.084 320.802 489.056 317.169L480.717 312.949C476.966 316.38 473.101 319.233 469.134 321.527L476.537 326.425ZM481.394 316.481L501.498 332.796L508.483 329.954L488.379 313.638L481.394 316.481ZM500.77 329.313C493.865 336.029 484.437 341.114 472.438 344.576L478.148 350.18C491.257 346.397 501.628 340.813 509.211 333.437L500.77 329.313ZM429.787 231.07L426.933 228.268L423.09 229.378L425.944 232.179L429.787 231.07ZM454.384 223.972L458.227 222.863L455.372 220.061L451.529 221.17L454.384 223.972ZM554.297 322.04L557.151 324.842L560.995 323.733L558.14 320.931L554.297 322.04ZM529.701 329.138L525.857 330.248L528.712 333.05L532.555 331.94L529.701 329.138ZM503.407 269.65L498.621 268.792L498.527 270.934L501.896 272.165L503.407 269.65ZM506.074 209.054L503.219 206.252L501.35 206.792L501.288 208.197L506.074 209.054ZM534.898 200.736L539.683 201.604L539.983 195.643L532.043 197.934L534.898 200.736ZM531.847 261.442L527.061 260.574L526.953 262.73L530.352 263.963L531.847 261.442ZM634.811 298.804L637.666 301.606L645.08 299.466L636.306 296.283L634.811 298.804ZM605.987 307.122L604.476 309.638L606.841 310.502L608.842 309.924L605.987 307.122ZM432.642 233.872L457.238 226.774L451.529 221.17L426.933 228.268L432.642 233.872ZM450.541 225.081L550.454 323.149L558.14 320.931L458.227 222.863L450.541 225.081ZM551.442 319.238L526.846 326.337L532.555 331.94L557.151 324.842L551.442 319.238ZM533.544 328.029L433.631 229.961L425.944 232.179L525.857 330.248L533.544 328.029ZM508.193 270.507L510.86 209.912L501.288 208.197L498.621 268.792L508.193 270.507ZM508.929 211.856L537.752 203.538L532.043 197.934L503.219 206.252L508.929 211.856ZM530.113 199.868L527.061 260.574L536.632 262.31L539.683 201.604L530.113 199.868ZM530.352 263.963L633.316 301.325L636.306 296.283L533.341 258.921L530.352 263.963ZM631.956 296.002L603.133 304.32L608.842 309.924L637.666 301.606L631.956 296.002ZM607.499 304.607L504.919 267.134L501.896 272.165L604.476 309.638L607.499 304.607ZM550.485 196.237L547.63 193.436L543.787 194.545L546.642 197.347L550.485 196.237ZM641.029 177.721L641.721 180.714L641.733 180.715L641.746 180.716L641.029 177.721ZM681.935 187.852L683.904 185.519L681.935 187.852ZM735.318 240.248L740.064 240.642L735.318 240.248ZM728.953 264.021L724.628 262.068L724.623 262.074L724.617 262.08L728.953 264.021ZM650.398 294.306L646.555 295.415L649.41 298.217L653.253 297.108L650.398 294.306ZM704.831 246.69L700.052 245.735L700.052 245.739L704.831 246.69ZM655.302 198.076L654.155 200.715L654.196 200.728L654.236 200.74L655.302 198.076ZM591.353 205.11L588.498 202.308L584.655 203.417L587.51 206.219L591.353 205.11ZM658.723 271.236L654.88 272.345L657.734 275.147L661.578 274.038L658.723 271.236ZM553.34 199.039L603.685 184.51L597.976 178.906L547.63 193.436L553.34 199.039ZM603.685 184.51C615.943 180.972 628.612 179.74 641.721 180.714L640.338 174.728C625.469 173.624 611.339 175.049 597.976 178.906L603.685 184.51ZM641.746 180.716C654.94 181.652 667.644 184.796 679.967 190.184L683.904 185.519C669.919 179.404 655.352 175.794 640.313 174.726L641.746 180.716ZM679.967 190.184C692.246 195.553 703.353 203.016 713.238 212.719L720.925 210.501C710.256 200.029 697.933 191.654 683.904 185.519L679.967 190.184ZM713.238 212.719C723.123 222.421 728.816 231.448 730.571 239.854L740.064 240.642C738.058 231.038 731.593 220.972 720.925 210.501L713.238 212.719ZM730.571 239.854C732.333 248.29 730.352 255.671 724.628 262.068L733.278 265.974C739.801 258.684 742.064 250.217 740.064 240.642L730.571 239.854ZM724.617 262.08C718.999 268.458 710.147 273.437 697.889 276.974L703.598 282.578C716.962 278.721 726.915 273.197 733.288 265.962L724.617 262.08ZM697.889 276.974L647.544 291.504L653.253 297.108L703.598 282.578L697.889 276.974ZM654.241 293.196L554.328 195.128L546.642 197.347L646.555 295.415L654.241 293.196ZM687.327 266.607C700.981 262.666 708.745 256.395 709.61 247.64L700.052 245.739C699.393 252.411 693.584 257.55 681.617 261.003L687.327 266.607ZM709.609 247.645C710.493 238.925 705.022 229.061 694.023 218.265L686.336 220.483C696.461 230.421 700.758 238.767 700.052 245.735L709.609 247.645ZM694.023 218.265C683.026 207.471 670.515 199.683 656.369 195.412L654.236 200.74C665.468 204.131 676.208 210.542 686.336 220.483L694.023 218.265ZM656.449 195.437C642.097 190.945 627.923 190.931 614.247 194.877L619.957 200.481C631.903 197.034 643.195 197.284 654.155 200.715L656.449 195.437ZM614.247 194.877L588.498 202.308L594.208 207.912L619.957 200.481L614.247 194.877ZM587.51 206.219L654.88 272.345L662.566 270.127L595.196 204.001L587.51 206.219ZM661.578 274.038L687.327 266.607L681.617 261.003L655.868 268.434L661.578 274.038ZM791.565 241.057L790.536 243.732L790.55 243.736L790.564 243.74L791.565 241.057ZM687.473 156.703L684.618 153.902L680.775 155.011L683.629 157.813L687.473 156.703ZM712.069 149.605L715.912 148.496L713.057 145.694L709.214 146.803L712.069 149.605ZM784.363 217.392L781.381 219.182L781.39 219.189L781.4 219.195L784.363 217.392ZM804.292 225.237L804.205 228.133L804.237 228.139L804.27 228.144L804.292 225.237ZM842.916 214.091L838.326 212.514L838.317 212.532L838.308 212.549L842.916 214.091ZM841.626 200.866L846.082 200.528L846.078 200.52L846.073 200.512L841.626 200.866ZM774.328 131.637L771.473 128.835L767.63 129.945L770.485 132.746L774.328 131.637ZM798.924 124.539L802.767 123.43L799.913 120.628L796.07 121.737L798.924 124.539ZM874.961 216.989L879.732 218.006L879.734 217.998L879.735 217.989L874.961 216.989ZM842.255 237.849C824.557 242.956 808.089 242.921 792.565 238.373L790.564 243.74C809.54 249.299 828.768 248.993 847.965 243.453L842.255 237.849ZM792.593 238.381C776.695 233.664 761.933 224.907 748.409 211.633L740.723 213.852C755.174 228.036 771.745 238.156 790.536 243.732L792.593 238.381ZM748.409 211.633L691.316 155.594L683.629 157.813L740.723 213.852L748.409 211.633ZM690.327 159.505L714.924 152.407L709.214 146.803L684.618 153.902L690.327 159.505ZM708.226 150.714L760.609 202.13L768.295 199.912L715.912 148.496L708.226 150.714ZM760.609 202.13C767.704 209.094 774.621 214.807 781.381 219.182L787.346 215.601C781.45 211.785 775.093 206.584 768.295 199.912L760.609 202.13ZM781.4 219.195C788.346 223.655 795.978 226.701 804.205 228.133L804.379 222.341C798.501 221.318 792.846 219.133 787.327 215.589L781.4 219.195ZM804.27 228.144C812.857 229.568 821.606 228.761 830.408 226.221L824.699 220.617C816.847 222.883 810.089 223.288 804.314 222.33L804.27 228.144ZM830.408 226.221C839.201 223.683 845.214 220.234 847.523 215.632L838.308 212.549C836.788 215.579 832.561 218.348 824.699 220.617L830.408 226.221ZM847.505 215.667C849.884 211.181 849.331 206.085 846.082 200.528L837.171 201.204C839.726 205.574 840.033 209.295 838.326 212.514L847.505 215.667ZM846.073 200.512C842.871 195.11 837.649 188.908 830.554 181.944L822.868 184.162C829.665 190.834 834.387 196.507 837.18 201.219L846.073 200.512ZM830.554 181.944L778.171 130.528L770.485 132.746L822.868 184.162L830.554 181.944ZM777.183 134.439L801.779 127.341L796.07 121.737L771.473 128.835L777.183 134.439ZM795.081 125.648L852.174 181.687L859.861 179.469L802.767 123.43L795.081 125.648ZM852.174 181.687C865.698 194.961 871.433 206.323 870.188 215.988L879.735 217.989C881.207 206.566 874.312 193.654 859.861 179.469L852.174 181.687ZM870.19 215.971C868.882 225.376 859.953 232.741 842.255 237.849L847.965 243.453C867.161 237.913 878.133 229.503 879.732 218.006L870.19 215.971ZM827.159 116.39L824.305 113.588L820.462 114.698L823.316 117.5L827.159 116.39ZM851.756 109.292L855.599 108.183L852.744 105.381L848.901 106.49L851.756 109.292ZM951.669 207.36L954.523 210.162L958.367 209.053L955.512 206.251L951.669 207.36ZM927.073 214.459L923.229 215.568L926.084 218.37L929.927 217.26L927.073 214.459ZM900.779 154.97L895.993 154.112L895.899 156.255L899.268 157.485L900.779 154.97ZM903.446 94.3744L900.591 91.5725L898.722 92.1119L898.66 93.517L903.446 94.3744ZM932.27 86.056L937.055 86.9242L937.355 80.9628L929.415 83.2541L932.27 86.056ZM929.218 146.762L924.433 145.894L924.325 148.05L927.724 149.284L929.218 146.762ZM1032.18 184.124L1035.04 186.926L1042.45 184.786L1033.68 181.603L1032.18 184.124ZM1003.36 192.443L1001.85 194.958L1004.21 195.822L1006.21 195.244L1003.36 192.443ZM830.014 119.192L854.61 112.094L848.901 106.49L824.305 113.588L830.014 119.192ZM847.912 110.401L947.826 208.469L955.512 206.251L855.599 108.183L847.912 110.401ZM948.814 204.558L924.218 211.657L929.927 217.26L954.523 210.162L948.814 204.558ZM930.916 213.349L831.003 115.281L823.316 117.5L923.229 215.568L930.916 213.349ZM905.565 155.827L908.232 95.2318L898.66 93.517L895.993 154.112L905.565 155.827ZM906.301 97.1764L935.124 88.858L929.415 83.2541L900.591 91.5725L906.301 97.1764ZM927.485 85.1878L924.433 145.894L934.004 147.63L937.055 86.9242L927.485 85.1878ZM927.724 149.284L1030.69 186.646L1033.68 181.603L930.713 144.241L927.724 149.284ZM1029.33 181.322L1000.5 189.641L1006.21 195.244L1035.04 186.926L1029.33 181.322ZM1004.87 189.927L902.291 152.454L899.268 157.485L1001.85 194.958L1004.87 189.927ZM947.857 81.5576L945.002 78.7556L941.159 79.8647L944.014 82.6667L947.857 81.5576ZM1033.94 56.7133L1037.79 55.6042L1034.93 52.8022L1031.09 53.9114L1033.94 56.7133ZM1051.64 74.0854L1054.5 76.8873L1058.34 75.7782L1055.49 72.9763L1051.64 74.0854ZM990.729 91.6649L987.874 88.863L984.031 89.9721L986.885 92.774L990.729 91.6649ZM1012 112.539L1008.15 113.649L1011.01 116.45L1014.85 115.341L1012 112.539ZM1059.27 98.8972L1063.11 97.7881L1060.26 94.9862L1056.41 96.0953L1059.27 98.8972ZM1076.97 116.269L1079.82 119.071L1083.66 117.962L1080.81 115.16L1076.97 116.269ZM1029.69 129.911L1026.84 127.11L1023 128.219L1025.85 131.021L1029.69 129.911ZM1055.24 154.989L1051.4 156.098L1054.26 158.9L1058.1 157.791L1055.24 154.989ZM1118.08 136.855L1121.92 135.746L1119.07 132.944L1115.22 134.053L1118.08 136.855ZM1135.78 154.227L1138.63 157.029L1142.48 155.92L1139.62 153.118L1135.78 154.227ZM1047.77 179.626L1043.93 180.735L1046.78 183.537L1050.62 182.428L1047.77 179.626ZM950.712 84.3595L1036.8 59.5152L1031.09 53.9114L945.002 78.7556L950.712 84.3595ZM1030.1 57.8224L1047.8 75.1945L1055.49 72.9763L1037.79 55.6042L1030.1 57.8224ZM1048.79 71.2834L987.874 88.863L993.583 94.4669L1054.5 76.8873L1048.79 71.2834ZM986.885 92.774L1008.15 113.649L1015.84 111.43L994.572 90.5558L986.885 92.774ZM1014.85 115.341L1062.12 101.699L1056.41 96.0953L1009.14 109.737L1014.85 115.341ZM1055.42 100.006L1073.12 117.378L1080.81 115.16L1063.11 97.7881L1055.42 100.006ZM1074.11 113.467L1026.84 127.11L1032.55 132.713L1079.82 119.071L1074.11 113.467ZM1025.85 131.021L1051.4 156.098L1059.09 153.88L1033.54 128.802L1025.85 131.021ZM1058.1 157.791L1120.93 139.657L1115.22 134.053L1052.39 152.187L1058.1 157.791ZM1114.24 137.964L1131.94 155.336L1139.62 153.118L1121.92 135.746L1114.24 137.964ZM1132.92 151.425L1044.92 176.824L1050.62 182.428L1138.63 157.029L1132.92 151.425ZM1051.61 178.517L951.7 80.4484L944.014 82.6667L1043.93 180.735L1051.61 178.517Z" fill="white"/>
</svg>
