<svg width="1487" height="921" viewBox="0 0 1487 921" fill="none" xmlns="http://www.w3.org/2000/svg">
<rect x="105" width="1280" height="855" fill="#AFE0D0"/>
<path d="M670.219 44.099C633.717 37.8275 617.531 56.9156 614 67.2435C614 90.388 614 135.557 686.921 127.718C759.843 119.879 771.657 144.89 832.764 154.222C893.871 163.555 890.205 85.9085 860.058 81.4289C829.912 76.9493 797.322 13.1152 746.399 16.1016C695.476 19.088 715.845 51.9382 670.219 44.099Z" stroke="white" stroke-width="3" stroke-linejoin="round"/>
<path d="M681.937 56.8474C652.679 52.3047 639.705 66.1313 636.875 73.6124C636.875 90.3774 636.875 123.096 695.326 117.418C753.776 111.739 763.246 129.856 812.227 136.616C861.207 143.376 858.269 87.1326 834.105 83.8877C809.941 80.6429 783.818 34.404 743 36.5673C702.183 38.7305 718.51 62.5259 681.937 56.8474Z" stroke="white" stroke-width="3" stroke-linejoin="round"/>
<path d="M695.625 72.4489C672.332 69.5946 662.003 78.2821 659.75 82.9826C659.75 93.5164 659.75 114.074 706.283 110.506C752.817 106.938 760.356 118.322 799.35 122.569C838.345 126.817 836.005 91.4776 816.768 89.4388C797.531 87.4 776.733 58.3473 744.238 59.7065C711.743 61.0657 724.741 76.0168 695.625 72.4489Z" stroke="white" stroke-width="3" stroke-linejoin="round"/>
<path d="M679.994 82.9006C708.114 81.5551 707.333 99.047 690.93 99.7198C674.526 100.393 669.058 91.6466 679.994 82.9006Z" stroke="white" stroke-width="3" stroke-linejoin="round"/>
<path d="M732.231 76.7626C722.796 89.1982 739.307 96.9806 748.742 99.3174C765.253 99.3174 782.157 110.29 802.598 108.461C823.04 106.632 792.377 95.6599 782.157 92.6119C771.936 89.564 744.025 61.218 732.231 76.7626Z" stroke="white" stroke-width="3" stroke-linejoin="round"/>
<path d="M350 769L362 751L374 769" stroke="#2B9B99" stroke-width="2" stroke-miterlimit="10" stroke-linecap="round" stroke-linejoin="round"/>
<path d="M350 782L362 764L374 782" stroke="#2B9B99" stroke-width="2" stroke-miterlimit="10"/>
<rect x="360.199" y="779.2" width="3" height="14" fill="#A7977C"/>
<path d="M218 769L230 751L242 769" stroke="#2B9B99" stroke-width="2" stroke-miterlimit="10" stroke-linecap="round" stroke-linejoin="round"/>
<path d="M218 782L230 764L242 782" stroke="#2B9B99" stroke-width="2" stroke-miterlimit="10"/>
<rect x="228.199" y="779.2" width="3" height="14" fill="#A7977C"/>
<path d="M168 736L180 718L192 736" stroke="#2B9B99" stroke-width="2" stroke-miterlimit="10" stroke-linecap="round" stroke-linejoin="round"/>
<path d="M168 749L180 731L192 749" stroke="#2B9B99" stroke-width="2" stroke-miterlimit="10"/>
<rect x="178.199" y="746.2" width="3" height="14" fill="#A7977C"/>
<path d="M380 724L392 706L404 724" stroke="#2B9B99" stroke-width="2" stroke-miterlimit="10" stroke-linecap="round" stroke-linejoin="round"/>
<path d="M380 737L392 719L404 737" stroke="#2B9B99" stroke-width="2" stroke-miterlimit="10"/>
<rect x="390.199" y="734.2" width="3" height="14" fill="#A7977C"/>
<path d="M201 707L213 689L225 707" stroke="#2B9B99" stroke-width="2" stroke-miterlimit="10" stroke-linecap="round" stroke-linejoin="round"/>
<path d="M201 720L213 702L225 720" stroke="#2B9B99" stroke-width="2" stroke-miterlimit="10"/>
<rect x="211.199" y="717.2" width="3" height="14" fill="#A7977C"/>
<path d="M416 652L428 634L440 652" stroke="#2B9B99" stroke-width="2" stroke-miterlimit="10" stroke-linecap="round" stroke-linejoin="round"/>
<path d="M416 665L428 647L440 665" stroke="#2B9B99" stroke-width="2" stroke-miterlimit="10"/>
<rect x="426.199" y="662.2" width="3" height="14" fill="#A7977C"/>
<path d="M235 656L247 638L259 656" stroke="#2B9B99" stroke-width="2" stroke-miterlimit="10" stroke-linecap="round" stroke-linejoin="round"/>
<path d="M235 669L247 651L259 669" stroke="#2B9B99" stroke-width="2" stroke-miterlimit="10"/>
<rect x="245.199" y="666.2" width="3" height="14" fill="#A7977C"/>
<g clip-path="url(#clip0)">
<path d="M357.211 673.963L336 674.003L346.606 649L357.211 673.963Z" fill="#6589DF"/>
<path d="M385.383 673.164C375.982 673.444 366.581 673.683 357.18 673.963C353.625 665.695 350.07 657.428 346.516 649.16C355.359 649.16 364.201 649.2 373.044 649.2C377.157 657.188 381.27 665.176 385.383 673.164Z" fill="#F79E1E"/>
<path d="M387.438 674.762C378.037 675.041 368.636 675.281 359.235 675.561C355.68 667.293 352.125 659.025 348.57 650.757C357.413 650.797 366.256 650.797 375.129 650.837C379.212 658.786 383.325 666.774 387.438 674.762Z" stroke="#EA7E69" stroke-width="2" stroke-miterlimit="10"/>
<path d="M359.266 675.561L338.055 675.601L348.66 650.598L359.266 675.561Z" stroke="#EA7E69" stroke-width="2" stroke-miterlimit="10"/>
</g>
<g clip-path="url(#clip1)">
<path d="M277.211 708.963L256 709.003L266.606 684L277.211 708.963Z" fill="#2B9B99"/>
<path d="M305.383 708.164C295.982 708.444 286.581 708.683 277.18 708.963C273.625 700.695 270.07 692.428 266.516 684.16C275.359 684.16 284.201 684.2 293.044 684.2C297.157 692.188 301.27 700.176 305.383 708.164Z" fill="#EA9D8B"/>
<path d="M307.438 709.762C298.037 710.041 288.636 710.281 279.235 710.561C275.68 702.293 272.125 694.025 268.57 685.757C277.413 685.797 286.256 685.797 295.129 685.837C299.212 693.786 303.325 701.774 307.438 709.762Z" stroke="white" stroke-width="2" stroke-miterlimit="10"/>
<path d="M279.266 710.561L258.055 710.601L268.66 685.598L279.266 710.561Z" stroke="white" stroke-width="2" stroke-miterlimit="10"/>
</g>
<g clip-path="url(#clip2)">
<path d="M318.211 746.963L297 747.003L307.606 722L318.211 746.963Z" fill="#EA9D8B"/>
<path d="M346.383 746.164C336.982 746.444 327.581 746.683 318.18 746.963C314.625 738.695 311.07 730.428 307.516 722.16C316.359 722.16 325.201 722.2 334.044 722.2C338.157 730.188 342.27 738.176 346.383 746.164Z" fill="#F36633"/>
<path d="M348.438 747.762C339.037 748.041 329.636 748.281 320.235 748.561C316.68 740.293 313.125 732.025 309.57 723.757C318.413 723.797 327.256 723.797 336.129 723.837C340.212 731.786 344.325 739.774 348.438 747.762Z" stroke="white" stroke-width="2" stroke-miterlimit="10"/>
<path d="M320.266 748.561L299.055 748.601L309.66 723.598L320.266 748.561Z" stroke="white" stroke-width="2" stroke-miterlimit="10"/>
</g>
<path d="M288 796L300 778L312 796" stroke="#2B9B99" stroke-width="2" stroke-miterlimit="10" stroke-linecap="round" stroke-linejoin="round"/>
<path d="M288 809L300 791L312 809" stroke="#2B9B99" stroke-width="2" stroke-miterlimit="10"/>
<rect x="298.199" y="806.2" width="3" height="14" fill="#A7977C"/>
<path d="M1451.56 849.698C1441.21 669.18 1432.12 574.33 1339.27 553.47C1249.32 551.908 1275.43 654.905 1196.21 849.698" fill="#F36633"/>
<mask id="path-44-inside-1" fill="white">
<path d="M1184 862.634C1241.54 692.972 1241.75 580.69 1334.38 559.938C1424.12 558.385 1398.07 660.842 1477.09 854.615"/>
</mask>
<path d="M1334.38 559.938L1334.31 555.939L1333.91 555.946L1333.51 556.035L1334.38 559.938ZM1187.79 863.919C1202.22 821.383 1213.04 782.454 1222.6 747.742C1232.18 712.973 1240.45 682.561 1249.79 656.809C1268.47 605.353 1290.98 573.761 1335.26 563.841L1333.51 556.035C1285.16 566.866 1261.25 601.791 1242.27 654.08C1232.8 680.2 1224.43 710.968 1214.89 745.618C1205.33 780.324 1194.56 819.054 1180.21 861.349L1187.79 863.919ZM1334.45 563.937C1356.01 563.564 1370.01 569.391 1380.48 580.784C1391.21 592.46 1398.64 610.376 1405.91 635.157C1420.36 684.329 1433.78 759.005 1473.39 856.125L1480.8 853.104C1441.38 756.452 1428.31 683.013 1413.59 632.902C1406.29 608.04 1398.46 588.522 1386.37 575.37C1374.02 561.933 1357.62 555.535 1334.31 555.939L1334.45 563.937Z" fill="white" mask="url(#path-44-inside-1)"/>
<path d="M1474.01 630.121C1467.53 681.209 1442.99 712.919 1409.23 692.95C1409.23 692.95 1372.15 660.057 1331.28 673.619C1290.41 687.182 1270.02 607.836 1270.02 607.836" stroke="white" stroke-width="4"/>
<path d="M671.705 764.836C521.396 790.091 583.701 652.211 448.189 725.929C381.991 780.535 448.189 919.097 624.198 919.097C800.208 919.097 733.778 754.406 671.705 764.836Z" stroke="white" stroke-width="3"/>
<path d="M661.436 784.493C542.41 803.735 591.747 698.684 484.439 754.85C432.018 796.455 484.439 902.026 623.817 902.026C763.194 902.026 710.59 776.547 661.436 784.493Z" stroke="white" stroke-width="3"/>
<path d="M648.498 796.65C554.65 807.474 593.551 748.382 508.942 779.976C467.61 803.378 508.942 862.762 618.836 862.762C728.73 862.762 687.254 792.18 648.498 796.65Z" stroke="white" stroke-width="3"/>
<path d="M615.05 809.186C576.137 816.001 592.267 778.795 557.185 798.687C540.047 813.422 557.185 850.812 602.751 850.812C648.317 850.812 631.119 806.372 615.05 809.186Z" stroke="white" stroke-width="3"/>
<rect x="305" y="280" width="6" height="14" fill="#A7977C"/>
<circle cx="308" cy="262" r="15" fill="#2B9B99"/>
<rect x="192" y="294" width="6" height="14" fill="#A7977C"/>
<circle cx="195" cy="276" r="15" fill="#2B9B99"/>
<rect x="236" y="339" width="6" height="14" fill="#A7977C"/>
<circle cx="239" cy="321" r="15" fill="#2B9B99"/>
<rect x="144" y="309" width="6" height="14" fill="#A7977C"/>
<circle cx="147" cy="291" r="15" fill="#2B9B99"/>
<path d="M243 281L255 260L267 281" fill="#4B443F" fill-opacity="0.93"/>
<path d="M270 312L282 291L294 312" fill="#4B443F" fill-opacity="0.93"/>
<path d="M1197.6 722.5L1210.1 737L1222.6 722.5" stroke="#8D5454" stroke-width="3" stroke-miterlimit="10" stroke-linecap="round"/>
<path d="M1210.1 735.6V712.6" stroke="#8D5454" stroke-width="3" stroke-linecap="round" stroke-linejoin="round"/>
<path d="M1046 773.6L1058.5 788.1L1071 773.6" stroke="#8D5454" stroke-width="3" stroke-miterlimit="10" stroke-linecap="round"/>
<path d="M1058.5 786.8V763.8" stroke="#8D5454" stroke-width="3" stroke-linecap="round" stroke-linejoin="round"/>
<path d="M1105.6 755.8L1118.1 770.3L1130.6 755.8" stroke="#8D5454" stroke-width="3" stroke-miterlimit="10" stroke-linecap="round"/>
<path d="M1118.1 769V746" stroke="#8D5454" stroke-width="3" stroke-linecap="round" stroke-linejoin="round"/>
<path d="M1142.6 729.7L1155.1 744.2L1167.6 729.7" stroke="#8D5454" stroke-width="3" stroke-miterlimit="10" stroke-linecap="round"/>
<path d="M1155.1 742.9V719.9" stroke="#8D5454" stroke-width="3" stroke-linecap="round" stroke-linejoin="round"/>
<path d="M1164.2 758.2L1176.7 772.7L1189.2 758.2" stroke="#8D5454" stroke-width="3" stroke-miterlimit="10" stroke-linecap="round"/>
<path d="M1176.7 771.3V748.3" stroke="#8D5454" stroke-width="3" stroke-linecap="round" stroke-linejoin="round"/>
<path d="M1077.5 693.9L1090 708.44L1102.5 693.94" stroke="#8D5454" stroke-width="3" stroke-miterlimit="10" stroke-linecap="round"/>
<path d="M1090 707V684" stroke="#8D5454" stroke-width="3" stroke-linecap="round" stroke-linejoin="round"/>
<path d="M41 253C50.3197 113.458 58.5055 40.139 142.145 24.0134C223.165 22.8063 199.645 102.424 271 253" fill="#F79E1E"/>
<path d="M103.893 29.6272C145.41 41.621 163.68 69.1907 134.034 99.9366C134.034 99.9366 92.1002 132.589 88.7099 173.987C85.3196 215.384 9.60383 226.521 9.60383 226.521" stroke="white" stroke-width="3"/>
<mask id="path-75-inside-2" fill="white">
<path d="M0 250C51.8325 118.85 52.0183 32.0546 135.455 16.0135C216.281 14.8127 192.817 94.0134 264 243.801"/>
</mask>
<path d="M135.455 16.0135L135.411 13.0138L135.148 13.0177L134.889 13.0674L135.455 16.0135ZM2.79001 251.103C15.7878 218.215 25.5439 188.117 34.1549 161.283C42.7807 134.403 50.2258 110.906 58.6391 91.0092C67.0467 71.1257 76.3268 55.0786 88.4907 43.0296C100.599 31.0351 115.705 22.8654 136.022 18.9595L134.889 13.0674C113.487 17.182 97.2807 25.8772 84.2682 38.7668C71.3108 51.6019 61.6604 68.4581 53.1128 88.6724C44.5709 108.873 37.0361 132.668 28.4419 159.45C19.8327 186.278 10.1285 216.21 -2.79001 248.897L2.79001 251.103ZM135.5 19.0131C155.183 18.7207 168.03 23.3104 177.581 32.2276C187.283 41.2854 193.96 55.1366 200.505 74.2581C213.506 112.24 225.608 170.003 261.29 245.089L266.71 242.513C231.209 167.811 219.451 111.08 206.182 72.315C199.592 53.063 192.532 37.9775 181.676 27.842C170.67 17.5659 156.14 12.7058 135.411 13.0138L135.5 19.0131Z" fill="white" mask="url(#path-75-inside-2)"/>
<path d="M468.362 169.849L531 246.405C531 246.405 463.358 247.807 420.041 249.241C378.788 250.606 355.666 251.543 314.451 253.494C256.394 256.241 165.91 262 165.91 262C165.91 262 160.786 230.852 174.858 201.039C186.352 176.687 196.334 158.508 203.492 137.242C210.651 115.977 219.907 84.4946 241.075 74.8632C246.825 72.2472 256.621 72.5142 262.551 74.8632C287.606 84.7871 275.079 101.8 287.606 108.888C303.295 117.765 304.139 81.2545 323.4 81.9517C340.214 82.5603 337.717 103.217 355.613 104.635C373.51 106.053 391.676 95.3012 407.514 98.9641C420.041 104.635 418.251 107.47 430.779 123.065L468.362 169.849Z" fill="#87766A"/>
<path d="M475.191 183.849L538 260.405C538 260.405 470.173 261.807 426.738 263.241C385.373 264.606 362.187 265.543 320.86 267.494C262.644 270.241 171.912 276 171.912 276C171.912 276 166.775 244.852 180.885 215.039C192.41 190.687 202.419 172.508 209.598 151.242C216.776 129.977 226.057 98.4946 247.283 88.8632C253.048 86.2472 262.871 86.5142 268.818 88.8632C293.941 98.7871 281.38 115.8 293.941 122.888C309.673 131.765 310.52 95.2545 329.832 95.9517C346.693 96.5603 344.189 117.217 362.134 118.635C380.08 120.053 398.295 109.301 414.176 112.964C426.738 118.635 424.943 121.47 437.505 137.065L475.191 183.849Z" stroke="white" stroke-width="4"/>
<defs>
<clipPath id="clip0">
<rect width="52" height="27" fill="white" transform="translate(336 649)"/>
</clipPath>
<clipPath id="clip1">
<rect width="52" height="27" fill="white" transform="translate(256 684)"/>
</clipPath>
<clipPath id="clip2">
<rect width="52" height="27" fill="white" transform="translate(297 722)"/>
</clipPath>
</defs>
</svg>

