<svg width="417" height="263" viewBox="0 0 417 263" fill="none" xmlns="http://www.w3.org/2000/svg">
<path d="M-85 237C-75.6803 97.4581 -67.4945 24.139 16.1446 8.01341C97.1654 6.80634 73.6446 86.424 145 237" fill="#F79E1E"/>
<path d="M-22.1066 13.6272C19.4097 25.621 37.6802 53.1907 8.03421 83.9366C8.03421 83.9366 -33.8998 116.589 -37.2901 157.987C-40.6804 199.384 -116.396 210.521 -116.396 210.521" stroke="white" stroke-width="3"/>
<mask id="path-3-inside-1" fill="white">
<path d="M-126 234C-74.1675 102.85 -73.9817 16.0546 9.45549 0.0134535C90.2808 -1.1873 66.8168 78.0134 138 227.801"/>
</mask>
<path d="M9.45549 0.0134535L9.41093 -2.98622L9.14766 -2.9823L8.8891 -2.9326L9.45549 0.0134535ZM-123.21 235.103C-110.212 202.215 -100.456 172.117 -91.8451 145.283C-83.2193 118.403 -75.7742 94.9059 -67.3609 75.0092C-58.9533 55.1257 -49.6732 39.0786 -37.5093 27.0296C-25.4005 15.0351 -10.2946 6.86544 10.0219 2.9595L8.8891 -2.9326C-12.513 1.18205 -28.7193 9.87719 -41.7318 22.7668C-54.6892 35.6019 -64.3396 52.4581 -72.8872 72.6724C-81.4291 92.8734 -88.9639 116.668 -97.5581 143.45C-106.167 170.278 -115.872 200.21 -128.79 232.897L-123.21 235.103ZM9.50006 3.01312C29.1833 2.72071 42.0305 7.31044 51.5813 16.2276C61.2827 25.2854 67.96 39.1366 74.5052 58.2581C87.5062 96.24 99.6078 154.003 135.29 229.089L140.71 226.513C105.209 151.811 93.451 95.0802 80.1818 56.315C73.592 37.063 66.5316 21.9775 55.6759 11.842C44.6696 1.5659 30.1403 -3.29417 9.41093 -2.98622L9.50006 3.01312Z" fill="white" mask="url(#path-3-inside-1)"/>
<path d="M342.362 153.849L405 230.405C405 230.405 337.358 231.807 294.041 233.241C252.788 234.606 229.666 235.543 188.451 237.494C130.394 240.241 39.9096 246 39.9096 246C39.9096 246 34.7863 214.852 48.8579 185.039C60.3517 160.687 70.3338 142.508 77.4924 121.242C84.651 99.9766 93.9067 68.4946 115.075 58.8632C120.825 56.2472 130.621 56.5142 136.551 58.8632C161.606 68.7871 149.079 85.7996 161.606 92.8881C177.295 101.765 178.139 65.2545 197.4 65.9517C214.214 66.5603 211.717 87.2172 229.613 88.6349C247.51 90.0527 265.676 79.3012 281.514 82.9641C294.041 88.635 292.251 91.4703 304.779 107.065L342.362 153.849Z" fill="#524F49"/>
<path d="M349.191 167.849L412 244.405C412 244.405 344.173 245.807 300.738 247.241C259.373 248.606 236.187 249.543 194.86 251.494C136.644 254.241 45.9121 260 45.9121 260C45.9121 260 40.7748 228.852 54.8849 199.039C66.41 174.687 76.4194 156.508 83.5976 135.242C90.7758 113.977 100.057 82.4946 121.283 72.8632C127.048 70.2472 136.871 70.5142 142.818 72.8632C167.941 82.7871 155.38 99.7996 167.941 106.888C183.673 115.765 184.52 79.2545 203.832 79.9517C220.693 80.5603 218.189 101.217 236.134 102.635C254.08 104.053 272.295 93.3012 288.176 96.9641C300.738 102.635 298.943 105.47 311.505 121.065L349.191 167.849Z" stroke="white" stroke-width="4"/>
</svg>
