<svg width="345" height="116" viewBox="0 0 345 116" fill="none" xmlns="http://www.w3.org/2000/svg">
<path d="M0 104V22.239L333 0V86.9938L0 104Z" fill="#F8A836"/>
<path fill-rule="evenodd" clip-rule="evenodd" d="M9.33984 115.949L345 98.9736V12.1365L9.33984 34.3354V115.949ZM13.5832 113.46L340.757 96.9132V14.6992L13.5832 36.3369V113.46Z" fill="white"/>
<path d="M55.7026 80.2207C52.8867 80.4671 50.3373 80.0878 48.0543 79.083C45.798 78.0758 43.9768 76.5353 42.5908 74.4616C41.2024 72.3612 40.3816 69.8633 40.1283 66.9677C39.8772 64.0986 40.2674 61.5215 41.2989 59.2362C42.3545 56.9221 43.9192 55.072 45.993 53.686C48.091 52.2711 50.5347 51.4416 53.324 51.1976C56.0071 50.9628 58.4589 51.2971 60.6794 52.2003L60.5468 57.1106C59.3604 56.7058 58.2242 56.417 57.1384 56.2443C56.0768 56.0428 54.935 55.9954 53.713 56.1023C50.8705 56.351 48.7556 57.4194 47.3682 59.3075C46.0074 61.1933 45.4536 63.584 45.7069 66.4796C45.9603 69.3752 46.9075 71.6346 48.5485 73.2577C50.2161 74.8785 52.4579 75.5658 55.2738 75.3194C56.5224 75.2102 57.653 74.9774 58.6658 74.6211C59.7052 74.2625 60.7994 73.7653 61.9483 73.1294L62.9315 77.942C60.7156 79.2334 58.306 79.9929 55.7026 80.2207ZM71.1175 78.7115C69.4705 78.8556 68.0426 78.4451 66.8339 77.4801C65.6495 76.4862 64.9771 75.0728 64.8167 73.2398C64.6656 71.5131 65.169 70.077 66.327 68.9318C67.4826 67.7599 68.8919 66.8871 70.5548 66.3133C72.2155 65.713 73.8272 65.3177 75.3899 65.1274C75.2345 63.9632 74.8558 63.1531 74.2537 62.6972C73.6783 62.2389 72.7663 62.0644 71.5177 62.1736C70.6411 62.2503 69.7881 62.4454 68.959 62.7589C68.1564 63.07 67.2337 63.5389 66.191 64.1655L65.4006 60.1792C67.7158 58.7988 70.0821 58.0029 72.4995 57.7914C74.8372 57.5869 76.6729 58.0687 78.0064 59.2369C79.3666 60.4028 80.1687 62.3805 80.4127 65.1698L80.8833 70.5493C80.9716 71.5587 81.0754 72.2858 81.1946 72.7304C81.3381 73.1462 81.5219 73.4112 81.746 73.5254C81.9944 73.6107 82.3842 73.6302 82.9155 73.5837L83.5531 73.5279L83.4704 77.6307L81.6772 77.7876C80.588 77.8829 79.6541 77.7638 78.8754 77.4304C78.0944 77.0705 77.4733 76.5493 77.0121 75.8669C76.4372 76.6399 75.6106 77.2878 74.532 77.8104C73.4777 78.3042 72.3395 78.6045 71.1175 78.7115ZM72.8584 74.7446C73.3632 74.7005 73.9239 74.531 74.5405 74.2361C75.1548 73.9147 75.6813 73.5072 76.12 73.0138L75.7226 68.4711C74.1356 68.6903 72.7579 69.1588 71.5893 69.8767C70.4208 70.5946 69.8842 71.4982 69.9795 72.5873C70.0515 73.4109 70.3175 74.0033 70.7774 74.3646C71.235 74.6993 71.9287 74.826 72.8584 74.7446ZM107.441 54.7344C110.097 54.502 112.134 55.1403 113.551 56.6492C114.992 58.1292 115.839 60.317 116.093 63.2126L117.062 74.2903L112.121 74.7226L111.183 64.0036C111.018 62.1174 110.605 60.7616 109.944 59.9361C109.282 59.1106 108.288 58.7559 106.96 58.8721C105.658 58.986 104.714 59.5236 104.129 60.4849C103.542 61.4197 103.319 62.6973 103.461 64.3178L104.43 75.3955L99.4889 75.8278L98.5511 65.1087C98.3861 63.2226 97.9597 61.8679 97.272 61.0447C96.5843 60.2215 95.5764 59.868 94.2481 59.9842C92.6807 60.1214 91.4423 60.8052 90.5328 62.0359L91.7983 76.5006L86.8571 76.9329L85.114 57.009L89.3379 56.6395L89.6367 58.2194C91.3316 56.7863 93.2284 55.9779 95.327 55.7943C97.8773 55.5711 99.8569 56.3215 101.266 58.0452C101.88 57.1081 102.724 56.3517 103.798 55.7759C104.872 55.2001 106.086 54.853 107.441 54.7344ZM130.352 52.73C132.238 52.565 133.899 52.8881 135.335 53.6993C136.771 54.5106 137.903 55.6697 138.731 57.1766C139.559 58.6835 140.055 60.38 140.22 62.2662C140.385 64.1523 140.191 65.9092 139.638 67.537C139.084 69.1648 138.17 70.5028 136.897 71.5512C135.623 72.5995 134.044 73.2061 132.158 73.3711C130.962 73.4757 129.928 73.4324 129.054 73.2411C128.21 73.0741 127.378 72.7453 126.559 72.2548L127.507 83.0934L122.566 83.5257L119.979 53.9587L123.964 53.6101L124.642 55.3977C125.43 54.6061 126.273 53.9969 127.173 53.5702C128.07 53.117 129.13 52.8369 130.352 52.73ZM131.045 69.3729C132.506 69.2451 133.598 68.574 134.322 67.3596C135.045 66.1453 135.325 64.595 135.16 62.7089C134.995 60.8228 134.45 59.3446 133.527 58.2743C132.604 57.2041 131.411 56.7329 129.95 56.8607C128.303 57.0048 127.117 57.6707 126.391 58.8585C125.665 60.0463 125.387 61.6098 125.556 63.5491C125.726 65.4884 126.271 66.9798 127.193 68.0235C128.114 69.0672 129.398 69.517 131.045 69.3729ZM144.332 55.9237L141.503 56.1712L141.586 52.0684L143.977 51.8592L143.607 47.6353C143.451 45.8554 143.847 44.4155 144.795 43.3153C145.767 42.1863 147.223 41.537 149.162 41.3673C150.251 41.272 151.338 41.2974 152.421 41.4436L152.331 45.4667C151.868 45.3734 151.344 45.3523 150.76 45.4034C149.193 45.5405 148.481 46.4326 148.625 48.0797L148.918 51.4269L153.301 51.0434L153.657 55.1079L149.273 55.4914L150.661 71.3508L145.72 71.7831L144.332 55.9237ZM155.858 42.7891L160.799 42.3568L161.231 47.298L156.29 47.7303L155.858 42.7891ZM156.555 50.7587L161.496 50.3264L163.24 70.2503L158.298 70.6826L156.555 50.7587ZM166.36 49.9009L170.982 49.4965L171.287 51.598C171.813 50.8827 172.506 50.2332 173.365 49.6494C174.25 49.0633 175.198 48.7261 176.207 48.6378C176.526 48.6099 176.821 48.6109 177.091 48.6408L177.158 53.5336C176.641 53.445 176.064 53.4285 175.427 53.4843C174.603 53.5564 173.864 53.8218 173.208 54.2807C172.55 54.7131 172.099 55.221 171.855 55.8044L173.044 69.3925L168.103 69.8248L166.36 49.9009ZM190.776 68.2427C188.465 68.4449 186.445 68.1532 184.717 67.3675C183.012 66.5529 181.68 65.398 180.719 63.9027C179.783 62.3785 179.23 60.6468 179.06 58.7075C178.898 56.8479 179.134 55.1141 179.77 53.5059C180.405 51.8977 181.414 50.5781 182.796 49.547C184.176 48.4894 185.875 47.8723 187.894 47.6957C189.754 47.533 191.355 47.7811 192.697 48.4399C194.066 49.0964 195.127 50.0476 195.878 51.2935C196.656 52.5371 197.116 53.9691 197.258 55.5896C197.328 56.3866 197.3 57.2991 197.176 58.3272L184.305 59.4532C184.724 61.1833 185.53 62.4378 186.722 63.2169C187.913 63.9693 189.291 64.277 190.859 64.1399C193.01 63.9516 194.955 63.2327 196.693 61.9832L197.298 66.1463C196.487 66.6723 195.524 67.1313 194.407 67.5235C193.315 67.8868 192.104 68.1265 190.776 68.2427ZM192.181 55.3913C192.091 54.3553 191.718 53.4643 191.064 52.7185C190.41 51.9727 189.472 51.6532 188.25 51.7602C187.028 51.8671 186.076 52.3117 185.395 53.094C184.714 53.8764 184.293 54.8769 184.132 56.0955L192.181 55.3913ZM219.954 65.8505C218.387 65.9876 216.682 65.9227 214.838 65.6557C213.021 65.3864 211.586 65.0435 210.532 64.6271L210.656 59.1555C214.311 60.5489 217.467 61.1294 220.123 60.897C221.531 60.7738 222.611 60.4117 223.361 59.8106C224.109 59.183 224.437 58.3379 224.344 57.2753C224.274 56.4784 223.991 55.8473 223.496 55.3821C223.024 54.8879 222.361 54.5042 221.508 54.2309C220.652 53.9311 219.292 53.5414 217.43 53.0619C215.679 52.6262 214.218 52.1384 213.046 51.5984C211.872 51.0319 210.909 50.2729 210.157 49.3216C209.428 48.3413 208.999 47.1073 208.869 45.6197C208.66 43.2288 209.368 41.2262 210.993 39.6117C212.619 37.9972 215.065 37.047 218.333 36.7612C219.874 36.6264 221.416 36.6654 222.961 36.8783C224.532 37.0888 225.977 37.3907 227.296 37.7838L227.235 43.0492C225.525 42.4761 223.964 42.0772 222.553 41.8527C221.165 41.5994 219.794 41.5319 218.439 41.6505C216.925 41.7829 215.792 42.1364 215.039 42.7109C214.286 43.2853 213.952 44.0508 214.035 45.0071C214.1 45.7509 214.366 46.3433 214.833 46.7843C215.3 47.2253 215.906 47.5738 216.651 47.8298C217.423 48.0835 218.546 48.3735 220.02 48.6996C223.323 49.4278 225.763 50.3922 227.34 51.5926C228.941 52.7641 229.842 54.4922 230.042 56.7768C230.233 58.9552 229.642 60.9208 228.269 62.6738C226.897 64.4267 224.125 65.4856 219.954 65.8505ZM240.469 63.8951C238.716 64.0485 237.344 63.66 236.352 62.7295C235.358 61.7725 234.798 60.5767 234.673 59.1422L233.707 48.1044L230.878 48.3519L230.961 44.2491L233.352 44.0399L232.968 39.6566L237.864 38.7063L238.293 43.6076L242.676 43.2241L243.032 47.2886L238.648 47.6721L239.436 56.6777C239.529 57.7403 239.647 58.4794 239.791 58.8952C239.959 59.282 240.234 59.5256 240.618 59.6259C241.026 59.6973 241.734 59.6888 242.744 59.6005L244.098 59.482L244.016 63.5848L240.469 63.8951ZM256.949 62.4533C254.851 62.6369 252.99 62.3312 251.368 61.5362C249.746 60.7413 248.454 59.5961 247.494 58.1008C246.533 56.6055 245.97 54.9148 245.805 53.0287C245.64 51.1425 245.9 49.3665 246.584 47.7005C247.268 46.0346 248.34 44.6693 249.799 43.6047C251.259 42.5401 253.038 41.9161 255.136 41.7324C257.235 41.5488 259.095 41.8545 260.718 42.6495C262.34 43.4445 263.632 44.6029 264.595 46.1248C265.558 47.6466 266.122 49.3506 266.287 51.2368C266.452 53.1229 266.191 54.8856 265.505 56.525C264.819 58.1644 263.746 59.5164 262.286 60.581C260.827 61.6456 259.048 62.2697 256.949 62.4533ZM256.594 58.3888C258.214 58.247 259.426 57.5655 260.229 56.3442C261.059 55.1205 261.391 53.5656 261.226 51.6795C261.059 49.7668 260.461 48.28 259.431 47.219C258.425 46.1292 257.112 45.6551 255.492 45.7969C253.871 45.9387 252.647 46.6347 251.82 47.8849C251.017 49.1062 250.699 50.6732 250.866 52.5859C251.031 54.4721 251.615 55.9468 252.618 57.01C253.648 58.071 254.973 58.5306 256.594 58.3888ZM269.083 40.9138L273.706 40.5094L274.01 42.6108C274.536 41.8956 275.229 41.2461 276.088 40.6623C276.974 40.0762 277.921 39.739 278.931 39.6507C279.25 39.6228 279.544 39.6238 279.814 39.6537L279.881 44.5465C279.365 44.4578 278.788 44.4414 278.15 44.4972C277.327 44.5692 276.587 44.8347 275.931 45.2936C275.273 45.7259 274.822 46.2338 274.579 46.8173L275.768 60.4054L270.827 60.8377L269.083 40.9138ZM281.771 31.7732L286.712 31.3409L287.144 36.282L282.203 36.7143L281.771 31.7732ZM282.468 39.7427L287.409 39.3105L289.152 59.2343L284.211 59.6666L282.468 39.7427ZM303.654 58.3671C301.343 58.5693 299.323 58.2776 297.595 57.4919C295.891 56.6773 294.558 55.5224 293.598 54.0271C292.661 52.5029 292.108 50.7712 291.939 48.8319C291.776 46.9724 292.012 45.2385 292.648 43.6303C293.284 42.0221 294.292 40.7025 295.674 39.6715C297.054 38.6139 298.754 37.9967 300.773 37.8201C302.632 37.6574 304.233 37.9055 305.576 38.5643C306.945 39.2208 308.005 40.172 308.756 41.4179C309.534 42.6615 309.994 44.0936 310.136 45.714C310.206 46.511 310.179 47.4235 310.054 48.4516L297.184 49.5776C297.603 51.3077 298.408 52.5622 299.601 53.3413C300.791 54.0938 302.17 54.4014 303.737 54.2643C305.889 54.076 307.834 53.3571 309.571 52.1076L310.176 56.2707C309.366 56.7967 308.402 57.2558 307.285 57.6479C306.193 58.0112 304.983 58.2509 303.654 58.3671ZM305.06 45.5157C304.969 44.4797 304.597 43.5888 303.942 42.8429C303.288 42.0971 302.35 41.7777 301.128 41.8846C299.906 41.9915 298.955 42.4361 298.273 43.2184C297.592 44.0008 297.171 45.0013 297.01 46.22L305.06 45.5157ZM320.449 56.8978C319.174 57.0093 317.994 56.9921 316.911 56.8459C315.854 56.6975 314.746 56.4197 313.586 56.0126L313.654 51.7504C314.828 52.3169 315.908 52.731 316.895 52.9927C317.906 53.2255 318.929 53.2965 319.965 53.2059C321.984 53.0293 322.936 52.2768 322.819 50.9485C322.757 50.2313 322.443 49.7099 321.88 49.3845C321.313 49.0325 320.316 48.6513 318.888 48.2408C316.86 47.6956 315.341 47.012 314.332 46.1901C313.321 45.3417 312.747 44.1338 312.61 42.5665C312.459 40.8397 313.001 39.3869 314.236 38.2081C315.469 37.0027 317.215 36.3013 319.473 36.1037C321.731 35.9062 323.835 36.2441 325.785 37.1174L325.716 41.3796C324.647 40.7773 323.644 40.3296 322.708 40.0367C321.799 39.7415 320.853 39.6369 319.87 39.7229C319.02 39.7973 318.371 40.0281 317.923 40.4152C317.501 40.8001 317.319 41.3113 317.374 41.9489C317.418 42.4536 317.587 42.8537 317.881 43.1493C318.201 43.4425 318.625 43.6999 319.153 43.9214C319.679 44.1163 320.546 44.3884 321.754 44.7378C323.758 45.3119 325.225 46.0134 326.154 46.8423C327.081 47.6445 327.609 48.7895 327.74 50.2772C327.905 52.1633 327.355 53.6836 326.091 54.8382C324.827 55.9928 322.946 56.6793 320.449 56.8978Z" fill="white"/>
</svg>
