<svg width="210" height="416" viewBox="0 0 210 416" fill="none" xmlns="http://www.w3.org/2000/svg">
<path d="M158.97 360.983H14.4503L-11.0625 307.797L2.39132 267.902L-4.39186 242.842H22.5524L0.507099 198.186L26.8861 136.007L55.3665 178.366L103.7 113.128L105.458 63.8418L118.777 111.013L105.458 167.474L135.129 223.843L146.911 167.474L169.521 208.926L188.818 290.882L181.195 343.294L158.97 360.983Z" fill="#FFF164"/>
<path fill-rule="evenodd" clip-rule="evenodd" d="M82.0938 361.171L68.339 342.894L87.1812 311.24L106.777 331.401L103.197 361.171H82.0938Z" fill="#F06D50"/>
<path d="M87.1812 311.24L106.777 331.401L121.32 311.24H87.1812Z" fill="#F06D50"/>
<path d="M68.339 342.894L87.1812 311.24L57.4105 326.879L68.339 342.894Z" fill="#F06D50"/>
<path d="M57.4105 326.879L87.1812 311.24H121.32L115.844 273.605L96.6214 204.163L68.339 239.422V264.323L45.3516 290.136L57.4105 326.879Z" fill="#F06D50"/>
<path fill-rule="evenodd" clip-rule="evenodd" d="M82.0934 361.171L68.3386 342.894L83.7554 289.929L116.795 324.558L103.197 361.171H82.0934Z" fill="#BC5151"/>
<path d="M83.7554 289.929L116.795 324.558L121.319 311.239H111.864L100.842 296.701L83.7554 289.929Z" fill="#BC5151"/>
<path d="M68.3386 342.894L83.7554 289.929L57.4102 326.878L68.3386 342.894Z" fill="#BC5151"/>
<path fill-rule="evenodd" clip-rule="evenodd" d="M83.5171 361.171L68.3386 342.894L83.5171 289.929L113.223 334.082L115.128 361.171H83.5171Z" fill="#780000"/>
<path d="M-5.09704 163.158C-3.22984 149.741 -3.33958 135.036 9.01002 129.469C26.0838 121.773 27.9861 169.825 45.4874 163.158C67.134 154.911 86.5505 115.223 93.9125 98.5041C94.1308 98.0084 95.8133 98.4908 95.7602 99.0299C94.8339 108.429 94.8779 125.331 102.641 145.364C113.931 174.499 102.229 228.061 135.863 222.308C144.364 220.854 151.174 214.633 159.795 214.399C182.94 213.772 173.623 248.48 175.562 271.553C178.359 304.846 179.363 328.56 159.795 355.641C125.289 403.395 12.0877 366.431 3.91039 363.683C3.58051 363.572 3.36065 363.379 3.19277 363.074C0.447744 358.09 -23.822 312.856 -17.5789 282.721C-11.8481 255.058 21.6653 251.15 23.1514 222.939C24.5098 197.154 -8.65621 188.733 -5.09704 163.158Z" stroke="white" stroke-width="5.71022" stroke-linejoin="round"/>
<path d="M96.736 363.603C103.24 349.037 128.378 348.732 133.117 348.732C146.32 348.732 152.239 349.99 164.301 355.36C179.503 343.79 168.581 331.744 186.313 338.71L206.949 363.603C206.949 363.603 199.612 389.142 182.797 389.142H139.767H96.736C96.736 389.142 92.3027 384.294 96.736 363.603Z" fill="#FAED70"/>
<path d="M96.736 363.603C103.239 349.037 128.378 348.732 133.117 348.732C146.32 348.732 152.239 349.99 164.301 355.36M96.736 363.603C92.3027 384.294 96.736 389.142 96.736 389.142H139.767C139.767 389.142 165.982 389.142 182.797 389.142C199.612 389.142 206.949 363.603 206.949 363.603L186.313 338.71M96.736 363.603C96.736 363.603 137.915 358.579 164.301 355.36M164.301 355.36C179.503 343.79 168.581 331.744 186.313 338.71M164.301 355.36C172.897 348.858 186.313 338.71 186.313 338.71" stroke="#787878" stroke-width="4.28267"/>
<path fill-rule="evenodd" clip-rule="evenodd" d="M96.7321 389.143C96.7321 389.143 92.2988 384.295 96.7321 363.604L164.297 355.361L186.309 338.711L206.946 363.604C206.946 363.604 199.608 389.143 182.793 389.143H139.763H96.7321Z" fill="#323255"/>
<path d="M96.7321 363.604C103.236 349.039 128.375 348.733 133.113 348.733C146.316 348.733 164.297 355.361 164.297 355.361M96.7321 363.604C92.2988 384.295 96.7321 389.143 96.7321 389.143H139.763M96.7321 363.604L164.297 355.361M182.793 389.143C199.608 389.143 206.946 363.604 206.946 363.604L186.309 338.711L164.297 355.361M182.793 389.143C165.979 389.143 139.763 389.143 139.763 389.143M182.793 389.143H139.763M164.297 355.361C164.297 355.361 160.034 360.541 162.785 371.856C180.212 382.524 139.763 389.143 139.763 389.143" stroke="#787878" stroke-width="0.496782"/>
<path d="M21.6282 340.582C8.10196 337.199 0.700656 327.603 -9.60149 337.199C8.73112 344.579 52.8575 366.441 52.8575 366.441C52.8575 366.441 60.632 366.44 77.7217 366.44C60.0185 348.737 43.749 346.115 21.6282 340.582Z" fill="#FAED70"/>
<path d="M-9.60149 364.053C-5.52868 376.391 3.25927 389.116 3.25927 389.116L52.8575 366.441C52.8575 366.441 8.73112 344.579 -9.60149 337.199C-9.60149 340.885 -10.0075 344.066 -10.3914 347.075C-11.1 352.629 -11.7336 357.594 -9.60149 364.053Z" fill="#FAED70"/>
<path d="M3.25927 389.116H72.0833L52.8575 366.441L3.25927 389.116Z" fill="#FAED70"/>
<path d="M72.0833 389.116C72.0833 389.116 84.4849 378.375 77.7217 366.44C60.632 366.44 52.8575 366.441 52.8575 366.441L72.0833 389.116Z" fill="#FAED70"/>
<path d="M-9.60149 337.199C0.700656 327.603 8.10196 337.199 21.6282 340.582C43.749 346.115 60.0185 348.737 77.7217 366.44M-9.60149 337.199C8.73112 344.579 52.8575 366.441 52.8575 366.441M-9.60149 337.199C-9.60149 340.885 -10.0075 344.066 -10.3914 347.075C-11.1 352.629 -11.7336 357.594 -9.60149 364.053C-5.52868 376.391 3.25927 389.116 3.25927 389.116M3.25927 389.116H72.0833M3.25927 389.116L52.8575 366.441M72.0833 389.116C72.0833 389.116 84.4849 378.375 77.7217 366.44M72.0833 389.116L52.8575 366.441M77.7217 366.44C60.6319 366.44 52.8575 366.441 52.8575 366.441" stroke="#787878" stroke-width="4.28267" stroke-linecap="round" stroke-linejoin="round"/>
<path d="M-9.60149 364.053C-5.52868 376.391 3.25927 389.116 3.25927 389.116L28.0584 377.778L52.8575 366.441C52.8575 366.441 8.73112 344.579 -9.60149 337.199C-9.60149 340.885 -10.0075 344.066 -10.3914 347.075C-11.1 352.629 -11.7336 357.594 -9.60149 364.053Z" fill="#323255"/>
<path d="M3.25927 389.116H72.0833L52.8575 366.441L28.0584 377.778L3.25927 389.116Z" fill="#323255"/>
<path d="M72.0833 389.116C72.0833 389.116 84.4849 378.375 77.7217 366.44C60.632 366.44 52.8575 366.441 52.8575 366.441L72.0833 389.116Z" fill="#323255"/>
<path d="M-9.60149 337.199C0.700656 327.603 8.10196 337.199 21.6282 340.582C43.749 346.115 60.0185 348.737 77.7217 366.44M-9.60149 337.199C8.73112 344.579 52.8575 366.441 52.8575 366.441M-9.60149 337.199C-9.60149 340.885 -10.0075 344.066 -10.3914 347.075C-11.1 352.629 -11.7336 357.594 -9.60149 364.053C-5.52868 376.391 3.25927 389.116 3.25927 389.116M3.25927 389.116H72.0833M3.25927 389.116L28.0584 377.778L52.8575 366.441M72.0833 389.116C72.0833 389.116 84.4849 378.375 77.7217 366.44M72.0833 389.116L52.8575 366.441M77.7217 366.44C60.6319 366.44 52.8575 366.441 52.8575 366.441" stroke="#787878" stroke-width="0.496782" stroke-linecap="round" stroke-linejoin="round"/>
<path d="M65.36 350.939C65.36 350.939 86.1171 337.168 100.568 338.805C111.512 340.045 126.029 350.939 126.029 350.939C126.029 350.939 135.273 363.289 136.969 372.62C138.039 378.505 136.969 387.937 136.969 387.937C136.969 387.937 134.383 406.834 119.266 413H73.5155C60.8791 407.462 54.0884 398.596 52.0328 384.953C49.9072 370.846 65.36 350.939 65.36 350.939Z" fill="#FAED70"/>
<path d="M65.36 350.939C65.36 350.939 86.1171 337.168 100.568 338.805C111.512 340.045 126.029 350.939 126.029 350.939M65.36 350.939C65.36 350.939 49.9072 370.846 52.0328 384.953C54.0884 398.596 60.8791 407.462 73.5155 413M65.36 350.939L100.568 354.32M73.5155 413C91.382 413 101.399 413 119.266 413M73.5155 413C78.254 398.163 85.6492 375.007 85.6492 375.007M119.266 413C134.383 406.834 136.969 387.937 136.969 387.937C136.969 387.937 138.039 378.505 136.969 372.62C135.273 363.289 126.029 350.939 126.029 350.939M119.266 413C106.138 398.163 85.6492 375.007 85.6492 375.007M126.029 350.939L100.568 354.32M100.568 354.32L85.6492 375.007" stroke="#787878" stroke-width="4.28267"/>
<path fill-rule="evenodd" clip-rule="evenodd" d="M65.36 350.939C65.36 350.939 49.9072 370.846 52.0328 384.953C54.0884 398.596 60.8791 407.462 73.5155 413H119.266C134.383 406.834 136.969 387.937 136.969 387.937C136.969 387.937 138.039 378.505 136.969 372.62C135.273 363.289 126.029 350.939 126.029 350.939L100.568 354.32L65.36 350.939Z" fill="#323255"/>
<path d="M65.36 350.939C65.36 350.939 86.1171 337.168 100.568 338.805C111.512 340.045 126.029 350.939 126.029 350.939M65.36 350.939C65.36 350.939 49.9072 370.846 52.0328 384.953C54.0884 398.596 60.8791 407.462 73.5155 413M65.36 350.939L100.568 354.32M73.5155 413C91.382 413 101.399 413 119.266 413M73.5155 413C78.254 398.163 85.6492 375.007 85.6492 375.007M73.5155 413H119.266M119.266 413C134.383 406.834 136.969 387.937 136.969 387.937C136.969 387.937 138.039 378.505 136.969 372.62C135.273 363.289 126.029 350.939 126.029 350.939M119.266 413C106.138 398.163 85.6492 375.007 85.6492 375.007M126.029 350.939L100.568 354.32M100.568 354.32L85.6492 375.007" stroke="#787878" stroke-width="0.496782"/>
<rect x="22.2188" y="85.0591" width="4.00168" height="16.903" rx="2.00084" transform="rotate(-30.1379 22.2188 85.0591)" fill="#FFF164"/>
<rect x="172.68" y="139.283" width="4.00168" height="12.8054" rx="2.00084" transform="rotate(-14.6155 172.68 139.283)" fill="#FFF164"/>
<rect x="203.891" y="215.305" width="4.00168" height="20.1544" rx="2.00084" transform="rotate(39.0419 203.891 215.305)" fill="#FFF164"/>
<rect x="111.461" y="0.615234" width="4.00168" height="12.8054" rx="2.00084" transform="rotate(16.3643 111.461 0.615234)" fill="#FFF164"/>
<rect x="121.793" y="183.892" width="4.00168" height="12.8054" rx="2.00084" transform="rotate(19.7878 121.793 183.892)" fill="#FFF164"/>
</svg>
