<svg width="325" height="155" viewBox="0 0 325 155" fill="none" xmlns="http://www.w3.org/2000/svg">
<path d="M312.68 28.2287L248.8 49.194C244.779 48.5587 243.29 46.0175 242.918 40.1182C243.662 34.4911 244.481 32.126 253.714 24.0511C262.276 19.5132 264.286 19.5159 269.721 18.6991C271.88 12.9812 274.188 8.16831 285.282 1.72712C292.504 -0.904895 295.258 -0.54187 298.087 2.90697C305.607 0.910273 306.501 2.45318 306.798 6.53733C313.648 2.72545 315.509 2.54395 318.264 2.72547C324.667 4.35913 325.561 6.99115 324.146 13.7073C321.838 19.6974 319.158 22.874 312.68 28.2287Z" fill="white"/>
<path d="M314.497 13.6464C315.876 13.2334 316.815 13.2144 318.027 13.2891C321.039 14.0748 322.262 14.9861 322.794 16.0545C323.378 17.2291 323.389 19.0569 322.703 22.3559C321.605 25.1826 320.437 27.3037 318.805 29.3454C317.172 31.3881 315.039 33.397 311.942 35.9679L248.69 56.727C247.21 56.433 246.35 55.8368 245.757 54.9022C245.059 53.8022 244.613 52.0531 244.424 49.2447C244.783 46.5694 245.151 44.8633 246.402 42.8779C247.714 40.7957 250.045 38.3366 254.57 34.3707C258.725 32.1749 261.23 31.1128 263.317 30.4933C265.087 29.9678 266.577 29.7507 268.635 29.4508C269.047 29.3909 269.481 29.3277 269.944 29.2581L270.814 29.1274L271.124 28.3046C272.189 25.486 273.236 23.0403 275.311 20.5113C277.38 17.9891 280.54 15.3028 285.92 12.1668C289.442 10.8914 291.623 10.4503 293.184 10.6051C294.605 10.746 295.669 11.4002 296.928 12.934L297.54 13.6801L298.472 13.4324C300.314 12.9435 301.671 12.6935 302.674 12.6302C303.688 12.5662 304.191 12.7041 304.44 12.8381C304.632 12.9417 304.802 13.1095 304.955 13.5419C305.126 14.0262 305.229 14.715 305.302 15.7221L305.473 18.067L307.528 16.9237C310.933 15.0287 312.994 14.0969 314.497 13.6464Z" stroke="#ACC0F9" stroke-width="3"/>
<path d="M75.4207 110.259L6.9241 132.768C2.38248 130.862 1.19124 126.505 0 116.431C0.0744528 107.083 2.30802 101.456 9.7533 90.8371C16.6774 86.7529 20.2512 85.7545 26.2074 85.4823C27.7709 76.1341 30.6746 70.6886 41.3213 59.979C49.0644 56.9839 52.1914 58.1638 55.7651 64.6077C63.8805 62.7018 65.1462 65.606 65.9652 72.413C73.1126 67.3305 75.1973 67.4212 78.3244 68.3288C85.6952 72.3222 87.0353 77.0417 86.3653 88.0235C84.5039 97.644 81.8981 102.454 75.4207 110.259Z" fill="white"/>
<path d="M208.274 132.9L155.145 151.426C151.425 150.678 150.225 148.239 148.693 142.475C148.21 137.032 149.658 133.583 154.958 126.816C160.224 123.892 163.006 123.028 167.724 122.397C168.424 116.836 170.415 113.439 178.254 106.366C184.234 104.01 186.788 104.448 190.002 107.912C196.341 106.159 197.515 107.748 198.562 111.641C203.947 108.118 205.609 108.006 208.147 108.285C214.236 110.023 215.575 112.661 215.681 119.101C214.706 124.902 212.974 127.9 208.274 132.9Z" fill="white"/>
<path d="M212.729 112.05C213.847 111.71 214.67 111.718 215.812 111.834C218.707 112.653 220.154 113.602 220.975 114.825C221.83 116.097 222.203 117.942 222.258 121.045C221.804 123.727 221.156 125.705 220.102 127.589C219.055 129.459 217.57 131.302 215.337 133.677L161.832 152.058C160.506 151.733 159.702 151.151 159.036 150.179C158.238 149.011 157.604 147.232 156.84 144.411C156.636 141.945 156.877 140.001 157.742 137.91C158.624 135.775 160.185 133.416 162.765 130.172C167.822 127.433 170.475 126.643 175.015 126.039L176.156 125.887L176.305 124.746C176.645 122.139 177.274 120.126 178.726 117.922C180.189 115.701 182.523 113.232 186.387 109.799C189.251 108.708 191.064 108.373 192.451 108.559C193.791 108.739 194.967 109.44 196.49 111.05L197.108 111.702L197.975 111.466C201.208 110.584 202.593 110.717 203.266 111.076C203.874 111.401 204.317 112.133 204.859 114.126L205.396 116.099L207.117 114.994C209.84 113.245 211.498 112.425 212.729 112.05Z" stroke="#ACC0F9" stroke-width="3"/>
<path d="M81.1772 76.7852C82.5419 76.4078 83.5076 76.5513 84.8764 76.9397C88.2664 78.8015 90.0929 80.7264 91.085 83.3083C92.1255 86.0163 92.3246 89.6274 91.9992 95.045C91.0518 99.7709 89.9728 103.236 88.3785 106.436C86.8159 109.572 84.7261 112.518 81.6703 116.183L14.1384 138.374C12.575 137.592 11.5352 136.39 10.7271 134.329C9.79883 131.962 9.21964 128.567 8.62578 123.564C8.66886 119.068 9.22847 115.534 10.6379 111.863C12.0455 108.197 14.3266 104.325 17.92 99.1795C21.1956 97.2621 23.6364 96.0997 25.9219 95.3747C28.2573 94.6339 30.4989 94.3281 33.4009 94.1954L34.6119 94.1401L34.8118 92.9444C35.5735 88.3903 36.6443 84.8782 38.7795 81.2106C40.9039 77.5615 44.1217 73.6898 49.2837 68.4795C52.9306 67.0999 55.1391 66.8566 56.7609 67.3928C58.3904 67.9314 59.8281 69.394 61.5784 72.55L62.1287 73.5422L63.2331 73.2828C67.2465 72.3402 68.8751 72.7813 69.7024 73.554C70.1506 73.9727 70.5354 74.6349 70.8556 75.7003C71.1769 76.7692 71.3979 78.1192 71.6009 79.8069L71.9024 82.3129L73.9594 80.8502C77.5112 78.3246 79.6398 77.2102 81.1772 76.7852Z" stroke="#ACC0F9" stroke-width="3"/>
</svg>
