<svg width="281" height="135" viewBox="0 0 281 135" fill="none" xmlns="http://www.w3.org/2000/svg">
<path d="M69.7622 97.49L5.88179 118.455C1.86134 117.82 0.372264 115.279 0 109.379C0.744528 103.752 1.56349 101.387 10.7957 93.3124C19.3577 88.7744 21.3679 88.7771 26.803 87.9603C28.9621 82.2425 31.2702 77.4295 42.3636 70.9883C49.5856 68.3563 52.3403 68.7194 55.1695 72.1682C62.6892 70.1715 63.5826 71.7144 63.8804 75.7986C70.7301 71.9867 72.5914 71.8052 75.3462 71.9867C81.7491 73.6204 82.6425 76.2524 81.2279 82.9685C78.9199 88.9586 76.2396 92.1352 69.7622 97.49Z" fill="white"/>
<path d="M71.5794 82.9082C72.958 82.4951 73.8969 82.4761 75.1089 82.5508C78.1214 83.3365 79.344 84.2478 79.8757 85.3162C80.4604 86.4909 80.4706 88.3186 79.7848 91.6176C78.6867 94.4443 77.5189 96.5654 75.8869 98.6071C74.2541 100.65 72.1211 102.659 69.0243 105.23L5.7721 125.989C4.29208 125.695 3.43242 125.099 2.83939 124.164C2.14146 123.064 1.69485 121.315 1.50648 118.506C1.86518 115.831 2.233 114.125 3.48403 112.14C4.79609 110.057 7.12677 107.598 11.652 103.632C15.807 101.437 18.3124 100.374 20.3989 99.755C22.169 99.2295 23.6592 99.0124 25.7174 98.7126C26.1286 98.6527 26.5626 98.5894 27.0259 98.5198L27.8956 98.3891L28.2063 97.5664C29.2706 94.7478 30.3183 92.302 32.3927 89.773C34.4615 87.2508 37.6216 84.5645 43.0019 81.4285C46.5238 80.1531 48.7048 79.712 50.2658 79.8668C51.6867 80.0077 52.7515 80.6619 54.0098 82.1957L54.6218 82.9418L55.5544 82.6941C57.3959 82.2052 58.7527 81.9552 59.7556 81.8919C60.7702 81.8279 61.2729 81.9658 61.5218 82.0998C61.7142 82.2035 61.8841 82.3713 62.0369 82.8036C62.2081 83.288 62.311 83.9768 62.3844 84.9838L62.5554 87.3288L64.6098 86.1854C68.015 84.2904 70.0761 83.3586 71.5794 82.9082Z" stroke="#ACC0F9" stroke-width="3"/>
<path d="M262.061 104.704L193.565 127.212C189.023 125.306 187.832 120.95 186.641 110.875C186.715 101.527 188.949 95.9002 196.394 85.2814C203.318 81.1972 206.892 80.1989 212.848 79.9266C214.412 70.5784 217.315 65.1329 227.962 54.4233C235.705 51.4283 238.832 52.6081 242.406 59.052C250.521 57.1461 251.787 60.0504 252.606 66.8573C259.753 61.7748 261.838 61.8656 264.965 62.7731C272.336 66.7665 273.676 71.486 273.006 82.4679C271.145 92.0883 268.539 96.8985 262.061 104.704Z" fill="white"/>
<path d="M143.548 30.7333L101.813 43.9743C99.0454 42.8531 98.3196 40.2903 97.5938 34.3639C97.6391 28.8647 99 25.5544 103.536 19.3076C107.755 16.9051 109.933 16.3177 113.562 16.1576C114.515 10.6583 116.284 7.45483 122.771 1.15469C127.489 -0.607217 129.394 0.0868662 131.572 3.87763C136.516 2.75642 137.288 4.46494 137.787 8.46927C142.142 5.47937 143.412 5.53276 145.317 6.06667C149.808 8.41588 150.625 11.1922 150.216 17.6525C149.037 23.3654 147.495 26.1951 143.548 30.7333Z" fill="white"/>
<path d="M148.447 10.1309C149.145 9.94709 149.632 10.0012 150.4 10.2055C152.388 11.2546 153.371 12.291 153.904 13.6129C154.485 15.0533 154.622 17.036 154.425 20.1881C153.874 22.8749 153.226 24.8255 152.278 26.6289C151.357 28.3792 150.121 30.0531 148.303 32.1628L106.961 45.1041C106.235 44.7105 105.741 44.1297 105.331 43.1338C104.798 41.8387 104.449 39.9372 104.083 37.012C104.112 34.4511 104.449 32.4672 105.278 30.4106C106.107 28.3524 107.457 26.1529 109.621 23.192C111.57 22.111 113.01 21.4645 114.344 21.0614C115.728 20.6431 117.064 20.4669 118.831 20.39L120.035 20.3376L120.243 19.1508C120.704 16.5277 121.343 14.544 122.609 12.4725C123.868 10.4134 125.786 8.20115 128.909 5.19072C131.067 4.42483 132.262 4.34265 133.074 4.59853C133.874 4.85052 134.665 5.54921 135.723 7.3662L136.275 8.31502L137.347 8.07532C139.817 7.52269 140.574 7.85082 140.861 8.10586C141.027 8.25367 141.217 8.52749 141.395 9.09008C141.575 9.65984 141.705 10.405 141.83 11.3911L142.136 13.8155L144.159 12.445C146.342 10.9662 147.592 10.3562 148.447 10.1309Z" stroke="#ACC0F9" stroke-width="3"/>
<path d="M267.818 71.2295C269.183 70.8522 270.148 70.9956 271.517 71.384C274.907 73.2458 276.734 75.1707 277.726 77.7526C278.766 80.4606 278.965 84.0717 278.64 89.4893C277.692 94.2153 276.613 97.6806 275.019 100.88C273.457 104.016 271.367 106.963 268.311 110.627L200.779 132.818C199.216 132.036 198.176 130.834 197.368 128.774C196.439 126.407 195.86 123.012 195.266 118.008C195.309 113.513 195.869 109.978 197.279 106.307C198.686 102.641 200.967 98.7692 204.561 93.6238C207.836 91.7064 210.277 90.544 212.562 89.819C214.898 89.0782 217.14 88.7724 220.042 88.6398L221.253 88.5844L221.452 87.3888C222.214 82.8346 223.285 79.3225 225.42 75.6549C227.545 72.0058 230.762 68.1341 235.924 62.9238C239.571 61.5443 241.78 61.301 243.402 61.8371C245.031 62.3758 246.469 63.8384 248.219 66.9943L248.769 67.9865L249.874 67.7271C253.887 66.7846 255.516 67.2256 256.343 67.9983C256.791 68.417 257.176 69.0792 257.496 70.1446C257.818 71.2135 258.038 72.5636 258.242 74.2513L258.543 76.7573L260.6 75.2945C264.152 72.7689 266.28 71.6546 267.818 71.2295Z" stroke="#ACC0F9" stroke-width="3"/>
</svg>
