<svg width="163" height="104" viewBox="0 0 163 104" fill="none" xmlns="http://www.w3.org/2000/svg">
<path d="M163 96L155.5 10L8 0L12 86.5L163 96Z" fill="#678BE1"/>
<path d="M5.43628 93.0874L153.354 102.393L146.117 19.4097L1.57607 9.61029L5.43628 93.0874Z" stroke="white" stroke-width="3"/>
<path d="M38.5973 35.166L55.8058 36.2076L55.5061 41.1586L43.4082 40.4263L43.0481 46.3754L52.391 46.9409L52.0913 51.8919L42.7484 51.3263L42.0162 63.4242L36.9055 63.1148L38.5973 35.166ZM70.9043 58.5206L60.7229 57.9044L58.006 64.3921L53.055 64.0924L64.6886 36.7453L69.5197 37.0377L77.7698 65.5884L72.8189 65.2887L70.9043 58.5206ZM69.5779 53.9522L66.7084 43.7602L62.5907 53.5292L69.5779 53.9522ZM107.486 53.3615C107.277 56.8218 106.244 59.7514 104.389 62.1504L106.76 64.6983L103.4 67.9012L100.917 65.2263C98.4813 66.6283 95.7861 67.2399 92.8315 67.0611C90.1963 66.9016 87.8636 66.1593 85.8332 64.8342C83.8312 63.4841 82.2973 61.6814 81.2316 59.4263C80.1941 57.1461 79.7624 54.5686 79.9364 51.6939C80.1104 48.8191 80.8491 46.3259 82.1524 44.2141C83.4839 42.0773 85.224 40.4729 87.3727 39.4007C89.5497 38.3036 91.9557 37.8348 94.5909 37.9943C97.2261 38.1538 99.5447 38.9086 101.547 40.2587C103.577 41.5838 105.111 43.3864 106.148 45.6666C107.214 47.9218 107.66 50.4867 107.486 53.3615ZM93.1312 62.1101C94.7549 62.2084 96.1583 61.9728 97.3416 61.4032L94.2186 58.0484L97.5782 54.8456L100.739 58.2427C101.548 56.7956 102.013 55.0606 102.136 53.0376C102.31 50.1629 101.718 47.8028 100.36 45.9574C99.0293 44.1136 97.0063 43.1096 94.2912 42.9452C91.5762 42.7809 89.4335 43.5328 87.8632 45.201C86.3195 46.8707 85.4606 49.143 85.2866 52.0177C85.1126 54.8925 85.6911 57.2517 87.0221 59.0955C88.3798 60.9409 90.4161 61.9458 93.1312 62.1101Z" fill="white"/>
</svg>
