<svg width="238" height="151" viewBox="0 0 238 151" fill="none" xmlns="http://www.w3.org/2000/svg">
<path d="M231.642 68.9928L276.263 123.529C276.263 123.529 228.077 124.528 197.219 125.549C167.832 126.522 151.361 127.189 122 128.579C80.6419 130.536 16.1831 134.638 16.1831 134.638C16.1831 134.638 12.5334 112.449 22.5577 91.2113C30.7455 73.864 37.8565 60.9133 42.9561 45.7643C48.0557 30.6153 54.6492 8.18842 69.7291 1.32728C73.8249 -0.536256 80.8033 -0.346042 85.028 1.32728C102.877 8.39683 93.9523 20.516 102.877 25.5657C114.053 31.8896 114.654 5.88029 128.375 6.37694C140.353 6.81053 138.574 21.5259 151.323 22.5359C164.072 23.5458 177.013 15.8868 188.295 18.4961C197.22 22.5359 195.945 24.5557 204.869 35.665L231.642 68.9928Z" fill="#2B9B99"/>
<path d="M218.697 83.2398L263.441 137.776C263.441 137.776 215.123 138.775 184.181 139.796C154.713 140.769 138.197 141.436 108.756 142.826C67.2847 144.783 2.64973 148.885 2.64973 148.885C2.64973 148.885 -1.00992 126.696 9.04171 105.458C17.2519 88.1111 24.3823 75.1604 29.4959 60.0114C34.6094 44.8624 41.2209 22.4355 56.342 15.5743C60.449 13.7108 67.4465 13.901 71.6827 15.5743C89.5801 22.6439 80.6314 34.7631 89.5801 39.8127C100.787 46.1367 101.39 20.1274 115.148 20.624C127.159 21.0576 125.375 35.773 138.159 36.7829C150.943 37.7929 163.919 30.1338 175.232 32.7432C184.181 36.783 182.902 38.8028 191.851 49.9121L218.697 83.2398Z" stroke="white" stroke-width="4"/>
</svg>
