<svg width="202" height="215" viewBox="0 0 202 215" fill="none" xmlns="http://www.w3.org/2000/svg">
<path d="M30.5273 214.993C37.4661 88.346 43.5607 21.8024 105.832 7.16696C166.155 6.07143 148.643 78.3315 201.769 214.993" fill="#F8A836"/>
<path d="M86.4037 7.42912C115.979 15.9732 128.994 35.6131 107.875 57.5156C107.875 57.5156 78.0026 80.7763 75.5874 110.267C73.1723 139.757 19.2344 147.691 19.2344 147.691" stroke="white" stroke-width="4"/>
<mask id="path-3-inside-1" fill="white">
<path d="M0 212.375C38.5907 93.345 38.7291 14.571 100.85 0.0122102C161.027 -1.07757 143.558 70.8039 196.555 206.749"/>
</mask>
<path d="M100.85 0.0122102L100.778 -3.98713L100.352 -3.97942L99.9377 -3.88227L100.85 0.0122102ZM3.80502 213.609C13.4906 183.735 20.7596 156.397 27.1707 132.043C33.5964 107.634 39.1303 86.3459 45.3803 68.3278C57.8823 32.2864 72.7836 10.6983 101.763 3.90669L99.9377 -3.88227C66.7959 3.88484 50.5674 28.9631 37.8221 65.706C31.4486 84.0801 25.8295 105.713 19.4343 130.007C13.0246 154.355 5.80479 181.501 -3.80502 211.142L3.80502 213.609ZM100.923 4.01155C115.035 3.75599 124.005 7.71958 130.734 15.378C137.737 23.3487 142.662 35.6894 147.544 53.0739C157.196 87.4473 166.241 140.002 192.829 208.202L200.282 205.296C173.872 137.551 165.153 86.1924 155.246 50.9112C150.348 33.4684 145.046 19.5465 136.743 10.0976C128.167 0.336461 116.754 -4.27646 100.778 -3.98713L100.923 4.01155Z" fill="white" mask="url(#path-3-inside-1)"/>
</svg>
