<svg width="203" height="253" viewBox="0 0 203 253" fill="none" xmlns="http://www.w3.org/2000/svg">
<path d="M179.434 243.234C172.495 116.588 166.4 50.044 104.129 35.4087C43.8063 34.3131 61.3182 106.573 8.19211 243.234" fill="#FFBD91"/>
<mask id="path-2-inside-1" fill="white">
<path d="M0 252.31C38.5907 133.279 38.7291 54.5051 100.85 39.9463C161.027 38.8565 143.557 110.738 196.555 246.684"/>
</mask>
<path d="M100.85 39.9463L100.778 35.9469L100.352 35.9547L99.9377 36.0518L100.85 39.9463ZM3.80502 253.544C13.4906 223.669 20.7596 196.332 27.1707 171.978C33.5964 147.569 39.1303 126.28 45.3803 108.262C57.8822 72.2206 72.7836 50.6324 101.763 43.8408L99.9377 36.0518C66.7959 43.819 50.5674 68.8973 37.8221 105.64C31.4486 124.014 25.8295 145.648 19.4343 169.941C13.0246 194.29 5.80479 221.436 -3.80502 251.077L3.80502 253.544ZM100.923 43.9456C115.035 43.6901 124.005 47.6537 130.734 55.3121C137.737 63.2828 142.662 75.6236 147.544 93.0082C157.196 127.382 166.241 179.937 192.829 248.137L200.282 245.231C173.872 177.485 165.153 126.127 155.246 90.8454C150.348 73.4026 145.046 59.4807 136.743 50.0317C128.167 40.2706 116.754 35.6576 100.778 35.9469L100.923 43.9456Z" fill="white" mask="url(#path-2-inside-1)"/>
<path d="M194.49 89.1848C190.141 125.026 173.684 147.274 151.045 133.264C151.045 133.264 126.174 110.187 98.7671 119.702C71.3598 129.217 57.6832 73.5502 57.6832 73.5502" stroke="white" stroke-width="4"/>
</svg>
