<svg width="1244" height="611" viewBox="0 0 1244 611" fill="none" xmlns="http://www.w3.org/2000/svg">
<path d="M30.5273 435.993C37.4661 309.346 43.5607 242.802 105.832 228.167C166.155 227.071 148.643 299.331 201.769 435.993" fill="#F8A836"/>
<path d="M86.4037 228.429C115.979 236.973 128.994 256.613 107.875 278.516C107.875 278.516 78.0026 301.776 75.5874 331.267C73.1723 360.757 19.2344 368.691 19.2344 368.691" stroke="white" stroke-width="4"/>
<mask id="path-3-inside-1" fill="white">
<path d="M0 433.375C38.5907 314.345 38.7291 235.571 100.85 221.012C161.027 219.922 143.558 291.804 196.555 427.749"/>
</mask>
<path d="M100.85 221.012L100.778 217.013L100.352 217.021L99.9377 217.118L100.85 221.012ZM3.80502 434.609C13.4906 404.735 20.7596 377.397 27.1707 353.043C33.5964 328.634 39.1303 307.346 45.3803 289.328C57.8823 253.286 72.7836 231.698 101.763 224.907L99.9377 217.118C66.7959 224.885 50.5674 249.963 37.8221 286.706C31.4486 305.08 25.8295 326.713 19.4343 351.007C13.0246 375.355 5.80479 402.501 -3.80502 432.142L3.80502 434.609ZM100.923 225.012C115.035 224.756 124.005 228.72 130.734 236.378C137.737 244.349 142.662 256.689 147.544 274.074C157.196 308.447 166.241 361.002 192.829 429.202L200.282 426.296C173.872 358.551 165.153 307.192 155.246 271.911C150.348 254.468 145.046 240.547 136.743 231.098C128.167 221.336 116.754 216.724 100.778 217.013L100.923 225.012Z" fill="white" mask="url(#path-3-inside-1)"/>
<path d="M1155.43 243.234C1148.49 116.588 1142.4 50.044 1080.13 35.4087C1019.81 34.3131 1037.32 106.573 984.192 243.234" fill="#FFBD91"/>
<mask id="path-6-inside-2" fill="white">
<path d="M976 252.31C1014.59 133.279 1014.73 54.5051 1076.85 39.9463C1137.03 38.8565 1119.56 110.738 1172.56 246.684"/>
</mask>
<path d="M1076.85 39.9463L1076.78 35.9469L1076.35 35.9547L1075.94 36.0518L1076.85 39.9463ZM979.805 253.544C989.491 223.669 996.76 196.332 1003.17 171.978C1009.6 147.569 1015.13 126.28 1021.38 108.262C1033.88 72.2206 1048.78 50.6324 1077.76 43.8408L1075.94 36.0518C1042.8 43.819 1026.57 68.8973 1013.82 105.64C1007.45 124.014 1001.83 145.648 995.434 169.941C989.025 194.29 981.805 221.436 972.195 251.077L979.805 253.544ZM1076.92 43.9456C1091.04 43.6901 1100 47.6537 1106.73 55.3121C1113.74 63.2828 1118.66 75.6236 1123.54 93.0082C1133.2 127.382 1142.24 179.937 1168.83 248.137L1176.28 245.231C1149.87 177.485 1141.15 126.127 1131.25 90.8454C1126.35 73.4026 1121.05 59.4807 1112.74 50.0317C1104.17 40.2706 1092.75 35.6576 1076.78 35.9469L1076.92 43.9456Z" fill="white" mask="url(#path-6-inside-2)"/>
<path d="M1170.49 89.1848C1166.14 125.026 1149.68 147.274 1127.04 133.264C1127.04 133.264 1102.17 110.187 1074.77 119.702C1047.36 129.217 1033.68 73.5502 1033.68 73.5502" stroke="white" stroke-width="4"/>
<path d="M1237.64 528.993L1282.26 583.529C1282.26 583.529 1234.08 584.528 1203.22 585.549C1173.83 586.522 1157.36 587.189 1128 588.579C1086.64 590.536 1022.18 594.638 1022.18 594.638C1022.18 594.638 1018.53 572.449 1028.56 551.211C1036.75 533.864 1043.86 520.913 1048.96 505.764C1054.06 490.615 1060.65 468.188 1075.73 461.327C1079.82 459.464 1086.8 459.654 1091.03 461.327C1108.88 468.397 1099.95 480.516 1108.88 485.566C1120.05 491.89 1120.65 465.88 1134.37 466.377C1146.35 466.811 1144.57 481.526 1157.32 482.536C1170.07 483.546 1183.01 475.887 1194.3 478.496C1203.22 482.536 1201.94 484.556 1210.87 495.665L1237.64 528.993Z" fill="#2B9B99"/>
<path d="M1224.7 543.24L1269.44 597.776C1269.44 597.776 1221.12 598.775 1190.18 599.796C1160.71 600.769 1144.2 601.436 1114.76 602.826C1073.28 604.783 1008.65 608.885 1008.65 608.885C1008.65 608.885 1004.99 586.696 1015.04 565.458C1023.25 548.111 1030.38 535.16 1035.5 520.011C1040.61 504.862 1047.22 482.435 1062.34 475.574C1066.45 473.711 1073.45 473.901 1077.68 475.574C1095.58 482.644 1086.63 494.763 1095.58 499.813C1106.79 506.137 1107.39 480.127 1121.15 480.624C1133.16 481.058 1131.37 495.773 1144.16 496.783C1156.94 497.793 1169.92 490.134 1181.23 492.743C1190.18 496.783 1188.9 498.803 1197.85 509.912L1224.7 543.24Z" stroke="white" stroke-width="4"/>
</svg>
