<?xml version="1.0" encoding="utf-8"?>
<!-- Generator: Adobe Illustrator 23.1.1, SVG Export Plug-In . SVG Version: 6.00 Build 0)  -->
<svg version="1.1" id="Layer_1" xmlns="http://www.w3.org/2000/svg" xmlns:xlink="http://www.w3.org/1999/xlink" x="0px" y="0px"
	 viewBox="0 0 2500 870" style="enable-background:new 0 0 2500 870;" xml:space="preserve">
<style type="text/css">
	.st0{fill:#FFFFFF;}
</style>
<title>capital-one-logo copy</title>
<path class="st0" d="M1643.9,629.1c-103.4,73.3-225.5,150-356.8,230.6l-5.1,2.8c-1.7,1.1-2.3,3.4-1.1,5.7c1.1,1.7,3.4,2.3,5.7,1.1
	l4.6-2.3c111.3-57.9,239.7-127.2,368.1-198.3c0.6-0.6,1.1-0.6,2.3-1.1C1654.1,655.8,1647.9,642.7,1643.9,629.1z M2321,80.9
	c-162.5-179.5-1208.3-18.2-1653.1,79l-10.2,2.3c-2.3,0.6-3.4,2.3-3.4,4.5c0.6,2.3,2.3,3.4,4.5,3.4l10.2-2.3
	c368.1-65.3,1134.4-156.2,1299.8,7.4c50.6,50,38.1,114.2-19.9,189.7c31.2,20.5,54,52.3,64.2,92C2240.4,305.3,2393.2,161,2321,80.9z"
	/>
<g>
	<path class="st0" d="M1709.8,582c2.3,63.1,42,114.7,94.3,114.7c101.1,0,143.7-123.8,140.9-206.8c-2.3-63.1-43.2-114.8-94.9-114.8
		C1762.6,375.2,1706.9,498.5,1709.8,582z M1656.4,578.6c-4-107.9,80.7-217.6,203.4-217.6c81.8,0,135.8,54.5,138.6,138
		c4,113.6-75,217.6-203.4,217.6C1713.2,716.6,1659.2,662.1,1656.4,578.6z M495.8,550.2c-4.6,1.7-10.2,3.4-17,4.5
		c-6.8,1.7-19.9,4-38.1,6.8c-12.5,2.3-21.6,4.5-26.7,8.5c-5.1,3.4-8,8-8.5,13.1c-1.1,5.7,0.6,10.2,5.7,13.6
		c5.1,3.4,13.1,5.1,24.4,5.1c8.5,0,17-1.1,25.6-4s15.3-6.3,21-10.8c4-3.4,6.8-7.9,9.1-13.1C491.8,570,493.5,562.1,495.8,550.2
		L495.8,550.2z M602.6,483.7c-0.6,9.7-2.3,18.8-4.5,33.5l-18.2,101.1c-1.7,9.1,1.7,15.9,10.2,21l-0.6,4H486.2l-1.1-25.6
		c-14.8,9.1-32.9,16.5-49.4,21c-16.5,4-29.5,6.2-49.4,6.2c-33.5,0-52.3-3.4-65.3-14.8c-13.6-11.9-19.9-19.9-19.3-36.4
		c0.6-9.7,5.1-21.6,12.5-30.1c7.4-8.5,17-14.2,27.3-19.3c10.8-5.1,23.3-8.5,41.5-11.4c18.2-2.8,43.7-5.7,77.8-8.5
		c17.6-1.7,29-5.7,34.1-7.4c7.4-2.8,9.7-5.7,10.8-11.4c1.7-10.2-1.1-16.5-15.3-19.3c-36.9-7.4-106.8,4.5-142.6,13.6l19.3-52.8
		c47.2-6.8,92-11.4,138.6-11.4C579.3,435.4,603.2,456.4,602.6,483.7z M901.4,643.3l35.8-202.2h98.8l-35.8,202.2H901.4z M942.9,394.5
		c2.8-16.5,29-30.1,58.5-30.1c29.5,0,50.6,13.6,47.7,30.1c-2.8,16.5-29.5,30.1-58.5,30.1C961.1,424.6,939.5,411,942.9,394.5z
		 M1387.1,550.7c-4.5,1.7-10.2,3.4-17,4.5c-6.8,1.7-19.9,4-38.6,6.8c-12.5,2.3-21.6,4.5-26.7,8.5c-4.5,3.4-7.4,7.9-8.5,13.1
		c-1.1,5.7,1.1,10.2,5.7,13.6c5.1,3.4,13.1,5.1,25,5.1c8.5,0,17-1.1,25.6-4c8.5-2.8,15.3-6.2,21-10.8c4-3.4,6.8-8,8.5-13.1
		C1383.1,570.6,1384.8,562.6,1387.1,550.7L1387.1,550.7z M1493.3,484.3c-0.6,9.7-2.3,18.7-5.1,33.5l-17.6,101.1
		c-1.7,9.1,1.7,15.9,10.2,21l-0.6,3.4h-103.4l-0.6-25.6c-15.3,9.1-33.5,16.5-49.4,21c-16.5,4.5-29.5,6.2-49.4,6.2
		c-33.5,0-52.3-3.4-65.3-14.8c-13.6-11.9-19.9-19.9-19.3-36.4c0.6-9.7,5.1-21.6,12.5-30.1c7.4-8.5,17-14.2,27.3-19.3
		c10.8-5.1,23.3-8.5,41.5-11.9c18.2-2.8,43.7-5.7,77.8-8.5c17.6-1.7,28.4-5.7,33.5-7.4c7.4-2.8,10.2-5.7,11.4-11.9
		c1.7-10.2-1.7-16.5-15.3-19.3c-37.5-7.4-106.8,4.5-142.6,13.6l19.3-52.8c47.7-6.8,91.5-11.4,138.6-11.4
		C1470.1,436,1493.9,457,1493.3,484.3L1493.3,484.3z M287.9,570.6c-32.4,6.2-50,9.1-81.8,9.1c-47.2,0-84.6-23.3-82.9-66.5
		c1.7-28.4,35.2-89.2,121.6-89.2c27.3,0,48.3,4.5,76.7,21l12.5-69.9c-38.6-14.8-64.2-17-97.7-16.5C123.2,359.8,14.7,411,1.6,515.5
		C-12,621.7,117.5,648.4,174.8,647.9c32.9,0,67.6-1.7,100-4.5L287.9,570.6L287.9,570.6z M1090.6,439.9l6.8-40.9l103.4-22.7
		l-10.8,63.6h50.6l-9.7,40.9H1182l-29.5,162.5c0,0-99.4-0.6-100,0l29.5-161.9h-37.5l7.4-40.9h38.6L1090.6,439.9L1090.6,439.9z
		 M1593.9,643.3h-101.1l50.6-281.8l98.3,2.8L1593.9,643.3z M770.8,488.8c-13.1,0-24.4,4-35.2,11.9c-10.2,8-17,19.3-19.3,34.7
		c-2.8,17.6-1.1,30.1,5.7,38.1c6.8,7.9,17,11.9,30.7,11.9c9.1,0,18.2-1.7,25-5.1c8.5-4.5,14.2-9.1,19.3-16.5
		c5.7-8,9.1-16.5,10.8-26.7c2.8-15.9,0.6-27.8-6.8-35.8C793.5,492.8,783.8,488.8,770.8,488.8z M590.7,713.2l48.3-271h86.9l-6.8,34.7
		c7.4-10.2,19.3-18.8,36.4-25.6c16.5-6.8,35.8-11.9,56.2-11.9c22.7,0,36.4,1.1,53.4,10.2c17,9.1,28.4,21.6,35.2,38.6
		c6.3,16.5,8,34.6,4.6,55.1c-5.7,33.5-22.2,59.6-48.9,79s-50.6,24.4-84.1,24.4c-11.9,0-22.2-1.1-30.7-3.4c-7.9-2.3-14.8-4.5-19.9-8
		c-4.5-3.4-9.7-7.4-16.5-14.8L689,713.2H590.7L590.7,713.2z M2384.7,513.8c-0.6-16.5-8.5-27.3-25.6-27.3
		c-40.3,0-83.5,79.5-90.9,111.3C2334.1,597.9,2385.8,558.1,2384.7,513.8L2384.7,513.8z M2393.2,638.2l8,5.1
		c-19.9,40.3-60.2,72.7-107.4,72.7c-38.6,0-70.4-25.6-72.1-73.8c-2.8-86.3,77.8-167,144.3-167c28.4,0,55.1,12.5,56.2,43.2
		c2.3,68.7-94.3,89.8-157.9,91.5c-2.3,7.4-2.8,14.2-2.3,25.6c1.1,28.4,18.2,52.8,54,52.8C2346.6,687.1,2377.3,662.6,2393.2,638.2z"
		/>
	<path class="st0" d="M1996.7,511.5c6.8-1.1,18.2-2.3,22.7-2.3c7.4,0,14.2,1.1,14.2,8.5c0,4.6-7.4,35.2-9.1,42l-15.3,68.2
		c-6.3,27.8-13.1,56.8-18.7,80.1h39.8l22.1-107.4c68.2-70.4,94.3-93.7,110.2-93.7c7.4,0,11.9,4,12.5,12.5
		c0.6,12.5-7.4,40.9-10.2,48.9l-22.7,78.4c-5.1,17.6-9.1,33.5-8.5,44.9c0.6,17,11.4,25,26.7,25c29,0,50-30.1,68.2-59.6l-5.1-9.7
		c-7.4,11.9-24.4,38.1-38.1,38.1c-4.5,0-8.5-2.8-8.5-10.2c-0.6-9.1,3.4-22.7,6.2-31.8l25-92c6.8-25.6,10.2-41.5,9.7-50.6
		c-0.6-17-10.8-25-26.1-25c-26.1,0-60.8,18.7-134.1,103.4h-1.1l9.1-40.9c5.1-22.7,9.7-46,14.8-61.9c-25.6,9.1-61.4,19.3-84.1,23.9
		L1996.7,511.5L1996.7,511.5z"/>
</g>
<path class="st0" d="M2428.4,438.2c0-20.5,16.5-35.2,35.8-35.2c19.3,0,35.2,14.8,35.2,35.2c0,20.5-16.5,35.2-35.2,35.2
	C2444.3,473.5,2428.4,458.7,2428.4,438.2z M2464.2,467.8c15.9,0,28.4-12.5,28.4-29.5c0-16.5-12.5-29-28.4-29s-28.4,12.5-28.4,29
	C2435.2,455.3,2447.7,467.8,2464.2,467.8z M2456.2,458.7h-6.3v-40.3h15.3c9.7,0,14.2,3.4,14.2,11.4c0,7.4-4.5,10.2-10.8,11.4
	l11.4,17.6h-6.8l-10.8-17.6h-6.8v17.6H2456.2z M2463.6,436c5.1,0,9.7-0.6,9.7-6.8c0-5.1-4.5-5.7-9.1-5.7h-8.5V436H2463.6z"/>
</svg>
