<svg xmlns="http://www.w3.org/2000/svg" viewBox="0 0 600 71.7"><defs><style>.cls-1{fill:#fff;}</style></defs><title>citadel</title><g id="Layer_2" data-name="Layer 2"><g id="layer"><rect class="cls-1" y="50.1" width="137.2" height="19.8"/><rect class="cls-1" y="1.2" width="27.4" height="19.8"/><rect class="cls-1" x="54.9" y="1.2" width="27.4" height="19.8"/><rect class="cls-1" x="109.8" y="1.2" width="27.4" height="19.8"/><rect class="cls-1" y="25.7" width="66.2" height="19.7"/><rect class="cls-1" x="71" y="25.7" width="66.2" height="19.7"/><path class="cls-1" d="M241,67.5c9.1-.3,11.1-2,11.1-5.7V9.6c0-3.7-2-5.5-11.1-5.8V1.6h31.7V3.8c-9.1.3-11.1,2.1-11.1,5.8V61.8c0,3.7,2,5.4,11.1,5.7v2.3H241"/><path class="cls-1" d="M294.1,67.5c9-.3,11.7-2,11.7-5.7V4.4h-5c-8.5,0-12.8,0-17.7,12.4l-2.2-.2.6-15.1h58.2l.7,15.1-2.2.2c-4.5-11.6-9-12.4-17.7-12.4h-5.1V61.8c0,3.7,2.7,5.4,11.7,5.7v2.3H294.3"/><path class="cls-1" d="M475,67.5c8.8-.3,11-2,11-5.7V9.6c0-3.7-2.2-5.5-11-5.8V1.6h55.4l.3,15-2.2.1c-4.2-12.2-7.7-12.2-19.1-12.2H495.6V33h6.1c8,0,11.5-1.8,14.1-12.6h2v28h-2c-2.6-10.8-6.1-12.5-14.1-12.5h-6.1V66.4h13.8c13.5,0,18,.4,22.5-12.5l2.2.1-.5,15.9H475.1"/><path class="cls-1" d="M544.3,67.5c8.8-.3,11-2,11-5.7V9.6c0-3.7-2.2-5.5-11-5.8V1.6h31V3.8c-9,.3-10.5,2-10.5,5.8V66.4h10.1c13.3,0,18-4,22.9-18.7l2.2.1-.8,22.1H544.3"/><path class="cls-1" d="M433.3,1.6H406V3.9c7.3.5,9.3,2.3,9.3,5.7V61.8c0,3.5-2,5.2-9.3,5.6v2.4h28.3c25.4,0,36.4-17,36.4-35.4-.2-19-12.8-32.8-37.4-32.8m-1.1,64.9h-7.5V4.4h7.4c18.3,0,27.4,8,27.4,30.7.1,22.4-5.8,31.4-27.3,31.4"/><path class="cls-1" d="M393.3,58.4,371.9,0h-3.4L347.6,52.5c-4,10-6.9,13.7-13.6,15.3v2.1h22.7V67.8c-9-1.5-10-3.7-5.7-14.7l3.5-9.2H378l5.4,15.7c2,5.6.6,7.7-8.6,8.2v2.1h28.4V67.5c-6.2-1.2-7.8-3.4-9.9-9.1M355.5,41l11.1-28.5h.4L376.9,41Z"/><path class="cls-1" d="M209.6,2.7c-11.9,0-23,10.5-23,33.4C186.6,58,199.9,67,211.5,67a22,22,0,0,0,10.1-2.6,23.45,23.45,0,0,0,8-7,29.85,29.85,0,0,0,3.3-6.7l2.2.7a32.82,32.82,0,0,1-5,10.3,25.09,25.09,0,0,1-8.4,7.1,14.76,14.76,0,0,1-2.9,1.2,33.74,33.74,0,0,1-3.4,1,30.78,30.78,0,0,1-6.8.7c-19.4,0-33.1-14-33.1-35.1C175.5,15.7,190.9,0,210.6,0a35.25,35.25,0,0,1,17.1,4.2h3.5l.7,6.6,1.4,11.5h-2.1C226.7,9.7,219.8,2.7,209.6,2.7"/></g></g></svg>