<svg xmlns="http://www.w3.org/2000/svg" viewBox="0 0 160.04 159.84"><defs><style>.cls-1{fill:none;stroke:#fff;stroke-width:12px;}.cls-2{fill:#fff;}.cls-3{fill:#161542;}</style></defs><title>codeplus_1</title><g id="Layer_2" data-name="Layer 2"><g id="Layer_1-2" data-name="Layer 1"><rect class="cls-1" x="32.4" y="34.56" width="95.4" height="95.4"/><path class="cls-2" d="M53.28,0H18S0,0,0,18V53.28s0,18,18,18H71.28V18S71.28,0,53.28,0Z"/><path class="cls-2" d="M18,159.84s-18,0-18-18V106.56s0-18,18-18H71.28v53.28s0,18-18,18Z"/><path class="cls-2" d="M142,0s18,0,18,18V53.28s0,18-18,18H88.76V18s0-18,18-18Z"/><path class="cls-2" d="M142,159.84s18,0,18-18V106.56s0-18-18-18H88.76v53.28s0,18,18,18Z"/><path class="cls-3" d="M106.25,35.92A24.21,24.21,0,0,1,108,26.19,17.87,17.87,0,0,1,111.52,21a14.73,14.73,0,0,1,4.9-3.41,20.83,20.83,0,0,1,8.18-1.5q8.39,0,13.42,5.2t5,14.47q0,9.18-5,14.37T124.7,55.3q-8.46,0-13.45-5.16T106.25,35.92Zm7.89-.26q0,6.44,3,9.77a9.71,9.71,0,0,0,7.56,3.32,9.59,9.59,0,0,0,7.51-3.3q2.94-3.3,2.94-9.9t-2.86-9.73a9.66,9.66,0,0,0-7.59-3.21A9.76,9.76,0,0,0,117,25.86Q114.15,29.12,114.14,35.66Z"/><path class="cls-3" d="M44.27,40.7a11.31,11.31,0,0,1-3.15,6.11,7.66,7.66,0,0,1-5.26,1.94,8.43,8.43,0,0,1-6.73-3q-2.58-3.06-2.58-10.25,0-6.78,2.62-9.81a8.64,8.64,0,0,1,6.85-3A7.82,7.82,0,0,1,44,29l7.59-1.81a15,15,0,0,0-3.89-7,15.76,15.76,0,0,0-11.3-4.11q-8,0-12.87,5.24T18.65,36q0,9,4.87,14.12A16.31,16.31,0,0,0,35.94,55.3a16.21,16.21,0,0,0,10.08-3q4-3,5.68-9.22Z"/><path class="cls-3" d="M19.18,116.64c0-5.41-.12-6.49-2.74-6.78l-1.08-.11c-.57-.29-.57-1.94.11-2,4.79-.28,9.24-.51,15.28-.51A39.67,39.67,0,0,1,44,109.12a17.29,17.29,0,0,1,11.58,16.53c0,7.64-3.65,13.8-10.21,17-3.87,1.93-8.55,2.68-14.42,2.68-2.68,0-5.53-.35-7.58-.35-2.74,0-5.65.06-8.9.18a1.65,1.65,0,0,1,0-2l1.77-.29c2.57-.39,2.91-.85,2.91-6.09Zm8.15,18.08c0,3.13.11,5.18,1.14,6.38a6.15,6.15,0,0,0,4.73,1.65c9.86,0,13.23-8.78,13.23-16.53,0-10.26-5.42-16.36-15.74-16.36-1.54,0-2.62.29-3,.74s-.4,1.54-.4,3.31Z"/><path class="cls-3" d="M110.74,143.49V105.55h28.13V112H118.4v8.41h19v6.4h-19V137.1h21.2v6.39Z"/></g></g></svg>