<svg xmlns="http://www.w3.org/2000/svg" viewBox="0 0 335.32 105.41"><defs><style>.cls-1{fill:#fff;fill-rule:evenodd;}</style></defs><title>duke-ml</title><g id="Layer_2" data-name="Layer 2"><g id="svg"><g id="svgg"><path id="path0" class="cls-1" d="M1,1.37C.92,1.65.87,24.63.93,52.43L1,103h7.2V1.08L4.72,1C2.15.88,1.17,1,1,1.37m10.31.27c.15.6,20.77,36.9,21.34,37.58.43.51,1.14-.68,17.76-29.77,2.39-4.19,4.35-7.83,4.35-8.09S49.49.88,33,.88c-21.23,0-21.82,0-21.63.76m46.44-.27c-.11.28-.15,23.26-.1,51.06L57.78,103l2.79.12a18.89,18.89,0,0,0,3.69-.11l.91-.22-.1-50.85L65,1.08,61.47,1c-2.58-.09-3.56,0-3.7.4m27,8.64-1,.3v18l3.8.11c8.52.26,12.86-4.76,10.65-12.34-1.35-4.63-8.09-7.65-13.45-6m19.73.66c-.63,1.64,0,13.19.87,14.79,2.22,4.31,8.87,4.56,11.94.45.75-1,.84-1.77.95-8.5l.13-7.39-1.13.13-1.12.12-.2,6.82c-.23,7.74-.52,8.61-3.12,9.39-4.39,1.32-5.83-1-6-9.69l-.13-6.72h-1a1.33,1.33,0,0,0-1.2.6m21.3-.33c-.34.33-.36,16.62,0,17.48a1.33,1.33,0,0,0,1.19.64c.91,0,.94-.11,1-3.9.17-5.53,1.48-5.27,7.14,1.42,1.94,2.3,4.37,3.48,4.37,2.14,0-.68-2.58-3.87-5.26-6.51-3.41-3.37-3.45-3.05.86-7.34,4-4,4.13-4.2,2.29-4.2-1.12,0-1.7.44-4,3-4.8,5.3-5.43,5.31-5.44.08,0-3.07-.82-4.15-2.13-2.83m18.6,8.83.11,9.09,5.56.11c5.63.11,6.45-.08,5.95-1.36-.14-.38-1.43-.56-4.65-.64l-4.46-.11v-6.4l3.58-.11c3.52-.12,4.36-.44,3.94-1.53-.14-.37-1.31-.56-3.86-.64l-3.66-.11v-5.2l4.19-.2c4-.19,4.21-.24,4.33-1.1s.11-.9-5.5-.9h-5.63l.1,9.1M92.55,12.65c6.64,2.78,3.83,13.61-3.53,13.61H86.15L86,19.47c-.14-8.35.71-9.24,6.51-6.82m97.08,22.23c-8.29,2-8.52,16.18-.3,18.59,2.36.69,7.55.24,8.17-.71.91-1.4.19-8.12-.86-8.12s-1,.1-1.12,3c-.15,3.71-.4,4-3.23,4-4.19,0-6.41-2.55-6.43-7.36,0-5.68,4.71-9.09,9.78-7a1.24,1.24,0,0,0,1.8-1c0-1.16-4.94-2-7.81-1.31m-105.92.54c-.6,1.55,0,14.45.76,15.55,2.79,4.26,9.72,3.84,12.19-.74,1-1.79,1.24-14.18.32-14.94-1.54-1.28-1.84-.37-1.85,5.64a53.41,53.41,0,0,1-.38,7.31,4.29,4.29,0,0,1-7.44,2L86,48.92V42.36c0-6.58-.19-7.51-1.49-7.51a.91.91,0,0,0-.75.57m20.89-.3c-.41.41-.32,18,.09,18.29,1.38.85,1.64-.17,1.64-6.59,0-8.87.32-8.81,7.06,1.28,5.22,7.83,5.38,7.71,5.23-4.09-.1-8.66-.13-9-.9-9s-.81.33-1,6.19c-.2,6.16-.58,7.39-1.67,5.45a108,108,0,0,0-7.11-9.5C106,35,105.22,34.5,104.6,35.12m21.58.31c-1,1-1,16.61,0,17.62s7.3.67,9.93-.63c6.12-3,6.22-13,.17-16.36-2.36-1.31-9-1.72-10.1-.63m21.4-.11c-.69.69-.7,17.14,0,17.83.5.51,9.66.71,10.87.24a1.13,1.13,0,0,0,.64-1c0-.7-.35-.76-4.32-.76-5.08,0-5.27-.12-5.27-3.24,0-3.55,0-3.55,3.73-3.56,3.5,0,4.52-.34,4.13-1.35-.2-.51-.89-.64-3.58-.64-4,0-4.28-.24-4.28-3.06s.43-2.93,5.19-2.93c3.56,0,3.65,0,3.52-.9-.15-1.08-9.62-1.64-10.62-.63m17.75.12c-.89.9-1,16.37-.12,17.58,1.16,1.58,1.86.49,1.86-2.89,0-3.57.31-4.09,2.41-4.09,1.68,0,2.33.59,4.75,4.38,1.7,2.64,2.24,3.19,3.14,3.2,1.18,0,.83-1.32-1.15-4.4L174.13,46l1.52-1.28c2.85-2.39,2.37-7.26-.87-8.86-2.16-1.06-8.51-1.31-9.45-.37m39.17,0c-.95,1-1,17-.07,17.79,1.25,1,1.8.19,1.8-2.81,0-6.34,3.1-6.34,7.16,0,1.7,2.64,2.24,3.19,3.14,3.2,1.22,0,.87-1.37-1.12-4.4l-2.1-3.2L215,44.49a5.33,5.33,0,0,0-1-8.68c-2.16-1.06-8.5-1.31-9.44-.37m24.19-.25c-1.22.77-7.65,17.43-7,18.09.83.83,1.94,0,2.68-2.06.88-2.47,1.45-2.78,5-2.78,3.79,0,4.59.36,5.19,2.34.73,2.45,2.53,3.78,3.1,2.29.23-.59-3.08-9.71-5.31-14.61-1.61-3.53-2.28-4.13-3.64-3.27m15.2-.1c-.83.38-.71,18,.13,18.3,1.2.46,6,.24,8.07-.37,7.59-2.25,8.56-13.39,1.49-17.09-1.58-.82-8.4-1.42-9.69-.84m20.55,0c-.7.69-.26,13.5.52,15.21,2.17,4.8,9.66,4.85,12.25.08,1.05-1.94,1.37-14.31.38-15.13-1.54-1.28-1.83-.37-1.83,5.85a46.8,46.8,0,0,1-.42,7.39,4.38,4.38,0,0,1-7.27,1.95l-1.3-1.17-.13-6.92c-.12-6.81-.26-7.51-1.5-7.52a1,1,0,0,0-.7.26m25.51.67c-2,3.05-7.22,17.05-6.53,17.49,1.1.7,2-.1,2.74-2.34s1.3-2.5,5-2.5c3.85,0,4,.11,5.37,2.85,1,2.11,1.77,2.65,2.74,2,.38-.25-.07-1.85-1.83-6.51-4.27-11.31-5.79-13.55-7.45-11m13.4-.37c-.79.95-.11,1.43,2,1.43,3.66,0,3.55-.27,3.55,8.56,0,6.78.08,7.77.65,8,1.55.59,1.74-.33,1.74-8.37,0-8.72-.22-8.18,3.46-8.18,2.05,0,2.19-.06,2.07-.9-.17-1.16-12.57-1.65-13.5-.53m19.44-.31c-.65.64-.31,18,.35,18.28,1.42.54,10.45.26,10.95-.34.92-1.11,0-1.42-4.16-1.42-5,0-5.1-.09-4.94-3.86l.12-2.73,3.38-.12c5.54-.19,6.27-2.08.81-2.08-4.32,0-4.39,0-4.39-2.76,0-3.08.24-3.23,4.9-3.23,3.86,0,3.94,0,3.82-.9s-10-1.68-10.84-.84M135.08,37.9c3.67,2.16,4.27,8.64,1.08,11.64-2.25,2.12-7,2.92-7.84,1.32-.56-1-.54-12.23,0-13.29s4.73-.85,6.73.33m37.76-.49c4.49,1.88,2.41,6.63-2.91,6.63-2.78,0-2.86-.11-2.86-3.75s2-4.47,5.77-2.88m39.16,0c2.77,1.16,3.12,4.74.59,6.05-1.58.82-5.8.78-6.12-.05a13.39,13.39,0,0,1,.17-5.79c.51-.95,3.32-1.06,5.36-.21m40.56.49c3.61,2.12,4.29,8.7,1.21,11.61-2.23,2.11-7.12,2.94-8,1.35-.56-1-.54-12.23,0-13.29s4.74-.85,6.73.33M231.4,42.08c1.66,4.33,1.6,4.53-1.53,4.68-3.44.16-3.8-.2-2.87-2.84,2.17-6.16,2.65-6.36,4.4-1.84m61.83.36c1.6,4.09,1.44,4.4-2.15,4.4-3.15,0-3.35-.34-2.14-3.71,1.89-5.28,2.47-5.37,4.29-.69M30.29,42.29c-.67.67-.32,61.59.35,61.85.92.35,5.47.28,6.06-.09.4-.25.48-6.73.4-31.06L37,42.24l-3.22-.11a12.26,12.26,0,0,0-3.49.16M135.7,60.22c-.22.07-.89.24-1.49.37C128,62,126.29,74.15,131.85,77.82c3.34,2.2,10.24,2.05,10.24-.22,0-.77-.18-1-.8-.86-7.83,1.28-11.66-2-10.2-8.84,1-4.72,3-5.8,9.8-5.36,1,.07,1.2-.08,1.2-.72,0-1.1-4.5-2.23-6.39-1.6m-51.12.56c-.22.36-.76,6.39-1.25,14l-.27,4.13,1.15-.13,1.14-.13.31-6c.45-8.46.7-8.54,4-1.21,2.27,5,3.77,6.42,4.53,4.33.9-2.48,4.54-9.72,4.89-9.72.6,0,.77,1.12,1.06,7.29l.26,5.5h2.36l-.22-2.7c-.13-1.48-.42-5.36-.65-8.61-.7-9.83-1.64-9.85-6.18-.11-2.87,6.14-2.78,6.15-5.79-.34-2.88-6.22-4.34-7.93-5.36-6.27m29.81.15c-.79,1-7.26,16.75-7.26,17.73,0,1.3,2.58-.31,3.22-2,1-2.53,1.13-2.62,5.17-2.62s4.13,0,5.08,2.59c.83,2.26,3.77,3.51,3.1,1.32-3.42-11.13-7.7-18.94-9.31-17m33.76-.24a87.25,87.25,0,0,0-.26,9.19v8.93h1c1.19,0,1.36-.57,1.5-5l.1-3.2h8.8l.11,4.1.11,4.1h2.39l-.11-9.09-.11-9.1h-1c-1,0-1,.08-1.11,3.38-.15,4.37-.2,4.42-4.5,4.42-4.88,0-4.78.07-4.78-3.47,0-3.7-.89-5.49-2.13-4.26m20.71.22c-.12.29-.16,4.39-.1,9.11l.11,8.59,1.1.12,1.11.13L171,69.74l-.11-9.12-.9-.12c-.49-.07-1,.11-1.1.41m10.06-.22a87.25,87.25,0,0,0-.26,9.19v8.93h2l.11-6.5c.1-5.84.18-6.49.8-6.49s4.47,4.82,7.75,10c1.65,2.61,2.06,3,2.93,2.9l1-.11.11-8.64c.11-9.07-.06-10-1.7-9.4-.5.19-.61,1.24-.61,6.21,0,6.45-.23,7.16-1.69,5.14-7.74-10.66-9.31-12.35-10.43-11.23m21.58,0a82.7,82.7,0,0,0-.27,9.19v8.93H206c5.53,0,5.79,0,5.79-.8s-.26-.8-4-.8c-5.42,0-5.23.13-5.23-3.64V70.41h3.17c3.68,0,4.42-.2,4.42-1.24,0-.68-.32-.75-3.16-.75-4.41,0-4.43,0-4.43-3s0-3,4.81-3c3.58,0,4.18-.22,3.74-1.36-.25-.66-10.05-1-10.68-.37M117.44,68c1.6,4,1.42,4.46-1.74,4.46-3.88,0-3.93-.12-2.11-4.78,1.61-4.12,2.1-4.08,3.85.32M214.22,86c-4,1.2-5.79,4.14-5.79,9.35,0,6.69,2.44,9.19,9,9.19,5.46,0,5.22.22,5.22-4.81V95.54l-1.1.12c-1.08.13-1.1.17-1.21,3.31-.14,3.64-.27,3.8-3.12,3.81-3.55,0-5.83-2.28-6.39-6.42C210,90.89,214,86.88,219.07,88c2.74.59,3.14.54,3.14-.36,0-1.53-4.92-2.49-8-1.57m-130.39.21a81.77,81.77,0,0,0-.28,9.21v8.92h5.37c5.41,0,6.37-.25,5.42-1.4-.34-.4-1.6-.6-4.33-.68l-3.86-.12-.2-8c-.21-8.2-.55-9.5-2.12-7.94m16,0c-.22,1.26-.31,12.87-.12,15.18l.24,2.9h5.76c5.37,0,5.76,0,5.76-.75,0-.95-1.39-1.25-5.8-1.25-3.76,0-3.79,0-3.78-3.33,0-3.08.21-3.24,4.37-3.4,3.24-.13,3.62-.22,3.62-.9s-.33-.76-3.37-.76c-4,0-4.63-.41-4.63-2.85,0-3,.3-3.14,4.81-3.14,4,0,4,0,4-1V86h-5.39a25.21,25.21,0,0,0-5.45.3M121,88.7c-1.41,3.1-5.91,14.75-5.91,15.31,0,1.24,2.36.3,2.81-1.13,1-3.2,1.17-3.29,5.38-3.29s4.37.09,5.38,3.29c.41,1.28.65,1.5,1.65,1.5,1.51,0,1.49-.22-.46-5.44-5.27-14.08-6.47-15.47-8.85-10.24m16.33-2.43a87.1,87.1,0,0,0-.26,9.19v8.92h1c1.16,0,1.35-.57,1.5-4.4.1-2.53.13-2.6,1.25-2.72,2.18-.25,2.82.22,5.06,3.68,1.85,2.87,2.36,3.39,3.29,3.41,1.51,0,1.4-.57-.69-3.8s-2.18-3.47-.41-5.13a5.29,5.29,0,0,0-1.53-8.65c-1.67-.75-8.57-1.14-9.2-.5m18.7.24c-.11.28-.15,4.37-.09,9.09l.11,8.58,1.1.13,1.1.12V97.84c0-9,.07-9,6.66.85,3.14,4.66,4,5.69,4.79,5.69h1l-.11-9.09c-.11-9.05-.11-9.09-1-9.22s-.89-.07-1,6c-.14,7.59-.12,7.59-4.63,1.48-5.25-7.11-7.19-8.83-7.89-7m22.2,8.68v9.19h1c1.38,0,1.44-.43,1.44-9.19S180.59,86,179.21,86h-1v9.19m9.45-8.92a87.1,87.1,0,0,0-.26,9.19v8.92h2V98c0-9.33.66-9.1,8.34,2.85,1.93,3,2.39,3.48,3.24,3.39l1-.1v-18h-2l-.11,6.09c-.13,7.37-.18,7.4-3.74,2.4-5.16-7.26-7.4-9.49-8.47-8.42m-41.63,2.91c3,2.85.19,6.35-4.8,5.94L139.7,95l-.12-3c-.17-4.15-.16-4.16,2.9-4,2,.13,2.8.37,3.6,1.11M125.14,93c1.8,4.46,1.75,4.6-1.83,4.6s-3.56-.14-2.16-3.68c.47-1.17,1-2.53,1.2-3,.62-1.58,1.58-.84,2.79,2.13"/><path id="path1" class="cls-1" d="M8.75.56c.95,1,.66,102.49-.3,103s-6,.55-7.52.16l-.9-.24V52C0,11.22.14.51.53.35,1.61-.08,8.27.09,8.75.56M55.84.7C56,1.22,45,21,35.5,37.17c-2.43,4.12-2.67,4.1-5.3-.52-1.12-2-6.14-10.74-11.15-19.48C13.61,7.7,10,1.05,10.17.69c.35-.93,45.32-.91,45.67,0m9.5-.37c1.09.42,1,102.65-.14,103.24-.84.44-6.05.55-7.52.16l-.9-.24V52c0-40.8.1-51.51.5-51.67a37.44,37.44,0,0,1,8.06,0M92.68,9.49c8.81,2.62,9.21,16.11.56,19.2-1.93.68-9.34.75-10,.09-.34-.35-.48-3.08-.48-9.76V9.74l1.1-.4c1.69-.62,6.51-.53,8.83.15m14.15-.11c.56.42.68,1.54.78,7.16.13,7.61.54,8.8,3.11,9.05,3.9.38,4.4-.68,4.4-9.31V9.66l1.09-.42c2.68-1,2.91-.44,2.91,7.59a49.87,49.87,0,0,1-.43,8.3c-2.46,6.54-12.83,5.92-14.71-.87-.49-1.77-.61-13.73-.14-14.43a2.14,2.14,0,0,1,3-.45m20.85-.11c1,.37,1,.53,1,3.39,0,3.9.34,3.89,4.07-.19,3.07-3.36,4.57-4.13,6.27-3.22,1.31.7,1.1,1.08-3,5.26l-3.86,3.93,3.85,4c4.85,5.05,5.46,6.81,2.38,6.81-1.3,0-1.79-.38-5.23-4-4.34-4.61-4.4-4.6-4.56.22l-.11,3.6-1.33.12c-2.45.24-2.47.15-2.47-10.18,0-10.12-.13-9.41,1.87-10.1a7.46,7.46,0,0,1,1.1.37m27.57,0a1.35,1.35,0,0,1,1,1.51c0,1.83-.6,2.09-4.88,2.09h-3.91v4h3.6c3.49,0,3.62,0,4.08,1,.84,1.85.09,2.34-3.93,2.56l-3.55.2-.12,2.49-.12,2.48,4.47.12c5,.12,5.75.5,4.84,2.49l-.47,1-6.3-.11-6.3-.11-.11-9.59c-.09-8.67,0-9.64.58-10.09.83-.61,9.56-.7,11.09-.11m-68.5,10v6.39h1.9c3.94,0,6.49-2.46,6.49-6.27,0-4.42-2-6.51-6.09-6.52h-2.3v6.4M197.11,34.69c1.07.55,1.18.77,1,1.88-.36,1.83-.78,2.08-2.56,1.54-4-1.19-6.87-.26-8.16,2.66-2.24,5,.29,10.06,5.07,10.06h1.82V48.26c0-4.19,1.88-6.17,3.92-4.14.59.59.66,8,.08,9.1-1.08,2-8.85,1.94-12-.13-6.33-4.19-4.53-17,2.69-19,1.94-.54,6.61-.21,8.15.59M86,34.44c.48.31.62,1.6.71,6.69.15,8.68.54,9.7,3.72,9.7s3.34-.57,3.49-8.64c.14-7.74.25-8.14,2.3-8.14s2.26.73,2.09,8.54c-.15,7.29-.38,8.25-2.39,10.12C92.12,56.22,85.16,55,83.3,50.57c-.75-1.79-.79-16,0-16.25a3.39,3.39,0,0,1,2.7.12m21.65,1.11c.79.82,2.88,3.42,4.63,5.77,3.81,5.09,3.69,5.14,3.69-1.5,0-5.6.06-5.77,2-5.77s2,.69,2,10.12c0,9.88,0,10-2.23,9.79-1.48-.12-1.66-.3-4.35-4.36-1.54-2.32-3.52-5.2-4.4-6.38l-1.6-2.16-.2,6.39-.2,6.38h-3.6l-.11-9.34c-.07-6.55,0-9.5.35-9.89.86-1,2.51-.64,4,.95m27.25-.93c9.5,2.85,8.85,17.42-.87,19.43-2.89.6-8.41.32-8.9-.45s-.49-18-.06-18.59c.72-1.08,6.76-1.32,9.83-.39m23.59-.33c.43.17.64.75.64,1.76,0,1.89-.26,2-5.05,2h-3.79l.12,1.89.12,1.9,3.8.2,3.8.2.12,1.24c.17,1.75-.52,2.11-4.34,2.24l-3.38.12v4.79l4.6.2,4.6.2v2.8H146.49l-.11-9.34c-.07-6.55,0-9.5.35-9.89.47-.57,10.35-.83,11.71-.31m16,.52c4.18,1.92,5.26,7.17,2.09,10.13-1.42,1.33-1.58.71,1.46,5.68,1.76,2.87,1.7,3.18-.63,3.33l-1.82.12-2.35-3.52c-2.2-3.3-2.43-3.51-3.74-3.51h-1.4L168,50.56l-.11,3.51L166,54l-1.88-.12L164,45c-.12-9.55,0-10.44,1-10.71,2-.53,8-.23,9.49.48m39.16,0c4.31,2,5.34,6.95,2.12,10.17-1.17,1.17-1.19,1.25-.56,2.23,3.76,5.91,3.93,6.82,1.25,6.82H214.7l-2.34-3.5c-2.19-3.28-2.42-3.49-3.73-3.49h-1.4l-.12,3.52L207,54.07,205.11,54l-1.88-.12L203.12,45c-.12-9.55,0-10.44,1-10.71,2-.53,8-.23,9.49.48m17.47-.26c1.18.93,8,17.93,7.62,19-.64,1.67-3.73.57-4.73-1.7l-1-2.21-3.64.11-3.64.11-.78,2.1c-.78,2.09-.79,2.1-2.53,2.1-2.43,0-2.44-.14-.39-5.79,4.77-13.17,6.47-15.73,9.07-13.69m21.51.11c9.2,3.24,8.47,17.28-1,19.4-2.17.49-8.36.35-8.91-.2-.35-.35-.64-17.17-.32-18.46.36-1.45,6.9-1.92,10.23-.74m14.29-.13c.33.33.48,2.46.48,7,0,8.19.49,9.33,4,9.33,2.74,0,3.16-1.13,3.16-8.6a39.26,39.26,0,0,1,.41-7.41c.48-.88,2.73-1.07,3.51-.29s.64,12.4-.11,14.95c-1.92,6.46-11.17,7.29-14.24,1.27-.95-1.85-1.17-16.07-.26-16.43a3.57,3.57,0,0,1,3,.21m26.13.22c1.34,1.55,7.7,17.82,7.34,18.77-.64,1.65-3.9.42-4.73-1.79l-.8-2.09h-7.38l-.75,2.09c-.84,2.32-4.55,3.62-4.55,1.59s6.56-18.18,7.75-19a2.84,2.84,0,0,1,3.12.39m24.07-.46c.87.34.87,3.18,0,3.51a11.75,11.75,0,0,1-2.8.25h-2.17v7.36c0,8.77,0,8.62-2.23,8.62h-1.75l-.1-7.89-.11-7.89-2.4-.2c-3.29-.28-4.59-1.85-2.92-3.52.51-.51,13.23-.71,14.48-.24m16.93.24c2,2,.07,3.52-4.71,3.52h-3.64l.12,1.89.12,1.9,3.55.2c4,.23,4.77.72,3.93,2.57-.46,1-.59,1-4.09,1h-3.63l.12,2.5.12,2.49,4.47.12c4.81.12,5.38.42,4.72,2.48-.24.76-.6.8-6.82.8h-6.57V44.27c0-7.43.12-9.8.5-10,1.11-.45,11.33-.27,11.81.21M128.88,38.16c-.62,1.63,0,12.47.77,12.61,6,1.15,10.26-6.73,6-11.15-1.66-1.74-6.3-2.73-6.79-1.46m39.25-.25a9.33,9.33,0,0,0-.26,2.8v2.53H170c3.33,0,5-1.76,3.86-4-.65-1.21-4.88-2.2-5.74-1.35m39.08.67a11,11,0,0,0-.11,2.7l.13,1.76,2,.12c4.23.25,5.9-3.75,2.12-5.07-2.22-.77-3.89-.58-4.16.49m39.18-.47a55,55,0,0,0-.11,6.55l.11,6,2.33,0c8.29-.18,8.35-12,.06-12.83-1.67-.17-2.23-.09-2.39.35m-17.8,3.78C227,45.7,227,46,229.29,46c2.6,0,2.62,0,1.45-3.13-1.27-3.38-1.17-3.33-2.15-1m62.22-1.14c-.58.93-1.8,4.66-1.63,5,.29.46,3.66.43,3.94,0s-1.25-4.7-1.77-5a.38.38,0,0,0-.54.1M37.8,73.21V105l-4,.12c-3.41.09-4.07,0-4.5-.58-.73-1-.74-62.08,0-62.81.34-.34,1.72-.46,4.49-.38l4,.11V73.21m104.11-13c2.28,1.18,1.06,4.34-1.34,3.47-5.08-1.83-8.81.75-8.81,6.11S134.37,77,141.48,76a1.73,1.73,0,0,1,1.36,2.89c-3.85,3.83-13.1.64-14.77-5.08-2.77-9.53,5.65-17.76,13.84-13.53m-54.49.33a50.49,50.49,0,0,1,2.93,5.58,30,30,0,0,0,2.47,4.66,32.21,32.21,0,0,0,2.71-5.08c2.59-5.43,3.12-6.09,4.87-6.09s2.46,4,2.83,16.38l.1,3.4-1.55.12c-2.18.18-2.28,0-2.58-5.77-.32-6.13-.43-6.17-2.84-.87L94.48,77H92.93c-1.76,0-1.58.22-4.27-5.6L87,67.82l-.31,1.6a40.37,40.37,0,0,0-.33,5.39c0,4.54-.21,4.89-2.26,4.72l-1.56-.12.1-5.6c.12-6.9.7-12.86,1.33-13.62s2.61-.69,3.44.37M117,60c1.14.71,8,18,7.56,19.07-.15.39-.81.59-2,.59h-1.78l-.78-2.1-.78-2.1-3.74-.11-3.75-.12-.81,2.11c-.88,2.31-3.78,3.42-4.44,1.7-.42-1.1,6.4-18.3,7.54-19a3.79,3.79,0,0,1,3,0m33.28.07c.43.27.66,1.36.8,3.89l.2,3.51h7.2l.11-3.59c.13-3.79.33-4.19,2.14-4.2s2,.43,1.85,10.43l-.11,9.35h-3.59l-.12-4.1-.11-4.1h-7.57v3.57c0,4.63-.08,4.83-2.19,4.83-1.2,0-1.79-.2-2-.64-.48-1.26-.27-18.36.24-18.87a3.11,3.11,0,0,1,3.11-.08m21.14.15c.32.39.43,3.34.35,9.89l-.11,9.35h-3.59L168,70.06c-.12-10.05,0-10.43,1.91-10.43a2.3,2.3,0,0,1,1.55.54m10.5.75c.67.72,2.78,3.37,4.67,5.9L190,71.41l.12-5.57c.11-5.83.23-6.2,2-6.21,2,0,2.15.53,2,10.52L194,79.41l-1.65.12-1.66.12-2.68-4.12c-3.17-4.86-5.76-8.31-6.24-8.31-.18,0-.39,2.74-.45,6.09l-.11,6.1-1.64.12c-1.43.1-1.68,0-1.9-.8-.42-1.59-.28-17.5.16-18.33.67-1.26,2.61-1,4,.52m29.82-.82a2.41,2.41,0,0,1,.09,2.72c-.28.45-1.37.64-4.41.74l-4,.14.12,1.86.12,1.86,3.6.2,3.59.2.13,1.35c.18,1.81-.29,2-4.24,2h-3.32l.12,2.5.12,2.5,4.4.2,4.39.2v2.8l-6.36.11c-4.82.08-6.44,0-6.69-.4-.48-.77-.41-17.8.08-18.72s11.39-1.2,12.29-.3m-97.55,8.2c-1.23,3.11-1.34,2.81,1,3s2.53,0,1.48-2.82c-1.17-3.23-1.27-3.23-2.5-.14m107.7,17.32c1.39.63,1.56,1.13.9,2.7-.59,1.4-.8,1.47-2.44.85-3.07-1.17-6.77-.18-7.84,2.11-2.48,5.26-.28,10.47,4.42,10.49h2.29l.2-3.39.2-3.4h3.59l.11,4.64c.15,5.89.29,5.75-5.73,5.75-7.18,0-10.17-2.94-10.15-10,0-8.16,7.27-13.08,14.45-9.8m-135.62.06c.34.34.48,2.73.48,8.19v7.71h3.77c3.93,0,5,.42,5,1.93s-.43,1.7-6.61,1.58L83,105l-.11-9.38c0-5.16,0-9.61.09-9.89.25-.65,2.7-.67,3.34,0m25.25.31c1.15,2.15.26,2.77-4.13,2.89l-4.06.12-.12,1.89-.12,1.9h3c3.62,0,4.59.41,4.59,1.93,0,1.75-.64,2.07-4.23,2.07h-3.28L103.07,99c-.17,2.78-.51,2.56,4.05,2.56s5.34.4,5.14,2.22l-.14,1.18-6.36.11c-4.82.08-6.44,0-6.69-.4-.54-.86-.41-18.45.15-19,.92-.92,11.79-.65,12.3.31m14.09.67c2,3.46,7.17,17.35,6.72,18.08-.92,1.49-3.79.32-4.57-1.86l-.75-2.1h-7.44l-.78,2.1c-.76,2-.83,2.1-2.48,2.23-2.89.21-2.85,0,2.06-12.37,2.81-7,3.2-7.62,5-7.46a2.3,2.3,0,0,1,2.21,1.38m20.89-.88A6.24,6.24,0,0,1,148.65,96c-1.4,1.31-1.4,1.37-.24,2.93,3.41,4.58,3.66,6.23,1,6.23-1.72,0-1.79-.06-3.24-2.39-2.3-3.74-3.33-4.8-4.66-4.8h-1.17v3.11c0,3.5-.32,4.08-2.26,4.08s-2.19-.61-2.05-10.42c.1-7.29.22-8.86.72-9.17,1-.61,8.22-.47,9.8.19m13.24,1.12c.9.93,3,3.49,4.58,5.69l3,4,.2-5.2c.22-5.74.36-6.19,1.92-6.18,2.11,0,2.1-.08,2,10.21l-.11,9.56-1.46.12c-1.64.14-1.41.37-5-5-1.19-1.83-2.93-4.34-3.87-5.6l-1.69-2.28-.2,6.4-.2,6.39h-3.6l-.11-9.34c-.07-6.56,0-9.51.35-9.89.89-1.07,2.51-.63,4.22,1.15M181,86c.61,1.15.55,18.11-.07,18.73s-3.38.61-3.67-.15c-.48-1.27-.27-18.36.24-18.87.78-.78,3-.59,3.5.29m10.05.87c.83.91,2.82,3.42,4.42,5.6,3.64,4.94,3.48,5,3.61-1.55l.12-5.49,1.38-.13c2.31-.22,2.41.2,2.41,10,0,10.08,0,10-2,10-1.39,0-1.62-.17-2.84-2.1-2.63-4.15-7.27-10.69-7.59-10.69s-.38,2.83-.45,6.3L190,105h-3.19l-.11-9.38c-.06-5.16,0-9.61.09-9.89.44-1.16,2.69-.56,4.26,1.13m-50.8,4.75v2.9l2.2-.18q3.8-.32,3.8-2.72c0-1.59-1.27-2.5-3.8-2.71l-2.2-.18v2.89m-17.63.7c-.66,1.68-1.55,4.18-1.55,4.35a8.68,8.68,0,0,0,2.24.15c2,0,2.21-.09,2-.7-.15-.39-.64-1.64-1.07-2.8-.92-2.42-1-2.48-1.59-1"/><path id="path2" class="cls-1" d="M.43,52c0,28.13.14,51.15.3,51.15S1,80.16,1,52,.9.88.73.88.43,23.9.43,52m7.8,0c0,28.09.13,51,.3,50.89.39-.24.39-101.53,0-101.77C8.36,1,8.23,23.94,8.23,52M10.86,1.2c0,.58,1.07,2.88,1.38,2.88.11,0-.05-.49-.35-1.1s-.66-1.37-.78-1.7-.23-.43-.25-.08M54.31,2.5a4.4,4.4,0,0,0-.51,1.58,6.09,6.09,0,0,0,1.3-2.81c-.06-.19-.42.36-.79,1.23m2.87,49.31c0,28,.13,51,.3,51.11s.3-22.81.3-50.93S57.64.88,57.48.88s-.3,22.92-.3,50.93m7.89-.08c.08,40.44,0,50.87-.4,51.16s-.35.31.1.19c.65-.18,1.15-101.21.5-101.85-.16-.17-.25,22.56-.2,50.5m-52-46a3.43,3.43,0,0,0,.82,1.2c.11,0-.08-.54-.42-1.2a3.43,3.43,0,0,0-.82-1.2c-.11,0,.08.54.42,1.2m39.26.5c-1.41,2.43-2.05,3.76-1.6,3.3a26.81,26.81,0,0,0,2.77-5,6.9,6.9,0,0,0-1.17,1.7M15.82,10.47a3.43,3.43,0,0,0,.82,1.2c.11,0-.08-.54-.42-1.2a3.35,3.35,0,0,0-.82-1.19c-.11,0,.08.53.42,1.19m67.81-.32c-.54.54-.71,17.72-.18,18,.17.11.3-3.88.3-8.84v-9l1-.28c.84-.23.87-.28.18-.32a2,2,0,0,0-1.3.44m20.7-.17c0,.2.54.28,1.19.18l1.19-.17.12,6.13.13,6.14,0-6.19V9.87l-1.3-.12c-.71-.07-1.3,0-1.3.23m11.59,0c0,.2.53.28,1.19.18L118.3,10l.12,6.93.13,6.94,0-7v-7l-1.3-.12c-.72-.07-1.3,0-1.3.23m9.59,0c0,.2.54.28,1.2.18l1.2-.18v3.15c0,5.27.63,5.27,5.44,0,2.34-2.58,2.92-3,4-3,1.84,0,1.73.19-2.29,4.2-4.36,4.34-4.36,3.81-.11,8.08,2.89,2.91,3.13,3.08,1.36,1A26.42,26.42,0,0,0,133.06,20c-1.74-1.23-1.47-1.86,2.44-5.76s4.29-4.59,2.1-4.6c-1.38,0-1.79.31-5,3.69-4,4.27-4.23,4.26-4.39-.29l-.12-3.2-1.3-.12c-.72-.07-1.3,0-1.3.23m18.66-.05c-.65.65-.31,18.43.35,18.68a40.2,40.2,0,0,0,5.9.16l5.26-.08-5.6-.22-5.59-.21-.11-9.09-.1-9.1h11.29l-.19,1c-.13.67-.06.9.19.65a1.44,1.44,0,0,0,.24-1.13c-.15-.77-10.93-1.4-11.64-.69M49.39,11.27c-.35.66-.53,1.2-.42,1.2a3.59,3.59,0,0,0,.82-1.2c.34-.66.53-1.2.42-1.2a3.43,3.43,0,0,0-.82,1.2m44.15-.56a11.52,11.52,0,0,1,2.75,1.88c.88.84,1.16,1,.83.43-.62-1-3.49-2.95-4.36-2.93-.34,0,0,.29.78.62M115.61,17c-.1,6.74-.48,8.36-2.11,8.88-.46.14-.75.35-.64.46.39.39,1.87-.73,2.47-1.88.49-.95.59-2.43.49-7.48l-.12-6.3L115.61,17m-28-5a3.3,3.3,0,0,0,1.4,0c.38-.1.07-.18-.7-.18s-1.09.08-.7.18M17.42,13.27a3.43,3.43,0,0,0,.82,1.2c.11,0-.08-.54-.42-1.2a3.43,3.43,0,0,0-.82-1.2c-.11,0,.08.54.42,1.2m68.71-.68c-.53,1.37,0,13.6.62,13.77s.48.08.08-.21-.49-1.95-.4-7.22c.12-6.76.09-7.36-.3-6.34m60.72,0a11.12,11.12,0,0,0-.08,2.7l.12,2.15,3.58.11c2.22.08,3.72.3,3.93.6s.29.31.18-.11-1-.63-3.83-.72l-3.66-.11V12.5l3.89-.13,3.9-.13L151,12.16c-3-.07-4,0-4.12.46m-54.31.32a15.19,15.19,0,0,1,1.42.89c.34.24.2,0-.32-.46a3.28,3.28,0,0,0-1.42-.89c-.26,0-.12.22.32.46M47.79,14.07c-.34.66-.53,1.2-.42,1.2a3.43,3.43,0,0,0,.82-1.2c.34-.66.53-1.2.42-1.2a3.43,3.43,0,0,0-.82,1.2M19,16.07a3.43,3.43,0,0,0,.82,1.2c.11,0-.08-.54-.42-1.2a3.59,3.59,0,0,0-.82-1.2c-.11,0,.07.54.42,1.2m79.16-.2c.33,1.47.56,1.79.55.76a2.89,2.89,0,0,0-.41-1.36c-.3-.44-.33-.28-.14.6m-54,4.49c-1.47,2.59-2.76,4.83-2.85,5s-.09.3,0,.3A49.46,49.46,0,0,0,44.21,21l2.85-5c.1-.17.09-.3,0-.3a50,50,0,0,0-2.87,4.69M20.61,18.87a3.49,3.49,0,0,0,.82,1.19c.11,0-.08-.53-.42-1.19a3.43,3.43,0,0,0-.82-1.2c-.11,0,.08.54.42,1.2m133.67.31c0,.3-1.28.5-3.7.57l-3.69.11v6.4l4.19,0,4.2,0-4.11-.13L147.05,26l.12-2.88.12-2.89,3.39-.11c3.18-.11,4.51-.51,3.87-1.14-.15-.15-.27-.07-.27.17M22.21,21.66a3.43,3.43,0,0,0,.82,1.2c.11,0-.08-.54-.42-1.2a3.43,3.43,0,0,0-.82-1.2c-.11,0,.08.54.42,1.2m73.2-.07a6.14,6.14,0,0,1-4.2,4.24c-1,.31-1.54.59-1.15.6,2.52.1,7.09-4.49,5.78-5.8-.11-.11-.3.33-.43,1M128.08,21a23.19,23.19,0,0,0-.07,4.09l.13,3.57.08-3.9c.11-5.14.45-5.13,5.41.13,3.26,3.45,4,4,4.9,3.9,1.43-.17,1.6-.78.55-2l-.85-1,.63,1c1.87,2.92-1.12,2.22-3.73-.87-3.85-4.55-6.5-6.43-7-5m-23.74,2.29a3.34,3.34,0,0,0,.4,1.57c.27.42.31.18.13-.8-.31-1.72-.54-2-.53-.77M97.56,24a7,7,0,0,1-3.42,3.38c-.66.35-1,.64-.87.65,1.52.08,5.75-4.23,5-5-.1-.09-.39.35-.66,1m9.58-.62c0,.85,2.07,3.08,2.85,3.05.3,0,0-.29-.6-.63a4.46,4.46,0,0,1-1.68-1.88c-.35-.81-.56-1-.57-.54M23.81,24.46a3.43,3.43,0,0,0,.82,1.2c.11,0-.08-.54-.42-1.2a3.43,3.43,0,0,0-.82-1.2c-.11,0,.08.54.42,1.2m94.11.1c0,.94-2,3.12-3.38,3.73-.74.32-.94.54-.52.55,1.44,0,4.91-3.9,4.13-4.68-.13-.13-.23.05-.23.4m-12.4,1.82a6,6,0,0,0,3.61,2.46c.33,0,0-.28-.8-.61A7.48,7.48,0,0,1,106,26.55c-.8-.93-.86-1-.47-.17m-80.11.88a3.43,3.43,0,0,0,.82,1.2c.11,0-.08-.54-.42-1.2a3.43,3.43,0,0,0-.82-1.2c-.11,0,.08.54.42,1.2m14.78,0c-.34.66-.53,1.2-.42,1.2a3.43,3.43,0,0,0,.82-1.2c.35-.66.53-1.2.42-1.2a3.59,3.59,0,0,0-.82,1.2m85.42.8a1.28,1.28,0,0,0,1.13.67c.76.06.8,0,.17-.15a2.38,2.38,0,0,1-1.13-.67c-.22-.3-.28-.25-.17.15m-39.56.69a30.11,30.11,0,0,0,3.8,0c1-.08.18-.15-1.9-.15s-3,.07-1.9.15m-59,1.3a3.43,3.43,0,0,0,.82,1.2c.11,0-.08-.54-.42-1.2a3.46,3.46,0,0,0-.82-1.19c-.11,0,.08.54.42,1.19m11.28.5c-1.4,2.43-2,3.76-1.6,3.3s3-5,2.77-5a7.29,7.29,0,0,0-1.17,1.69m72.33-1.41a6,6,0,0,0,1.8,0c.5-.1.09-.18-.9-.18s-1.39.08-.9.18M29,33.45a18.65,18.65,0,0,0,1.53,2.4c.23.22-.09-.5-.7-1.6a18.65,18.65,0,0,0-1.53-2.4c-.23-.22.09.5.7,1.6m6.41,2.2c-.34.66-.53,1.2-.42,1.2a3.43,3.43,0,0,0,.82-1.2c.34-.66.53-1.2.42-1.2a3.43,3.43,0,0,0-.82,1.2m93-.91a16.59,16.59,0,0,0,3,0c.83-.08.15-.16-1.49-.16s-2.33.08-1.5.16m39.37,0a18.86,18.86,0,0,0,3.19,0c.82-.09.05-.15-1.7-.15s-2.43.07-1.49.15m39.16,0a19,19,0,0,0,3.2,0c.81-.09,0-.15-1.71-.15s-2.43.07-1.49.15m39.16,0a19,19,0,0,0,3.2,0c.81-.09,0-.15-1.71-.15s-2.43.07-1.49.15m-162.92,7a64.17,64.17,0,0,0,.3,7.58c.15.38.27-2.72.27-6.89s-.13-7.58-.3-7.58a40.2,40.2,0,0,0-.27,6.89m11.63-.6c.08,6.43.24,5.68.42-2A15.86,15.86,0,0,0,95,34.85a33.72,33.72,0,0,0-.23,6.29m9.12,3.1a75.23,75.23,0,0,0,.3,9.39c.17,0,.3-4.22.3-9.39s-.13-9.39-.3-9.39a75.37,75.37,0,0,0-.3,9.39m4-7.09a28.69,28.69,0,0,0,2.31,2.5c.27,0-2.25-3-3.36-4-.61-.55-.14.12,1,1.5m8.65-2a36.15,36.15,0,0,0-.27,6c0,6.32-.15,6.61-2,3.93a8.88,8.88,0,0,0-1.44-1.8c-.28,0,2.29,3.73,2.81,4.08a.57.57,0,0,0,.7,0c.21-.21.69-12.47.49-12.47a2.13,2.13,0,0,0-.29.27m1.93,9.12c0,5.17.13,9.39.3,9.39a75.23,75.23,0,0,0,.3-9.39,75.37,75.37,0,0,0-.3-9.39c-.17,0-.3,4.23-.3,9.39m39.66-8.41c.18,1,.18,1-3.66,1.13l-3.84.13,3.9,0,3.9,0,.12-1.1c.07-.61,0-1.1-.24-1.1s-.29.44-.18,1m69.24.6a8.27,8.27,0,0,0-.79,1.9c0,.17.39-.4.85-1.28a7.45,7.45,0,0,1,1.28-1.89c.31-.21.3-.3,0-.3s-.85.7-1.29,1.57m3.33-1a4.17,4.17,0,0,1,.86,1.43c.15.46.35.74.46.63.3-.3-1-2.66-1.5-2.66-.23,0-.15.27.18.6m12.42-.09c-.47,1.22,0,18,.53,18.11.28.05.33,0,.1-.1-.64-.32-.55-18,.09-18.26.39-.15.39-.2,0-.23a.78.78,0,0,0-.71.48m20.78,0a65.44,65.44,0,0,0-.09,6.89l.11,6.38.2-6.9c.2-6.77.17-7.41-.22-6.37m11.49,6c.07,6.54.22,5.76.41-2.2a15.86,15.86,0,0,0-.19-4.29c-.17,0-.27,2.92-.22,6.49M289,36.7c-1.21,2.49-.91,2.58.4.12.57-1.08.92-2,.77-2A5.46,5.46,0,0,0,289,36.7m3.79-.85c.92,1.58.94,1.6.94,1.11a3.45,3.45,0,0,0-.82-1.37l-.82-.94.7,1.2m10-.4c-.53,1.37.14,1.8,2.68,1.72l2.46-.07-2.2-.15c-2.5-.17-3.16-.58-2.41-1.48.29-.35.33-.62.1-.62s-.51.27-.63.6m14,.4c.19,1,.12,1-2,1-2.43,0-3.48.27-3.48.89,0,.26.18.26.52,0a7.6,7.6,0,0,1,2.89-.55c2.27-.12,2.39-.18,2.51-1.22.07-.61,0-1.1-.24-1.1s-.28.45-.18,1m5.47-.49c-.54,1.4,0,18,.62,18.17s.48.08.09-.2-.49-2.39-.4-9.42c.11-8.89.09-9.58-.31-8.55m11.31.46.19,1h-4c-4.68,0-4.92.15-4.92,3.23,0,2.72.07,2.76,4.4,2.76,1.73,0,3.22.18,3.33.41s.16.18.1-.1-1.23-.57-3.67-.71l-3.56-.2V37.45l4.19-.2c4.26-.21,5.39-.78,4.09-2.07-.25-.25-.32,0-.19.64m-147.48.73c-1.24,1.23-1.24,1.25-.09.3l1.6-1.3c.21-.16.25-.3.09-.3a6.4,6.4,0,0,0-1.6,1.3m67.46-.64a15.89,15.89,0,0,1,2.4,1.68l1.19,1.06-1-1.14c-1-1.09-2.8-2.28-3.48-2.24-.17,0,.22.3.88.64M176,36.57a3.7,3.7,0,0,1,1.1,1.52c0,.27.1.39.23.26.38-.38-.58-1.85-1.54-2.35-.74-.38-.7-.28.21.57M266.73,42c0,3.63.06,5.11.14,3.3s.07-4.78,0-6.59-.14-.33-.14,3.29M31.58,38c1,2,1.62,2.07,2.56.35l.72-1.3L34,38.15c-1.1,1.39-1.38,1.38-2-.11a4.12,4.12,0,0,0-.88-1.44c-.21-.13,0,.5.46,1.4m106.75-.58c.35.46.94,1.27,1.3,1.81s.66.8.66.57A5.65,5.65,0,0,0,139,38c-.72-.76-1-1-.67-.57m-9.77-.27c-.1.17.56.25,1.48.18,2.69-.2,3-.39.79-.44a5.31,5.31,0,0,0-2.27.26m39,.18c-.3.3-.45,1.54-.41,3.29l.07,2.82.23-3,.23-3,2.2-.24,2.19-.23-2-.07a4.66,4.66,0,0,0-2.49.42m21.22.35c-1.32.84-2.94,3.64-2.89,5,0,.42.28,0,.58-1A6.22,6.22,0,0,1,190,37.42c.68-.3,1-.54.64-.55a5.07,5.07,0,0,0-1.87.81m8.08-.45a.85.85,0,0,1-.92.16c-.55-.17-.58-.14-.13.18.62.44,1.64.21,1.64-.37s-.29-.45-.59,0m10-.08c-.11.17.55.25,1.47.18,2.69-.2,3-.39.79-.44a5.22,5.22,0,0,0-2.26.26m39.16,0c-.11.17.56.25,1.47.18,2.69-.2,3-.39.79-.44a5.22,5.22,0,0,0-2.26.26M133.9,37.7A6.88,6.88,0,0,1,137.33,41c.3.66.54.93.55.6,0-1.47-2.92-4.42-4.38-4.36-.33,0-.15.2.4.42m15.85-.19c-.46.46-.29,4.35.21,4.85.3.3,1.76.48,3.81.48,3.37,0,4.75.69,3.27,1.63-.37.23-.39.36-.09.36.7,0,1-.68.73-1.58-.22-.69-.68-.79-3.92-.89l-3.68-.12v-2.5c0-1.37,0-2.49,0-2.49a2.22,2.22,0,0,0-.3.26m23.11.2c2.85,1.56,2,5.93-1.12,5.93-.44,0-.7.11-.56.25.43.43,2.23-.23,3.07-1.13,1.54-1.65.36-5.55-1.67-5.5-.28,0-.16.21.28.45m39.16,0c2.85,1.56,2,5.93-1.12,5.93-.44,0-.7.11-.56.25.41.41,2.25-.22,3.09-1.06,1.57-1.56.34-5.62-1.69-5.57-.28,0-.16.21.28.45m4.07-.06a12.66,12.66,0,0,1,.57,2.79l.24,2.2.06-2a4.48,4.48,0,0,0-.57-2.8c-.35-.42-.48-.5-.3-.17m35.29.05A6.86,6.86,0,0,1,254.82,41c.29.66.53.93.54.6,0-1.47-2.92-4.42-4.38-4.36-.33,0-.15.2.4.42m57.15,7.64c.15,6.06.32,8,.71,8.13s.32,0,.1-.1-.41-3.06-.41-7.94a56,56,0,0,0-.3-7.92c-.17-.1-.21,3.42-.1,7.83m-180.46-1.1c0,3.52.06,4.9.13,3.08s.08-4.7,0-6.4-.13-.2-.13,3.32m78.24-3.93c-.09,2.63.15,3.73.81,3.73.26,0,.26-.18,0-.51a8.63,8.63,0,0,1-.57-3.1l-.15-2.58-.07,2.46m39.24,3.93c0,3.52.06,4.9.14,3.08s.07-4.7,0-6.4-.14-.2-.14,3.32m-61.71-5a2.13,2.13,0,0,0-.31,1.21c.07.22.34-.15.59-.82.53-1.39.37-1.61-.28-.39m110.33-.62a4.39,4.39,0,0,0,.57,1.39c.31.55.57.82.57.6a4.39,4.39,0,0,0-.57-1.39c-.31-.55-.57-.82-.57-.6M177.53,40.31a13.25,13.25,0,0,1-.3,2.4c-.22.69-.21.69.22,0a4.9,4.9,0,0,0,.3-2.4l-.15-1.69-.07,1.66m47.31,2.16a22.27,22.27,0,0,0-1.32,3.81,17.7,17.7,0,0,0,1.61-3.51A22.21,22.21,0,0,0,226.45,39a20.37,20.37,0,0,0-1.61,3.52m4-3.36a1.17,1.17,0,0,0-.26.7c0,.24.17.19.36-.12.54-.86,1.06-.26,2,2.36a6.91,6.91,0,0,0,1.06,2.25,11,11,0,0,0-.89-2.81c-1-2.43-1.61-3.08-2.31-2.38m3.76-.06a4.48,4.48,0,0,0,.57,1.39c.32.55.57.82.57.6a4.16,4.16,0,0,0-.57-1.39c-.31-.55-.57-.82-.57-.6m57.74.68a3.3,3.3,0,0,0-.61,1.3c0,.23.29-.09.62-.7.73-1.34,1.2-1.12,2,1,.35.87.7,1.51.79,1.43.28-.28-1.41-3.87-1.82-3.87-.21,0-.67.4-1,.88M287,41.3a7.75,7.75,0,0,0-.71,2.21,5.86,5.86,0,0,0,1-1.92,7.61,7.61,0,0,0,.72-2.22,5.89,5.89,0,0,0-1,1.93m-180.4-1a43.17,43.17,0,0,0-.27,6.56c0,3.9-.16,6.37-.41,6.5s-.18.15.1.1.54-1.72.62-6.57c.06-3.56.27-6.46.47-6.46.46,0,3.18,3.54,6,7.8,2,3,3.38,4.81,2.6,3.39s-5-7.57-6.54-9.49-2-2.36-2.57-1.83m4.7,1.06a7.26,7.26,0,0,0,1.3,1.47c.27,0-1.46-2.34-2-2.65-.25-.16.05.38.67,1.18m71.82,2.89c-.11,5.24,2.35,9,6.33,9.57,1.2.18,1.14.13-.4-.38-3.71-1.23-5.25-3.64-5.62-8.81l-.25-3.6-.06,3.22m44.33-1.77a3.18,3.18,0,0,0-.29,1.44c.09.08.36-.43.6-1.13a3.07,3.07,0,0,0,.29-1.44c-.08-.09-.35.42-.6,1.13m-86.62,1.75c0,1.54.07,2.12.16,1.29a15.35,15.35,0,0,0,0-2.8c-.09-.71-.16,0-.15,1.51m117.48,0c0,1.54.07,2.12.16,1.29a16.35,16.35,0,0,0,0-2.8c-.09-.71-.16,0-.16,1.51M289,42.89a3,3,0,0,0-.29,1.44c.08.08.36-.43.6-1.13a3.07,3.07,0,0,0,.29-1.44c-.08-.09-.35.42-.6,1.13M29.61,73.21c0,29.42,0,31.17.69,31.16.51,0,.56-.09.2-.32s-.48-6.67-.4-31.16c.06-17,0-30.85-.19-30.85s-.3,14-.3,31.17m7.49-.32c.09,24.49,0,30.9-.4,31.16s-.31.32.2.32c.66,0,.7-1.74.7-31.16,0-17.14-.14-31.17-.3-31.17s-.25,13.88-.2,30.85M138,43.84a21.56,21.56,0,0,1-.28,2.6l-.21,1,.43-1a6.38,6.38,0,0,0,.29-2.59L138,42.24l-.08,1.6m117.53.4c0,1.1.08,1.5.18.89a7,7,0,0,0,0-2c-.09-.5-.17,0-.17,1.1m-80,.55-1.36,1.14,1.93,3A29.83,29.83,0,0,0,178.14,52c.22,0-.68-1.59-2.21-3.91L174.53,46l1.36-1.17c.75-.64,1.28-1.17,1.17-1.17a8.26,8.26,0,0,0-1.57,1.12m39.13,0c-.76.64-1.3,1.23-1.2,1.31s.83-.44,1.6-1.16c1.72-1.63,1.49-1.71-.4-.15m20.21-.38a7.18,7.18,0,0,0,.64,1.6c.25.42.29.29.1-.4a7.18,7.18,0,0,0-.64-1.6c-.25-.42-.29-.29-.1.4m50.56.84a3.39,3.39,0,0,0-.29,1.44c.09.09.36-.42.6-1.13a3.25,3.25,0,0,0,.3-1.43c-.09-.09-.36.42-.61,1.12M195,47.72c-.11,3.11-.17,3.29-1.12,3.56s-.9.28-.15.31a1.69,1.69,0,0,0,1.27-.46c.47-.56.83-6.69.4-6.69a9.7,9.7,0,0,0-.4,3.28m98.89-2.48c.13,1.42-5.11,1.81-5.43.41-.16-.72-.17-.7-.13.08s.27.92,2.69,1c2.95.14,4-.45,3.2-1.79-.38-.63-.42-.6-.33.28m-61.62.3c0,1.05-4.53,1.37-5.62.4-.48-.43-.48-.4,0,.2,1.24,1.64,6.59.74,5.89-1-.11-.28-.22-.11-.24.39m93-.43c-.5.49-.29,5.61.24,6s9.22.85,8.76.39a20.33,20.33,0,0,0-4.48-.4L325.51,51l-.12-2.76c-.08-1.94,0-2.86.4-3.09s.33-.33.09-.33a1,1,0,0,0-.7.26m-175.62,3c-.1,3.5,0,3.57,5.2,3.57,4,0,4.32.06,4.32.77a1.18,1.18,0,0,1-.41,1c-.23.11-.18.15.1.1s.51-.54.51-1.07c0-.95-.06-1-4.6-1.17l-4.6-.2-.22-2.79-.23-2.8-.07,2.62m18-1.52c-.47.56-.84,7.09-.4,7.09a10.93,10.93,0,0,0,.4-3.5l.12-3.49h3.59L173.53,50a16.79,16.79,0,0,0,2.8,3.53c.4.11.41.06,0-.2a20.15,20.15,0,0,1-2.14-2.93c-2.75-4.3-5.17-5.7-6.68-3.88m39.34-.2c-.1.16.65.3,1.67.3h1.86L212.69,50a16.79,16.79,0,0,0,2.8,3.53c.4.11.41.06,0-.2a21,21,0,0,1-2.14-2.93c-2.61-4.07-5.41-5.83-6.5-4.08m47.94,1a5.84,5.84,0,0,1-1.66,2.22c-.78.68-1.26,1.24-1.08,1.24,1,0,3.75-3.66,3.17-4.24-.1-.1-.29.25-.43.78m-39.57,1.57a15.24,15.24,0,0,0,1.64,2.29c.27,0-1.18-2.31-2.19-3.5-.51-.6-.26-.06.55,1.21m7.4-.86a3.3,3.3,0,0,0-.3,1.44c.09.09.36-.42.61-1.13a3.18,3.18,0,0,0,.29-1.44c-.09-.08-.36.42-.6,1.13M86,48c-.07,1.7,2.36,3.65,4.55,3.65,2,0,4.22-1.59,4.18-3.06,0-.47-.21-.27-.56.53-1.43,3.3-6.75,2.75-7.77-.79C86.08,47.25,86,47.2,86,48m100.28-.62c-.09,1.55,2.89,4.31,4.57,4.24.64,0,.6-.1-.22-.35a5,5,0,0,1-3.55-2.73c-.43-.81-.79-1.34-.8-1.16m19.89,3.08c-.07,1.75,0,3.19.17,3.19a9,9,0,0,0,.3-3.2c0-4.13-.3-4.13-.47,0m-70.32-1.11c-.8.83-1.33,1.5-1.18,1.5.37,0,3-2.75,2.81-2.89a6.27,6.27,0,0,0-1.63,1.39M275,48.65c0,2.54-4.72,3.52-6.82,1.42-.65-.65-1.17-1-1.17-.84,0,2.25,5.3,3.15,7.22,1.24,1-1,1.58-2.43,1-2.43-.11,0-.2.27-.2.61m-47.25.08a24,24,0,0,0,3.39,0c.94-.09.17-.15-1.69-.15s-2.64.06-1.7.15m59.55.21a3.13,3.13,0,0,0-.87,1.49l-.25,1,.48-1a11.37,11.37,0,0,1,.64-1.19,20.47,20.47,0,0,1,3.82-.43l3.66-.23-3.42-.07c-2.23,0-3.64.1-4.06.43m-23.08.22c0,1.42,2.53,4.47,3.74,4.47.25,0-.15-.36-.88-.81A6.22,6.22,0,0,1,265,50.33c-.43-.93-.78-1.46-.78-1.17M138.52,50.73c-.86,1.11-.93,1.29-.26.71s1.86-2.2,1.55-2.2a12.21,12.21,0,0,0-1.29,1.49M96.74,50a6.23,6.23,0,0,1-1.29,2c-1.15,1.35-1.16,1.41-.16.51,1.27-1.12,2-2.35,1.68-2.7-.13-.12-.23,0-.23.22m202,.48a7.2,7.2,0,0,0,.63,1.6c.26.42.29.3.11-.4a7.7,7.7,0,0,0-.64-1.6c-.26-.41-.29-.29-.1.4m-77.31.84c-.55,1.58-.57,2.36-.06,2.36.21,0,.3-.24.18-.53a3,3,0,0,1,.23-1.65,2.51,2.51,0,0,0,.26-1.29c-.09-.09-.37.41-.61,1.11m15.82-.44a9.58,9.58,0,0,1,.3,1.9c0,.5.15.9.32.9.47,0,.31-1.29-.32-2.6-.45-.94-.52-1-.3-.2m45.72.84c-.6,1.72-.57,2,.25,1.95.52,0,.57-.09.19-.33s-.42-.59-.09-1.45a2.46,2.46,0,0,0,.26-1.28c-.09-.09-.37.41-.61,1.11m-154.43-.34c.23.38,3.68.35,4.65,0,.4-.15-.52-.28-2.05-.27s-2.7.15-2.6.31m117.58,0a5,5,0,0,0,2.28.19l1.95-.13-2.27-.19c-1.26-.11-2.14,0-2,.13M85.64,52.53a3.74,3.74,0,0,0,1.61,1.09c.28,0,.14-.21-.3-.46a14.7,14.7,0,0,1-1.62-1.08c-.45-.36-.31-.15.31.45M224,52.1a2.81,2.81,0,0,1-.73,1.23c-.31.2-.29.29.06.29.5,0,1.48-1.93,1.14-2.27-.1-.1-.31.24-.47.75m72.15-.75c0,.57.95,2.28,1.27,2.28s0-.49-.34-1.1c-.9-1.43-.93-1.47-.93-1.18m-78.92,1.32c0,.53.13,1,.3,1s.3-.35.3-.77a1.39,1.39,0,0,0-.3-1c-.17-.1-.3.25-.3.78m17.39-.91c0,.65.83,1.87,1.3,1.86s.35-.09.05-.29a4.29,4.29,0,0,1-.88-1.1c-.25-.44-.46-.65-.47-.47m51.14.18a2,2,0,0,1-.63,1.06c-.34.35-.44.63-.21.63.5,0,1.39-1.57,1.07-1.9-.13-.13-.23,0-.23.21m-150.85.93c-1.1.4-1.68.73-1.29.74.81,0,3.49-1,3.49-1.36,0-.12,0-.19-.1-.16l-2.1.78m117.48,0c-1.1.4-1.67.73-1.28.74.8,0,3.48-1,3.48-1.36,0-.12,0-.19-.1-.16s-1,.38-2.1.78m-123,1a5.38,5.38,0,0,0,1.79,0c.5-.09.09-.17-.9-.17s-1.39.08-.89.17m64.13,0a3.3,3.3,0,0,0,1.4,0c.38-.1.07-.19-.7-.19s-1.08.09-.7.19m53.15,0a9,9,0,0,0,2.2,0c.6-.09.11-.17-1.1-.17s-1.71.08-1.1.17m-108,6.25a7.24,7.24,0,0,0,1.56.4c1,.18,1.23.14.8-.14s-2.76-.6-2.36-.26M84.11,61a3.45,3.45,0,0,0-.07,1.5c.11.69.2.54.35-.57.21-1.55.1-1.91-.28-.93M97,64a31.46,31.46,0,0,0-1.82,3.9A13.48,13.48,0,0,0,96.8,65,30.92,30.92,0,0,1,99,61.12c.34-.38.43-.7.2-.7S98,62,97,64m16.4-2.11c-.94,2-.65,2.06.41.12.48-.86.73-1.57.57-1.57s-.6.66-1,1.45m4.08.52a6.66,6.66,0,0,0,1.17,1.85c.2-.2-1.65-3.82-1.95-3.82s.2.89.78,2m14.42-1c-1.33,1-3.18,3.56-3.16,4.38,0,.22.3-.14.65-.8a10.18,10.18,0,0,1,3.53-3.85c.66-.41,1-.74.78-.74a5.59,5.59,0,0,0-1.8,1m15.7,8.28.11,9.29,1.3.12c1,.1,1.29,0,1.26-.6,0-.42-.11-.51-.23-.22a1.36,1.36,0,0,1-1.18.5h-1l.11-9.2c.07-5,0-9.19-.19-9.19s-.26,4.19-.2,9.3m11.69-8.8a26.94,26.94,0,0,0-.29,3.7l-.1,3.2-4,.22-4,.22,3.85.08c4.67.09,4.64.12,4.81-4.42.13-3.45.08-4-.27-3m2.52,8.71.11,9.18h-2.4l-.11-4.1-.11-4.1-4.17-.11a18.12,18.12,0,0,0-4.47.2c-.18.17,1.64.26,4,.19l4.37-.13.11,4.13.12,4.12h2.79l.11-9a73.5,73.5,0,0,0-.2-9.27c-.17-.17-.26,3.82-.19,8.86m9.19,0,.11,9.2L170,78.73l-1.11-.12-.22-8.8L168.44,61l-.08,8.6c-.09,9.26,0,9.72,1.75,9.52l1.15-.13.11-9a73.5,73.5,0,0,0-.2-9.27c-.17-.17-.25,3.83-.19,8.89m7.37.06.11,9.29h2.39l.11-6.5c.07-3.77.27-6.49.49-6.49.56,0,3.32,3.58,6.69,8.69,2.66,4,3.09,4.5,4.14,4.5.64,0,1.16-.15,1.16-.33s-.5-.26-1.11-.17c-1,.14-1.29-.13-3-2.87-3.29-5.2-7-10-7.76-10s-.7.65-.8,6.49l-.11,6.5h-2l.11-9.2c.06-5,0-9.19-.19-9.19s-.26,4.19-.2,9.3m2.9-8.28c2.28,2.4,2.63,2.66,1.22.88a7.85,7.85,0,0,0-1.85-1.9c-.18,0,.1.46.63,1m9.66-.75a36.25,36.25,0,0,0-.27,6c0,6.2-.15,6.55-1.75,4.13a6,6,0,0,0-1.29-1.59,6.25,6.25,0,0,0,1.14,1.89c.75,1,1.53,1.86,1.73,1.8s1-12.49.74-12.49a1.92,1.92,0,0,0-.3.27m9,9L200,79h12V78c0-1,0-1-4.17-1.12a16.48,16.48,0,0,1-4.7-.55c-.33-.27-.52-.28-.52,0,0,.69,1.14.89,5.23.89,3.7,0,4,.05,4,.8s-.26.8-5.81.8h-5.8l.11-9.2c.06-5,0-9.19-.19-9.19s-.26,4.19-.2,9.3M101.63,63c0,.88.09,1.19.19.7a4.5,4.5,0,0,0,0-1.6c-.1-.38-.18,0-.18.9m106.2-.72c-4,.14-5.2.37-5.2,1,0,.36.12.36.48,0s1.88-.48,4.4-.48c2.34,0,3.91-.16,3.91-.4s0-.36-.1-.32-1.62.14-3.49.2m-68.33.53c1.32.42,2.79.46,2.79.09,0-.16-.86-.32-1.9-.35-1.45,0-1.66,0-.89.26M88.62,64.22c.37.76.74,1.32.83,1.23a5.94,5.94,0,0,0-1.31-2.63c-.1,0,.12.63.48,1.4m-4.94,2c0,1.32.07,1.81.16,1.09a10.69,10.69,0,0,0,0-2.4c-.09-.6-.17,0-.16,1.31M112,65c-.67,1.47-.54,1.78.18.44.34-.62.54-1.21.45-1.3s-.38.3-.63.86m2.57,0c-.37,1-.26,1.25.19.47.59-1,1-.87,1.57.51.28.67.58,1.13.68,1s-.11-.73-.46-1.41c-.69-1.34-1.59-1.62-2-.61m70.86,1.47a17.28,17.28,0,0,0,1.9,2.3c.27,0-2.36-3.58-3-4.12-.33-.26.18.55,1.13,1.82M118.74,65a4.35,4.35,0,0,0,.58,1.4c.31.55.57.82.57.6a4.51,4.51,0,0,0-.57-1.4c-.32-.55-.58-.82-.58-.6m-16.68,2.8c0,1.32.07,1.81.16,1.09a10.69,10.69,0,0,0,0-2.4c-.09-.6-.17,0-.16,1.31m-16-1.23a3.49,3.49,0,0,0,0,1.5c.16.83.19.81.23-.17.08-1.62.72-1.35,1.83.8.54,1,1,1.75,1,1.58.09-1.62-2.57-4.89-3-3.71m12.19.33c-.44.81-.42.84.18.35.82-.67,1-.32,1.18,2.54l.14,2,.07-2.26c.11-3.4-.57-4.53-1.57-2.63M90,67a10,10,0,0,0,1,2.2c.53,1,1,1.61,1,1.39a10.19,10.19,0,0,0-1-2.19c-.53-1-1-1.62-1-1.4m112.65.51c0,.67,1.1.89,4.43.89,3.06,0,4.47.88,2.76,1.73-.23.11-.19.16.1.1s.5-.54.5-1.07c0-.93-.1-1-3.37-1.08a12.29,12.29,0,0,1-3.9-.55c-.33-.28-.52-.29-.52,0m-85.28.89A6.92,6.92,0,0,0,118,70c.26.42.29.3.11-.39a7.7,7.7,0,0,0-.64-1.6c-.26-.42-.29-.3-.1.4M96.81,69.83c-1.2,2.48-1.07,2.83.17.45a6.8,6.8,0,0,0,.86-2.09c-.08-.09-.55.65-1,1.64M94,70.26c-.78,1.61-1,1.76-1.54,1.29s-.62-.45-.45.06c.41,1.25,1.37.81,2.26-1a6.32,6.32,0,0,0,.76-2,5.15,5.15,0,0,0-1,1.68M112.68,70c-.63,2.08-.26,2.39,2.86,2.4,2.12,0,3.19-.46,3.16-1.38,0-.23-.19-.1-.42.28-.31.55-.94.7-2.79.7-2.66,0-3.06-.37-2.37-2.18a2.35,2.35,0,0,0,.24-1.31c-.1-.1-.41.57-.68,1.49m15.33-.2c0,.88.08,1.2.18.7a4.28,4.28,0,0,0,0-1.6c-.1-.38-.18,0-.17.9m-44.72,2c0,1.76.07,2.43.15,1.49a19,19,0,0,0,0-3.2c-.08-.81-.15,0-.15,1.71m37.65-1.4a7.7,7.7,0,0,0,.64,1.6c.26.42.29.3.1-.4a7.2,7.2,0,0,0-.63-1.6c-.26-.41-.29-.29-.11.4m-35.25,4c0,2.09.07,2.94.15,1.9a26.77,26.77,0,0,0,0-3.8c-.08-1-.15-.19-.15,1.9m16.78-.8c0,1.65.07,2.32.15,1.5a16.7,16.7,0,0,0,0-3c-.08-.82-.15-.15-.15,1.5m6.7-1.55a3,3,0,0,0-.29,1.44c.08.08.35-.43.6-1.13a3.07,3.07,0,0,0,.29-1.44c-.08-.09-.35.42-.6,1.13m-19.59-.25a6.91,6.91,0,0,0,.76,1.8c.43.77.77,1.22.77,1a6.7,6.7,0,0,0-.77-1.8c-.42-.77-.76-1.22-.76-1m5.23,2.42c-.67,1.47-.55,1.78.18.44.34-.62.54-1.2.45-1.3s-.38.3-.63.86m5.3,2.18,0,2.6,1.2,0c1.1,0,1.11,0,.12-.12s-1.09-.3-1.22-2.64l-.15-2.47,0,2.6M108,75.25a3.22,3.22,0,0,0-.29,1.44c.08.09.36-.42.6-1.13a3,3,0,0,0,.29-1.43c-.08-.09-.35.42-.6,1.12m3.69-.93c-.25.16,1.3.23,3.45.15,3.71-.12,3.94-.08,4.56.79.35.51.64.72.64.47,0-1.48-6.79-2.59-8.65-1.41m17.45.64c0,1.2,3.47,4.25,4.84,4.25.3,0-.22-.39-1.17-.86a8.16,8.16,0,0,1-2.7-2.29c-.53-.79-1-1.29-1-1.1m3.56.4c1,1.26,2.71,1.85,5.11,1.78l2.31-.06-2.66-.24a7.31,7.31,0,0,1-4-1.21c-.8-.59-1.1-.7-.76-.27m-41.53.09c0,1.08,2.42,1.9,3,1,.11-.19-.27-.26-.84-.15a1.41,1.41,0,0,1-1.59-.53c-.29-.4-.54-.56-.54-.34m19.23,1a3.07,3.07,0,0,0-.29,1.44c.08.09.35-.42.6-1.13a3,3,0,0,0,.29-1.44c-.08-.08-.35.43-.6,1.13m-27.46.85c0,1.57,2.64,3.14,2.64,1.6,0-.2-.53-.28-1.17-.18-1.12.16-1.19.09-1.34-1.47l-.17-1.65,0,1.7m58.93-.79a2,2,0,0,1,.34,1.5c-.12.44-.05.7.15.57.6-.37.41-1.64-.34-2.22s-.64-.49-.15.15m-18.12,1.4c.32,1.15-1.92,1.33-2.57.2-.23-.39-.42-.51-.42-.28,0,.74.91,1.38,2,1.38,1.32,0,1.74-.55,1.14-1.5-.38-.61-.4-.58-.19.2m-16.73,1a3.12,3.12,0,0,0,2.67,0c.11-.17-.5-.3-1.33-.3s-1.44.13-1.34.3m109.53,6.57a4.28,4.28,0,0,0,1.6,0c.38-.1,0-.17-.9-.17s-1.19.09-.7.18m-132.93.67c-.32.38-.42,3.23-.35,9.49l.11,8.94,5.36.11a28.55,28.55,0,0,0,5.68-.2c.17-.17-2.2-.25-5.27-.19l-5.58.12.1-9.11.11-9.11h2l.2,8c.15,6,.32,8,.71,8.06s.32,0,.1-.1-.41-3-.41-7.88c0-7.9-.14-8.64-1.63-8.64a1.69,1.69,0,0,0-1.13.55m16.09,0a1,1,0,0,0,0,.88c.13.14.25,0,.25-.42,0-.58.62-.66,5.39-.66h5.39v1c0,1,0,1-4,1a15.81,15.81,0,0,0-4.16.3c-.1.16,1.73.21,4.08.1l4.25-.2V85.8l-5.5-.11c-4.7-.1-5.54,0-5.74.51m21.83.7a5.37,5.37,0,0,0-.78,1.7c0,.22.38-.28.81-1.1.84-1.59,2.08-2,3.17-1,.48.42.48.39,0-.2-.86-1.15-2.33-.87-3.23.6m18.1-1a25.28,25.28,0,0,0,3.59,0c.93-.08.07-.15-1.91-.15s-2.73.07-1.68.15m16.5,0c-.11.19.21.26.72.17.67-.13,1.34.24,2.48,1.37s1.21,1.11.57.33c-1.78-2.15-3.16-2.84-3.77-1.87m13.66.07c.89.36.89.4.89,9.37v9h-.91a2.5,2.5,0,0,1-1.48-.5c-.48-.43-.48-.39,0,.22a1.74,1.74,0,0,0,1.58.6l1-.12.11-9.16c.11-9.47.06-9.84-1.5-9.79-.34,0-.21.18.3.38m8.27.1c-.11.28-.15,4.55-.09,9.49l.11,9h1.16c.64,0,1.21-.23,1.27-.51s0-.32-.1-.1-.64.41-1.17.41h-1V86.05l.9-.17.89-.17-.91-.06c-.5,0-1,.18-1.1.46m9.5-.18c-.39.25-.48,2.42-.4,9.49l.11,9.16h2.4l.11-6.49c.13-7.74.2-7.82,3.46-3.3a26.93,26.93,0,0,0,2.49,3.2c.22,0-1-1.79-3.38-4.92-2.61-3.42-2.88-2.94-2.88,5v6.34h-2v-9c0-9,0-9,.9-9.37.5-.2.63-.37.3-.38a2.39,2.39,0,0,0-1.11.3m12.38.15c-.33.33-.48,2.28-.48,6.18,0,5.15-.07,5.68-.67,5.45s-.57-.11-.38.21c1.09,1.76,1.45.41,1.45-5.54s0-6,.89-6.37c.56-.22.66-.37.28-.39a1.67,1.67,0,0,0-1.09.46m13.5-.06c-.44.29-.27.33.6.13,1.47-.32,1.79-.55.77-.54a2.82,2.82,0,0,0-1.37.41m5.8-.22c.22.07.9.24,1.51.38a2.16,2.16,0,0,1,1.47,1.13c.35.86.36.86.39,0s-1.42-1.78-2.89-1.73c-.49,0-.7.09-.48.17m-82.34.71c-.11.28-.15,4.46-.09,9.29l.11,8.78h1.16c.64,0,1.22-.23,1.27-.51s0-.32-.1-.1-.64.41-1.18.41h-1l.11-9.19c.12-9,.09-9.71-.3-8.68m9.4.12a10.92,10.92,0,0,1,2.19,1.28c.76.65.78.65.24,0a6.11,6.11,0,0,0-3.3-1.86c-.29,0,.1.29.87.62m22.08,5c-.1,6.1-.22,6.65-1.26,5.88-.46-.35-.44-.27.06.28,1.28,1.39,1.54.28,1.41-6l-.13-6-.08,5.83M191,88a13,13,0,0,0,1.88,2,9.63,9.63,0,0,0-1.48-2,13.53,13.53,0,0,0-1.87-2A9.2,9.2,0,0,0,191,88m20-.56c-1.22,1-2.64,3.26-2.3,3.6.1.1.41-.37.69-1.05a7.82,7.82,0,0,1,1.94-2.41c.79-.65,1.32-1.18,1.17-1.18a6.26,6.26,0,0,0-1.5,1m-85.9,0a7.06,7.06,0,0,0,.77,1.8c.42.76.76,1.21.76,1a6.89,6.89,0,0,0-.76-1.79c-.42-.77-.77-1.22-.77-1m14.62.9c-.1.16.65.24,1.67.18,2.92-.19,3.27-.39.79-.44a5.89,5.89,0,0,0-2.46.26m73.68.74c-1.27,1.07-2.42,2.9-2.41,3.83,0,.29.34-.2.75-1.08A5.77,5.77,0,0,1,215,88.44c.64-.25.75-.4.32-.42a4.2,4.2,0,0,0-1.91,1m-67.8.18a2.93,2.93,0,0,1,1.09,1.7c0,.73.08.75.24.14s-1.26-2.66-2-2.66c-.21,0,.09.37.67.82M102,90.87c-.11,2.73.45,3.12,4.55,3.12,3.08,0,3.37.07,3.37.78s-.34.8-3.3.93l-3.3.14,3.4,0c3.35,0,3.39,0,3.39-1s-.07-1-3.37-1.12c-4-.13-4.33-.35-4.52-2.81L102.08,89,102,90.87m18-.66c-.67,1.47-.54,1.78.18.45.34-.63.54-1.21.45-1.3s-.37.29-.63.85m43.51,2.58c1.35,1.87,2.64,3.58,2.88,3.8.74.69-2.82-4.34-4.1-5.8-.68-.77-.13.13,1.22,2m-41-2.37a.59.59,0,0,0,0,.67c.13.13.24,0,.24-.23,0-1,.81-.42,1.57,1,1,1.8,1.07,1.56.23-.45-.6-1.41-1.49-1.87-2-1M194,91.72a7.74,7.74,0,0,0,1.29,1.47c.28,0-1.45-2.34-2-2.65-.25-.16.05.38.67,1.18M126.74,91a4.27,4.27,0,0,0,.57,1.4c.31.55.57.82.57.6a4.51,4.51,0,0,0-.57-1.4c-.32-.55-.57-.82-.57-.6m31.79.08a49.88,49.88,0,0,0-.25,6.83v6.57l-1.2-.17c-.66-.1-1.2,0-1.2.17s.58.3,1.3.24l1.3-.13.11-6.52c.12-7.49.13-7.5,3-3.64,3.06,4.12,3.67,4.78,1.6,1.75-3.09-4.55-4.1-5.65-4.66-5.1m49.55,1.41a15.53,15.53,0,0,0-.19,3.11c.05,2.08.07,2,.34-.8.3-3.16.26-3.83-.15-2.31m-61.39.08a2.68,2.68,0,0,1-1.05,1.4c-.58.46-.85.83-.6.83a3.32,3.32,0,0,0,2.05-2.2c0-.33-.09-.6-.2-.6s-.2.26-.2.57m-25.93,2.27c-.55,1.57-.57,2.76-.06,2.76.21,0,.29-.27.16-.6a3.66,3.66,0,0,1,.21-1.86,3,3,0,0,0,.29-1.42c-.08-.09-.35.42-.6,1.12m4.64-.44a10.22,10.22,0,0,1,.3,2.1c0,.6.14,1.1.31,1.1.49,0,.31-1.71-.31-3-.46-.94-.52-1-.3-.2m70.84.4a4.6,4.6,0,0,0,1,1.2c.11,0-.18-.54-.65-1.2a4.55,4.55,0,0,0-1.06-1.2c-.1,0,.19.54.66,1.2m14.49.4c0,1,.08,1.39.18.9a6,6,0,0,0,0-1.8c-.1-.49-.18-.09-.18.9m-70.87-.28a5.74,5.74,0,0,0,2.48.2l2.15-.13-2.48-.2c-1.36-.1-2.33,0-2.15.13m7.83.93c-.72.61-.87.85-.37.61.73-.37,2.11-1.68,1.71-1.65a10.67,10.67,0,0,0-1.34,1m72.61-.15a10,10,0,0,0-.57,3.51l-.11,3-2.08.12c-2.52.15-4.24-.64-5.33-2.43-.43-.71-.78-1.08-.78-.84,0,1.75,3.14,3.75,5.87,3.75s2.86-.19,3-3.81c.11-3.15.13-3.18,1.23-3.31l1.11-.13-.11,4.32-.12,4.32-1.2.26c-1.15.25-1.16.26-.15.3,1.72.08,2-.67,1.87-5.2-.12-4.3-1.08-5.71-2.63-3.84m-118.12.93c-.65,1.69-.17,5.76.67,5.76.3,0,.28-.16,0-.48-.62-.62-.62-4.81,0-5.43.32-.32.34-.48,0-.48s-.54.28-.67.63m15,.61a3.22,3.22,0,0,0-.29,1.44c.09.09.36-.42.6-1.13a3.26,3.26,0,0,0,.3-1.44c-.09-.08-.36.43-.61,1.13m22.59.26c-.1.17.53.24,1.4.16,2-.19,2.56.31,5,4.21,1.69,2.67,2,2.92,3.18,2.92,1.5,0,1.78-.88.7-2.22-.6-.75-.6-.75-.2.1,1.51,3.11-1.37,2.34-3.37-.9-2.57-4.17-5.61-6.09-6.74-4.27m7.55,1.12a17.49,17.49,0,0,0,1.46,2.2l.79,1-.67-1.22a16.5,16.5,0,0,0-1.47-2.2l-.79-1,.68,1.22m50.57,2.94c1.9,3,4.36,4.63,4.36,2.9,0-.18-.49-.26-1.1-.17-1,.14-1.27-.13-2.83-2.67a20.67,20.67,0,0,0-2.11-3,12.84,12.84,0,0,0,1.68,3m-67.74-2a7.82,7.82,0,0,0,.64,1.59c.26.42.29.3.1-.4a7.11,7.11,0,0,0-.63-1.59c-.26-.42-.29-.3-.11.4m-14.17.84a3.34,3.34,0,0,0-.29,1.44c.09.08.36-.42.6-1.13a3.28,3.28,0,0,0,.3-1.44c-.09-.09-.36.42-.61,1.13m49.72-.22a19.08,19.08,0,0,0,1.46,2.2l.79,1-.67-1.22a16.5,16.5,0,0,0-1.47-2.2L165,99l.68,1.22m-46.74.26a3.3,3.3,0,0,0-.61,1.3c0,.23.29-.08.61-.69.59-1.08.67-1.1,4.4-1.1h3.8l.78,1.7c.43.94.68,1.25.55.7-.62-2.56-1.06-2.79-5.14-2.79-3.44,0-3.82.07-4.39.88m89.7-.77c-.08,1.46,3.64,5.11,5.14,5,.4,0,.29-.16-.3-.4a8,8,0,0,1-4-3.5c-.43-.8-.79-1.32-.8-1.15M99.69,103l0,1.6h12v-1c0-.78-.21-1-1-1.06s-.89,0-.1.12a1,1,0,0,1,.9,1c0,.73-.33.77-5.77.77H100l-.17-1.5-.17-1.5,0,1.6m15.22.24a1.38,1.38,0,0,0,.12,1.23c.54.54,2.6.25,2.73-.38,0-.28,0-.32-.11-.1-.49,1-2.63.46-2.37-.59.31-1.21,0-1.34-.37-.16m16.59.56c0,.69-2.2.86-2.53.19-.11-.22-.16-.18-.1.1.18,1,3,.89,3-.07,0-.45-.09-.82-.2-.82s-.2.27-.2.6m84.21,1.29a14.54,14.54,0,0,0,2.8,0c.83-.08.25-.16-1.29-.16s-2.22.07-1.51.16"/><path id="path3" class="cls-1" d="M.53.35C0,.58-.23,103.58.33,103.58c.17,0,.3-23.15.3-51.45V.68h8V52.09c0,28.28.13,51.33.3,51.23C9.47,103,9.29,1.11,8.75.56S1.61-.08.53.35m9.64.34c-.14.36,3.44,7,8.88,16.48,5,8.74,10,17.5,11.15,19.48,2.63,4.62,2.87,4.64,5.3.52C45,21,56,1.22,55.84.7c-.35-.92-45.32-.94-45.67,0M57.28.35c-.57.23-.76,103.23-.2,103.23.16,0,.3-23.15.3-51.45V.68h8V52.09c0,28.28.13,51.33.3,51.23.68-.42.35-102.73-.33-103a37.44,37.44,0,0,0-8.06,0M55.39.89C55.7,1.4,33.61,40,33,40c-.25,0-3.25-4.9-6.68-10.88L15.23,9.79C12.55,5.13,10.47,1.13,10.61.9,11,.33,55,.32,55.39.89M83.85,9.34l-1.1.4v9.31c0,11.19-.47,10.35,5.69,10.15s9.67-2.34,10.48-6.54c.2-1,.16-1-.34.26-1.78,4.55-3.94,5.74-10.43,5.74h-4.8l-.11-9.3-.1-9.3,1-.39a11,11,0,0,1,15,9l.33,2.82-.12-2.79c-.3-7.29-8.17-12-15.52-9.33m20.88-.17c-2.07.79-1.68,14.77.51,17.83,2.31,3.26,8.87,3.57,11.77.56,1.92-2,2.11-2.93,2.11-10.73,0-8-.23-8.61-2.91-7.59l-1.09.42v6.62c0,8.53-.36,9.38-4,9.38-1.6,0-3.19-1.36-3.19-2.72,0-.34-.11-.5-.24-.37-1.11,1.11,1.51,3.49,3.84,3.49,3.44,0,3.77-.76,3.92-9,.13-7.52.37-8.23,2.48-7.56,1.2.38,1.2,13.81,0,16.16-2.84,5.55-11.9,4.57-13.58-1.47-.84-3-.54-14,.4-14.5,2.11-1.14,2.37-.47,2.47,6.33l.09,6.26.12-6.19c.14-7-.18-7.86-2.7-6.9m20.88.12c-.9.36-.9.39-.9,9.71,0,10.33,0,10.42,2.47,10.18l1.33-.12.11-3.6c.16-4.82.22-4.83,4.56-.22,3.44,3.64,3.93,4,5.23,4,3.08,0,2.47-1.76-2.38-6.81l-3.85-4L136,14.51c4.11-4.18,4.32-4.56,3-5.26-1.7-.91-3.2-.14-6.27,3.22-3.72,4.06-4,4.07-4.16.13-.08-2.08-.28-3.09-.62-3.16s-.33,0-.1.1a6.92,6.92,0,0,1,.41,3.07c0,4.57.21,4.58,4.52.35C136.65,9.22,138,8.54,139,9.81c.34.41.2.76-.59,1.5-.57.53-2.3,2.36-3.85,4.07l-2.81,3.12L135,21.78c5.35,5.53,6.08,7.08,3.36,7.08-1.44,0-1.72-.2-3.58-2.54-2.21-2.78-5.53-5.71-6-5.27a17.8,17.8,0,0,0-.47,3.94l-.2,3.67h-2.8l-.11-9.28-.1-9.27,1.1-.6c1.21-.66.84-.8-.59-.22m18.55.09c-.62.45-.67,1.42-.58,10.09l.11,9.59,6.3.11,6.3.11.47-1c.91-2,.18-2.37-4.84-2.49l-4.47-.12.12-2.48.12-2.49,3.55-.2c4-.22,4.77-.71,3.93-2.56-.46-1-.59-1-4.08-1h-3.6v-4h3.91c4.28,0,4.88-.26,4.88-2.09a1.35,1.35,0,0,0-1-1.51c-1.53-.59-10.26-.5-11.09.11m11.08.42c2.06,1.5.72,2.46-3.76,2.67l-4.19.2v4.4l3.66.11c3.85.12,4.45.45,3.92,2.13-.2.62-.76.74-3.91.84l-3.67.11v5.6l4.46.11c4.72.12,5.27.37,4.71,2.15-.23.7-.66.75-6.31.65l-6.06-.11L144,19.29c-.08-7.22,0-9.43.4-9.68.88-.56,10.06-.4,10.86.19M86.53,13a61.85,61.85,0,0,0-.09,6.69l.11,6.18,1.89.12c6.86.44,10-8.79,4.34-12.6-1.57-1.05-5.9-1.32-6.25-.39m6.14.69c5.23,3.19,2.29,12-4,12h-1.9V12.87h2.3a6.65,6.65,0,0,1,3.62.81M189,34.13c-5.61,1.49-8.46,10-5.29,15.88,2,3.67,6.1,5.42,10.6,4.53l2.17-.43-2.47.21c-13.64,1.16-16-18.48-2.39-20.25,2.2-.28,2.27-.32.66-.33a15.28,15.28,0,0,0-3.28.39m-105.71.19c-.74.29-.7,14.46,0,16.25,1.86,4.46,8.82,5.65,12.57,2.14,2-1.87,2.24-2.83,2.39-10.12.17-7.81,0-8.54-2.09-8.54s-2.16.4-2.3,8.14c-.15,8.07-.38,8.64-3.49,8.64s-3.59-1.13-3.75-9.19l-.11-5.79L86.44,42c-.12,7.91.49,9.27,4.11,9.27a3.3,3.3,0,0,0,2.62-1.16l1.17-1.17V42.15c0-7.07.15-7.7,1.8-7.7s1.8.66,1.79,7c0,8.68-.56,10.34-4,12.14s-8.08.59-9.87-2.55c-2.34-4.12-.84-18.26,1.72-16.14.34.28.58.31.58.07,0-.74-1.88-1.12-3.1-.62m20.32.28c-.75.91-.42,19.11.36,19.36.5.17.51.09.09-.41-.88-1.07-.5-18.28.41-18.86,1.23-.77,2.69.52,6.89,6.08,5,6.63,4.76,6.65,5-.33.2-5.77.2-5.79,1.18-5.93,1.85-.26,2,.57,2,9.93,0,6.18-.14,8.77-.48,9.11s-.34.48-.05.48c.81,0,.93-1.23.93-10,0-9.29-.15-10-2-10s-2,.17-2,5.77c0,6.64.12,6.59-3.69,1.5-5.25-7-7.17-8.51-8.66-6.72m22.34-.26c-1.11.42-1.19,1.08-1.19,9.77,0,9.13.08,9.93,1.13,9.91.58,0,.58-.06,0-.42-.9-.52-1.09-18.05-.2-18.63a21,21,0,0,1,4.3-.55l3.79-.23-3.6,0a25.1,25.1,0,0,0-4.19.19m20.82.26c-.76.91-.42,19.11.36,19.36.49.17.51.09.09-.41s-.48-2.83-.4-9.76l.11-9.14h11.59l.12,1.29c.15,1.54-.18,1.66-5.12,1.81l-3.4.1L150,39.68c-.16,2.43.26,2.7,4.33,2.84l3.38.12V45l-3.8.2-3.8.2L150,47.87c-.16,3.17.05,3.31,5.13,3.45,4.28.12,5.82,1.06,3.91,2.4-.43.3-.41.34.07.21s.6-.66.6-1.53V51l-4.6-.2-4.6-.2V45.84l3.38-.12c3.82-.13,4.51-.49,4.34-2.24l-.12-1.24-3.8-.2-3.8-.2-.12-1.9-.12-1.89H154c4.79,0,5.05-.11,5.05-2s-.15-2-6.58-2c-4,0-5.43.13-5.77.55M165,34.33c-1.05.27-1.13,1.17-1,10.68.09,7.37.21,8.78.71,8.94s.5.08.1-.35c-.94-1-.69-18.22.27-18.74,1.34-.71,7.61-.49,9.42.34a5.72,5.72,0,0,1,2,9.14c-1.74,1.93-1.74,1.86-.22,4.1,2.23,3.28,2.91,4.85,2.31,5.28-.43.3-.43.34,0,.22,1-.27.88-.87-.62-3.32-3-5-2.88-4.35-1.46-5.68,6-5.57-2.21-13.06-11.58-10.61m29.87,0c2.86.63,3.6,1.56,2.46,3.11-.47.64-.72.68-1.86.28-4.51-1.57-9.25,1.19-9.16,5.33,0,.44.25.08.53-.8,1.34-4.28,4-5.54,8.7-4.13,1.78.54,2.2.29,2.56-1.54.28-1.39-1.2-2.57-3.11-2.47-.8,0-.82.07-.12.22m9.29,0c-1,.27-1.13,1.17-1,10.68.09,7.37.21,8.78.71,8.94s.5.08.1-.35c-.94-1-.69-18.22.27-18.74,1.35-.71,7.61-.49,9.42.34,4.08,1.88,4.86,6.48,1.63,9.61l-1.38,1.34,1.51,2.24c2.43,3.58,3,4.88,2.37,5.29-.36.23-.38.34-.06.34,1.32,0,.59-1.94-2.51-6.81-.63-1-.61-1.06.56-2.23,5.83-5.83-2.13-13.13-11.61-10.65m23.49.65c-1.68,2.56-7.62,18-7.19,18.67a.9.9,0,0,0,.69.38c.34,0,.34-.11,0-.45-.66-.66,5.52-17.1,7-18.56a2.12,2.12,0,0,1,3,.13c1.56,1.85,7.63,17.67,7.05,18.37-.28.34-.28.51,0,.51,1.46,0-5-17.88-7-19.48a2.51,2.51,0,0,0-3.47.43m15.67-.65c-1,.27-1.13,1.18-1,10.31l.12,8.39.09-8.88c.11-10.53-.29-9.84,5.64-9.64,7,.25,10.07,3,10.38,9,.34,6.89-2.75,10-10.53,10.5l-4,.27,3.23.07C254.94,54.52,259,51,259,44.24c0-7.58-7.2-12.13-15.68-9.91m20.58,0c-.91.36-.69,14.58.26,16.43,3.07,6,12.32,5.19,14.24-1.27.75-2.55.84-14.22.11-14.95s-3-.59-3.51.29a39.26,39.26,0,0,0-.41,7.41c0,7.47-.42,8.6-3.16,8.6-3.54,0-4-1.14-4-9.33,0-7.45-.47-8.41-3.5-7.18m26,0c-.66.43-1.92,3.06-4.21,8.79-3.4,8.48-4.1,10.88-3.18,10.88.2,0,.28-.33.17-.73-.19-.74,2.12-7.26,4.81-13.59,3.72-8.77,5-7.73,11.28,9.46,1.26,3.45,1.42,4.18.94,4.49s-.44.36-.06.36c1.05,0,.87-1.18-.86-5.82-4.93-13.25-6.38-15.5-8.89-13.84m12.71.17c-1.67,1.67-.37,3.24,2.92,3.52l2.4.2.11,7.89c.09,7.17.17,7.89.79,7.88s.55-.09.2-.31-.52-2.48-.59-8.09l-.11-7.77-2.39-.13c-2.75-.14-3.5-.59-3.33-2l.12-1h14.39l.13,1.16c.17,1.49-.41,1.82-3.23,1.83h-2.3v7.71c0,5.47-.14,7.85-.48,8.19s-.33.48,0,.48c.8,0,.92-1.19.92-8.62V38.05h2.17a11.75,11.75,0,0,0,2.8-.25c.87-.33.87-3.17,0-3.51-1.25-.47-14-.27-14.48.24m19.6-.21c-.9.36-.7,19.71.2,19.7.51,0,.56-.09.19-.32s-.48-2.46-.39-9.69l.1-9.36h5.8c5.74,0,5.79,0,5.92.92.25,1.75-.51,2.08-4.79,2.08h-4l.12,2.29.12,2.3,3.67.12c3.28.1,3.71.2,3.93.92.47,1.47-.44,1.92-4.14,2l-3.46.12L325.39,48c-.15,3.2-.13,3.22,5,3.23,4.4,0,5.18.39,4.14,2.05-.26.41-.3.75-.09.75.54,0,.93-1.46.63-2.38-.22-.71-.67-.8-4.72-.9l-4.47-.12-.12-2.49-.12-2.5h3.63c3.5,0,3.63,0,4.09-1,.84-1.85.09-2.34-3.93-2.57l-3.55-.2-.12-1.9-.12-1.89h3.64c4.78,0,6.75-1.48,4.71-3.52-.48-.48-10.7-.66-11.81-.21m-187,.69c8.21,3.21,8,15.72-.25,18.49-1.58.53-1.59.54-.23.34,8.84-1.34,9-17.54.2-19.18-1-.19-1-.15.28.35m131.31-.08c.33.33.48,2.41.48,6.77,0,6.87.27,8,2,9a3.8,3.8,0,0,0,4.77-.59L275,48.9V42.15c0-7.07.15-7.7,1.8-7.7,3,0,2.53,15.49-.6,18.12-3.65,3.07-9.83,2.07-11.63-1.9-.75-1.66-1.17-15.27-.49-16a2.3,2.3,0,0,1,2.45.21m-137.7,2.8c-.67.67-.67,12.35,0,13,1.13,1.14,5.3.24,7.06-1.53a7.43,7.43,0,0,0,1.63-6.38l-.36-1.4.15,1.4c.44,4.12-1.63,7.28-5.1,7.81s-3.26.8-3.26-6.41V37.85l1.27-.13a6.86,6.86,0,0,1,5.68,2.14c.68.78,1.24,1.21,1.24,1,0-2.15-6.75-4.67-8.31-3.1m39.16,0a1.49,1.49,0,0,0-.47.9c0,.23.2.1.42-.28,1.2-2.06,6.36-.08,6.36,2.44,0,2-6,3.66-6.52,1.84-.13-.42-.17-.39-.13.1.16,1.73,5.88,1,6.73-.9,1.27-2.8-4.19-6.31-6.39-4.1m39.26-.06a.6.6,0,0,0,0,.67c.13.13.24,0,.24-.23,0-1.16,4.9-.16,5.6,1.15,1.44,2.69-3.71,5.7-5.95,3.48-.4-.4-.45-.36-.23.2.65,1.71,6,.6,6.74-1.39.93-2.65-4.93-6.22-6.38-3.88m39.27-.17c-.11.19.81.36,2.05.37,8.49.08,8.59,12.65.1,12.74-1.3,0-2.26.18-2.15.37.32.51,4.21,0,5.62-.7,4-2.07,4.11-9.66.18-12-1.38-.81-5.45-1.39-5.8-.83M228,42.4c-1.41,3.59-1.24,4,1.57,4s2.88-.19,1.55-3.65c-1.44-3.72-1.8-3.77-3.12-.39m62.57-2c-.9,1.69-2.06,5.27-1.83,5.64.34.55,4.48.52,4.82,0s-1.75-6.36-2.24-6.36c-.19,0-.53.33-.75.74m-59.83,2.52c1.17,3.1,1.15,3.13-1.45,3.13-2.28,0-2.34-.34-.7-4.15,1-2.31.88-2.36,2.15,1m61.78.17c1,2.68.87,3-1.38,3s-2.34-.22-1.35-2.83c1.33-3.48,1.48-3.48,2.73-.13M106.73,47.2c0,3.95-.16,6.44-.41,6.57s-.18.15.1.1.56-1.76.71-6.46l.2-6.35,1.6,2.16c.88,1.18,2.85,4,4.39,6.35a22.85,22.85,0,0,0,3.4,4.38c.48.14.46.06-.06-.37a12.66,12.66,0,0,1-1.75-2.35c-2.2-3.62-7.2-10.38-7.68-10.38s-.5,1.53-.5,6.35M29.3,41.71c-.73.73-.72,61.81,0,62.81s8.43.81,8.6-.34c.11-.73.08-.74-.32-.1-.53.86-7.08,1-7.9.22s-.7-61.48,0-62.18,7.37-.64,7.9.22c.4.64.43.63.32-.1-.15-1-7.7-1.45-8.61-.53m165.33,3a14.1,14.1,0,0,0-.39,3.59v2.57h-1.82a5.58,5.58,0,0,1-5.76-5.36c0-.42-.13-.65-.27-.51-.51.52.78,3.84,1.92,4.94S189.8,51,192,51h2.47l.2-3c.24-3.53.47-4,2-4s1.62.48,1.61,4.93c0,3.76-.16,4.38-1.19,4.77-.49.18-.47.23.08.26,1.45.07,2.35-8.57,1-9.88-.93-.92-3.1-.59-3.53.55M168,46.92a1.56,1.56,0,0,0-.48.87c0,.22.23.08.52-.31,1.16-1.59,2.69-.71,5.14,2.94a17.5,17.5,0,0,0,2.8,3.55c.33.1.3,0-.11-.39a16.26,16.26,0,0,1-1.94-2.75c-2.37-4-4.46-5.38-5.93-3.91m39.34-.18c-.1.16.47.3,1.27.3,1.39,0,1.58.17,3.73,3.38A17.22,17.22,0,0,0,215,53.89c.29,0,.29,0,0-.13a5.35,5.35,0,0,1-1.18-1.69c-2.1-4.13-5.56-6.94-6.55-5.33m17.71,4a12.66,12.66,0,0,1-1,2.41c-.31.5-.4.9-.19.9s.74-.94,1.17-2.1l.78-2.1,3.64-.11,3.64-.11,1,2.21c.54,1.21,1.21,2.21,1.5,2.2s.42-.06,0-.33a6.76,6.76,0,0,1-1.26-2.29l-.75-2-4-.12-4-.11L225,50.72m61.73-.1a8.19,8.19,0,0,0-.58,1.77,2.34,2.34,0,0,1-.69,1.08c-.53.52-.55.64-.1.49a4.81,4.81,0,0,0,1.34-2.26l.75-2.06h7.38l.79,2.07a6.11,6.11,0,0,0,1.19,2.21c.22.07-.12-1-.76-2.28l-1.16-2.4h-7.58l-.58,1.38M167.47,52.2c0,.75-.23,1.46-.5,1.57s-.22.21.2.23.7-.3.7-1.57a3.39,3.39,0,0,0-.2-1.6c-.11,0-.2.62-.2,1.37m-39.26,2.12a21.32,21.32,0,0,0,3.39,0c.94-.08.17-.15-1.69-.15s-2.64.07-1.7.15M133.62,60c-3.88,1.56-5.79,4.6-6,9.47l-.1,3.19.31-3.19c.6-6.28,3.18-9.07,9-9.79l2.4-.3-2,0a11,11,0,0,0-3.68.65M84,60.19c-.63.76-1.21,6.72-1.33,13.62l-.1,5.6,1.56.12c2,.17,2.24-.24,2.16-3.92l-.07-3L86,75.81,85.75,79l-1.5.12-1.5.12V77c0-3.24.81-14.22,1.16-15.62.25-1,.47-1.2,1.66-1.2,1.37,0,1.39,0,4.18,5.69a40.44,40.44,0,0,0,3.1,5.69,30.2,30.2,0,0,0,2.71-5.06c2.65-5.6,3.29-6.52,4.56-6.52s1.8.76,1.88,2.58l.07,1.62.15-1.48c.21-2-.44-3.11-1.82-3.11-1.75,0-2.28.66-4.87,6.09a32.21,32.21,0,0,1-2.71,5.08,30,30,0,0,1-2.47-4.66c-3-6.46-4.68-8-6.37-6M114,60c-1.13.72-8,17.93-7.55,19s3.32.86,3.88-.2c.25-.46.36-.92.25-1s-.31.18-.46.64c-.32,1-3.4,1.25-3.4.25a69.81,69.81,0,0,1,2.34-6.69c6.23-16.25,6.75-16.21,13.28,1.07,2.41,6.38,2.41,6.27.26,6.12C121,79,120.9,79,120.17,76.91l-.75-2.1h-4c-3.91,0-4,0-4.36,1a2.1,2.1,0,0,0-.21,1.25c.11.11.31-.29.46-.87l.27-1.06,3.79.12,3.8.11.78,2.1.78,2.1h1.78c1.2,0,1.86-.2,2-.59C125,77.94,118.14,60.66,117,60a3.79,3.79,0,0,0-3,0m26.81.25c2,.71,2.09.83,1.63,2.12-.28.77-.63,1.05-1.18,1-6.15-1-9.9.81-9.73,4.81,0,.75.1.7.33-.28,1-4,4.41-5.67,8.7-4.12,1.54.56,2,.26,2.36-1.56.26-1.32-1.16-2.54-2.92-2.5-.39,0,0,.27.81.57m6.35-.11c-.51.51-.72,17.61-.24,18.87.17.44.76.64,2,.64,2.11,0,2.19-.2,2.19-4.83V71.21h7.57l.11,4.1.12,4.1h3.59l.11-9.35c.11-10,0-10.44-1.85-10.43s-2,.41-2.14,4.2l-.11,3.59h-7.2l-.2-3.51c-.21-3.76-.5-4.27-2.41-4.28a2.48,2.48,0,0,0-1.5.47m21.14.07c-.32.39-.43,3.34-.35,9.89l.11,9.35h3.59l.11-9.35c.12-10.05,0-10.43-1.9-10.43a2.31,2.31,0,0,0-1.56.54m9.55.24c-.27.51-.38,3.93-.3,9.49l.11,8.71.1-8.82c.09-9.25.19-9.77,1.91-9.77,1.09,0,3,2.11,7.13,7.7A30.78,30.78,0,0,0,190.29,72c.18,0,.38-2.65.44-5.89l.11-5.9,1-.12c1.88-.21,2,.34,1.87,10L193.64,79l-1.4.11c-1.28.1-1.49,0-2.56-1.8-2.39-3.93-7.58-10.92-8-10.78s-.48,2.38-.55,6.45l-.11,6.3-1.58-.15c-.88-.09-1.59,0-1.59.18s.76.28,1.7.21l1.69-.12.11-6.1c.06-3.35.27-6.09.45-6.09.48,0,3.07,3.45,6.24,8.31l2.68,4.12,1.66-.12,1.65-.12.11-9.26c.11-10,0-10.53-2-10.52-1.72,0-1.84.38-2,6.21L190,71.41l-3.45-4.59c-5.53-7.37-7.45-8.78-8.73-6.41m21.59,0c-.49.92-.56,17.95-.08,18.72.25.38,1.87.48,6.69.4l6.36-.11V78c0-1.1-.17-1.41-.8-1.47s-.64,0-.1.12.7.61.7,1.39v1.18l-6.29-.11L199.64,79l-.11-8.94c-.08-6.26,0-9.11.35-9.5.6-.73,10.74-.79,11.46-.07,1.71,1.72,0,2.72-4.69,2.72H203v2.16c0,2.58.09,2.64,4.46,2.64h3.18l-.12,1.3-.13,1.29-3.69.12-3.7.11v2.79a6.83,6.83,0,0,0,.3,2.78,5.76,5.76,0,0,0,.17-2.6l-.14-2.6h3.33c4,0,4.44-.23,4.26-2l-.13-1.35-3.59-.2-3.6-.2-.12-1.86-.12-1.86,4-.14c4.24-.15,4.78-.39,4.8-2.16,0-1.59-.69-1.77-6.66-1.77-5.22,0-5.73.06-6.11.77m-49.18.4a12.47,12.47,0,0,1,.41,3.75c0,3.51-.06,3.47,4.38,3.47,3.85,0,3.95-.11,4.1-4.42.11-3.3.14-3.38,1.15-3.5,1.88-.21,2,.34,1.87,10L162.07,79l-1.48.12-1.49.12L159,75.13,158.88,71l-4.1-.11-4.1-.11V74.5c0,4.36-.21,4.81-2,4.64L147.29,79l-.11-8.94c-.08-6.26,0-9.11.35-9.5a1.79,1.79,0,0,1,2.74.23m21.1,8.94.11,9.51L170,79.13l-1.5-.12-.11-9c-.12-10.27-.15-10.09,1.6-9.92l1.3.12.11,9.52m-68.91-2.92c0,1.43.07,2,.16,1.3a12.55,12.55,0,0,0,0-2.6c-.09-.72-.16-.13-.16,1.3m11.9.1c-.91,2.13-1.34,3.49-1.11,3.49A11.14,11.14,0,0,0,114.32,68c.49-1.31,1-2.31,1.19-2.21.5.31,2.07,5,1.81,5.41-.14.21-.06.39.17.39.67,0,.51-1-.61-3.79-1.23-3.06-1.54-3.17-2.52-.9m-28,2,0,1.73.27-1.39c.27-1.4.27-1.4,1.94,2.19,2.69,5.83,2.52,5.6,4.27,5.6h1.55l1.83-4c2.39-5.24,2.57-5.19,2.89.79.31,5.82.31,5.82,2.37,5.82s2-.07,1.59-5.6l-.37-4.59.07,4.79.07,4.8-1.44.12-1.44.12-.25-2.12c-.14-1.17-.26-3.47-.27-5.12,0-6.05-.47-6.1-3-.38-3.15,7.12-4.08,7.17-7.12.41-2.28-5.05-3.09-5.9-3-3.16m26.32,2.41c0,.18,1,.3,2.1.28,2.18,0,2-.21-.6-.45-.82-.08-1.5,0-1.5.17m15.41,2.52c1.08,5.45,11.22,8.91,14.74,5a1.83,1.83,0,0,0-2.2-2.83c-.88.37-.85.39.33.18,2.29-.42,2.67,2.21.43,3-5.55,1.93-11.07-.19-12.92-5-.47-1.22-.56-1.31-.38-.4m3.77-.69c0,1.64,2.65,3.43,5.24,3.53l2.56.1-2.49-.31c-2.67-.33-3.43-.77-4.57-2.63-.4-.66-.73-1-.74-.69m82.32,12c-4.68,1.54-6.77,4.7-6.78,10.27,0,7,3,10,10.15,10,6,0,5.88.14,5.73-5.75L223.21,95h-3.59l-.2,3.4-.2,3.39h-2.29c-6.8,0-7.6-11.39-.91-13,1.15-.28,1.16-.29.16-.33-6.54-.26-6.58,13-.05,13.82,3.33.45,3.64.16,3.77-3.58l.11-3.29h2.8l.12,4.5c.13,5.38.45,5.09-5.55,5.09-4,0-4.31-.06-5.88-1.14-5.3-3.68-5-13.83.51-17.24,2.63-1.62,8.15-1.78,10.16-.3.7.52,1.13.67,1,.36-.5-1.32-6.5-2.32-9-1.51m-131.29.56c-.11.28-.14,4.73-.09,9.89L83,105l6,.11c6.18.12,6.6,0,6.61-1.58s-1.08-1.93-5-1.93H86.75V93.87c0-5.46-.14-7.85-.48-8.19-.64-.64-3.09-.62-3.34,0m16.29,0c-.56.56-.69,18.15-.15,19,.25.39,1.87.48,6.69.4l6.36-.11.13-1.15a2.32,2.32,0,0,0-.31-1.6c-.51-.5-9.21-1-9.21-.55,0,.17,1.85.31,4.1.31,4.53,0,5.23.23,5,1.64l-.14,1H99.34V85.8l5.86-.11c5.45-.1,5.88-.06,6.1.64.56,1.75,0,2-4.31,2.15l-4.06.12-.12,2.29-.12,2.3h3.19c3.93,0,4.44.19,4.44,1.6s-.51,1.6-4.42,1.6h-3.17l.08,2.3.07,2.29.15-2.09.14-2.1h3.3c3.61,0,4.25-.32,4.25-2.07,0-1.52-1-1.93-4.59-1.93h-3l.12-1.9.12-1.89,4.06-.12c4.39-.12,5.28-.74,4.13-2.89-.51-1-11.38-1.23-12.3-.31m21.93.75c-.78,1.28-3.78,8.61-6,14.59-1.38,3.75-1.24,4.26,1.13,4.09,1.65-.13,1.72-.19,2.48-2.23l.78-2.1H127l.75,2.1c.78,2.18,3.65,3.35,4.57,1.86.45-.73-4.71-14.62-6.72-18.08-1.11-1.89-3.37-2-4.46-.23m15.55-.84c-.5.31-.62,1.88-.72,9.17-.14,9.81,0,10.42,2.05,10.42s2.26-.58,2.26-4.08V98h1.17c1.33,0,2.36,1.06,4.66,4.8,1.45,2.33,1.52,2.39,3.24,2.39,2.71,0,2.46-1.65-1-6.23-1.16-1.56-1.16-1.62.24-2.93a6.24,6.24,0,0,0-2.15-10.24c-1.58-.66-8.83-.8-9.8-.19m18.82.16c-.32.38-.42,3.33-.35,9.89l.11,9.34h3.6l.2-6.39.2-6.4L161,94.47c.94,1.26,2.68,3.77,3.87,5.6,3.55,5.4,3.32,5.17,5,5l1.46-.12.11-9.56c.12-10.29.13-10.2-2-10.21-1.56,0-1.7.44-1.92,6.18l-.2,5.2-3-4c-5.08-6.89-7.31-8.63-8.8-6.84m22-.07c-.51.51-.72,17.6-.24,18.87.29.76,2.95.87,3.67.15s.68-17.58.07-18.73c-.47-.88-2.72-1.07-3.5-.29m9.29,0c-.11.28-.15,4.73-.09,9.89l.11,9.38H190l.11-6.29c.07-3.47.26-6.3.45-6.3s5,6.54,7.59,10.69c1.22,1.93,1.45,2.1,2.84,2.1,2,0,2,.13,2-10,0-9.76-.1-10.18-2.41-10l-1.38.13-.12,5.49c-.13,6.56,0,6.49-3.61,1.55-5-6.79-7.82-9-8.68-6.73M86.35,93.79l.2,8,4,.2c4.13.21,5.09.66,4.52,2.15-.22.56-1,.65-6.06.65H83.15V95.46c0-10.06,0-10,1.79-9.78l1.21.12.2,8m39.16-6.59c1,2,4.59,10.88,5.83,14.5,1,3,.89,3.27-1.26,3-1.16-.14-1.4-.43-2.34-2.83l-.59-1.5h-7.84l-.81,2.1c-.9,2.34-3.78,3.52-3.78,1.55,0-.88,4-11.47,5.93-15.73,1.59-3.49,3.43-3.9,4.86-1.1m20.93-1a5.82,5.82,0,0,1,1.85,9.63c-1.52,1.46-1.56,1.2.8,4.88s2.46,4.12.42,4.12c-1.53,0-1.63-.09-3.91-3.5s-2.38-3.5-4-3.62l-1.68-.12v3c0,3.84-.18,4.25-1.8,4.25-.83,0-1.41-.23-1.56-.63-.42-1.11-.27-17,.17-17.78.53-1,7.53-1.14,9.73-.22M161.06,89c1.44,1.77,3.51,4.47,4.61,6l2,2.77.09-5.2c.13-6.83.2-7.07,1.82-6.92l1.28.13.11,9.49.11,9.49h-1.37c-1.23,0-1.51-.22-2.65-2.1-2.47-4.06-7.72-11.11-8-10.79a36.91,36.91,0,0,0-.43,6.51l-.11,6.18h-2.8l-.11-9c-.12-10.26-.15-10.1,1.59-9.93,1.06.11,1.73.68,3.9,3.36m19.51-3c.57.56.69,17.36.14,18.23a1.94,1.94,0,0,1-1.7.4l-1.35-.13-.11-9c-.06-4.94,0-9.21.09-9.49.24-.65,2.3-.67,2.93,0m10.73,1.64c1.07,1.17,3.18,3.88,4.7,6,3.33,4.7,3.38,4.67,3.52-2.35l.12-5.59,1.28-.13c1.73-.16,1.76,0,1.63,10.32l-.12,8.59h-1.37c-1.3,0-1.52-.23-4.31-4.38-4.11-6.13-6.09-8.67-6.53-8.39-.21.13-.37,3-.37,6.6v6.37h-2.8V95.46a94.63,94.63,0,0,1,.26-9.59c.78-.78,2.19-.13,4,1.85m30.91.75c-.51.66-.77.72-1.72.35a6.93,6.93,0,0,0-2.2-.38c-.93,0-.89.09.33.35.77.16,1.87.42,2.46.58.86.24,1.16.13,1.53-.57.61-1.14.37-1.33-.4-.33M139.9,91.55v3.24h1.73c6.49,0,7.1-5.85.66-6.32l-2.39-.17v3.25m5.58-1.76c2,1.85.46,4.23-3,4.52l-2.2.18V88.7l2.2.18a5.6,5.6,0,0,1,3,.91m-23.7,3.7c-1.47,3.75-1.49,3.7,1.53,3.7s3,.06,1.47-3.57c-1.4-3.36-1.73-3.37-3-.13m2.47-.2c.43,1.16.92,2.41,1.07,2.8.24.61,0,.7-2,.7a8.68,8.68,0,0,1-2.24-.15c0-.17.89-2.67,1.55-4.35.58-1.48.67-1.42,1.59,1M2.94,103.88a25.38,25.38,0,0,0,3.6,0c.93-.08.07-.15-1.91-.15s-2.74.07-1.69.16m56.75,0a25.23,25.23,0,0,0,3.59,0c.93-.08.07-.15-1.91-.15s-2.73.07-1.68.16"/></g></g></g></svg>