<?xml version="1.0" encoding="UTF-8"?>
<svg width="334px" height="334px" viewBox="0 0 334 334" version="1.1" xmlns="http://www.w3.org/2000/svg" xmlns:xlink="http://www.w3.org/1999/xlink">
    <!-- Generator: Sketch 57.1 (83088) - https://sketch.com -->
    <title>printpms-bluewhitetextnobordernotm</title>
    <desc>Created with Sketch.</desc>
    <defs>
        <polygon id="path-1" points="0 333.333325 333.333325 333.333325 333.333325 0 0 0"></polygon>
    </defs>
    <g id="Page-1" stroke="none" stroke-width="1" fill="none" fill-rule="evenodd">
        <g id="printpms-bluewhitetextnobordernotm" transform="translate(0.000000, -1.000000)">
            <g id="g10" transform="translate(167.000000, 167.333330) scale(-1, 1) rotate(-180.000000) translate(-167.000000, -167.333330) translate(0.000000, 0.333330)">
                <polygon id="path12" fill="#FFFFFF" fill-rule="nonzero" points="0 0 333.333325 0 333.333325 333.333325 0 333.333325"></polygon>
                <g id="g14">
                    <g id="g16-Clipped">
                        <mask id="mask-2" fill="white">
                            <use xlink:href="#path-1"></use>
                        </mask>
                        <g id="path18"></g>
                        <g id="g16" mask="url(#mask-2)">
                            <g transform="translate(49.333332, 62.666665)" id="g22">
                                <g transform="translate(0.396667, 0.368133)">
                                    <path d="M9.3333331,169.333329 C9.3333331,160.075996 9.4213331,152.91333 9.50799976,150.555996 C9.59466643,148.80933 9.68266642,147.847996 10.0333331,147.58533 C11.2546664,146.62533 16.4946663,145.57733 23.6573327,145.57733 C30.8186659,145.57733 37.7186657,147.323996 42.6106656,151.515996 C47.5879988,155.707996 51.5199987,163.307996 51.5199987,173.089329 C51.5199987,180.601329 49.8599988,187.326662 45.3173322,192.915995 C39.291999,200.253328 29.0733326,203.047995 17.8933329,203.047995 C14.661333,203.047995 11.1679997,202.697328 9.85866642,202.347995 C9.59466643,202.173328 9.50799976,201.999995 9.50799976,201.737328 C9.3333331,200.07733 9.3333331,191.605329 9.3333331,182.609329 L9.3333331,169.333329 Z M1.82133329,182.347995 C1.82133329,198.679995 1.3853333,205.405328 1.03599997,207.414661 C1.90933329,207.326661 3.83066657,207.239995 5.22799987,207.239995 C7.32399982,207.239995 12.3039997,207.589328 18.0679995,207.589328 C29.4213326,207.589328 42.6973323,206.191995 51.345332,197.370662 C55.7119986,192.827995 59.6426652,185.666662 59.6426652,175.273329 C59.6426652,164.093329 55.3613319,155.882663 50.4719987,150.72933 C46.2786655,146.44933 38.0693324,140.598663 22.8706661,140.598663 C19.2026662,140.598663 15.8839996,140.77333 12.7399997,141.034663 C8.54666645,141.471996 5.05333321,141.907996 1.29866663,141.646663 C1.4733333,145.314663 1.82133329,153.262663 1.82133329,166.277329 L1.82133329,182.347995 Z M74.7799981,207.239995 C77.2253314,207.239995 79.2346647,207.326661 80.2826647,207.502661 C79.9346647,204.794662 79.583998,194.575995 79.583998,182.171995 L79.583998,170.031996 C79.583998,158.503996 82.1173313,153.961329 85.7853312,150.555996 C89.8906644,146.62533 95.305331,146.01333 99.4106642,146.01333 C103.341331,146.01333 108.755997,147.06133 112.074664,150.72933 C116.52933,155.446663 117.57733,161.822663 117.57733,171.866662 L117.57733,182.171995 C117.57733,194.662662 117.05333,204.270662 116.615997,207.414661 C117.57733,207.239995 119.23733,207.239995 120.110664,207.239995 C121.943997,207.239995 123.866664,207.414661 124.302664,207.502661 C123.95333,204.794662 123.51733,194.575995 123.51733,182.171995 L123.51733,172.041329 C123.51733,161.822663 122.555997,152.214663 115.219997,145.751996 C109.979997,141.122663 103.254664,140.24933 97.4893309,140.24933 C91.4626644,140.24933 84.2133312,141.73333 79.495998,146.10133 C75.1293315,150.20533 72.0733315,155.882663 72.0733315,168.459996 L72.0733315,182.171995 C72.0733315,194.662662 71.7226649,205.230662 71.1999982,207.414661 C71.9866649,207.239995 73.4706648,207.239995 74.7799981,207.239995 L74.7799981,207.239995 Z M147.65733,175.622662 C147.570663,175.79733 147.570663,176.146662 147.74533,176.321329 C151.41333,179.553329 160.497329,188.723995 167.309329,196.497328 C172.723996,202.347995 175.955996,206.453328 176.393329,207.414661 C177.266662,207.326661 178.138662,207.239995 179.450662,207.239995 C182.593329,207.239995 185.302662,207.414661 186.699995,207.502661 C185.389329,206.453328 182.245329,204.270662 175.257329,197.457328 C172.637329,194.662662 157.090663,179.115996 155.255996,177.019996 C160.671996,170.643996 173.422662,157.454663 178.577329,152.302663 C186.961329,144.091996 189.930662,142.519996 191.502662,141.995996 C190.891995,141.558663 188.009329,141.29733 186.437329,141.29733 C181.109329,141.29733 177.877329,142.519996 172.374662,148.458663 C163.815996,157.018663 155.343996,167.062662 147.65733,175.622662 L147.65733,175.622662 Z M139.010663,182.259995 C139.010663,194.662662 138.835997,205.142662 138.22533,207.414661 C139.010663,207.239995 140.84533,207.239995 141.89333,207.239995 C144.163996,207.239995 146.17333,207.326661 147.134663,207.502661 C146.870663,204.270662 146.522663,194.575995 146.522663,182.171995 L146.522663,166.801329 C146.522663,155.707996 146.783996,144.091996 147.30933,141.558663 C146.522663,141.646663 145.12533,141.73333 143.902663,141.73333 C142.154663,141.73333 139.27333,141.646663 138.399997,141.471996 C138.74933,144.44133 139.010663,155.446663 139.010663,166.801329 L139.010663,182.259995 Z M200.882662,182.171995 C200.882662,196.322662 200.533328,204.969328 200.010662,207.414661 C201.058662,207.239995 203.415995,207.239995 205.162662,207.239995 L224.553328,207.239995 C226.386661,207.239995 229.967994,207.326661 231.539994,207.675995 C231.278661,206.366662 230.841328,203.395995 230.841328,200.514662 C229.793328,201.125328 228.046661,201.562662 223.854661,201.911995 C221.234661,202.173328 216.167995,202.347995 208.655995,202.347995 C208.569328,202.347995 208.306661,202.261328 208.306661,201.999995 L208.306661,179.377329 C208.306661,179.115996 208.481328,178.941329 208.655995,178.941329 C209.791995,178.941329 220.098661,178.941329 222.543994,179.029329 C227.085328,179.202662 229.182661,179.465329 230.054661,179.726662 C229.618661,177.718662 229.269328,174.225329 229.357328,172.477329 C228.134661,173.089329 226.737328,173.438662 223.417328,173.699996 C220.447994,173.875996 210.229328,174.050662 208.655995,174.050662 C208.481328,174.050662 208.306661,173.875996 208.306661,173.699996 L208.306661,167.411996 C208.306661,150.20533 208.481328,147.759996 208.918661,147.323996 C209.181328,147.06133 210.142661,146.886663 210.926661,146.799996 C212.935995,146.62533 215.557328,146.362663 219.311995,146.362663 C227.609328,146.362663 231.366661,146.974663 233.810661,148.19733 C233.199994,146.275996 232.501328,143.130663 232.150661,141.383996 C231.802661,141.29733 231.015994,141.20933 227.697328,141.20933 C215.557328,141.20933 209.006661,141.73333 205.687995,141.73333 C203.153328,141.73333 201.145328,141.646663 200.185328,141.558663 C200.446662,144.615996 200.882662,154.485329 200.882662,166.801329 L200.882662,182.171995 Z M234.781327,121.238664 L0.559999986,121.238664 L0.559999986,117.90533 L234.781327,117.90533 L234.781327,121.238664 Z M1.97333328,78.171998 C1.97333328,89.1253311 1.70266662,95.7519976 1.2973333,97.7133309 C2.44666661,97.6453309 4.07066656,97.5786642 5.4213332,97.5786642 L21.2439995,97.5786642 C22.9359994,97.5786642 25.3693327,97.7133309 26.5199993,97.9159976 C26.2493327,96.2253309 26.1133327,93.7919977 26.0439993,92.5746644 C25.166666,92.9799977 24.2199994,93.1826643 20.8386661,93.453331 C18.7426662,93.589331 13.873333,93.7919977 8.05866647,93.7919977 C7.99066647,93.7919977 7.8559998,93.7239977 7.8559998,93.521331 C7.78799981,87.6386645 7.71999981,81.1466646 7.71999981,75.2639981 C7.71999981,74.9933315 7.78799981,74.9266648 7.99066647,74.9266648 C8.87066644,74.9266648 17.2546662,74.9933315 19.1466662,75.0613315 C22.8679994,75.1293315 24.2199994,75.3319981 24.8959994,75.5346648 C24.6933327,74.6559981 24.4226661,71.7479982 24.3546661,69.9226649 C23.4746661,70.3959982 22.2586661,70.6666649 19.8933328,70.8013316 C17.5933329,70.9373316 12.657333,71.0719982 7.9239998,71.0719982 C7.78799981,71.0719982 7.71999981,71.0039982 7.71999981,70.7333316 L7.71999981,66.338665 C7.71999981,61.6733318 7.99066647,48.8933321 8.32933313,46.7293322 C7.71999981,46.7973322 6.91066649,46.8653322 5.21866654,46.8653322 C4.07066656,46.8653322 2.04133328,46.7293322 1.36399997,46.6613322 C1.63466663,48.6906654 1.97333328,56.7373319 1.97333328,66.270665 L1.97333328,78.171998 Z M38.7333324,97.5786642 C40.627999,97.5786642 42.1826656,97.6453309 42.9946656,97.7813309 C42.7239989,95.6853309 42.4533323,87.7733311 42.4533323,78.171998 L42.4533323,68.7733316 C42.4533323,59.8479985 44.4146656,56.3306653 47.2546655,53.6946653 C50.4306654,50.6506654 54.6239986,50.1786654 57.8013319,50.1786654 C60.8439985,50.1786654 65.0373317,50.9893321 67.606665,53.829332 C71.0546649,57.4799986 71.8666649,62.4173318 71.8666649,70.1919982 L71.8666649,78.171998 C71.8666649,87.8413311 71.4613324,95.2786643 71.1226649,97.7133309 C71.8666649,97.5786642 73.1519982,97.5786642 73.8266648,97.5786642 C75.2479981,97.5786642 76.7346647,97.7133309 77.0746647,97.7813309 C76.8039981,95.6853309 76.4653314,87.7733311 76.4653314,78.171998 L76.4653314,70.3279982 C76.4653314,62.4173318 75.7213314,54.9786653 70.0399982,49.9746654 C65.9839984,46.3906655 60.7786651,45.7146655 56.3146653,45.7146655 C51.6506654,45.7146655 46.0373322,46.8653322 42.3853323,50.2453321 C39.003999,53.4239987 36.6386658,57.8186652 36.6386658,67.5559983 L36.6386658,78.171998 C36.6386658,87.8413311 36.3679991,96.0226643 35.9613324,97.7133309 C36.5706658,97.5786642 37.7186657,97.5786642 38.7333324,97.5786642 L38.7333324,97.5786642 Z M111.939997,49.5693321 C99.9066642,49.5693321 91.453331,59.0359985 91.385331,73.2359982 C91.385331,85.7453312 98.6213309,94.941331 110.250664,94.941331 C121.543997,94.941331 130.671997,85.9479979 130.671997,71.8839982 C130.671997,55.317332 119.987997,49.5693321 111.939997,49.5693321 L111.939997,49.5693321 Z M139.02933,46.1293322 C134.855997,46.1293322 130.86933,47.0279988 125.734664,50.3133321 C132.90933,55.5586653 137.09333,63.1613318 137.09333,73.3039982 C137.09333,87.8413311 126.88533,98.7279975 111.398664,98.7279975 C93.9546643,98.7279975 84.9613312,85.1373312 84.9613312,71.7479982 C84.9613312,60.1173318 92.4679977,45.7146655 110.589331,45.7146655 C113.159997,45.7146655 117.055997,46.0373322 120.52933,47.7439988 C125.80133,44.0599989 131.58933,40.3773323 136.807997,40.3773323 C136.927997,40.731999 137.43733,42.3999989 137.819997,43.3613322 C138.191997,44.2946656 138.842663,45.7386655 139.02933,46.1293322 L139.02933,46.1293322 Z M148.890663,97.5786642 C150.782663,97.5786642 152.33733,97.6453309 153.14933,97.7813309 C152.878663,95.6853309 152.607996,87.7733311 152.607996,78.171998 L152.607996,68.7733316 C152.607996,59.8479985 154.570663,56.3306653 157.409329,53.6946653 C160.587996,50.6506654 164.779996,50.1786654 167.958662,50.1786654 C171.001329,50.1786654 175.194662,50.9893321 177.762662,53.829332 C181.211995,57.4799986 182.023995,62.4173318 182.023995,70.1919982 L182.023995,78.171998 C182.023995,87.8413311 181.615995,95.2786643 181.279995,97.7133309 C182.023995,97.5786642 183.307995,97.5786642 183.983995,97.5786642 C185.402662,97.5786642 186.891995,97.7133309 187.229329,97.7813309 C186.958662,95.6853309 186.621329,87.7733311 186.621329,78.171998 L186.621329,70.3279982 C186.621329,62.4173318 185.878662,54.9786653 180.197329,49.9746654 C176.139996,46.3906655 170.933329,45.7146655 166.471996,45.7146655 C161.805329,45.7146655 156.191996,46.8653322 152.539996,50.2453321 C149.16133,53.4239987 146.79333,57.8186652 146.79333,67.5559983 L146.79333,78.171998 C146.79333,87.8413311 146.522663,96.0226643 146.118663,97.7133309 C146.72533,97.5786642 147.875996,97.5786642 148.890663,97.5786642 L148.890663,97.5786642 Z M219.230661,68.570665 C219.363995,68.570665 219.431995,68.6373316 219.363995,68.8413316 L211.386661,88.5173311 L204.015995,68.8413316 C203.947995,68.6373316 204.015995,68.570665 204.150662,68.570665 L219.230661,68.570665 Z M202.865328,64.6479984 C202.663995,64.6479984 202.595995,64.5813317 202.526662,64.4453317 C200.431995,58.5626652 197.321328,49.9079988 196.509328,46.7293322 C195.834662,46.8653322 195.225328,46.8653322 193.805328,46.8653322 C192.453329,46.8653322 190.762662,46.7293322 190.222662,46.6613322 C191.911995,50.2453321 194.481328,56.1959986 197.185328,62.7546651 L210.574661,95.9559976 C211.386661,97.9159976 211.722662,98.7279975 212.130661,98.7279975 C212.466661,98.7279975 212.805328,98.1866642 213.751995,95.9559976 C214.495995,94.265331 221.122661,79.1186647 226.937328,65.3919984 C229.981328,58.1573319 233.767994,49.3666654 235.526661,46.7293322 C234.309327,46.7973322 233.158661,46.8653322 232.414661,46.8653322 C230.725328,46.8653322 228.830661,46.7973322 228.018661,46.6613322 C226.937328,49.7719988 223.218661,58.9679985 220.919994,64.4453317 C220.851994,64.5813317 220.851994,64.6479984 220.649328,64.6479984 L202.865328,64.6479984 Z M223.731994,4.49866655 C224.370661,3.65866658 225.749328,2.69999993 227.366661,2.69999993 C229.005328,2.69999993 229.763994,3.65866658 229.763994,4.87733321 C229.763994,5.87733319 229.405328,6.55599984 227.806661,7.61466648 L226.809328,8.27466646 C224.589328,9.71333309 224.070661,11.0906664 224.070661,12.549333 C224.070661,14.7866663 225.789328,16.6453329 228.726661,16.6453329 C229.545328,16.6453329 230.223994,16.5453329 230.743994,16.4653329 C231.422661,16.3453329 231.842661,16.2853329 232.002661,16.2853329 C231.942661,16.0653329 231.822661,14.7466663 231.822661,13.6879997 C231.422661,14.1479996 230.463994,15.0066663 228.686661,15.0066663 C227.306661,15.0066663 226.469328,14.1479996 226.469328,13.089333 C226.469328,12.1706664 226.687994,11.5306664 228.266661,10.4919997 L229.245328,9.85199975 C231.702661,8.23333313 232.321328,7.07466649 232.321328,5.4373332 C232.321328,4.35733322 231.822661,2.77999993 230.383994,1.83999995 C229.385328,1.2013333 228.126661,0.981333309 227.167994,0.981333309 C225.849328,0.981333309 224.270661,1.3213333 223.530661,1.83999995 C223.611994,2.17999995 223.750661,3.63866658 223.731994,4.49866655 L223.731994,4.49866655 Z M212.409328,4.49866655 C213.047995,3.65866658 214.425328,2.69999993 216.043995,2.69999993 C217.682661,2.69999993 218.441328,3.65866658 218.441328,4.87733321 C218.441328,5.87733319 218.082661,6.55599984 216.483995,7.61466648 L215.485328,8.27466646 C213.266661,9.71333309 212.747995,11.0906664 212.747995,12.549333 C212.747995,14.7866663 214.466661,16.6453329 217.403995,16.6453329 C218.222661,16.6453329 218.901328,16.5453329 219.421328,16.4653329 C220.099994,16.3453329 220.519994,16.2853329 220.679994,16.2853329 C220.619994,16.0653329 220.499994,14.7466663 220.499994,13.6879997 C220.099994,14.1479996 219.139995,15.0066663 217.363995,15.0066663 C215.983995,15.0066663 215.145328,14.1479996 215.145328,13.089333 C215.145328,12.1706664 215.363995,11.5306664 216.943995,10.4919997 L217.921328,9.85199975 C220.379994,8.23333313 220.998661,7.07466649 220.998661,5.4373332 C220.998661,4.35733322 220.499994,2.77999993 219.061328,1.83999995 C218.062661,1.2013333 216.803995,0.981333309 215.845328,0.981333309 C214.526661,0.981333309 212.947995,1.3213333 212.207995,1.83999995 C212.289328,2.17999995 212.427995,3.63866658 212.409328,4.49866655 L212.409328,4.49866655 Z M201.065328,10.5706664 C201.065328,13.8479997 200.966662,15.7453329 200.805328,16.3453329 C201.145328,16.3053329 201.823995,16.3053329 202.383995,16.3053329 L207.059995,16.3053329 C207.618661,16.3053329 208.518661,16.3053329 208.897328,16.4253329 C208.817328,16.0253329 208.697328,15.1466663 208.697328,14.1879996 C208.398661,14.3679996 207.938661,14.4879996 206.839995,14.5866663 C206.179995,14.6266663 204.941328,14.6679996 203.642662,14.6679996 C203.622662,14.6679996 203.562662,14.6479996 203.562662,14.6079996 L203.562662,10.1719997 C203.562662,10.1119997 203.602662,10.0719997 203.642662,10.0719997 C204.022662,10.0719997 206.059995,10.0719997 206.719995,10.0919997 C207.898661,10.1319997 208.298661,10.1919997 208.537328,10.2719997 C208.417328,9.63199976 208.338661,8.55466645 208.358661,8.01333313 C208.018661,8.19333313 207.658661,8.31466646 206.818661,8.37466646 C206.159995,8.41333312 204.102662,8.45333312 203.642662,8.45333312 C203.602662,8.45333312 203.562662,8.41333312 203.562662,8.37466646 L203.562662,7.27599982 C203.562662,3.73866657 203.602662,3.19999992 203.702662,3.11866659 C203.762662,3.05866659 203.982662,2.99999993 204.162662,2.97999993 C204.701328,2.91999993 205.241328,2.89866659 206.081328,2.89866659 C207.798661,2.89866659 208.817328,3.03999992 209.495995,3.35866658 C209.297328,2.71999993 209.097328,1.78133329 209.017328,1.2613333 C208.937328,1.2013333 208.677328,1.1813333 207.898661,1.1813333 C205.201328,1.1813333 203.642662,1.3213333 202.563995,1.3213333 C201.763995,1.3213333 201.145328,1.3013333 200.866662,1.2613333 C200.925328,2.00133328 201.065328,4.13866656 201.065328,7.05599982 L201.065328,10.5706664 Z M185.103995,1.3213333 C184.863995,1.3213333 183.885329,1.2813333 183.705329,1.2413333 C183.906662,3.05866659 184.026662,12.029333 184.026662,15.5266663 C184.026662,16.5653329 184.085329,16.6453329 184.205329,16.6453329 C184.285329,16.6453329 184.465329,16.5253329 184.885329,16.1253329 C187.082662,14.0079996 192.955995,7.79466647 195.053328,5.97599985 C195.033328,8.21466646 194.993328,13.8279997 194.774662,16.3453329 C194.973328,16.3253329 195.513328,16.3053329 195.853328,16.3053329 C196.393328,16.3053329 197.131995,16.3453329 197.291995,16.3853329 C197.131995,15.1466663 196.971995,10.2919997 196.991995,5.4373332 L196.991995,2.50133327 C196.991995,1.08133331 196.931995,0.92133331 196.791995,0.92133331 C196.633328,0.92133331 196.151995,1.3613333 194.774662,2.65999993 C192.755995,4.55866655 188.539995,9.2533331 185.963995,11.729333 C186.003995,7.71466647 186.082662,2.8386666 186.283995,1.2813333 C185.903995,1.3213333 185.483995,1.3213333 185.103995,1.3213333 L185.103995,1.3213333 Z M176.793329,10.5706664 C176.793329,13.429333 176.733329,15.7066663 176.573329,16.3453329 C176.793329,16.3053329 177.371996,16.3053329 177.771996,16.3053329 C178.650662,16.3053329 179.290662,16.3453329 179.489329,16.3853329 C179.410662,15.6253329 179.309329,13.4079997 179.309329,10.5706664 L179.309329,7.05599982 C179.309329,4.65866655 179.389329,1.88133329 179.530662,1.2813333 C179.309329,1.3013333 178.809329,1.3213333 178.291996,1.3213333 C177.691996,1.3213333 176.871996,1.2813333 176.613329,1.2413333 C176.711996,2.04133328 176.793329,4.49866655 176.793329,7.05599982 L176.793329,10.5706664 Z M164.581329,4.49866655 C165.219996,3.65866658 166.597329,2.69999993 168.215996,2.69999993 C169.854662,2.69999993 170.613329,3.65866658 170.613329,4.87733321 C170.613329,5.87733319 170.254662,6.55599984 168.655996,7.61466648 L167.657329,8.27466646 C165.438663,9.71333309 164.918663,11.0906664 164.918663,12.549333 C164.918663,14.7866663 166.638663,16.6453329 169.575996,16.6453329 C170.394662,16.6453329 171.073329,16.5453329 171.591996,16.4653329 C172.271996,16.3453329 172.691996,16.2853329 172.851996,16.2853329 C172.791996,16.0653329 172.671996,14.7466663 172.671996,13.6879997 C172.271996,14.1479996 171.311996,15.0066663 169.534662,15.0066663 C168.155996,15.0066663 167.317329,14.1479996 167.317329,13.089333 C167.317329,12.1706664 167.535996,11.5306664 169.115996,10.4919997 L170.093329,9.85199975 C172.551996,8.23333313 173.170662,7.07466649 173.170662,5.4373332 C173.170662,4.35733322 172.671996,2.77999993 171.233329,1.83999995 C170.234662,1.2013333 168.975996,0.981333309 168.017329,0.981333309 C166.697329,0.981333309 165.119996,1.3213333 164.379996,1.83999995 C164.461329,2.17999995 164.599996,3.63866658 164.581329,4.49866655 L164.581329,4.49866655 Z M150.171996,16.3053329 C150.990663,16.3053329 151.64933,16.3253329 152.010663,16.3853329 C151.910663,15.6853329 151.80933,13.4079997 151.80933,10.5706664 L151.80933,7.91466647 C151.80933,5.4373332 152.30933,4.41866656 153.18933,3.67866657 C154.047996,2.93999993 155.106663,2.8386666 155.866663,2.8386666 C156.625329,2.8386666 157.683996,3.03999992 158.363996,3.73866657 C159.381329,4.71866655 159.562663,5.95599985 159.562663,8.43466646 L159.562663,10.5706664 C159.562663,13.429333 159.421329,15.5866663 159.302663,16.3453329 C159.562663,16.3253329 160.082663,16.3053329 160.381329,16.3053329 C161.021329,16.3053329 161.599996,16.3453329 161.758663,16.3853329 C161.638663,15.6853329 161.519996,13.4079997 161.519996,10.5706664 L161.519996,8.41333312 C161.519996,6.07599985 161.359996,3.77999991 159.541329,2.25999994 C158.343996,1.22266664 156.785329,0.981333309 155.446663,0.981333309 C153.867996,0.981333309 152.14933,1.3013333 151.030663,2.31999994 C150.011996,3.21999992 149.29333,4.51733322 149.29333,7.39466648 L149.29333,10.5706664 C149.29333,13.429333 149.17333,15.7253329 149.03333,16.3453329 C149.29333,16.3253329 149.751996,16.3053329 150.171996,16.3053329 L150.171996,16.3053329 Z M142.727996,7.75466647 C142.067996,8.35333312 141.22933,8.53333312 140.330663,8.57333312 C139.810663,8.59333312 139.011997,8.59333312 138.850663,8.57333312 C138.811997,8.55466645 138.791997,8.53333312 138.791997,8.49466645 L138.791997,7.07466649 C138.791997,4.55866655 138.831997,3.21999993 138.871997,3.15999992 C139.030663,2.97999993 139.710663,2.71999993 140.90933,2.71999993 C142.387996,2.71999993 143.786663,3.61866658 143.786663,5.4973332 C143.786663,6.21599984 143.646663,6.99599983 142.727996,7.75466647 L142.727996,7.75466647 Z M138.791997,10.2719997 C138.791997,10.2119997 138.811997,10.1719997 138.871997,10.1519997 C139.250663,10.1119997 140.610663,10.0919997 140.86933,10.0919997 C141.26933,10.0919997 141.54933,10.1119997 141.78933,10.2919997 C142.487996,10.7906664 142.787996,11.6306664 142.787996,12.349333 C142.787996,13.8279997 141.84933,14.8879996 139.970663,14.8879996 C139.370663,14.8879996 138.951997,14.8466663 138.850663,14.8066663 C138.811997,14.7866663 138.791997,14.7466663 138.791997,14.6866663 L138.791997,10.2719997 Z M136.314663,10.5706664 C136.314663,13.429333 136.234663,15.5866663 136.074663,16.3453329 C136.374663,16.3253329 136.85333,16.3053329 137.25333,16.3053329 C138.251997,16.3053329 139.291997,16.3653329 140.52933,16.3653329 C144.226663,16.3653329 145.08533,14.3879996 145.08533,12.889333 C145.08533,11.3306664 144.106663,10.2519997 143.127996,9.75199976 C145.02533,9.17199977 146.443996,7.87466647 146.443996,5.77733319 C146.443996,3.33866658 144.566663,1.1813333 140.82933,1.1813333 C139.410663,1.1813333 138.131997,1.3013333 137.73333,1.3213333 C137.27333,1.3213333 136.494663,1.2813333 136.134663,1.2613333 C136.234663,2.11999995 136.314663,4.49866655 136.314663,7.05599982 L136.314663,10.5706664 Z M118.319997,10.5706664 C118.319997,13.8479997 118.199997,15.7253329 118.079997,16.3653329 C118.458664,16.3253329 119.159997,16.3053329 119.73733,16.3053329 L124.55333,16.3053329 C125.251997,16.2853329 126.031997,16.3453329 126.371997,16.4253329 C126.251997,15.6853329 126.211997,14.7079996 126.191997,14.2866663 C125.871997,14.4279996 125.55333,14.5066663 124.41333,14.5866663 C123.754664,14.6266663 122.234664,14.6679996 120.93733,14.6679996 C120.895997,14.6679996 120.85733,14.6479996 120.85733,14.5866663 C120.85733,13.089333 120.835997,11.4106664 120.835997,9.91199975 C120.835997,9.83333309 120.85733,9.79199976 120.91733,9.79199976 C121.295997,9.79199976 123.39333,9.81199975 124.05333,9.83333309 C125.271997,9.85199975 125.631997,9.93199975 125.871997,9.99199975 C125.791997,9.71333309 125.691997,8.43466646 125.671997,7.77466647 C125.371997,7.93466647 124.91333,8.03466647 124.09333,8.09466646 C123.45333,8.13333313 121.995997,8.17333313 120.895997,8.17333313 C120.85733,8.17333313 120.835997,8.13333313 120.835997,8.05466647 L120.835997,7.05599982 C120.835997,5.1773332 120.91733,1.94133328 121.03733,1.2813333 C120.85733,1.3013333 120.51733,1.3213333 119.73733,1.3213333 C119.238664,1.3213333 118.379997,1.2813333 118.119997,1.2413333 C118.219997,1.92133329 118.319997,4.13866656 118.319997,7.05599982 L118.319997,10.5706664 Z M111.962664,8.57333312 C111.962664,12.129333 109.905331,15.0866663 106.507997,15.0866663 C103.730664,15.0866663 101.753331,12.9479997 101.774664,9.29199977 C101.774664,5.4973332 103.811997,2.55999994 107.267997,2.55999994 C109.206664,2.55999994 111.962664,3.85866657 111.962664,8.57333312 L111.962664,8.57333312 Z M98.9373309,8.69333312 C98.9373309,12.689333 101.613331,16.6453329 107.007997,16.6453329 C111.823997,16.6453329 114.799997,13.269333 114.799997,9.1933331 C114.799997,4.59866655 111.823997,0.981333309 106.747997,0.981333309 C101.294664,0.981333309 98.9373309,5.1373332 98.9373309,8.69333312 L98.9373309,8.69333312 Z M82.0079979,10.5706664 C82.0079979,13.429333 81.887998,15.7066663 81.747998,16.3453329 C81.967998,16.3253329 82.6066646,16.3053329 83.0066646,16.3053329 C83.7466646,16.3053329 84.4653312,16.3253329 84.7053312,16.3853329 C84.6253312,15.6066663 84.5053312,13.429333 84.5053312,10.6706664 L84.5053312,7.27599982 C84.5053312,3.67866657 84.5439979,3.19999992 84.6453312,3.11866659 C84.7253312,3.01866659 84.9253312,2.97999993 85.1639979,2.95866659 C85.5839979,2.91999993 86.2226645,2.89866659 87.0626645,2.89866659 C89.0199978,2.89866659 90.0799977,3.05866659 90.6586644,3.35866658 C90.4386644,2.85999993 90.1786644,1.67999996 90.0586644,1.2613333 C89.9599978,1.2013333 89.6586644,1.2013333 88.7013311,1.2013333 C85.7639979,1.2013333 84.5853312,1.3213333 83.1866646,1.3213333 C82.4866646,1.3213333 82.0879979,1.3013333 81.807998,1.2813333 C81.887998,2.00133328 82.0079979,4.13866656 82.0079979,7.05599982 L82.0079979,10.5706664 Z M75.5439981,8.57333312 C75.5439981,12.129333 73.4866648,15.0866663 70.0906649,15.0866663 C67.3133317,15.0866663 65.334665,12.9479997 65.3559984,9.29199977 C65.3559984,5.4973332 67.3933316,2.55999994 70.8493316,2.55999994 C72.7879982,2.55999994 75.5439981,3.85866657 75.5439981,8.57333312 L75.5439981,8.57333312 Z M62.5186651,8.69333312 C62.5186651,12.689333 65.1959984,16.6453329 70.5906649,16.6453329 C75.4053314,16.6453329 78.3813314,13.269333 78.3813314,9.1933331 C78.3813314,4.59866655 75.4053314,0.981333309 70.3293316,0.981333309 C64.8759984,0.981333309 62.5186651,5.1373332 62.5186651,8.69333312 L62.5186651,8.69333312 Z M57.2786652,8.57333312 C57.2786652,12.129333 55.221332,15.0866663 51.8239987,15.0866663 C49.0466654,15.0866663 47.0693322,12.9479997 47.0906655,9.29199977 C47.0906655,5.4973332 49.1279988,2.55999994 52.5839987,2.55999994 C54.5226653,2.55999994 57.2786652,3.85866657 57.2786652,8.57333312 L57.2786652,8.57333312 Z M44.2533322,8.69333312 C44.2533322,12.689333 46.9306655,16.6453329 52.3239987,16.6453329 C57.1399986,16.6453329 60.1159985,13.269333 60.1159985,9.1933331 C60.1159985,4.59866655 57.1399986,0.981333309 52.0639987,0.981333309 C46.6106655,0.981333309 44.2533322,5.1373332 44.2533322,8.69333312 L44.2533322,8.69333312 Z M28.358666,10.5706664 C28.358666,13.429333 28.2599993,15.5266663 28.098666,16.3453329 C28.338666,16.3253329 28.8773326,16.3053329 29.3373326,16.3053329 C30.0573326,16.3053329 30.7159992,16.3453329 31.0159992,16.3853329 C30.9559992,15.6666663 30.8559992,13.8279997 30.8559992,10.8719997 L30.8559992,10.5519997 C30.8559992,10.4919997 30.8759992,10.4719997 30.9359992,10.4719997 L38.487999,10.4719997 C38.547999,10.4719997 38.567999,10.4919997 38.567999,10.5519997 L38.567999,10.8719997 C38.567999,13.7279997 38.467999,15.5866663 38.3693324,16.3453329 C38.647999,16.3253329 39.087999,16.3053329 39.6266657,16.3053329 C40.2866657,16.3053329 40.8666656,16.3253329 41.263999,16.3853329 C41.1853323,15.6253329 41.0853323,13.4079997 41.0853323,10.5706664 L41.0853323,7.05599982 C41.0853323,4.65866655 41.1653323,2.19999995 41.263999,1.2813333 C41.0253323,1.3013333 40.4453323,1.3213333 40.0066657,1.3213333 C39.4266657,1.3213333 38.507999,1.2613333 38.3693324,1.2413333 C38.487999,2.10133328 38.567999,4.49866655 38.567999,7.05599982 L38.567999,8.53333312 C38.567999,8.59333312 38.547999,8.61466645 38.487999,8.61466645 L30.9159992,8.61466645 C30.8759992,8.61466645 30.8559992,8.57333312 30.8559992,8.53333312 L30.8559992,7.05599982 C30.8559992,4.65866655 30.9559992,2.19999995 31.0559992,1.2813333 C30.8359992,1.3013333 30.3973326,1.3213333 29.9173326,1.3213333 C29.1573326,1.3213333 28.458666,1.2813333 28.158666,1.2413333 C28.2599993,2.11999995 28.358666,4.49866655 28.358666,7.05599982 L28.358666,10.5706664 Z M13.909333,3.13999992 C11.9906664,4.85733321 11.4306664,7.19466649 11.4306664,9.03333311 C11.4306664,10.5106664 11.8306664,12.769333 13.7079997,14.5066663 C15.1666663,15.8266663 17.1453329,16.6453329 20.0826662,16.6453329 C22.7599994,16.6453329 24.4173327,16.0466663 25.2359994,15.8653329 C25.0959994,15.3666663 24.9173327,14.2266663 24.8973327,13.329333 C24.0186661,14.2266663 22.2399994,15.0066663 19.8626662,15.0066663 C17.9039996,15.0066663 16.7253329,14.3679996 15.9466663,13.669333 C14.6879996,12.529333 14.2679996,10.9706664 14.2679996,9.29199977 C14.2679996,6.11599985 16.1866663,2.8386666 20.8213328,2.8386666 C22.4599994,2.8386666 24.0973327,3.13999992 25.1759994,3.91866657 C25.0173327,3.35866658 24.7973327,2.22133328 24.7373327,1.64133329 C23.9573327,1.3213333 22.2199994,0.981333309 20.5213328,0.981333309 C18.0039995,0.981333309 15.7266663,1.55999996 13.909333,3.13999992 L13.909333,3.13999992 Z M0.759999981,4.49866655 C1.39999997,3.65866658 2.77733326,2.69999993 4.39599989,2.69999993 C6.03466652,2.69999993 6.79333316,3.65866658 6.79333316,4.87733321 C6.79333316,5.87733319 6.43333317,6.55599984 4.83599988,7.61466648 L3.83733324,8.27466646 C1.61866663,9.71333309 1.09866664,11.0906664 1.09866664,12.549333 C1.09866664,14.7866663 2.81733326,16.6453329 5.75599986,16.6453329 C6.5746665,16.6453329 7.25333315,16.5453329 7.77199981,16.4653329 C8.45199979,16.3453329 8.87199978,16.2853329 9.03199977,16.2853329 C8.97199978,16.0653329 8.85199978,14.7466663 8.85199978,13.6879997 C8.45199979,14.1479996 7.49199981,15.0066663 5.71466652,15.0066663 C4.33599989,15.0066663 3.49733325,14.1479996 3.49733325,13.089333 C3.49733325,12.1706664 3.71599991,11.5306664 5.29599987,10.4919997 L6.27333318,9.85199975 C8.73199978,8.23333313 9.35066643,7.07466649 9.35066643,5.4373332 C9.35066643,4.35733322 8.85199978,2.77999993 7.41333315,1.83999995 C6.41466651,1.2013333 5.15466654,0.981333309 4.19733323,0.981333309 C2.87733326,0.981333309 1.29999997,1.3213333 0.559999986,1.83999995 C0.641333317,2.17999995 0.779999981,3.63866658 0.759999981,4.49866655 L0.759999981,4.49866655 Z" id="path24" fill="#0F1343" fill-rule="nonzero"></path>
                                </g>
                            </g>
                        </g>
                    </g>
                </g>
            </g>
        </g>
    </g>
</svg>