<svg xmlns="http://www.w3.org/2000/svg" viewBox="0 0 697.04 345.68"><defs><style>.cls-1,.cls-2{fill:#fff;}.cls-2{fill-rule:evenodd;}</style></defs><title>gogo</title><g id="Layer_2" data-name="Layer 2"><g id="Layer_1-2" data-name="Layer 1"><path class="cls-1" d="M626,344.88c-16.25-.44-28.6-.9-36.75-1.38-11.22-.64-15.43-.89-15.31-4.48l.07-3,.87-19,.66-.74c16.82-19.09,34.49-41.47,52.56-66.6l-34.27.09-22-.93-1.16-3.33-.11-23.9,5-1.3,36.06.66,18.83.52,35.84,1.29.28,0c1.26.24,5.12,1,5,3.93l-.32,11.68-.66,10.5-51.82,66.39,1.37.09,48.74,2.25,2.22,2.05-.1,3.31L670,343.78l-2.29,1.9H655.44Z"/><path class="cls-1" d="M424.89,270c-.07-.61-.22-1.42-.43-2.39a209.72,209.72,0,0,1-24.29,1.87c0,5.8,3.3,44.67-12.59,44.67-14.45,0-11.16-39.24-11.16-45.5-9.72-.18-17.73-.59-27.51-.88-.26,1.86.12,37.33.46,39.26,1.25,7.27,4.3,17,9.46,20.95.14.08,7.94,6,12.82,7.34,2.25.35,4.35,1,6.69,1.21,4,.26,8,.19,11.94.3,6.07-.49,12.05-2.3,17.59-3.42,11.24-4.75,17.24-14.16,17.24-28.1C425.11,304.51,424.89,270.07,424.89,270Z"/><path class="cls-1" d="M489.28,327l-51.88,1-1.42-1.2,0-.95-1.59-72.81,1.38-1.28,1.05,0,49.78-1c2.17-.08,2.3,1.61,2.57,5.27.16,2.4.34,6,.5,10.79l.08,1.85-2.25,0-33.68.59,1,12.06,23.83-1.56,1.47,1.27,0,.94,1.05,14.3-1.39,1.32-1.06,0-22.28,1.3.44,10.29,1.65,0,30.11-.47c2.15,0,2.26,1.49,2.52,5.26.17,2.4.36,6.05.56,10.81l0,.75L490.34,327Z"/><path class="cls-1" d="M559.74,316.25l-57.49,1.15L500.67,316l0-1.13-1.9-86.42,1.5-1.52,1.17,0,55.18-1.06c2.42-.08,2.54,1.91,2.85,6.25.18,2.83.39,7.16.61,12.81l.08,2.2-2.52.08-37.33.6,1.1,14.31,26.41-1.79,1.63,1.49,0,1.11,1.19,17-1.54,1.56-1.17,0-24.69,1.49.51,12.21,1.83.05L559,294.7c2.37-.07,2.51,1.78,2.81,6.25.18,2.85.41,7.16.64,12.82l0,.9-1.53,1.56Z"/><path class="cls-1" d="M336.9,323.38l-5-5.3a64.16,64.16,0,0,0,6.2-27.48l0-3.79a46.9,46.9,0,0,0-3.83-19.29c-6.18-12.81-16.89-19.43-31.8-19.67l-3.1,0a40.65,40.65,0,0,0-19,4c-10.86,5.8-16.51,17.43-16.79,34.53l0,4A67.59,67.59,0,0,0,266.78,313c5.61,15.85,17.05,24,34,24.29A35.92,35.92,0,0,0,314,335l4.9,5.24a5.73,5.73,0,0,0,8.05-.15l9.3-8.7A5.7,5.7,0,0,0,336.9,323.38ZM300.51,314a11.52,11.52,0,0,1-5.72-1.67,11.5,11.5,0,0,1-3-1c-1.91-1.22-3.17-3.7-3.93-7.22a28.59,28.59,0,0,1,0-22.51,26,26,0,0,1,.86-3.36,8.9,8.9,0,0,1,7.14-5.69,11.79,11.79,0,0,1,5.28-1.25,12.43,12.43,0,0,1,8.22,3.55,14.52,14.52,0,0,1,3.25,4.1,26.87,26.87,0,0,1,3.47,13.92C315.92,304.68,308.94,314.13,300.51,314Z"/><path class="cls-1" d="M219,338.08l-3.79-.28c-16-1.23-27.71-5.5-33.2-22.4l-.63-2.54,1.45-.63c10.08-4.3,16.67-6.86,20.12-7.75l1.78-.45.54,1.66c1.67,5.11,5,7.07,13.07,7.69a23.67,23.67,0,0,0,3.36,0h0c2.53-.21,5.72-1,6.58-3.8l0-1.6c-.71-.71-4.3-2.88-21.87-7.6-17.2-5.55-25.12-16.22-23.62-31.73l.11-1.26c.57-5.74,5.74-11.3,15.83-17a53.78,53.78,0,0,1,14.53-3.47,39.23,39.23,0,0,1,6,0l3.67.28c19.64,1.49,30,9.14,34.55,25.58l.52,1.86-2,.37c-10.92,2-17.83,3.07-21.08,3.32a13.21,13.21,0,0,1-1.87.06l-1.09-.1-.46-.91c-2.29-4.47-4.12-6.55-8.86-6.91l-4.66-.37a8.28,8.28,0,0,0-1.32,0c-3.7.31-6,3-6.17,4.83l-.22,2.19c-.15,1.67,3.64,4.13,14.77,6,22,5.34,32.41,15.34,31,29.8l-.15,1.56c-1.3,13.4-11.81,21.4-31.28,23.71l-.14,0Z"/><path class="cls-1" d="M71.75,62.29l6.71-.46q58.64-4.08,77.79,26.43,9.85,18.75,10.55,28.66-3.83,2.13-48.12,12.54c-6.56-13.83-11.2-18.6-17.94-20.19-1.18-.29-4.81-1.7-14.19-1.47l-5.48.38Q49.21,110.4,46.6,167.55l.32,22q3.3,47.7,28.7,60.47a34,34,0,0,0,14.88,2.65l4.27-.3q25.29-1.75,33.8-33.58l-.81-11.58L93.58,209l-.64-.58-.6-8.52-2.81-31.65c2.38-1,7.64-1.78,15.76-2.32l2.44-.18q59.88-4.17,63-1.33l3,43.29q4,57-27.69,77.27-20.92,11.86-48.66,13.78l-8.53.59q-60.49,4.23-80.94-63A265.32,265.32,0,0,1,1.29,194l-1-14Q-3.78,92.66,46.49,69A71.21,71.21,0,0,1,71.75,62.29Z"/><path class="cls-1" d="M240.44,70.44H248q34,0,47.83,34.6a108.52,108.52,0,0,1,5.37,34.06v8.51q0,48.3-32.78,63.85-12.75,5.86-30.62,5.87-36.28,0-49.45-35.67A106.44,106.44,0,0,1,182.4,146V139.1q0-49.78,37.08-64.93A68.21,68.21,0,0,1,240.44,70.44Zm-17.2,70.25v11.17q0,17.7,9.67,23.41l5.38,1.08h3.23l.53.52q7,0,13.44-6.38,5.36-9,5.37-29.27Q258.45,113,244.73,113l-1.61-.55q-12.9,0-18.27,15.45Z"/><path class="cls-1" d="M537.51,69.76l7.17.37q32.36,1.59,44,32.74a89.38,89.38,0,0,1,3.65,30.3l-.37,7.5q-2.09,42.62-34,54.81-12.42,4.54-29.43,3.72-34.55-1.72-45.52-33.77A87.47,87.47,0,0,1,479,133.7l.3-6.11q2.16-43.89,38.13-55.52A69.25,69.25,0,0,1,537.51,69.76Zm-19.44,61.17-.46,9.85q-.78,15.61,8.18,21.1l5.08,1.18,3.06.18.5.49q6.65.32,13.07-5,5.5-7.71,6.38-25.57-1.08-25-14.13-25.63l-1.51-.55q-12.27-.59-18.06,12.77Z"/><path class="cls-1" d="M381.12,29.8h5.94Q439,29.8,454,57.85q7.56,17.15,7.55,25.9-3.51,1.64-43.16,8.1c-4.95-12.59-8.27-17-14.58-18.89-1-.3-4.13-1.8-12.41-2.15h-4.85q-28.2,0-34,50.19l-1.08,19.41q0,42.24,21.58,55.06a30.15,30.15,0,0,0,13,3.22h3.77q22.39,0,31.84-27.51V160.92l-30.23-.53-.53-.55v-7.55l-.55-28.06c2.16-.73,6.84-1.07,14-1.07h2.15q53,0,55.58,2.69v38.31q0,50.46-29.13,66.38-19.17,9.15-43.7,9.17h-7.57q-53.57,0-67.46-60.43A237.41,237.41,0,0,1,311,141.5V129.07q1.76-77.14,47.5-95A63.41,63.41,0,0,1,381.12,29.8Z"/><path class="cls-1" d="M302.84,4.11a4.92,4.92,0,0,1,4.9,5,4.94,4.94,0,1,1-9.88,0,5,5,0,0,1,5-5Zm0,.77a4.11,4.11,0,0,0-4,4.23,4,4,0,1,0,8,0,4.12,4.12,0,0,0-4-4.24ZM301.91,12H301V6.43a11.2,11.2,0,0,1,1.58-.12,3,3,0,0,1,1.74.43,1.36,1.36,0,0,1,.5,1.13,1.43,1.43,0,0,1-1.1,1.37v0c.49.09.83.53.93,1.35A5.14,5.14,0,0,0,305,12h-.92a4,4,0,0,1-.4-1.41,1,1,0,0,0-1.18-1h-.6Zm0-3.08h.61c.74,0,1.36-.26,1.36-1,0-.47-.36-1-1.36-1a2.38,2.38,0,0,0-.61,0Z"/><path class="cls-2" d="M235.06,28H224.17c0-.18.05-.31.08-.48a1.94,1.94,0,0,1,0-.24s0,0,0,0a1.41,1.41,0,0,1,0-.18s0,0,0,0,0-.06,0-.06,0-.1,0-.13,0,0,0,0a.33.33,0,0,1,0-.1h0v-.09s0,0,0,0a1.3,1.3,0,0,1,0-.13.85.85,0,0,0,0-.17s0-.05,0-.12a.19.19,0,0,0,0-.12,0,0,0,0,0,0,0v0s0-.11.08-.16.09-.21.14-.29,0-.17.1-.23,0,0,0,0l.05-.11s0-.05,0-.08,0-.06,0-.07a1,1,0,0,0,.07-.12s0,0,.06-.07h0a.49.49,0,0,1,0-.12l.08,0s0,0,0,0l.11-.12a.53.53,0,0,1,.1-.14s0,0,.05,0v-.07a.22.22,0,0,0,.1-.07s0,0,0,0a2.28,2.28,0,0,0,.22-.22c.11-.1.15-.2.27-.28s.05-.05.08-.08h.05l0,0s.05,0,.07,0a.11.11,0,0,0,.05-.07s.07,0,.11,0v-.05a.36.36,0,0,0,.1-.07s0,0,0,0l.05,0s0,0,0-.05a.21.21,0,0,0,.11,0,.06.06,0,0,0,.05,0l.15-.07s0,0,0,0l0,0a.86.86,0,0,1,.25-.11s.06,0,.11,0a.18.18,0,0,1,.1,0l.08,0,.21-.09a1.67,1.67,0,0,0,.31,0,1.05,1.05,0,0,1,.26-.07.44.44,0,0,0,.15-.05h.24a2.23,2.23,0,0,0,.42,0l.19,0a.33.33,0,0,0,.11,0c.19,0,.51,0,.73,0l.39.08a2.1,2.1,0,0,1,.33.06l.11,0h.08a.15.15,0,0,0,.1,0,.23.23,0,0,0,0,.05h.14s0,0,.06,0,0,0,0,0,.15,0,.2,0a.3.3,0,0,1,.1.07H232a.15.15,0,0,1,.06.06.65.65,0,0,0,.18,0l.07,0s0,0,.05.06,0,0,0,0,.22.14.34.23a0,0,0,0,0,0,0s0,0,.05,0,0,0,0,0v.05H233s0,0,0,.06,0,0,0,0,.1.08.14.11a.5.5,0,0,0,.12.13,1.62,1.62,0,0,1,.25.28s.07,0,.08,0,0,0,0,0l0,0c.06.05.07.11.12.14a.36.36,0,0,0,.12.15s0,0,0,0,.07,0,.09.09,0,0,0,0h0s0,0,0,0,0,0,0,0a.49.49,0,0,1,0,.12h.07a.3.3,0,0,0,.05.14,2.11,2.11,0,0,1,.18.33l.15.38a1.63,1.63,0,0,0,.09.19.13.13,0,0,0,0,.09s0,0,0,0v0a2.48,2.48,0,0,1,.1.38s0,0,0,0a.66.66,0,0,0,0,.14v0s0,.06,0,.1h.05C235,27.1,235,27.54,235.06,28Z"/><path class="cls-2" d="M293.59,28H282.78A10.31,10.31,0,0,1,283,26.6a.36.36,0,0,1,0-.1.24.24,0,0,0,.06-.1,0,0,0,0,1,0,0s0,0,0-.07,0,0,0-.05,0,0,0,0a.89.89,0,0,1,0-.14s0,0,0,0a.6.6,0,0,1,.05-.14.64.64,0,0,1,0-.07.5.5,0,0,0,.11-.19s0-.08,0-.09.06,0,.06-.06a.66.66,0,0,0,.05-.15s.06,0,.06,0a.39.39,0,0,0,0-.09s.05,0,.05-.06a1.34,1.34,0,0,1,.06-.12s0,0,0-.07,0,0,0-.07l.05,0a.08.08,0,0,0,0-.05h0s.06-.1.09-.12,0,0,0-.06,0,0,0-.06.09-.06.1-.1,0-.07,0-.07,0,0,.05,0,0-.11.08-.14a.18.18,0,0,0,.1-.07c.08-.1.18-.19.27-.31a.48.48,0,0,0,.09-.11h.06a1.65,1.65,0,0,1,.3-.24l.12-.1.06-.05s.07,0,.09,0l.06-.05c.05,0,.1,0,.15-.07s0,0,0,0,0,0,0,0h.09s0-.06,0-.06h0s0,0,.06,0a.72.72,0,0,1,.27-.09s0,0,0,0a2.28,2.28,0,0,0,.35-.15c.21,0,.44-.07.66-.13l.27,0a2.59,2.59,0,0,0,.45,0l.16,0,.21,0a4.16,4.16,0,0,1,.61,0,5.38,5.38,0,0,1,1.42.34.23.23,0,0,0,.11,0s0,.06,0,.07h.11s0,0,0,0,.08,0,.14.06l.09,0a.1.1,0,0,1,.06,0l.08,0s0,.07.1.07,0,.06.08.06h.06s0,.07,0,.07,0,0,0,0,0,.05,0,.05,0,0,0,0l0,0a0,0,0,0,0,.06,0,.53.53,0,0,1,.06.1s.05,0,.09,0,.07.08.13.11.07.08.12.11.08.09.11.14a.25.25,0,0,1,.16.16s0,0,0,0,.05.06.09.07v.06s.06,0,.11.11.07.07.07.1a.08.08,0,0,1,0,.05l0,0v.06s.07,0,.07.06,0,0,0,0h0s0,0,0,0,0,0,0,0,0,.06,0,.07.06,0,.06,0a.13.13,0,0,1,0,.1h0s.07,0,.07.09.06.08.09.13a.07.07,0,0,1,0,.05s0,.07.06.07a.53.53,0,0,1,.05.15.33.33,0,0,0,.06.14c0,.06.09.23.11.31a.13.13,0,0,1,0,.06s0,0,0,.06,0,0,0,0,0,.19.05.26,0,0,0,0,0,.09,0,.11,0,.06,0,.09a1.07,1.07,0,0,1,.12.47,0,0,0,0,1,0,0c0,.11,0,.24,0,.36v.08A3.25,3.25,0,0,1,293.59,28Z"/><path class="cls-2" d="M195.28,22.59s0,0,0,0c.32,0,.64,0,.94,0l.88.05.11,0a2.38,2.38,0,0,1,.34,0c.06,0,.11,0,.17,0H198s0,0,0,0a2.05,2.05,0,0,1,.34.1l.34.09a6.91,6.91,0,0,1,.68.28.12.12,0,0,0,.1,0l.05.06s.05,0,.06,0,.05,0,.09.08,0,0,0,0a.08.08,0,0,1,0,0s0,0,.05,0l.15.08s0,0,0,0,.07,0,.09.08a.42.42,0,0,1,.14.09s0,.07.06.07a.09.09,0,0,0,.08,0,1.27,1.27,0,0,0,.1.12,1.62,1.62,0,0,0,.18.2s.06.07.1.11.06.07.1.14l.16.22s0,0,0,0,0,0,0,0,.05,0,.05.09l0,0,0,.06s0,0,0,0,.09.12.14.18a.24.24,0,0,0,.05.12.15.15,0,0,0,0,.09s0,0,0,0a1.68,1.68,0,0,0,.07.24.21.21,0,0,0,0,.07s0,0,0,0a5.87,5.87,0,0,1,.18.75c0,.14,0,.25.07.38a1.21,1.21,0,0,1,.06.31s0,.09,0,.11,0,0,0,0,0,.06,0,.08a14.54,14.54,0,0,1,0,1.64,9.81,9.81,0,0,1-.08,1.08c0,.05,0,.05,0,.1a.85.85,0,0,1,0,.31s0,0,0,.05a.45.45,0,0,1,0,.17,0,0,0,0,0,0,0s0,.08,0,.08h0a.26.26,0,0,1,0,.11c0,.16-.06.32-.11.47a.32.32,0,0,0,0,.13s0,0,0,0h0s0,.1-.05.17,0,.1,0,.1,0,.13-.07.19a2,2,0,0,0-.07.2s0,.08-.07.14a.54.54,0,0,1-.07.19.12.12,0,0,1,0,.05,1.31,1.31,0,0,0-.05.15s0,0,0,.07,0,0,0,0-.06,0-.06.06a.34.34,0,0,0,0,.09,1.19,1.19,0,0,0-.09.15s0,0,0,0,0,.06-.05.08-.05.06-.1.12a.88.88,0,0,1-.07.12.29.29,0,0,1-.11.11.3.3,0,0,1-.06.14,1.06,1.06,0,0,0-.1.12,4.2,4.2,0,0,0-.32.29c-.08.08-.11.18-.18.25s-.05,0-.05,0,0,.07-.08.07h0a.33.33,0,0,0,0,.06s0,0,0,0,0,.06-.07.09,0,0-.05,0-.07,0-.12.09,0,0,0,0h0a.45.45,0,0,1,0,.08h-.06s0,0,0,0,0,0-.05,0,0,0,0,0-.06,0-.1,0,0,0,0,0a.09.09,0,0,0-.07,0s-.09,0-.09,0h-.06s0,0,0,.06a.35.35,0,0,1-.15.08l-.06,0c-.2.09-.45.15-.69.23v0h-.11s0,0,0,0a4.58,4.58,0,0,0-.57.1,9.51,9.51,0,0,1-2.77,0c-.34-.09-.66-.16-.95-.26a5.46,5.46,0,0,1-.81-.38s0-.07-.07-.07h0s0-.06-.08-.09,0,0,0,0l-.11,0s0,0,0,0-.19-.2-.25-.24a.51.51,0,0,1-.23-.21s0-.08-.06-.1-.06,0-.08-.06,0-.08-.05-.1l-.09,0a.46.46,0,0,0-.09-.14l-.15-.27,0,0s0-.08,0-.1l-.06,0s0-.06,0-.07h0s0-.07-.05-.09,0,0,0,0a.16.16,0,0,0-.05-.09s0-.07,0-.15,0,0,0,0v0a1,1,0,0,1,0-.13s0-.09-.06-.15,0,0,0,0a.13.13,0,0,0,0-.08s0-.06,0-.1,0-.08,0-.1,0-.08,0-.15,0-.09,0-.12h0s0-.09,0-.1h0a.33.33,0,0,0,0-.1s0-.17,0-.26,0,0,0,0,0,0,0-.07a9.11,9.11,0,0,1-.13-1c0-.6,0-1.21,0-1.85v-.14c0-.13,0-.42,0-.63a6,6,0,0,1,.11-.84s0,0,0-.08a1.32,1.32,0,0,1,.05-.25c0-.19.09-.43.14-.66,0-.06,0-.14.06-.23s.1-.24.15-.39a.29.29,0,0,0,0-.1s0,0,0,0,0-.05,0-.07,0-.05,0-.08.05,0,.05,0,0-.08,0-.1,0,0,.05,0,.06,0,.06-.07a.83.83,0,0,1,.11-.24s0,0,0,0a.41.41,0,0,1,.05-.09h0a3.14,3.14,0,0,1,.23-.33,1.06,1.06,0,0,0,.14-.15c.06-.08.15-.15.25-.26a1.34,1.34,0,0,0,.14-.11s.05,0,.09-.07,0,0,0,0h0s0,0,0,0h0l0-.05h0s0-.05,0-.05,0,0,.05,0,0,0,0,0,0,0,0,0,0,0,.05-.07,0,0,0,0l0-.05a.08.08,0,0,0,0,0l0-.05s.05,0,.07,0,0,0,.05,0,.06,0,.07,0,.05,0,.08,0a.26.26,0,0,1,.15-.07l0,0,.28-.11a5.69,5.69,0,0,1,.86-.22.56.56,0,0,1,.2,0,.3.3,0,0,1,.15,0s.06,0,.07,0A4.48,4.48,0,0,1,195.28,22.59Z"/><path class="cls-2" d="M139.49,27.77s0,0,0,0c0-.2,0-.42,0-.6a1.06,1.06,0,0,1,0-.19s0-.06,0-.07,0,0,0-.08,0,0,0,0a.15.15,0,0,0,0-.09v0c0-.05,0-.19.05-.3a0,0,0,0,0,0,0,1.54,1.54,0,0,1,.13-.42.73.73,0,0,1,.07-.19.62.62,0,0,1,.06-.18s0-.06,0-.06h0a1.23,1.23,0,0,1,0-.13v0h0s0-.07,0-.07,0-.05.06-.11,0,0,0,0,.05-.13.06-.19,0-.06,0-.09,0,0,0,0a1.28,1.28,0,0,1,.09-.22v0h0s0-.07,0-.07h0s0,0,0,0,0-.07.09-.11,0-.05,0-.07v0s.06,0,.08-.08,0-.07,0-.11l.09-.07a0,0,0,0,1,0-.06c.05,0,.05-.13.11-.19s0,0,0,0a.63.63,0,0,1,.1-.14l0,0s0,0,0,0a1,1,0,0,0,.07-.09s0-.05.06-.1,0,0,.08-.07a.21.21,0,0,1,0-.1s.06-.05.08-.07a.37.37,0,0,0,0-.11s.07-.05.09-.07,0-.09,0-.11.06,0,.08-.09,0-.05.06-.08.1-.09.15-.15.13-.1.13-.15.19-.19.21-.25a8.75,8.75,0,0,1,.69-.67,2.44,2.44,0,0,1,.39-.4s0-.06.07-.07l.17-.14a1.22,1.22,0,0,0,.16-.14s.09,0,.11-.05l.06-.09a1.1,1.1,0,0,0,.18-.14h0a.38.38,0,0,1,.1-.12s0,0,.06,0,0,0,0-.06,0-.06.08-.08.05,0,.05,0l.06-.05s0-.06.07-.07h.06l0-.06a.38.38,0,0,0,.08-.09s0,0,0,0,.06-.07.09-.07,0,0,0,0,0-.05.08-.07h0s0,0,.06,0,.05-.06.09-.08l.09-.06s0-.05.08-.08l.15-.06s0-.05,0-.05,0,0,0,0,0,0,0,0,.05-.06.08-.08,0,0,0,0,.05,0,.11-.07,0,0,0,0h0a.31.31,0,0,0,.09-.07h0l.1-.07s0,0,0,0,0,0,0,0l.07-.07s0,0,0,0,.07,0,.08,0a.35.35,0,0,1,.1-.08s0,0,0,0h0a.4.4,0,0,0,.09-.07h.06v0s0,0,.05,0a1.12,1.12,0,0,1,.4-.24c.24-.15.49-.3.76-.44l.09-.05s0,0,0,0,.06-.05.1-.05.06-.06.11-.06.05-.05.1-.05,0,0,.1,0,0-.06.11-.06.06,0,.1,0l0,0a3.12,3.12,0,0,0,.53-.5l.15-.15.51-.46s.1-.11.16-.11.1-.17.18-.17.13-.11.17-.15.06,0,.08,0,0-.05,0-.05.08,0,.1,0l.08-.07a.74.74,0,0,1,.16-.12s0,0,0,0h0a.32.32,0,0,1,.08-.09l.14-.07s0,0,0,0,.06,0,.07-.06a.21.21,0,0,0,.11,0s0,0,0,0,.05-.05.1-.05h0s.06-.07.09-.07.08,0,.12-.06,0,0,.06,0,.07-.07.12-.07,0,0,0,0,.06,0,.07,0a.85.85,0,0,1,.22-.13h0a.16.16,0,0,1,.06-.05h0s0,0,0,0h.07a1.3,1.3,0,0,1,.32-.18h.06s0,0,0,0h0a.1.1,0,0,1,.08-.05s.05,0,.05,0v0a.39.39,0,0,1,.13,0s0,0,0,0l.08,0,.14-.06a.38.38,0,0,0,.16,0h.06a.24.24,0,0,0,.12-.06.47.47,0,0,1,.1-.05c.09,0,.19-.06.26-.07l.23-.09c.17,0,.36,0,.54-.11a8.56,8.56,0,0,1,.93-.05s.3,0,.34,0a3.14,3.14,0,0,0,.65,0,.47.47,0,0,1,.19.06H157a1,1,0,0,0,.59,0s.08,0,.12,0,.09,0,.17-.05H158a8.42,8.42,0,0,1,.92-.28l1.17-.31c.11,0,.2,0,.33-.09l.33-.11s0,0,.06,0h.11a.12.12,0,0,0,.09,0,0,0,0,0,0,0,0c.07,0,.14,0,.21,0s0,0,0,0a.56.56,0,0,0,.17,0s0,0,0,0,.35-.09.51-.11a.9.9,0,0,1,.22-.06s.07,0,.09,0,0,0,0,0,0,0,0,0,.16,0,.22,0,0,0,0,0h0l.13,0,.4-.1c.14,0,.25-.05.38-.08,1-.23,2.1-.47,3.16-.69l.83-.15s.12,0,.19,0l.21,0s0,0,0,0c.23,0,.54-.1.78-.12l.21,0h0a.44.44,0,0,0,.15,0,.63.63,0,0,0,.24,0l.18,0c.13,0,.27,0,.4-.06h0a.69.69,0,0,0,.2,0,.38.38,0,0,1,.19,0c.08,0,.16,0,.22,0a.34.34,0,0,1,.2,0c.18,0,.38,0,.61-.1l.21,0a0,0,0,0,1,0,0h.18l.62-.14a1,1,0,0,0,.24,0s0,0,0,0h.14l.39-.06,1.7-.26c.54-.07,1.09-.16,1.65-.22,2.27-.32,4.55-.63,6.87-.84a1.72,1.72,0,0,0,.32-.42c.06-.07.1-.17.17-.25s0,0,0,0,0,0,0,0,.05,0,.05-.07,0-.05,0-.05.06-.06.1-.12,0,0,.06-.06l0-.06s0,0,0,0,0-.06,0-.07.08,0,.09,0v0a.33.33,0,0,0,.09-.13.15.15,0,0,1,.07,0s0,0,0-.05.05-.06.09-.1,0-.14.09-.06a5.28,5.28,0,0,0,0,.58s0,0,0,.08,0,.28.06.42v.05s0,.21,0,.31.09.34.11.54a1.67,1.67,0,0,0,.06.26l0,0a2.56,2.56,0,0,1,.07.36c0,.05,0,.09,0,.14a2.14,2.14,0,0,0,.09.34.41.41,0,0,0,0,.17.93.93,0,0,0,.06.24.45.45,0,0,1,0,.12h0v.09a.56.56,0,0,1,.09.22v0s.05.12.08.16v.06a.51.51,0,0,1,.1.25c0,.08,0,.16.07.24l.37.94h0c.05.15.13.28.19.43a.34.34,0,0,0,.06.12l.09.2s0,.06,0,.06h0s0,0,0,0,0,0,0,0a.52.52,0,0,1,.06.16s0,0,0,0,.05.06.08.1a.11.11,0,0,0,0,.06s0,0,0,0,0,0,0,.05h0s0,.05,0,.05a.18.18,0,0,1,.09.1v.06s0,0,.06,0,0,0,0,.05h0s0,0,0,0h0s0,.05,0,.05A1.42,1.42,0,0,1,187,15s0,0,0,0v0a.22.22,0,0,1,.06.07.24.24,0,0,1,.06.09l.14.22s0,0,0,0,0,.08,0,.08.06,0,.08.1a.28.28,0,0,1,0,.12s0,0,0,0,0,0,0,0h0a.47.47,0,0,0,.05.1s.08.05.08.07a.11.11,0,0,1,0,.08s.05,0,.06,0,0,.06,0,.07l.06,0,.07.07a.36.36,0,0,0,0,.11.23.23,0,0,1,0,0s0,0,0,.05.07,0,.09.07a.93.93,0,0,1,0,.1s.12.09.18.15,0,.05,0,.05.24.28.36.39.11.11.16.17l.14.17.15.14s.08,0,.1.1l0,.05s0,0,0,0,.1.09.13.12,0,0,0,0,0,0,0,.05,0,0,.05,0a.52.52,0,0,1,.11.13l.34.31c.05,0,.1.12.14.15s.07,0,.08,0,.07.1.11.12h.06a1.79,1.79,0,0,0,.48.41c.22.16.46.35.74.54a.19.19,0,0,0,.11.07.43.43,0,0,0,.15.09s0,0,0,0,.06.07.09.07,0,0,.07,0h0s0,0,0,0,0,0,.05,0l.06,0,.1.07c.07,0,.07.21.1.34s.06.15.05.24a.4.4,0,0,1-.28.07l0,0h-.09v0a.3.3,0,0,0-.14,0,4.34,4.34,0,0,0-.62.16s0,0-.06,0-.13,0-.21.06,0,0-.05,0-.1,0-.11,0-.2.07-.25.1a.52.52,0,0,0-.13.06l-.16.06a.2.2,0,0,0-.11,0s0,0-.05,0,0,0,0,0-.14.11-.23.15l-.23.09a.43.43,0,0,1-.16.09l-.08,0s0,0,0,0h-.06s0,0,0,0-.06,0-.06,0,0,.05,0,.05a.12.12,0,0,1-.09,0h0a.26.26,0,0,1-.09.09.16.16,0,0,1-.09,0h0a.17.17,0,0,1-.06.08.63.63,0,0,0-.2.13,6.26,6.26,0,0,0-.59.46l-.17.16c-.08.07-.16.17-.27.27s-.26.28-.37.44,0,0,0,0,0,.05,0,.05h-.05a.28.28,0,0,1,0,.09h-.05a1.59,1.59,0,0,0-.13.22l-.06,0s0,.07,0,.11,0,0,0,0-.08,0-.09.1,0,.05,0,.1v0a.33.33,0,0,0-.06.06s0,0,0,0a1.31,1.31,0,0,0-.07.13s-.08.1-.08.15a.27.27,0,0,1,0,.08s0,0,0,.05,0,0,0,0h0v.05s0,0,0,0v.07h0s0,.09,0,.15,0,0,0,0a.2.2,0,0,1,0,.08c0,.1-.09.2-.14.33s0,0,0,0h0c0,.06,0,.11-.06.21a0,0,0,0,0,0,0,1.39,1.39,0,0,1,0,.23v0h0a.68.68,0,0,1,0,.13c-.08.37-.15.77-.2,1.16,0,0,0,.08,0,.09s0,.09,0,.18,0,.05,0,.05a2.27,2.27,0,0,0,0,.33l0,0a3.82,3.82,0,0,0,0,.48,3.23,3.23,0,0,0,0,.73v.06c.08.06,0,.44,0,.58s0,.05,0,.06h0a10,10,0,0,0,.45,2.25c0,.08.08.19.11.26a.77.77,0,0,1,.08.27s0,0,.06.06,0,0,0,0h0v0h0s0,.06,0,.06a1.51,1.51,0,0,0,.13.22,2.38,2.38,0,0,0,.23.45l0,0s0,0,0,0h0a.21.21,0,0,0,0,.1s.05,0,.06.06,0,0,.05.1,0,0,0,0,0,.07,0,.07a.19.19,0,0,0,0,.07,0,0,0,0,1,0,0,.3.3,0,0,1,.09.1c0,.05.11.13.15.18s0,0,0,0,.15.11.15.18.05.07.08.11.2.17.3.25a4.11,4.11,0,0,0,.43.37.08.08,0,0,0,.05,0s0,0,0,0,0,0,.06,0,0,0,0,0,.08.06.12.06,0,.08.06.08.05,0,.09,0l.05,0,.07.08H189l0,.07h.06s0,0,0,0,.31.16.47.25.11.07.15.07l.07,0,.06,0h.05v0s.05,0,.06,0v0s.05,0,.05,0,0,0,.07,0h0l.05,0,.08,0v0h.16s0,0,0,0a1.29,1.29,0,0,1,.25.09h.06a.07.07,0,0,0,.07,0h0s.05,0,.12,0a4.43,4.43,0,0,0,.55.18.34.34,0,0,1,.14,0s0,0,0,0h.09s.19.06.28.06a6,6,0,0,0,.6.14l.54.1.65,0s0,0,.09,0a.74.74,0,0,1,.21,0s.07,0,.17,0h.14a1.29,1.29,0,0,0,.34,0,4.43,4.43,0,0,0,.65,0h.19s.07,0,.12,0,.24,0,.33,0a4.79,4.79,0,0,0,.65,0c.28,0,.6-.07.89-.11l.08,0,.12,0H198s.2,0,.29-.06v0a.29.29,0,0,0,.16-.07l.11,0a1.43,1.43,0,0,0,.44-.19s0,0,.06-.06,0,0,0,0h.05v0s.06,0,.06,0h0s.08,0,.13-.07,0,0,0,0,0,0,.06,0a.13.13,0,0,1,.09-.06s.07-.07.11-.1.07,0,.09-.07a.25.25,0,0,1,.08-.07s.07,0,.08,0a.13.13,0,0,0,0-.05h.06s0,0,.06,0l.36-.34a3.51,3.51,0,0,0,.37-.4s.05,0,.05,0,.06-.06.09-.11l0-.07s.09-.06.1-.12.06,0,.09-.1,0-.07,0-.09.07,0,.07-.07.07-.09.09-.1a1,1,0,0,1,.08-.11s.06-.06.07-.09a.85.85,0,0,0,0-.09s0,0,0,0v0l.08-.06c0-.07.08-.14.13-.22l0,0a.4.4,0,0,0,.1-.17s0-.1.06,0,0,.12,0,.2c0,.43,0,1,0,1.44V36l0,.05c0,.57,0,1.15,0,1.76h4.22a2.09,2.09,0,0,0,.56,0V29.39a5.06,5.06,0,0,0-.06-.69,2.16,2.16,0,0,0-.08-.74s0-.09,0-.12a0,0,0,0,0,0,0c0-.07,0-.14,0-.2a.5.5,0,0,0,0-.17.41.41,0,0,1,0-.11c0-.21-.1-.42-.15-.63s-.05-.19-.07-.31,0-.11,0-.16-.05,0-.06,0a.78.78,0,0,0,0-.14s0,0,0,0a.19.19,0,0,0,0-.11s0,0,0,0a.34.34,0,0,0,0-.12c0-.07,0-.07,0-.14h0v-.05a4.11,4.11,0,0,0-.22-.51c0-.09-.09-.19-.13-.25a.11.11,0,0,1,0-.07.17.17,0,0,1-.09-.14v0a.27.27,0,0,0-.07-.08s0-.09-.08-.12,0,0,0,0-.05-.08-.08-.14,0,0,0,0v0l-.17-.25-.12-.1a.12.12,0,0,0,0-.08h-.06c0-.07,0-.1-.06-.14s-.08,0-.08-.07-.14-.17-.18-.21-.27-.24-.41-.36a.75.75,0,0,0-.09-.09l-.33-.25-.09-.11h-.08s0-.05,0-.06l-.07,0a.22.22,0,0,1-.1-.09h0s0,0,0,0l-.27-.14s0,0,0,0-.05,0-.05,0l-.13-.07s0-.06-.06-.06l-.08,0-.18-.11a.28.28,0,0,0-.11,0,.15.15,0,0,0-.1,0s0,0-.05,0,0,0,0,0a.42.42,0,0,0-.12-.07h-.05a.78.78,0,0,0-.26-.11,4.82,4.82,0,0,0-.57-.22c-.26-.08-.53-.19-.86-.26a1.78,1.78,0,0,0-.26,0h-.06s0,0,0,0l-.32,0a.1.1,0,0,0-.07,0,.27.27,0,0,0-.16,0s-.06,0-.07,0c-.08-1.16-.18-2.28-.29-3.39,0-.07,0-.13.07-.16s0,0,0,0a1.81,1.81,0,0,1,.28-.25,1.56,1.56,0,0,0,.13-.13s.07,0,.09-.05.07-.08.14-.12.11-.13.19-.2a.7.7,0,0,1,.16-.1,2.08,2.08,0,0,1,.21-.21c.08-.07.18-.18.28-.26s0,0,0,0l0,0c.1-.09.18-.19.28-.27l.14-.14a.28.28,0,0,0,.12-.12l.14-.15a.71.71,0,0,1,.13-.12c.05-.06.07-.11.12-.18a.2.2,0,0,0,.13-.12,2.17,2.17,0,0,0,.23-.3l.09-.07s.07-.07.07-.11l0-.06h.05V14.2s.1-.08.1-.11.07-.06.11-.12,0,0,0,0,.1,0,.11-.11,0,0,.06,0,0,0,0-.06,0,0,0,0v-.07s0,0,0,0,0,0,0-.07a.12.12,0,0,0,.07-.07s0,0,0,0a2.7,2.7,0,0,0,.18-.25l0-.07,0,0a.35.35,0,0,0,0-.11s0,0,0,0a.52.52,0,0,1,0-.11s0,0,0,0,0,0,0,0,0-.07.06-.13.11-.22.17-.33,0-.05.06-.06v0c0-.05,0-.14.07-.18s0,0,0,0a2.81,2.81,0,0,1,.13-.33s0-.11.08-.16a2.37,2.37,0,0,0,.13-.36h0v0c0-.1.12-.28.17-.42l.06-.2a.4.4,0,0,0,.07-.18,1.35,1.35,0,0,0,.12-.41c.05-.14.09-.28.14-.42a1.67,1.67,0,0,1,.1-.43,6.39,6.39,0,0,0,.16-.91.3.3,0,0,0,0-.11.26.26,0,0,0,0-.09s0-.07,0-.14a.33.33,0,0,0,0-.1,4,4,0,0,0,.09-.49c0-.24,0-.51,0-.76s0-.21,0-.27h0a.28.28,0,0,0,.08.15s0,0,0,0v0s.05,0,.07.06,0,.08.06.12l.06.07s0,0,0,.06.06,0,.08.09,0,0,0,0,0,0,0,0,.05,0,.07.06a1.12,1.12,0,0,0,0,.13l.06,0a.22.22,0,0,0,0,.1s0,0,0,0,0,.06.07.1,0,0,0,.07v0s.06,0,.08.08,0,.08,0,.1a.28.28,0,0,1,.08.08s0,0,0,0a4.12,4.12,0,0,0,.78,0l3-.08c.33,0,.63,0,.95,0,.85,0,1.87-.05,2.73-.05l3.7,0h2c.5,0,1.09,0,1.62,0h1.87l.94,0c.92,0,1.83,0,2.74.05.66,0,1.34,0,1.92,0a7.66,7.66,0,0,0,.83,0,.82.82,0,0,0,.21,0h.46c.58,0,1.34,0,2,.07,1.2,0,2.41.11,3.58.16l1.78,0,0,.06c.07,0,.26-.06.38,0a3.41,3.41,0,0,0,.5,0s0,0,0,0a1.47,1.47,0,0,0,.42,0s0,0,0,0c.25,0,.52,0,.77,0h.06s0,0,0,0h.24c.3,0,.72.09,1.08.1l1.74.08.87.1c.38,0,.75,0,1.09.07h.15c.34.05.84.07,1.27.09h0c.23.06.65.06.94.1H247c.17,0,.42,0,.64.07,1.67.13,3.41.32,5.11.48.39,0,.76.09,1.19.13h0c.24.06.62.06.89.1.53.06,1.1.15,1.66.22,0,0,.1,0,.14,0l.21,0s0,0,.08,0,.29,0,.42,0h.15a.45.45,0,0,0,.16,0h.05l.17,0h.05a.32.32,0,0,0,.14,0l.21,0,.22,0c.51.07,1.16.15,1.73.24l2.42.35c.4.06.79.11,1.23.19h.21s0,0,0,0,.07,0,.12,0l.46.06a.64.64,0,0,1,.2,0,0,0,0,0,0,0,0h.12c.2,0,.54.09.75.13h.06a2.49,2.49,0,0,0,.46.07.64.64,0,0,1,.18.06.86.86,0,0,0,.21,0c.78.14,1.56.28,2.36.4.06,0,.14,0,.23,0s.11.05.17.06l.42,0s0,0,0,0l.36,0a.51.51,0,0,0,.2,0l0,0,.45.08h0s0,0,0,0l.42,0s0,0,0,0a.36.36,0,0,0,.15,0c.06,0,.14,0,.21,0s0,0,0,0l.15,0a.44.44,0,0,1,.2,0s0,0,0,0l.19,0a1.25,1.25,0,0,1,.19,0s0,0,0,0,.1,0,.16,0H273s0,.05,0,.05h.15a.65.65,0,0,0,.21,0l0,0a.86.86,0,0,1,.3.05l.23,0a.58.58,0,0,1,.17.05,1.36,1.36,0,0,1,.21,0,1.33,1.33,0,0,0,.19.05l.38.1.69.13h.07a6.56,6.56,0,0,0,.78.17.3.3,0,0,0,.18.06,1.77,1.77,0,0,0,.21,0s0,0,0,0a.22.22,0,0,1,.16,0h.05c.1,0,.21.07.31.09s.16,0,.22,0,0,0,0,0a1.19,1.19,0,0,1,.34.08.58.58,0,0,1,.19,0l0,0a3,3,0,0,1,.56.13l.38.07.35.12.21,0s0,0,0,0h.15c.69.18,1.34.38,2,.57l.11,0,.24.05.16,0,.1,0s0,0,.08,0,0,0,0,0a.93.93,0,0,1,.24,0h0s0,0,.12,0a0,0,0,0,0,0,0,.36.36,0,0,1,.17,0l.12,0,.24.05c.36.1.72.22,1.09.31a.19.19,0,0,0,.13,0l.42.11c.06,0,.12,0,.17.06a.24.24,0,0,0,.14.05l.14,0,0,0,.1,0h.08s.05,0,.11,0l.06,0a.84.84,0,0,0,.18.05,1.19,1.19,0,0,0,.2.08,2.38,2.38,0,0,1,.38.11.36.36,0,0,1,.13.05.16.16,0,0,1,.09,0l.08,0h.09l.32.11s.08,0,.13.06a.16.16,0,0,1,.1,0l.07,0a3.94,3.94,0,0,1,.4.14s.12,0,.17,0,.09.06.13.06l.1,0c.07,0,.22.07.31.11a3.66,3.66,0,0,1,.35.12c.21.07.46.15.68.24a5.74,5.74,0,0,1,.69.26.42.42,0,0,1,.18.06s0,0,0,0,.05,0,.1,0l.22,0s0,0,0,0,.06,0,.11.07a1.36,1.36,0,0,0,.17,0s0,0,0,0a0,0,0,0,1,0,0s0,0,.07,0,0,0,0,0l.18.06h0c.07,0,.07,0,.13.07a.57.57,0,0,1,.18,0s0,0,0,0h0s0,0,.07,0,0,0,0,0l.17,0s0,0,0,0a.42.42,0,0,1,.14.06.77.77,0,0,0,.28.08s0,0,0,.06a.51.51,0,0,1,.28.09h.08s0,0,0,0l.19,0s0,0,0,0l.14.06a2.27,2.27,0,0,0,.34.11s0,0,0,0a.53.53,0,0,1,.19.09h.06l0,0a3.45,3.45,0,0,0,.34.14s0,0,0,0a0,0,0,0,0,0,0,2.21,2.21,0,0,1,.29.13l.05,0s0,0,0,0,.08,0,.12,0,0,0,.06,0,.09,0,.15.06a.31.31,0,0,0,.14.07.64.64,0,0,1,.14.06s.08,0,.15.09.06,0,.08,0l.07,0s.06.05.1.06l.05,0s.06.06.1.06a.06.06,0,0,1,.05,0s.06.05.11.05l.07,0a.22.22,0,0,0,.09,0,3,3,0,0,1,.28.13l.21.11s0,0,0,0a.81.81,0,0,0,.11,0l0,0s.05,0,.05,0a.32.32,0,0,1,.12,0,.18.18,0,0,0,0,.07s0,0,0,0l.26.13s0,0,0,0l.09,0a.2.2,0,0,0,.08,0c0,.06.18.1.26.14s0,0,0,0a0,0,0,0,1,0,0l.09,0s0,0,0,0,.05,0,.06,0l0,.06c.05,0,.1,0,.15.08s0,0,.05,0h0s0,0,.05,0,.06,0,.1,0a.1.1,0,0,0,.06,0s0,0,.05,0,0,0,0,0,.06,0,.09,0l.05,0s0,0,.05.05.06,0,.09,0,0,0,.06.05,0,0,.05,0h0s.05,0,.09,0v.06l.1,0,.08.06a.87.87,0,0,1,.11.09s0,0,0,0,.06,0,.06,0,0,0,0,.06a.21.21,0,0,1,.11.05c.07.05.15.08.23.14l.05.06s0,0,.06,0a.23.23,0,0,0,.09.07s0,0,0,0,0,0,.06,0,0,0,0,0,0,0,.05,0,0,.06,0,.06h.07s0,.08,0,.09.05,0,.08,0,0,.06,0,.06l.09.05.34.25.12.12.14.08s0,.06.05.06.18.14.25.21a2.66,2.66,0,0,1,.24.23,1.12,1.12,0,0,1,.15.11s.06.09.11.12,0,0,.05,0a.33.33,0,0,0,.08.11c.17.17.4.36.59.56s.12.18.19.24.06,0,.06,0a.93.93,0,0,0,0,.1s.06,0,.06.06,0,.06,0,.07.06,0,.07.07,0,0,0,.07a.31.31,0,0,1,.1.05.12.12,0,0,0,0,.07h0s0,.07.08.12a.27.27,0,0,1,0,.07s.06,0,.06.06v.05s0,0,0,0,0,0,0,0,.06,0,.09.06,0,0,0,.05,0,0,0,.08,0,0,0,0,0,0,0,0l.05.05s0,.05,0,.05a.12.12,0,0,1,.08.1,4.68,4.68,0,0,1,.3.64,4.81,4.81,0,0,1,.3.86.45.45,0,0,0,0,.16,1.62,1.62,0,0,1,0,.23s0,.13,0,.19v.68h0a2.48,2.48,0,0,1,0,.38v0a.42.42,0,0,0,0,.13,4.24,4.24,0,0,0-.1.47.57.57,0,0,0-.07.17s0,.1,0,.11a.11.11,0,0,1,0,.07s-.05.06-.07.11a.27.27,0,0,1-.05.14s0,0,0,.05a.1.1,0,0,1,0,.09l0,0s0,.07,0,.09a.69.69,0,0,0-.07.15s0,.05,0,.06l0,0s0,.07,0,.09a.08.08,0,0,0-.05.05.17.17,0,0,0,0,.07s0,0,0,0h0l-.1.09-.09.14a.61.61,0,0,1-.07.14.13.13,0,0,0-.06.05s0,.05,0,.07a.28.28,0,0,1-.09.1c0,.05,0,.1-.09.14a.57.57,0,0,1-.11.1s0,.09-.06.1-.14.13-.2.21-.05.11-.07.13-.08,0-.11.08c-.19.2-.38.4-.59.59a.79.79,0,0,0-.12.13s-.08,0-.12.08a1.75,1.75,0,0,0-.19.2.13.13,0,0,1-.07,0l-.07,0s0,.1-.08.12l-.13.06c0,.06-.07.1-.1.1l-.17.14s0,.05-.06.05a3.54,3.54,0,0,1-.46.33s0,0-.07.06-.06,0-.11.08,0,0,0,0a.2.2,0,0,0-.1,0s0,0,0,0l-.26.15s0,0-.05.06l-.14.09a.22.22,0,0,1-.13.07s0,0,0,0h0a.26.26,0,0,1-.08.11h-.09s0,0,0,.07a.45.45,0,0,1-.14.06.21.21,0,0,0,0,.07s-.07,0-.07,0,0,0,0,0a.06.06,0,0,1-.06,0s-.05,0-.06,0h-.07l-.06.06a.11.11,0,0,1-.08,0s0,.06,0,.06H299s0,0,0,0a.11.11,0,0,0-.08.06h-.07s-.05,0-.06.06a.1.1,0,0,0-.08,0s0,.06-.06.06h-.08s0,0,0,0a.11.11,0,0,1-.07,0s0,0-.06.06h-.08a.41.41,0,0,1-.13.08.16.16,0,0,0-.1.06,1,1,0,0,0-.15.08s0,.05-.06.06-.05,0-.09,0a.33.33,0,0,0-.11.08.07.07,0,0,0-.06,0s-.05,0-.06.07h-.08s-.05,0-.05,0l-.15.07a.15.15,0,0,0-.07,0s0,0-.06,0l-.14.08a1.12,1.12,0,0,1-.13,0l-.06.05s-.08,0-.16,0l0,0a.51.51,0,0,1-.14,0l-.07.06c-.05,0-.1,0-.16.07l-.05,0a.58.58,0,0,1-.14,0s0,.06-.06.06-.13,0-.21.09,0,0,0,.06-.09,0-.17,0,0,0,0,.06l-.26.1-.06,0s0,0-.08,0a.11.11,0,0,0,0,0,.39.39,0,0,0-.15.06s0,0,0,0h0s0,0-.06,0l-.12.07c-.75.33-1.52.61-2.27.93-.24.1-.49.18-.73.3,0,0,0,0,0,0h-.13s-.05,0-.08,0h0c-.05,0-.05,0-.11.05h-.06s0,0-.06,0l-.09,0-.44.16c-.06,0-.13.06-.19.07s-.09,0-.13,0-.08,0-.16,0l0,.07a.78.78,0,0,0-.14,0s0,0,0,0l-.16,0a.84.84,0,0,0-.14.06s-.06,0-.07,0,0,0,0,.06,0,0-.06,0l-.09,0-.07,0-.08,0a.09.09,0,0,1-.07,0l-.19.07s-.1,0-.12,0,0,0-.05,0,0,0-.08,0h-.06l-.09,0-.07,0-.08,0s0,0-.08,0-.06,0-.08,0h0a2.49,2.49,0,0,1-.32.08l0,0a.48.48,0,0,0-.15,0l-.1,0c-.82.28-1.63.52-2.45.78-.41.12-.83.24-1.25.34s-.83.26-1.27.37l-1.28.35-1.26.33a.65.65,0,0,1-.2,0l-1.79.44-.32.06c-.11,0-.2.06-.32.09l-.18,0-.15.06h-.19a.36.36,0,0,1-.15.06.43.43,0,0,0-.17,0,2.44,2.44,0,0,1-.34.08l-.08,0a1,1,0,0,0-.23.06l-.8.17-.26.06h0a2.23,2.23,0,0,1-.37.07l0,0c-.09,0-.22,0-.32.06a3.18,3.18,0,0,1-.33.08c-.09,0-.15,0-.25,0h-.06a1.36,1.36,0,0,1-.45.1c-.24.06-.59.11-.88.17-.79.16-1.56.29-2.4.45,0,0,0,0-.08,0l-.57.11c-.15,0-.31.07-.47.08a.42.42,0,0,1-.17,0c-.09,0-.27,0-.39.09-.93.12-1.85.3-2.79.43a.9.9,0,0,1-.25.08,3,3,0,0,0-.31,0,1.47,1.47,0,0,1-.32,0v0c-.07,0-.21,0-.29,0s0,0,0,0a3.16,3.16,0,0,0-.32,0c-.07,0-.18,0-.33,0a1,1,0,0,1-.25.05c-.65.11-1.39.22-2.1.31-.94.16-1.88.27-2.81.39-.48.07-1,.13-1.45.18s-.75.1-1.11.12c-1,.13-2,.24-3.09.34,0,0-.13,0-.13,0a1.78,1.78,0,0,1-.39.06l-.3,0s0,0,0,0a5.57,5.57,0,0,1-.95.09c-.15,0-.34,0-.54.08s-.47.05-.73.05c-1,.11-2,.18-2.95.28-.49,0-1,.07-1.48.14h-.39l-.66,0h-.06a.81.81,0,0,1-.22,0,.47.47,0,0,0-.12,0s0,0,0,0h-.2l-1.31.09c-1.47.14-3,.19-4.55.3-1,.07-2,.1-3.06.16s-2.07.1-3.09.12c-1.31,0-2.62.1-3.93.12-.18,0-.4,0-.6,0a16.38,16.38,0,0,1-1.73.06l-2.4,0-.76,0H215.7c-.81,0-1.62,0-2.4,0h-.8c-.52,0-1,0-1.57-.06s-1.05,0-1.57,0L207,48.53c-.47,0-.89,0-1.37-.06,0,0-.06,0-.1,0l-.49,0-1.72-.06s-.07,0-.1,0a4.41,4.41,0,0,0-.85-.06c-1.18-.06-2.42-.13-3.62-.21a.41.41,0,0,1-.11,0s0,0-.06,0c-.49,0-1,0-1.5-.08s-1-.08-1.5-.12-1-.06-1.5-.11l-.76-.05a9.24,9.24,0,0,0-.92-.1h-.1c-.09,0-.29,0-.44,0l-.92-.08h-.11a2.59,2.59,0,0,0-.45-.06c-.76-.07-1.63-.14-2.4-.23h-.1l-1-.13s-.14,0-.17,0-.25,0-.36,0-.24,0-.35,0c-.93-.13-1.92-.24-2.86-.38a2.2,2.2,0,0,1-.36,0c-.58-.08-1.21-.15-1.78-.24l-1.23-.16s-.07,0-.11,0a.38.38,0,0,0-.15,0h-.18a2.66,2.66,0,0,0-.44-.1c-.68-.12-1.38-.2-2.08-.3-.92-.16-1.84-.32-2.75-.45a3,3,0,0,0-.45-.1s0,0-.05,0a6.53,6.53,0,0,1-.75-.17h-.21c-.07,0-.16,0-.26,0a1.19,1.19,0,0,0-.26,0s0,0-.05,0a2.25,2.25,0,0,0-.38-.08l-.27-.05s0,0,0,0-.24-.07-.36-.08l-.24-.07h0c-.27-.06-.67-.13-1-.2h-.06a0,0,0,0,1,0,0c-.11,0-.23,0-.33-.06a.94.94,0,0,1-.16,0,.34.34,0,0,1-.18,0l-.58-.13h-.05l-.53-.13c-.48-.09-1-.21-1.49-.33l-.48-.1-.41-.1h-.07l-1.31-.34-.14-.06h-.19l-.14-.06a2,2,0,0,1-.33-.09,3,3,0,0,1-.33-.06l-.64-.18-.45-.11c-.11-.05-.22-.07-.32-.11-.61-.13-1.28-.35-1.9-.5l-.31-.13a1.7,1.7,0,0,0-.31-.06c-.1,0-.2-.09-.3-.12l-.32-.06s0,0,0,0-.1,0-.16,0-.08-.05-.14-.05l-.3-.07s0,0,0,0c-.23,0-.49-.16-.77-.22l-.08,0a.08.08,0,0,0-.07,0s0,0-.08,0,0,0,0,0a.5.5,0,0,0-.16,0s0,0,0,0l-.16-.06-.15-.05-.12,0s-.05,0-.07-.05-.07,0-.15,0a0,0,0,0,0,0,0,.47.47,0,0,0-.16,0,.13.13,0,0,1-.07,0l-.07,0s-.06,0-.08,0l-.07,0s-.07,0-.09,0l-.08,0-.18-.09-.23-.07h-.06l0,0-.07,0-.17-.1-.28-.09a1.76,1.76,0,0,1-.2-.09s-.05,0-.06,0a.08.08,0,0,0,0,0h0l-.07,0-.12,0s-.06,0-.06,0-.24-.1-.38-.16v0h-.07s0-.05,0-.05h0l-.09,0a.19.19,0,0,0-.1,0c-.08,0-.16,0-.23-.08s0,0,0,0h0l-.08,0-.09,0c-.06,0-.16-.05-.27-.11a0,0,0,0,0,0,0h0s0,0-.05,0a1.89,1.89,0,0,0-.31-.1s0,0-.06,0h0s0,0,0,0-.17-.05-.27-.1,0,0,0,0h0s0,0-.06-.06,0,0-.06,0a.26.26,0,0,1-.1,0,5.85,5.85,0,0,0-.56-.26l-.08,0a.22.22,0,0,1-.05-.06h-.14s0,0,0,0-.09,0-.15-.06,0,0,0,0a1.13,1.13,0,0,1-.24-.08s0,0-.05,0,0,0-.06,0-.08,0-.16-.07l-.06,0-.06-.06-.14,0s0-.06-.06-.06h-.05s-.11,0-.15-.06l-.06-.06s-.1,0-.16,0,0,0-.05,0-.11,0-.14-.07,0,0-.05-.05-.16,0-.24-.06,0-.07,0-.07h-.08a.69.69,0,0,1-.13-.05s0,0-.06-.06a.13.13,0,0,1-.07,0,.45.45,0,0,1-.13-.06l-.06,0-.06-.05a.52.52,0,0,1-.13-.06l-.05,0s-.06,0-.08-.06,0,0,0,0h-.07s-.05,0-.05-.07-.05,0-.08,0l0,0h0a.14.14,0,0,0-.09,0s0-.07-.06-.07-.13,0-.14-.06,0,0-.07,0,0,0-.06,0,0,0,0,0a.11.11,0,0,0-.09,0l-.05-.05s-.06,0-.07,0,0-.06-.06-.06l-.08,0,0-.06h-.07l-.06,0s0,0,0,0c-.33-.2-.67-.39-1-.62,0,0,0,0,0,0h-.09s-.07-.09-.11-.11-.07,0-.11-.08,0,0-.08-.06h-.06s-.06-.08-.11-.1-.08,0-.12-.08l-.06-.06-.18-.09a.57.57,0,0,0-.11-.12l-.12-.09s-.06,0-.09-.07a.8.8,0,0,1-.14-.09,1.2,1.2,0,0,1-.1-.11.42.42,0,0,1-.13-.07s-.07-.08-.1-.08-.06-.07-.1-.1-.1-.05-.14-.08l-.1-.09a1.34,1.34,0,0,0-.21-.2.53.53,0,0,0-.1-.12s0-.05,0-.05h-.07l-.19-.23-.4-.37a1.35,1.35,0,0,1-.2-.21s0-.07,0-.07a1.26,1.26,0,0,0-.17-.13,5.63,5.63,0,0,1-.36-.46A1.37,1.37,0,0,0,141,32c0-.05-.09-.06-.1-.12s0,0,0-.07h-.07s0-.08,0-.09a.13.13,0,0,0,0-.05l-.09-.13a1.42,1.42,0,0,0-.14-.23.91.91,0,0,1-.08-.13s-.05,0-.06-.06l-.08-.14a.17.17,0,0,0,0-.07s0,0,0,0v-.07s0-.09-.08-.14,0-.07,0-.08l-.07,0a.84.84,0,0,0-.05-.17s0,0,0,0V30.3l-.05,0s0,0,0-.06a.13.13,0,0,1,0-.08,1.08,1.08,0,0,1-.07-.18,1.72,1.72,0,0,1-.1-.26,1.5,1.5,0,0,1-.09-.35c0-.15,0-.26-.06-.41s0-.32-.08-.48,0-.09,0-.13Zm33.18-16.23a2.44,2.44,0,0,0-.46.07c-.22.05-.53.08-.7.13l-.1,0h0a1.94,1.94,0,0,1-.2.05c-.08,0-.12.06-.19.06s0,0,0,0l-.19.06a1.67,1.67,0,0,1-.24.06.56.56,0,0,1-.2.09s0,0,0,0l-.09,0a0,0,0,0,1,0,0,1.52,1.52,0,0,1-.17.09.71.71,0,0,1-.2.06s-.14.07-.17.11a1.82,1.82,0,0,0-.28.11l0,0s-.08,0-.1,0l0,0s-.07,0-.09.06l-.08,0s0,0,0,0-.09.06-.12.06-.05.06-.08.06,0,0,0,0a.42.42,0,0,1-.14.06s0,0,0,0-.06,0-.09,0,0,0,0,0,0,0-.06,0,0,.07-.05.07h0s0,.07,0,.07l0,0h0c-.06.06-.12.15-.19.16s0,0,0,0l-.17.14s-.06,0-.06,0-.07.11-.12.15h-.06s0,0,0,0a1.52,1.52,0,0,0-.22.18c-.28.25-.53.49-.79.76a5.17,5.17,0,0,0-.48.57,8.4,8.4,0,0,0-.87,1.21s0,.05-.05.05,0,0,0,0,0,.06,0,.11l-.05,0c0,.07,0,.12-.06.13s0,.05-.06.09,0,0,0,0-.08.1-.08.15h0a1.64,1.64,0,0,0-.18.35s0,0-.06.08,0,.07-.06.12,0,0,0,0,0,.08,0,.08,0,0,0,0,0,.06,0,.08,0,0,0,.06a.15.15,0,0,0,0,.09s0,0,0,0a.35.35,0,0,0,0,.11,2.12,2.12,0,0,1-.18.37v0a.83.83,0,0,1-.09.15.25.25,0,0,0,0,.09.41.41,0,0,1-.1.09c-.06,0-.1.08-.11.08s-.05,0-.08,0,0,0,0,0a1.1,1.1,0,0,1-.33,0,.63.63,0,0,1-.17-.15c0-.05,0-.09-.07-.12s0-.05,0-.06-.05,0-.05,0-.06-.13-.08-.14,0,0,0,0,0,0-.06-.06-.06-.12-.08-.14,0,0,0,0,0,0-.05-.06l0,0c0-.05-.06-.07-.08-.11a.61.61,0,0,0-.07-.1l-.06-.1s-.07-.07-.08-.1a1.35,1.35,0,0,0-.09-.11s0,0,0-.05,0-.09-.07-.12l-.2-.19a1,1,0,0,1-.19-.24,2.63,2.63,0,0,0-.34-.33c-.07-.06-.11-.12-.17-.17s-.11-.12-.15-.12-.06,0-.08,0a1.29,1.29,0,0,0-.16-.17l-.07,0s0-.07,0-.07-.08,0-.12-.08,0,0,0,0-.06,0-.08,0a.08.08,0,0,0,0-.06h-.08s0-.06,0-.06a.07.07,0,0,0-.06,0s0,0,0-.05a.12.12,0,0,0-.08,0s0-.05,0-.06h-.08a.44.44,0,0,0-.11-.1.16.16,0,0,1-.11-.08l-.06,0s0-.05,0-.07a4.23,4.23,0,0,1-.47-.25l-.52-.24s-.11,0-.12-.07,0,0,0,0a.14.14,0,0,1-.08-.06l-.1,0s0,0,0,0h-.07a2.33,2.33,0,0,0-.29-.09s0,0,0,0h-.15s0,0,0,0l-.07,0-.18-.05a1.25,1.25,0,0,0-.32,0s0,0,0,0h-.05l-.15,0a.11.11,0,0,0-.07,0,5.79,5.79,0,0,0-.82-.12,5.9,5.9,0,0,0-1,0,5.49,5.49,0,0,0-.61.12,1.46,1.46,0,0,0-.31,0s-.09,0-.13.05-.26,0-.31.11h0a.9.9,0,0,1-.24.07s0,0,0,0-.19,0-.23.07l-.08,0-.05,0s0,0,0,0,0,.06-.06.06,0,0,0,0l0,0a1.47,1.47,0,0,0-.47.2h0s-.05.06-.06.06l-.12.05-.19.06s0,.06-.05.06,0,0-.07,0-.11.07-.19.11h-.05a.12.12,0,0,1-.06.06l-.12.05s0,0,0,0h-.05s0,0,0,.05c-.17.11-.32.18-.47.28l-.41.31-.4.33c-.28.23-.54.44-.79.69,0,.07-.12.11-.17.19a1.42,1.42,0,0,1-.17.21l-.16.18c-.07.06-.13.14-.19.19s0,0,0,.05,0,0,0,.06,0,0,0,.05,0,0,0,.06,0,0,0,.05,0,0-.05,0a.74.74,0,0,0-.09.12s0,0,0,0a.1.1,0,0,0,0,.06s0,0,0,0,0,0,0,.06-.09.15-.14.22h0s0,.05,0,.05A.34.34,0,0,0,148,19s0,.09-.06.13,0,0,0,0,0,.06,0,.09,0,0,0,0a.06.06,0,0,0,0,.06s0,.08-.06.13h0a.08.08,0,0,1,0,.05s0,0,0,0a.81.81,0,0,0-.06.13s0,0,0,.09a.07.07,0,0,0,0,0,.33.33,0,0,0-.07.13c0,.05-.05.12-.07.13v.06l-.06,0v0s0,.08,0,.11-.13.37-.2.55a2.3,2.3,0,0,0-.16.37.27.27,0,0,1,0,.16s0,.05,0,.05-.06.15-.08.22a.32.32,0,0,0,0,.14,0,0,0,0,0,0,0,.12.12,0,0,0,0,.07.13.13,0,0,1,0,.06v0c0,.11,0,.15-.07.24s0,.19,0,.3,0,.14-.05.16,0,0,0,0,0,.1,0,.16,0,.07,0,.08a3.15,3.15,0,0,1,0,.52s0,0,0,0,0,.07,0,.11a16.07,16.07,0,0,0,0,2.41.43.43,0,0,1,0,.16c0,.38.07.7.12,1s0,.43.07.63c0,0,0,0,0,.07v.09s0,0,0,.05,0,.22,0,.26,0,.11,0,.16,0,.11,0,.16,0,.09,0,.16,0,.1,0,.13,0,0,0,.07a2,2,0,0,1,.08.38c.07.3.15.63.22.88s.13.51.18.69,0,0,0,0a.5.5,0,0,1,0,.17.75.75,0,0,1,.06.13c0,.05,0,.1,0,.16a.27.27,0,0,1,.06.12.22.22,0,0,0,0,.08s0,0,0,.05a.76.76,0,0,1,0,.16h0c0,.06,0,.06,0,.09V32s0,0,0,0a1.35,1.35,0,0,1,.08.24s0,0,0,0a.7.7,0,0,0,.06.25s0,0,0,0a1.11,1.11,0,0,1,.08.21,2,2,0,0,0,.12.28s0,.05,0,.05,0,.07.06.08l0,.06a.15.15,0,0,0,0,.06v.08s0,0,0,0l0,.1s0,0,0,0,0,0,0,0,0,0,.05.06a.41.41,0,0,0,0,.1s0,0,0,.06v0s.05,0,.05.07,0,.11,0,.14h0s0,0,0,0a.33.33,0,0,1,.06.06s0,.08.05.12a1.13,1.13,0,0,0,.06.14s0,.05,0,.05,0,0,.06,0a.69.69,0,0,1,0,.13.69.69,0,0,0,.07.13s0,0,0,0l.06.06s0,0,0,.07,0,0,0,.05a.53.53,0,0,0,.06.14h0v0a.15.15,0,0,0,0,.06l.14.23.08.12s.06.08.06.1v0s.06.05.06.06l.13.08a2.59,2.59,0,0,0,.71,0c1.43,0,2.68,0,4.14,0l.36,0c.18,0,.36,0,.38,0h.06a.19.19,0,0,0,.16-.14c.06-.18,0-.26-.1-.35l-.16-.18a.27.27,0,0,0-.08-.1.58.58,0,0,0-.13-.14s0,0,0-.06-.1-.08-.12-.11,0-.07,0-.08a.1.1,0,0,1-.06,0,.2.2,0,0,1,0-.07.06.06,0,0,0,0,0s0-.08,0-.08,0-.05-.09-.08a.1.1,0,0,1,0,0s0-.07-.06-.07,0,0,0,0a.17.17,0,0,1,0-.07s0,0-.06,0,0,0,0-.07-.06,0-.07-.09,0,0,0,0l0,0a0,0,0,0,1,0,0s-.06-.06-.06-.08,0,0,0,0,0-.08,0-.09a.23.23,0,0,1-.07-.09.07.07,0,0,1,0,0s0,0,0-.06a.11.11,0,0,0-.08-.1.11.11,0,0,0,0-.06s-.05,0-.06-.06a1.06,1.06,0,0,0-.16-.19s0,0,0,0,0,0,0,0,0-.11-.06-.15-.06,0-.07,0a.85.85,0,0,0-.06-.13h0s0-.06,0-.06,0,0-.05,0a.38.38,0,0,0-.05-.14h0s0,0,0,0,0,0,0,0a.15.15,0,0,1,0-.07h0s0,0,0-.05l-.06,0a7.75,7.75,0,0,1-.36-.7s0-.07,0-.07a.3.3,0,0,0-.08-.16l-.07-.13s0,0,0-.06,0,0,0,0v0s0,0,0,0,0-.1-.05-.13,0-.08,0-.14-.11-.16-.11-.21,0,0,0-.05,0,0,0-.07l0-.05s0-.07,0-.08-.06,0-.06-.05,0-.08,0-.11S152,30,152,30l0-.09s0,0,0-.06l0-.06s0,0,0-.06,0,0,0,0-.07-.14-.09-.2,0-.13-.05-.15l0-.08s0,0,0-.05,0-.07,0-.07a.65.65,0,0,1-.07-.21s0,0,0,0,0-.19-.08-.22l0-.09v-.06c0-.17-.1-.35-.14-.52s0-.14,0-.17v0c0-.09-.07-.35-.13-.4v-.06a0,0,0,0,0,0,0c0-.1,0-.16,0-.24s0-.23,0-.32a.07.07,0,0,0,0,0c0-.14,0-.29,0-.39s0-.07,0-.09a8.73,8.73,0,0,1-.09-1.27,8.32,8.32,0,0,1,0-1.32,6.45,6.45,0,0,1,.14-1.24,2.25,2.25,0,0,0,.05-.22l0,0c0-.11,0-.28.09-.3v-.05c0-.05,0-.06,0-.09v0a.57.57,0,0,0,.07-.21c0-.08,0-.14.07-.17a.49.49,0,0,0,0-.13s0,0,0,0a.91.91,0,0,1,.07-.23.69.69,0,0,1,0-.08c0-.06,0-.12.08-.16a.45.45,0,0,0,0-.08.16.16,0,0,0,0-.1s0,0,0-.05a.31.31,0,0,0,0-.09s0,0,0,0a2.15,2.15,0,0,1,.26-.48v0s0,0,0-.06,0,0,0,0,0,0,0-.05,0,0,0-.07,0,0,0,0,0-.07,0-.07h.06s0-.08,0-.08.07-.06.08-.09,0,0,0,0,0,0,0,0a.15.15,0,0,0,0-.08c0-.05.11-.07.11-.11s0,0,0,0a2.61,2.61,0,0,1,.22-.24.91.91,0,0,1,.17-.17c.05,0,.08-.11.1-.13s.06,0,.09,0a1.71,1.71,0,0,1,.11-.14c.08,0,.08-.08.14-.12a.31.31,0,0,1,.13-.05s0-.06,0-.06.06,0,.08,0a.06.06,0,0,1,.05,0l0-.06a2.56,2.56,0,0,1,.47-.22,2.64,2.64,0,0,1,.52-.17c.06,0,.24-.06.28-.09s.08,0,.09,0h0a2.44,2.44,0,0,1,.46-.07,6.3,6.3,0,0,1,1,0,.64.64,0,0,1,.32.05s0,0,0,0,.2,0,.23.09h.07s0,0,0,0a.39.39,0,0,1,.15,0c.18.05.33.16.47.18s0,0,0,0a1.4,1.4,0,0,0,.27.11,1.16,1.16,0,0,0,.2.13c.05,0,.07.09.13.09s0,0,0,0,0,0,.06,0l.09.06s.1,0,.14.06,0,0,0,.07h.07s0,.08.07.1a.64.64,0,0,0,.11.06c.05,0,.08.09.12.09s0,0,0,0a1.74,1.74,0,0,0,.15.13,2.27,2.27,0,0,1,.37.42l.07,0s.08.12.11.14,0,0,0,0l.08.1s.08.09.08.12.07,0,.07.1.1.1.1.12.08.08.08.14,0,0,0,0a.58.58,0,0,1,0,.13l0,0s0,.06,0,.09,0,0,0,0,.06,0,.06.05a.25.25,0,0,1,0,.07s0,0,0,0,0,.12.06.16.06,0,.06,0,0,.05,0,.06a.75.75,0,0,0,.08.14v0h0s0,0,0,.07h0s0,0,0,0,.07,0,.07.05,0,.09.06.13.05.1.05.13,0,0,0,.06,0,0,0,0,0,0,0,0h0s0,0,0,.06l.07.08v.07s0,0,0,0l0,.09s0,0,0,0,0,.05,0,.05h0s0,0,0,0a10.65,10.65,0,0,1,.6,2c0,.18.08.39.13.58a4.24,4.24,0,0,1,.13.9c0,.14,0,.31.07.44s0,.33,0,.5c0,.34,0,1.15.13,1.29a.47.47,0,0,0,.24,0,8.33,8.33,0,0,0,1,0c.35,0,1,.14,1.17,0s.08-.33.09-.6.08-.63.12-.91c0-.11,0-.23.06-.31s0-.1,0-.13a.65.65,0,0,1,0-.14c0-.1,0-.24,0-.35s0,0,0,0,0-.21.06-.25V25a.39.39,0,0,1,0-.15.22.22,0,0,1,0-.09c.05-.26.11-.59.15-.82,0,0,0,0,0,0s0-.29.08-.3v-.06c0-.07,0-.14,0-.21A11.44,11.44,0,0,1,166,22s0-.08.05-.1v-.08l.06-.06a.11.11,0,0,1,0-.06l0-.05c0-.08,0-.15,0-.15s0,0,0,0h.05v-.06c.06-.13.09-.25.15-.38a1.42,1.42,0,0,1,.17-.37s0-.05,0-.05.06,0,.07,0,0-.07,0-.08.07-.13.08-.16l.08-.13s0,0,0-.05,0,0,0,0a.92.92,0,0,0,0-.09s0,0,0,0,0-.09.06-.13h0s0,0,0,0a.09.09,0,0,1,0-.07.46.46,0,0,1,0-.13s0,0,.06,0l0-.08a.19.19,0,0,1,.08-.1s0,0,0,0,0,0,.06-.06,0,0,0,0a0,0,0,0,1,.05-.05,1.34,1.34,0,0,0,.13-.23h0s0,0,0,0l.08-.05a.47.47,0,0,1,.12-.15v-.05s0,0,0,0,0-.06,0-.08.11-.06.11-.1.05-.06.08-.1,0-.06,0-.1.12-.05.12-.1.08-.09.09-.13a.06.06,0,0,1,.06,0c.09-.11.24-.23.35-.34s.13-.17.19-.17,0,0,0,0l.15-.12a.73.73,0,0,1,.09-.09.85.85,0,0,0,.14-.09s0-.05.06-.05,0,0,0,0l.06-.07.09,0s0,0,0,0,0,0,.07-.05h0s0,0,.06,0l0-.08h0s0-.05.07-.06.05,0,.09,0,.08,0,.12-.06,0,0,.05,0a.1.1,0,0,1,.07,0,.58.58,0,0,0,.12-.08h.06v0s0,0,0,0l.14-.07s.05,0,.05,0a.18.18,0,0,0,0-.06h.07s0-.06.06-.06a.3.3,0,0,1,.13,0,1.8,1.8,0,0,1,.28-.09s0-.05,0-.05.29,0,.34-.1.06,0,.07,0l.22,0,.29-.06a1.5,1.5,0,0,0,.29,0,3.61,3.61,0,0,1,.69,0c.27,0,.57,0,.71,0h.08c.22,0,.48.09.65.11a.3.3,0,0,1,.09,0c.12,0,.31,0,.35.06h0a2.72,2.72,0,0,0,.25.11,0,0,0,0,1,0,0c.06,0,.11,0,.17,0v0h0c.07,0,.15.08.2.08a.07.07,0,0,1,.07.06l.13,0s.06.06.09.09h0s.11.05.11.07,0,0,0,0,0,0,0,0h.05s0,0,0,0,.08,0,.08,0l.22.14s0,.05.07.06.3.28.46.39a1.45,1.45,0,0,0,.18.17s0,.08,0,.09a.5.5,0,0,0,.12.08.36.36,0,0,0,0,.11c.05.06.18.13.18.18s.06.05.07.09a.66.66,0,0,1,.14.18c0,.06.07.09.07.14s0,0,0,0,0,0,0,.08,0,0,.08.09,0,.09,0,.11.06.06.07.08v0s.06.09.07.1,0,0,0,0h0s0,.05,0,.05h0s0,0,0,0a.08.08,0,0,0,.05.06.4.4,0,0,1,.06.13s0,0,0,0,0,.05.06.07,0,.05,0,.08,0,0,0,0,0,.05,0,.08.05,0,.06,0v0s0,0,0,0a.26.26,0,0,1,.05.14l.05.17a2.34,2.34,0,0,1,.13.4,3.4,3.4,0,0,1,.16.51,4.15,4.15,0,0,1,.1.56,3.78,3.78,0,0,1,.1.57c0,.21,0,.42.06.64s0,.43,0,.63a8.84,8.84,0,0,1,0,1.28c0,.21,0,.43-.06.64a18.5,18.5,0,0,1-.43,2.26c-.11.35-.2.69-.31,1,0,.05,0,.09,0,.14a3.45,3.45,0,0,0-.14.34h0c-.07.17-.12.36-.17.52a1.8,1.8,0,0,0-.08.21s-.06.06-.06.1a0,0,0,0,1,0,0,.21.21,0,0,0,0,.08l-.05,0a.31.31,0,0,1,0,.07s0,0,0,0,0,0,0,.08,0,0-.06,0,0,.08,0,.08,0,0,0,0,0,.07,0,.09l0,0v0s-.1.2-.1.25-.11.16-.11.22,0,0,0,0-.07.17-.09.17,0,.07,0,.07,0,0,0,.05v0a.27.27,0,0,1-.09.12s0,0,0,0h0s0,0,0,.05h0v.05s0,0,0,.06a.41.41,0,0,0,0,.07s0,0,0,0,0,.11-.07.13v.05h0s0,0,0,.05h0s0,0,0,0,0,0,0,.06,0,.07-.07.1-.08.09-.08.13,0,0,0,0a.18.18,0,0,0-.06.1s-.07.07-.07.11,0,.06,0,.09-.08.07-.08.14h0a1,1,0,0,1,0,.13s-.06,0-.06.05,0,0,0,0,0,.07-.06.11,0,0,0,0l0,.08s0,0,0,0a.39.39,0,0,1,0,.09s-.07,0-.08.06l0,.06,0,0c-.06.08-.08.16-.12.22h0s0,0,0,.06-.05,0-.05,0,0,0,0,0-.06.1-.09.18,0,0,0,0,0,0,0,.06a2.31,2.31,0,0,0-.14.19.27.27,0,0,1-.07.08.16.16,0,0,0,0,.06s-.06,0-.08.12a1.84,1.84,0,0,1-.14.14l-.08.12s0,0,0,.07,0,.06-.06.09-.1.07-.1.09-.09.1-.11.12,0,0,0,.08a.16.16,0,0,0-.07.07l-.09.1a5.63,5.63,0,0,1-.4.43,1.61,1.61,0,0,1-.24.29c-.09.11-.22.21-.34.35l0,0s0,0,0,0l-.12.08c-.12.13-.29.3-.39.43s-.06,0-.06,0,0,.07,0,.07a.58.58,0,0,1-.1.09s-.06.06-.08.06a2.45,2.45,0,0,0-.36.36.61.61,0,0,0-.16.16s-.06,0-.1.05,0,.09-.08.11-.07,0-.1,0-.06.09-.09.1-.07,0-.09,0a.62.62,0,0,1-.08.12s-.07,0-.1,0-.07.1-.11.1-.14.15-.17.15l0,0c-.07.07-.11.09-.15.14l-.13.09s-.07.08-.11.11h0s0,0,0,0-.06,0-.08,0,0,0-.07.09l-.12.06a.15.15,0,0,1-.1.08c-.06,0-.06.08-.09.08s-.06.06-.08.07h0s0,0-.05.07l-.14.1s0,0-.06,0-.05,0-.09,0a.08.08,0,0,1,0,.06s-.06,0-.08,0,0,0,0,.06-.06,0-.07,0,0,0,0,0-.07,0-.07,0-.09.08-.11.08,0,0,0,0-.06,0-.08,0,0,0-.07.07l-.07,0s-.09.08-.12.08-.05,0-.07.06-.05,0-.07,0,0,0,0,0-.08,0-.11.06l-.05,0c-.13.1-.28.19-.42.28s-.17.1-.19.16H168l-.05,0s-.1,0-.12,0a.26.26,0,0,1,0,.05l-.09,0s-.08.07-.09.08-.05,0-.06,0,0,0,0,0,0,0,0,0,0,.05,0,.05-.07,0-.09,0l-.1.08h-.05s0,0,0,0l-.11,0a.31.31,0,0,1-.17.1c-.05,0,0,0,0,0a.29.29,0,0,1-.14.08s0,0,0,0a.15.15,0,0,1,0,.08.42.42,0,0,0-.12,0l-.22.16s0,.09,0,.09,0,0,0,0,0,.11,0,.15,0,.06,0,.11.07,0,.11.09h0c.08,0,.14.08.19.1a.67.67,0,0,1,.39.12h0l.32.08a1,1,0,0,1,.27.12h.06l.15,0,.16.05.13,0s.08,0,.12,0a.29.29,0,0,1,.13,0c.07,0,.11,0,.12.05l.09,0,.05,0h.06a2.16,2.16,0,0,1,.2.09l.1,0c.06,0,.15,0,.16.06s0,0,0,0a.85.85,0,0,0,.17,0l.14.06c.06,0,.08,0,.14.06l1.28.37a1.45,1.45,0,0,1,.25.11h.06a.33.33,0,0,1,.15.07l.16,0a.18.18,0,0,0,.09,0,.3.3,0,0,1,.15,0,2,2,0,0,0,.4.12c.28.1.65.21,1,.31l.78.24c.14,0,.27.09.33.06h0a.49.49,0,0,0,.13-.1s0,0,0,0,.07-.08.11-.11l.1-.1s.09,0,.13-.08l.2-.19a.5.5,0,0,1,.14-.08.62.62,0,0,1,.09-.12s.07-.06.1-.09a.57.57,0,0,0,.13-.08.23.23,0,0,0,.07-.13l.11-.1s0,0,.06,0,0-.05,0-.05h0s0,0,0,0a2.39,2.39,0,0,0,.23-.22c.28-.27.55-.56.79-.82a.19.19,0,0,1,.11-.11s0-.1.07-.13l.22-.21s.06-.06.09-.11.06-.09.09-.11a.45.45,0,0,1,.09-.1,1.53,1.53,0,0,0,.11-.16.18.18,0,0,0,.09-.08s0-.09.1-.14.06,0,.09-.1a1,1,0,0,1,.09-.13c.1-.15.24-.3.35-.46.25-.33.46-.65.69-1,.11-.17.23-.32.33-.49,0,0,0-.08.08-.11s0,0,.05-.07a1.46,1.46,0,0,1,.09-.13s0-.1,0-.13.05,0,.05,0,0,0,0,0l0-.07,0-.06s0,0,0-.07,0,0,.06,0a.09.09,0,0,1,0-.08s0,0,0-.05,0-.07,0-.08l0,0s0-.05,0-.09l.07,0a.11.11,0,0,1,0-.08s0,0,0,0,.11-.2.15-.29a.1.1,0,0,1,.06,0c0-.07,0-.1.05-.16s0,0,0-.06,0-.11.05-.15a.08.08,0,0,0,0-.06s0,0,0-.06,0,0,0,0,0-.1.06-.17l0,0a1.42,1.42,0,0,1,.05-.16l0,0a.49.49,0,0,0,.05-.19H181c0-.06,0-.07,0-.09s0-.05,0-.06a1.25,1.25,0,0,0,.06-.18s0,0,0,0v0s0,0,0,0a.66.66,0,0,0,.05-.15l.05,0a.12.12,0,0,0,0-.09.6.6,0,0,0,0-.16l.05,0a.37.37,0,0,1,0-.11l.05,0s0,0,0-.06,0,0,0,0a.47.47,0,0,1,0-.17l.06,0a.22.22,0,0,1,0-.08,1,1,0,0,1,.05-.16s.05,0,.05-.05a.11.11,0,0,0,0-.07s.06-.07.06-.09a.38.38,0,0,1,0-.1s0,0,0,0,0-.05.05-.06,0,0,0,0,0,0,0,0a.61.61,0,0,1,0-.11l.07-.07s0,0,0-.06,0,0,0-.06v-.06s0,0,0,0,.09-.31.14-.4a.33.33,0,0,0,0-.15,1,1,0,0,0,.1-.17.55.55,0,0,1,.08-.2v-.09s.05,0,.05-.08a.22.22,0,0,1,0-.06c0-.05,0-.07,0-.08a.39.39,0,0,1,0-.09s0-.06,0-.08a.19.19,0,0,1,0-.08.64.64,0,0,0,.05-.21l.06,0V32a.64.64,0,0,1,.05-.15c0-.08,0-.13,0-.17l0,0a3.38,3.38,0,0,1,.08-.34c0-.1.08-.3.1-.37a.92.92,0,0,1,.06-.24s0,0,0,0a8.13,8.13,0,0,0,.22-1c.07-.31.12-.69.18-.93,0,0,0,0,0-.06a.44.44,0,0,0,0-.19,3.74,3.74,0,0,0,.08-.63,10.82,10.82,0,0,0,.07-1.17,1.48,1.48,0,0,0,0-.19,3.38,3.38,0,0,0,0-.78,5.8,5.8,0,0,1,0-.59c0-.62-.05-1.28-.1-1.78v-.13s0,0,0-.06,0-.25,0-.32,0-.3-.06-.43,0,0,0-.07a.4.4,0,0,1,0-.11c-.05-.31-.12-.58-.19-.85-.1-.47-.19-.93-.32-1.35l0,0c0-.09,0-.2,0-.26a.68.68,0,0,0-.08-.22c0-.05,0-.06,0-.09a.13.13,0,0,0,0-.08s0,0,0,0,0-.05,0-.07,0,0,0,0-.06-.11-.07-.15a1.31,1.31,0,0,0-.05-.15.69.69,0,0,0-.05-.13c0-.07-.07-.15-.08-.19a.11.11,0,0,1,0-.06s0-.06-.05-.1,0,0,0,0,0,0,0-.06a.37.37,0,0,1,0-.14s0,0,0,0,0,0,0-.05-.06,0-.07,0a.42.42,0,0,0,0-.16s0-.05,0-.06a.37.37,0,0,1-.05-.16.07.07,0,0,0,0,0s0,0,0,0a.66.66,0,0,1,0-.15s-.05,0-.06-.06,0-.11-.06-.14,0,0-.05,0a.42.42,0,0,0,0-.16s0,0-.06-.07,0-.05,0-.06,0,0-.05-.05,0-.07,0-.09c-.14-.22-.25-.46-.39-.66,0,0,0,0-.05-.06a.11.11,0,0,0,0-.07s-.08-.06-.1-.1l-.09-.12c0-.05,0-.09-.07-.14s0,0,0-.05,0-.06,0-.07a.35.35,0,0,0-.1-.11l0-.06s0-.05,0-.07a1.2,1.2,0,0,1-.1-.11.45.45,0,0,0-.1-.09.57.57,0,0,0-.08-.13s-.08-.07-.1-.11-.05,0-.05,0,0-.05,0-.07-.07,0-.09-.07a.11.11,0,0,1,0-.06s-.11,0-.14-.07-.08-.07-.09-.1a5.56,5.56,0,0,1-.42-.43,2.31,2.31,0,0,1-.24-.2l-.09-.11a.27.27,0,0,1-.14-.08s-.06-.07-.1-.09-.05-.07-.1-.1l-.14-.08s-.06-.09-.09-.09l-.13-.1s0,0,0-.06h-.1s-.05,0-.06,0a.6.6,0,0,1-.14-.07l-.11-.08-.14-.07a.7.7,0,0,0-.14-.08s0-.06,0-.06l-.16,0s0-.05-.05-.05-.11,0-.16,0,0-.05-.05-.05-.09,0-.14-.07h-.09l-.05-.06a.07.07,0,0,1-.07,0c-.06,0-.06-.05-.1-.06a0,0,0,0,1,0,0,2.93,2.93,0,0,1-.39-.14l-.36-.12-.08,0-.08,0c-.05,0-.07,0-.08,0s-.06,0-.08,0h0a1.87,1.87,0,0,1-.28-.07h-.06a.75.75,0,0,0-.26-.05c-.14,0-.23-.06-.35-.08a6.29,6.29,0,0,0-.77-.07,4.37,4.37,0,0,0-.82,0v0Zm38.47.24v8a2.33,2.33,0,0,1,0,.53h-4.81v2h4.83V37.61h4.57c0-5-.06-10.16,0-15.13,0-.09,0-.21,0-.23h4.74v-2h-4.77V11.74a1.94,1.94,0,0,0-.54,0h-4S211.14,11.76,211.14,11.78Zm43.37,8.55h-.11a8.22,8.22,0,0,0-.89-.05,4.8,4.8,0,0,0-.93,0s0,0-.06,0a6.19,6.19,0,0,0-1,.05h-.1c-.1.05-.34,0-.38.08h-.15a2.27,2.27,0,0,0-.52.09l-.32.07a1.21,1.21,0,0,0-.32.1s-.09,0-.09,0a1.38,1.38,0,0,0-.23.09v0s0,0,0,0-.2.06-.3.09l-.17.09s0,0,0,0-.06,0-.07,0,0,.07-.05.07,0,0-.1,0-.06.05-.1.05-.07,0-.11,0-.07.05-.09.06-.08.05-.11.07a.5.5,0,0,0-.21.09l0,.06s-.06,0-.06,0l0,0s0,0-.07,0v.06h-.06a.12.12,0,0,0-.05.07,1.08,1.08,0,0,0-.24.14.5.5,0,0,1-.14.1h-.08s0,.08,0,.09-.08.07-.12.11a1.79,1.79,0,0,0-.14.13l-.26.19c-.25.26-.43.56-.69.78,0,0,0,.06,0,0V20.57h-4.26V37.66h4.26V28.44a3.62,3.62,0,0,1,0-.71,2.61,2.61,0,0,0,0-.28s0,0,0,0c0-.16,0-.29,0-.36s.06-.24.09-.35a1.24,1.24,0,0,1,.13-.47.79.79,0,0,0,.08-.16c.06-.12.1-.23.14-.33s0-.05,0-.07.05,0,.05-.07,0-.08,0-.09.07,0,.07-.08,0,0,0,0l.1-.15s0,0,0,0,0,0,.05,0,0,0,0-.05a.21.21,0,0,1,.08-.06.61.61,0,0,1,.11-.16s0,0,0,0,.06,0,.08-.08.16-.15.24-.23a4.28,4.28,0,0,1,.32-.37h0s.05,0,.07,0,0-.06.07-.07a.3.3,0,0,1,.1-.07L248,24c.1-.07.23-.18.3-.22l.06-.06h.1v0h.06v0h0s.05-.05.09-.07h0a0,0,0,0,0,0,0l.1,0s0,0,0,0l.09,0c.05,0,.07-.05.1-.05s0,0,0,0a.86.86,0,0,1,.21-.07.56.56,0,0,1,.19-.07c.05,0,.09-.06.12-.06h0s0,0,0,0h.09a2.13,2.13,0,0,1,.37-.14.49.49,0,0,1,.2,0,0,0,0,0,0,0,0c.07,0,.16,0,.23,0s0,0,0,0,.09,0,.11,0v0a.33.33,0,0,0,.1,0,4.67,4.67,0,0,0,.6-.06h.4c.17,0,.31.06.47.06a4.32,4.32,0,0,1,.47.06l.43.11a4,4,0,0,1,.42.1l.1,0s0,0,0,0a.38.38,0,0,0,.18,0v0s.05,0,.05,0l.51.22c0-.05,0-.08,0-.12l.09-.07s0,0,0-.07h0a.46.46,0,0,1,0-.09h0c.06-.1.11-.21.16-.28h0s0-.05,0-.08,0,0,0,0v0l.06,0s0-.06,0-.07l.08-.08s0-.08,0-.09.05,0,.05-.06,0,0,0,0a2.12,2.12,0,0,1,.17-.27V22h0v0s0,0,0,0,0,0,0,0l.08-.08s0-.07,0-.09,0,0,0,0,0-.08,0-.1.07,0,.07-.06,0,0,0,0,.08-.17.14-.21,0-.06,0-.06.05,0,.05,0,0,0,0,0,.07-.06.07-.08,0-.08,0-.1,0-.06.06-.09,0,0,0,0,.06,0,.06,0l0-.06s0,0,0,0,.1-.16.13-.2Zm21.23,10.4c0-.91,0-1.73,0-2.5,0-.22-.07-.48-.1-.67,0,0,0,0,0-.11,0-.23-.09-.47-.13-.7a2.86,2.86,0,0,1-.06-.35s0,0,0,0,0-.07,0-.12a4,4,0,0,0-.16-.49c0-.07-.07-.14-.07-.19s0,0,0-.06,0,0,0,0,0,0,0,0a.69.69,0,0,0-.05-.17l-.07-.18s0,0,0,0,0-.12,0-.15,0,0,0,0a1,1,0,0,1,0-.13.09.09,0,0,1-.05,0,.82.82,0,0,0-.06-.16s0-.05,0-.05,0-.05,0-.09,0,0,0,0,0,0-.05-.07,0,0,0,0,0,0-.06-.06,0,0,0-.07a.93.93,0,0,1-.1-.1.83.83,0,0,0-.07-.13l-.12-.13c0-.06,0-.08-.07-.12a.52.52,0,0,0-.1-.11.28.28,0,0,0-.1-.09.28.28,0,0,1,0-.08c-.06-.08-.14-.09-.18-.18s0,0,0-.06-.06,0-.08,0a1.17,1.17,0,0,0-.21-.23,1.74,1.74,0,0,0-.22-.18c-.09-.08-.15-.15-.23-.23a5.62,5.62,0,0,0-.65-.43l-.05,0s-.06,0-.08,0l0,0s-.07,0-.08,0,0-.06-.05-.06-.08,0-.11,0l-.06,0a.1.1,0,0,0-.06,0,1.19,1.19,0,0,1-.16-.08s-.12,0-.16-.05,0-.06-.06-.06,0,0,0,0,0,0,0,0,0,0,0,0,0,0,0,0l-.24-.08-.16-.07s-.07,0-.09,0h0c-.05,0,0,0-.05,0s-.19,0-.29-.09-.08-.06-.12-.06,0,0,0,0a7.1,7.1,0,0,0-.85-.22l-.79-.18s0,0,0,0a1.09,1.09,0,0,1-.25,0l-.4-.06c-.51,0-1.05-.09-1.61-.09-.28,0-.59,0-.85,0,0,0,0,0-.1,0-.28,0-.55,0-.8,0s-.64,0-.83.06c0,0,0,0-.05,0l-.18,0c-.18,0-.34,0-.48.05a5.38,5.38,0,0,1-.67.14,0,0,0,0,0,0,0,.3.3,0,0,0-.19,0,1.22,1.22,0,0,0-.21,0s0,0-.05,0c-.31.1-.61.19-.89.3a2.26,2.26,0,0,0-.31.1l-.09,0,0,0s-.05,0-.05,0a0,0,0,0,0,0,0c-.05,0-.07,0-.1,0a.15.15,0,0,0-.05.06.11.11,0,0,0-.08,0,.65.65,0,0,1-.16,0s0,.06,0,.06-.06,0-.07,0a.36.36,0,0,0-.12.05c-.05,0,0,0-.05,0l-.15,0-.06.06s0,0-.07,0a.14.14,0,0,1,0,.05l-.08,0s0,.05-.06.06,0,0-.06,0,0,0,0,0a.06.06,0,0,1-.06,0c-.06,0-.1,0-.13.08l-.15.07a.19.19,0,0,1-.11.08.2.2,0,0,1-.08,0,1.2,1.2,0,0,0-.11.12h-.06l-.06.06c-.05,0-.07.09-.1.1s-.06,0-.08,0,0,.07,0,.08a.55.55,0,0,0-.14.09s-.06.07-.1.09-.17.13-.24.2-.12.16-.19.22l-.16.15s0,0-.06,0,0,.05,0,.05h0s0,0,0,.06a.77.77,0,0,0-.16.15c-.06.07-.11.17-.18.24a6,6,0,0,1-.36.5l-.08.14a.07.07,0,0,1,0,.07s0,0,0,0,0,.07,0,.09l-.05,0s0,.06,0,.07,0,0,0,.07,0,0,0,0,0,.05,0,.08,0,0-.05,0a.12.12,0,0,0,0,.08.12.12,0,0,0-.05.1.37.37,0,0,0-.05.11,1.86,1.86,0,0,0-.1.2,0,0,0,0,1,0,0,.62.62,0,0,1-.08.24c0,.09-.1.21-.12.3l-.07.29a.91.91,0,0,1-.09.22.21.21,0,0,1,0,.08.3.3,0,0,0,0,.11l0,.12c0,.11-.09.29-.11.38s0,.16,0,.25,0,.14,0,.24a7.79,7.79,0,0,0-.09,1.2c0,.54,0,1.07,0,1.66v6.83H260v-5c0-1.35-.05-2.78,0-4.07a2.83,2.83,0,0,1,0-.29c0-.22,0-.44,0-.64,0,0,0-.05,0-.06V27.4a.59.59,0,0,1,.05-.27v-.07c0-.12,0-.22.05-.35a2,2,0,0,0,0-.25.38.38,0,0,0,0-.1.6.6,0,0,0,0-.12.3.3,0,0,0,0-.16,2.31,2.31,0,0,1,.16-.47c0-.08.05-.15.06-.19a.52.52,0,0,1,.06-.15c.05-.05.05-.14.07-.17a.22.22,0,0,0,.06-.1.53.53,0,0,1,.07-.15.18.18,0,0,0,0-.08.24.24,0,0,0,.06-.11s0,0,0-.07,0,0,.05,0,0-.08,0-.1a.94.94,0,0,1,.1-.1v0s.06-.06.1-.08v-.06l.1-.07s0-.05,0-.05.13-.07.1-.12a1.18,1.18,0,0,0,.32-.27l.15-.12s.05,0,.07,0l.1-.07s0,0,0,0,0-.05.07-.05,0,0,0,0a1.56,1.56,0,0,0,.19-.14h0s0,0,0,0,0,0,0,0v0h.06s.07-.06.1-.06,0,0,0,0a.61.61,0,0,1,.13-.06l.13,0s0,0,0,0l.18-.05s0,0,0,0l.24-.06c.05,0,.12-.06.2-.09l.48-.09a6,6,0,0,1,.63-.08.31.31,0,0,0,.12,0H265l0,0c.47,0,1,0,1.39,0,.12,0,.28,0,.32,0s.06,0,.08,0a.47.47,0,0,1,.17,0,.27.27,0,0,1,.09,0h.24a1.49,1.49,0,0,1,.25.07c.2,0,.37.08.57.14a3.16,3.16,0,0,1,.46.18s.05,0,.05.06a.56.56,0,0,0,.15,0c.05,0,.06.06.07.06a.33.33,0,0,0,.15,0s0,.07.05.07l.13.07.12.12s.06,0,.12.07a3,3,0,0,1,.4.4l.11.11a.57.57,0,0,1,.08.13,0,0,0,0,0,0,0,.41.41,0,0,1,0,.08c0,.06.08.07.11.09s0,.11.07.15.09.2.12.29a2.1,2.1,0,0,1,.15.3s0,0,0,0a.2.2,0,0,1,0,.08v.07a.82.82,0,0,1,.06.19.14.14,0,0,0,.05.07s0,.08,0,.08a1.08,1.08,0,0,1,.05.19,1.4,1.4,0,0,1,.08.33.91.91,0,0,1,0,.33,0,0,0,0,1,0,0c0,.13,0,.21,0,.35s0,0,0,.1,0,0,0,.08A14.24,14.24,0,0,1,271,28.9v8.68h4.71ZM239.53,28a0,0,0,0,0,0,0,.93.93,0,0,0,0-.24,4.72,4.72,0,0,0-.22-.93v0s0,0,0,0a.61.61,0,0,0,0-.13,1.83,1.83,0,0,0-.08-.27.5.5,0,0,0,0-.13c0-.05-.06-.07-.06-.1s0,0,0,0a.46.46,0,0,0,0-.14s0-.07,0-.11a2.17,2.17,0,0,1-.11-.23.87.87,0,0,1-.07-.17s0,0-.05-.05,0,0,0,0h0s0-.07,0-.07,0,0-.08,0,0,0,0-.06,0-.05-.07-.07v-.12h-.06s0-.07,0-.1,0,0,0,0a.52.52,0,0,1,0-.11s0,0-.06,0,0,0,0,0-.06-.06-.09-.09v-.05c0-.05-.08-.09-.1-.12v0s0,0,0,0a.11.11,0,0,1-.05-.1c-.05,0-.17-.12-.17-.17s-.07-.07-.1-.11,0,0,0-.05a.08.08,0,0,1-.06,0s0-.07,0-.09-.11-.08-.18-.14a4.74,4.74,0,0,1-.49-.52h-.05c0-.06-.09-.1-.12-.14s-.07,0-.08-.05a.36.36,0,0,1-.09-.08s0,0,0,0l0-.06s0,0,0,0h-.06s0-.08-.07-.08l-.08,0a.44.44,0,0,1-.13-.15h-.07s0,0,0,0a.09.09,0,0,1-.07-.06c-.22-.15-.5-.3-.71-.43l-.25-.13s0,0,0,0l-.15,0s-.05,0-.07,0,0,0,0,0a.8.8,0,0,0-.21-.08,2.33,2.33,0,0,0-.39-.19l-.15-.06h0a1.72,1.72,0,0,0-.21-.07s0,0,0,0a.53.53,0,0,0-.17,0s0,0,0,0a.56.56,0,0,0-.18-.05,8.4,8.4,0,0,0-.87-.23,2,2,0,0,0-.44-.11c-.16,0-.41,0-.54-.09s-.13,0-.14,0a.07.07,0,0,1,0,0,1.14,1.14,0,0,1-.25,0c-.37,0-.72,0-1.06-.06a4.61,4.61,0,0,0-.52,0l-.08,0c-.22,0-.43,0-.63,0l-.59.05a10.31,10.31,0,0,0-1.11.2l-.51.12-.12,0v0h-.09s0,0,0,0h-.12a.86.86,0,0,0-.17,0v0s0,0,0,0v0H226l-.24.07v0h-.06a1.06,1.06,0,0,1-.26.1.52.52,0,0,0-.15.06,2.22,2.22,0,0,0-.6.29l-.14.06h0s0,0,0,.06a.43.43,0,0,0-.13.05c-.05,0-.13.05-.13.08s0,0-.06,0l0,0s-.09,0-.13.06h0s-.05,0-.05,0l0,.07-.06,0a.12.12,0,0,1-.07,0s-.09.07-.1.08h-.05a.11.11,0,0,0-.05,0l-.24.14v0h-.05s-.05.09-.08.1-.06,0-.08,0,0,0,0,.06,0,0-.08,0a.14.14,0,0,0,0,0s-.07,0-.09.05,0,.09-.1.09-.06.09-.1.09-.11.09-.13.1,0,0,0,0l-.43.39s0,0-.05.08,0,0-.06,0,0,.05,0,.08h0a.28.28,0,0,0-.15.13.11.11,0,0,0,0,.08c-.05.06-.13.06-.13.09s0,0,0,0a1.53,1.53,0,0,1-.26.34.44.44,0,0,1-.12.12s0,.05,0,.05-.06,0-.07.06,0,0,0,.06h-.05v.07H221s0,0,0,.07-.05,0-.05,0,0,.07,0,.1h-.05V25s0,0-.06.05,0,.05,0,.07a1.28,1.28,0,0,0-.12.21s-.05,0-.05.09,0,0,0,0,0,.06,0,.09l-.05,0a.6.6,0,0,1-.06.19.65.65,0,0,0-.1.21l0,.05a.33.33,0,0,1-.08.17s0,0,0,.06a.17.17,0,0,0-.05.12v0h0c0,.06,0,.1-.05.13a1.32,1.32,0,0,0,0,.18s0,0,0,0a1.39,1.39,0,0,1,0,.23.85.85,0,0,1-.09.22,1.79,1.79,0,0,0,0,.34s0,0,0,0v.12h0c0,.08,0,.18,0,.27s-.05.16-.05.24a4.34,4.34,0,0,0,0,.51,4.18,4.18,0,0,0,0,.5.65.65,0,0,0,0,.11c0,.14,0,.25,0,.37s0,.3,0,.47a.53.53,0,0,1,0,.18.56.56,0,0,1,0,.15s0,0,0,.05a.53.53,0,0,1,0,.19,1.24,1.24,0,0,1,.09.33s0,0,0,0a1.05,1.05,0,0,0,0,.12s0,.06,0,.11,0,0,0,0a1.2,1.2,0,0,0,.1.22.62.62,0,0,1,0,.12c0,.06.06.16.08.21a.13.13,0,0,0,0,.1,3.48,3.48,0,0,0,.31.61.55.55,0,0,1,.1.22,0,0,0,0,0,0,0s0,0,0,.09,0,0,0,.07,0,0,0,0l.06.1.07.07c0,.05,0,.08.05.1l.08.08v0s0,0,0,0a.61.61,0,0,1,.07.1s0,0,0,.06h.06s0,0,0,.09l.08.06a.56.56,0,0,0,.13.16s0,0,0,0a.17.17,0,0,0,.09.08c.05,0,.1.13.16.18l.06.08s.05.09.08.1.21.21.32.33l.17.14a.87.87,0,0,1,.17.16c.06,0,.11.13.15.15l.2.12s.06.06.09.07a.07.07,0,0,1,0,.06h.05s.05.06.08.08,0,0,.05,0a.1.1,0,0,1,.05.06l.18.12s.09.07.11.07.06.06.1.06,0,0,0,0,.15.06.2.14h.06v0h0l0,0a.77.77,0,0,1,.18.1s0,0,0,0a.1.1,0,0,0,.08,0v.06s0,0,0,0,0,0,0,0h.06s0,0,.05,0,0,0,0,0,.07.07.11.07,0,0,0,0,.14,0,.18,0,0,0,0,0,.05,0,.06,0l.06.06c.07,0,.2,0,.23.1a.06.06,0,0,1,.06,0c.05,0,.15.06.16.1s0,0,.05,0a.25.25,0,0,0,.14,0s0,0,0,0a.19.19,0,0,1,.13,0l.62.2v0s.05,0,.05,0a.83.83,0,0,1,.18,0,2.13,2.13,0,0,1,.28.06s.07,0,.07,0,0,0,0,0l.15,0,.12,0c.23.06.45.09.67.13l.8.11,0,0h.23a.1.1,0,0,1,.07,0h.88s0,0,0,0h.24l.06,0h.79c.08,0,.12,0,.15,0h0a.61.61,0,0,0,.24,0c.21,0,.48-.07.64-.11s0,0,0,0h.06s.07,0,.09,0h.09s0,0,0,0a.36.36,0,0,1,.14,0l.26-.06.62-.17c.07,0,.14,0,.15-.07l.1,0h.13a.9.9,0,0,1,.22-.06.52.52,0,0,1,.15-.07s0,0,.08,0,0,0,0,0a.7.7,0,0,0,.26-.08l.92-.33c-.08-.43-.21-.76-.3-1.13a6.52,6.52,0,0,0-.74.14s0,0,0,0,0,0-.09,0a0,0,0,0,0,0,0,.66.66,0,0,1-.23,0,1.2,1.2,0,0,1-.24,0c-.47.09-1,.2-1.48.24l-.24,0h-.1s0,0,0,0a1.13,1.13,0,0,0-.26,0c-.41,0-1,0-1.42,0a1,1,0,0,0-.25,0c-.18,0-.39-.08-.56-.09a0,0,0,0,1,0,0,.61.61,0,0,1-.23,0,6.77,6.77,0,0,1-.68-.16,3.44,3.44,0,0,1-.54-.17l-.17,0s0,0,0,0a.33.33,0,0,1-.15,0l0,0a.68.68,0,0,1-.15-.08.14.14,0,0,0-.1,0,.12.12,0,0,0-.09,0s0,0,0,0-.06,0-.1,0h0s0-.06,0-.08,0,0-.06,0,0,0,0,0h-.05l0,0-.19-.11v0a.2.2,0,0,1-.11-.06l-.07,0-.12-.11a1.54,1.54,0,0,1-.13-.12,1.07,1.07,0,0,1-.22-.2s0,0,0,0a3.63,3.63,0,0,1-.28-.27v0s-.05,0-.05,0-.06,0-.08,0,0,0,0-.06,0,0,0,0,0,0,0,0l-.07,0a1.48,1.48,0,0,1-.11-.22l-.07-.06a.69.69,0,0,1,0-.08s0,0-.06-.07a.3.3,0,0,1-.06-.13s0,0,0,0,0-.06-.05-.11l-.05,0a.2.2,0,0,1,0-.08.49.49,0,0,0-.08-.18s0,0,0,0a1.29,1.29,0,0,0-.09-.2,5.87,5.87,0,0,1-.53-2.16h15.36A18.38,18.38,0,0,0,239.53,28ZM298.12,29a3.33,3.33,0,0,0,0-.59v-.58a1.58,1.58,0,0,1-.07-.34c0-.08,0-.16-.06-.23s0-.06,0-.12,0-.11,0-.18,0,0,0,0a1.44,1.44,0,0,0-.09-.33v0a.21.21,0,0,1,0-.12.15.15,0,0,1,0-.1.44.44,0,0,0-.06-.16.21.21,0,0,1,0-.06,1.82,1.82,0,0,0-.08-.19s-.05,0-.05-.09,0,0,0,0a.47.47,0,0,1,0-.16s0,0,0,0l-.08-.18a.11.11,0,0,1,0-.06c0-.07-.07-.13-.08-.17s0,0,0,0,0-.05-.06-.08,0-.06,0-.1l0,0s0-.08,0-.1-.06,0-.06,0a.31.31,0,0,1,0-.08s0,0,0,0l-.22-.34s0,0,0,0-.05-.07-.07-.07v-.07a.36.36,0,0,1-.09,0s0-.07,0-.1-.17-.15-.17-.19-.07-.07-.08-.1,0,0,0-.05l-.07,0c-.22-.27-.54-.53-.75-.79,0,0-.06,0-.06,0s-.06-.08-.09-.1a.08.08,0,0,1-.08-.08s-.07,0-.07,0,0-.06-.06-.09l-.09,0s0-.09-.07-.09a.12.12,0,0,1-.09-.05s-.09-.11-.13-.12-.05,0-.09,0,0-.06,0-.06,0,0-.05,0a.63.63,0,0,1-.14,0v-.05s0,0-.06,0,0,0,0,0l-.06,0c-.05,0-.05-.07-.09-.07h0L294,22s0,0,0,0l-.07,0s0,0-.08,0a.5.5,0,0,1-.15-.08,2.57,2.57,0,0,0-.27-.12c-.06,0-.09-.05-.12-.05s-.07-.05-.1-.05-.15-.08-.2-.08,0,0,0,0l-.33-.15a.38.38,0,0,1-.16,0s0,0-.07,0,0,0,0,0a.93.93,0,0,0-.25,0l0,0a.52.52,0,0,0-.2-.08l-.15-.05a.85.85,0,0,0-.25-.05c-.27-.07-.59-.16-.87-.21a5.26,5.26,0,0,1-.53-.09.49.49,0,0,1-.17,0s0,0,0,0a1.18,1.18,0,0,1-.26,0c-.35,0-.69,0-1-.06a4.7,4.7,0,0,0-.54,0l-.08,0c-.28,0-.56,0-.81,0,0,0-.05,0-.08,0a.4.4,0,0,1-.11,0l-.92.13a1.55,1.55,0,0,1-.34,0s0,0,0,0-.25,0-.37.06L285,21c-.13,0-.22,0-.33.08s-.09.05-.13.05,0,0-.05,0h-.07a.16.16,0,0,1-.1,0s0,0,0,0a3.27,3.27,0,0,1-.47.16l-.1,0-.06.06a.11.11,0,0,0-.07,0,.4.4,0,0,0-.16.06l0,.05s-.07,0-.08,0l-.15.07h-.08s0,.06-.06.06-.05,0-.07,0,0,0-.05,0,0,0,0,0a.65.65,0,0,1-.16,0s0,.07-.05.07-.07,0-.1,0,0,.06-.06.06a.62.62,0,0,0-.12.08.4.4,0,0,0-.13.07.66.66,0,0,1-.13.08.14.14,0,0,0-.07,0c-.09.06-.18.1-.26.16s0,.05-.05.05-.07,0-.08,0a.81.81,0,0,0-.09.1s0,0-.05,0a.35.35,0,0,0-.09.11.27.27,0,0,0-.13.07.55.55,0,0,0-.1.11l-.11,0a.33.33,0,0,1,0,.06.19.19,0,0,0-.12.07s-.05.1-.11.12c-.21.22-.43.41-.64.64l-.1.11s0,.09-.06.1l-.06,0a0,0,0,0,1,0,0,.11.11,0,0,1,0,.08s-.08.07-.1.09v0a1.27,1.27,0,0,1-.1.12.27.27,0,0,0-.12.18l-.06,0a.77.77,0,0,0-.07.17l-.07,0a.84.84,0,0,1-.07.16,1.18,1.18,0,0,0-.13.18.23.23,0,0,0-.05.1s-.05,0-.05.05,0,.08,0,.11h0a.19.19,0,0,1,0,.08h0s0,0,0,0h0v0h0s0,0,0,.07h0v.05a1.4,1.4,0,0,0-.15.33c0,.05,0,.06,0,.11h0a1.06,1.06,0,0,0-.09.25c-.08.24-.18.49-.23.71a4.07,4.07,0,0,0-.13.72c0,.09,0,.18-.05.26,0,.29,0,.63,0,.91,0,0,0,0,0,0s0,0,0,0a.26.26,0,0,1,0,.09c0,.19,0,.34.07.52a3,3,0,0,0,.07.55c0,.06,0,.07,0,.09s0,.05,0,.05,0,.06,0,.1,0,.06,0,.08v.06s0,.05,0,.07,0,.07,0,.1,0,.06,0,.07,0,0,0,0,0,.11,0,.14,0,0,0,0,0,.12.06.16,0,0,0,.08,0,0,0,0,0,.16.05.24l0,0s0,.13.06.18,0,.06,0,.1a.7.7,0,0,1,0,.12h0s0,.05,0,.05,0,0,0,0,0,0,0,.05,0,0,0,0v0s0,0,0,0,0,.07,0,.08,0,0,0,0a.94.94,0,0,0,.08.15v0h0v.05h0a.08.08,0,0,0,0,0s0,0,0,.06,0,.07.06.13h0s0,0,0,0,.06.06.06.1,0,0,0,0a.22.22,0,0,1,.05.11s0,0,0,0l.15.2a2.53,2.53,0,0,0,.27.4,3.22,3.22,0,0,0,.26.31,1.73,1.73,0,0,0,.21.25.63.63,0,0,0,.12.14s0,.07.05.07,0,0,0,0,.14.15.19.2h0s0,.07.09.07.1.09.12.12.13.14.18.18h0s0,.06,0,.06,0,0,0,0a.75.75,0,0,1,.15.09l.09.07c.05,0,.07.08.1.09a.1.1,0,0,1,.09.07h.05s0,0,0,.06l.42.27a.35.35,0,0,0,.16.06.11.11,0,0,0,.05.08l.08,0s0,0,0,0,.12,0,.12,0h.07l.05.07.14.08h0s0,0,0,0a.66.66,0,0,0,.15.07s0,0,0,0l.16,0s.06.05.1.05.12.06.16.08a1.09,1.09,0,0,1,.25.1c.08,0,.17.08.23.09l.27.09c.25.09.52.19.77.26a1,1,0,0,1,.28.06s0,0,0,0a.24.24,0,0,0,.14,0s0,0,.07,0,.29,0,.32.08H286a.25.25,0,0,0,.12,0l.07,0,.32,0h0s.05,0,.08,0a3.69,3.69,0,0,0,.45.11c.45.05,1,.05,1.43.11a1.23,1.23,0,0,0,.22,0h.93v0h0c.1,0,.1,0,.14,0s.06,0,.1,0a2,2,0,0,1,.38-.06s0,0,0,0h.15c.15,0,.34-.06.43-.08v0s0,0,.07,0a3,3,0,0,0,.35-.09.58.58,0,0,0,.27-.09h.11l0,0h.14a1.12,1.12,0,0,1,.34-.11s0,0,0,0l.14,0h0a1.2,1.2,0,0,1,.22-.1,0,0,0,0,0,0,0c.09,0,.2,0,.23-.08H293c.08,0,.21-.08.26-.08s0,0,0,0,.05,0,.08,0a.08.08,0,0,1,.06,0s.07,0,.12,0a.48.48,0,0,1,.12-.05.89.89,0,0,1,.26-.09l-.34-1.13a6.87,6.87,0,0,0-.71.14h0s-.08,0-.13,0v0a.64.64,0,0,1-.25,0,.56.56,0,0,1-.21,0,15.07,15.07,0,0,1-2.36.31,5.36,5.36,0,0,1-1.07,0s-.08,0-.1,0l-.38,0a7,7,0,0,1-1.1-.2,1.5,1.5,0,0,1-.46-.13c-.07,0-.19,0-.21-.07a1.31,1.31,0,0,0-.15,0s0,0,0,0-.13,0-.18,0-.08-.09-.12-.09,0,0,0,0-.08,0-.1,0a0,0,0,0,1,0,0l-.11-.05s0,0,0,0-.06,0-.11,0,0,0,0,0h-.05s0-.08-.07-.08,0,0-.05,0l0,0s0,0-.05,0,0,0,0,0-.05,0-.05,0,0-.07,0-.07-.1-.07-.13-.07l-.07-.05c-.06,0-.06-.06-.09-.07s-.05,0-.06,0,0-.07-.05-.07a.76.76,0,0,0-.14-.16c-.06,0-.09-.05-.11-.1s0,0,0,0a1.74,1.74,0,0,1-.14-.14s0,0,0,0a2.56,2.56,0,0,0-.27-.29s-.05-.05-.08-.08a.09.09,0,0,0,0-.06s0,0,0,0,0,0,0,0,0,0,0,0a1.27,1.27,0,0,1-.14-.22s0,0-.06-.07,0,0,0-.07,0,0,0,0-.07-.13-.07-.16h0a.81.81,0,0,0-.06-.13l-.05,0c0-.08,0-.14-.06-.17l-.1-.23a2.42,2.42,0,0,1-.18-.46h0l-.05-.22h0s0-.08,0-.11v-.07a0,0,0,0,0,0,0c0-.07,0-.11,0-.18a0,0,0,0,0,0,0c0-.08,0-.17,0-.23a1.7,1.7,0,0,1,0-.28s0,0,0,0,0-.06,0-.1,0,0,0,0a.75.75,0,0,0,0-.15c0-.12-.07-.23,0-.33h15.31C298.09,29.72,298.11,29.38,298.12,29Z"/><path class="cls-2" d="M184.83,5.37V3.22a1,1,0,0,1,.36.12l.21,0a1.14,1.14,0,0,0,.11.11.4.4,0,0,0,.2,0,2.25,2.25,0,0,0,.21.12s.08,0,.11,0l.08.11a.79.79,0,0,1,.21,0,3.88,3.88,0,0,1,.59.28l.16,0c.05,0,0,0,.05,0a1.41,1.41,0,0,1,.31.1s0,.05.06.05a2.71,2.71,0,0,1,.57.26c.19.09.39.21.58.31s.28.12.41.21l0,.05s.11,0,.16.08,0,.08.06.09.08,0,.1,0l.1.1.37.2a.1.1,0,0,0,.05.06s.12,0,.16.05.05.12.09.15.11,0,.18.06,0,0,0,0,.11.11.2.17a1.28,1.28,0,0,1,.25.15s0,.09.06.09a.71.71,0,0,1,.21.11c.19.2.43.47.66.68l.26.21a2.71,2.71,0,0,1,.49.47,1.07,1.07,0,0,1,.2.22c.08.07.13.18.22.25l.09.05c.05.07.05.13.11.21l.21.26a.9.9,0,0,0,.11.1s0,.11,0,.16l.11.05a.69.69,0,0,0,.09.2c0,.05.06,0,.06.05a.5.5,0,0,0,0,.13l.11.09a1.91,1.91,0,0,0,.16.32l.1.1a.53.53,0,0,1,.09.2.43.43,0,0,0,.05.12s.1.07.12.09,0,.13.05.21.09.1.1.11a1,1,0,0,1,.05.2s0,0,0,.06v.12a.45.45,0,0,1,.13.1.7.7,0,0,0,0,.14,19.75,19.75,0,0,1,1.2,4.28,2.85,2.85,0,0,0,0,.41,1.58,1.58,0,0,1,.11.37c0,.26,0,.55,0,.83s.15.7.17,1c0,.63.16,1.47.22,2.21h-.17c0-.08,0-.05-.1-.08s0,0,0,0a4.13,4.13,0,0,1-.53-.11s0,0-.05-.05a.34.34,0,0,1-.16,0,.71.71,0,0,0-.16-.05c-.17-.05-.26-.05-.31-.1s-.08,0-.11,0V20s-.08,0-.1,0v0h-.08a.47.47,0,0,1-.18-.1l-.15-.06c-.07,0-.07,0-.11,0s-.08,0-.11,0l-.09-.12a.43.43,0,0,1-.16,0s-.07-.08-.1-.1a1.51,1.51,0,0,1-.54-.25s-.07,0-.09,0l-.09-.11-.27-.1a1.34,1.34,0,0,1-.27-.15s-.08,0-.1,0,0-.07-.12-.11-.3-.16-.46-.26c0,0,0,0,0,0h-.1s-.07-.09-.12-.1-.05-.05-.1-.07-.1-.09-.15-.1,0,0-.05-.06l-.31-.18c-.22-.19-.43-.3-.64-.47a1.76,1.76,0,0,0-.41-.38c-.09,0-.09-.13-.14-.15a9.69,9.69,0,0,1-1.11-1.11c-.18-.21-.36-.39-.52-.56s-.09-.17-.16-.27-.15-.13-.21-.2-.19-.35-.3-.51-.1-.08-.11-.1a1.15,1.15,0,0,0-.16-.28,1.82,1.82,0,0,1-.15-.27s-.09-.07-.1-.1-.06-.21-.11-.3l-.1-.11s0-.1-.06-.16a.21.21,0,0,1-.08-.11c-.09-.12-.07-.19-.13-.31s-.09-.08-.1-.1,0-.22-.11-.32,0,0-.05,0,0-.08,0-.12l-.12-.1c0-.1,0-.2-.09-.3a16.2,16.2,0,0,1-1-3.29c-.15-.76-.3-1.76-.38-2.55C184.86,5.62,184.93,5.4,184.83,5.37Z"/><path class="cls-2" d="M203.07,2.46V5.05c-.08.1,0,.26,0,.37,0,.41-.1.84-.11,1.19a.08.08,0,0,1,0,.07c0,.12,0,.23,0,.31s-.05.06-.05,0a7.51,7.51,0,0,1-.21,1.07v.05s0,0,0,0a2.46,2.46,0,0,0-.06.36s0,0,0,.06a2.51,2.51,0,0,1-.13.36,1.23,1.23,0,0,1,0,.16,1.18,1.18,0,0,0-.1.25c0,.09,0,.13-.05.23s-.09.06-.11.1a1.67,1.67,0,0,1-.06.2,1.79,1.79,0,0,1-.09.21c0,.11-.07.18-.09.27l-.06.09c0,.09-.1.15-.12.21a.91.91,0,0,1-.06.11c0,.05,0,0-.05.05s-.05.24-.09.33a.24.24,0,0,0-.1.1s0,.06,0,.1a.34.34,0,0,1-.13.2s0,0,0,.06l-.14.2a.91.91,0,0,0-.11.16,9.33,9.33,0,0,1-.8,1,10.88,10.88,0,0,1-.87.94c-.08.07-.13.2-.22.28a.87.87,0,0,1-.19.1s0,.08-.07.09a1.24,1.24,0,0,1-.26.19s-.18.23-.25.11c-.09-.39-.18-.85-.26-1.19a1.68,1.68,0,0,0-.1-.25s0-.16,0-.16-.06-.05-.06-.05a.74.74,0,0,1,0-.21c0-.06,0,0,0-.06a8.3,8.3,0,0,0-.27-.94.86.86,0,0,1-.05-.15c0-.05,0,0,0,0a1,1,0,0,0-.11-.28s0-.08,0-.1a1.49,1.49,0,0,0-.16-.37s0-.07,0-.1a.56.56,0,0,1-.11-.11c-.05-.09-.05-.21-.1-.3s-.08-.07-.09-.1,0-.12-.06-.16c-.15-.28-.27-.53-.43-.8a.9.9,0,0,0,0-.16.35.35,0,0,1-.11-.09s0-.11,0-.16-.07-.06-.09-.1-.16-.28-.22-.38a1.11,1.11,0,0,1-.16-.24.33.33,0,0,0-.11-.1c0-.05,0-.13,0-.16a.57.57,0,0,0-.11-.11.92.92,0,0,0-.15-.25A2.23,2.23,0,0,0,195,7.4a1.58,1.58,0,0,1-.13-.26c-.07-.06-.23-.09-.13-.22s.34-.61.52-.76c0,0,0-.09,0-.11a.52.52,0,0,0,.1-.11l.22-.26a.58.58,0,0,1,.11-.15,1.31,1.31,0,0,0,.1-.21s.09-.05.1-.05a8,8,0,0,1,.9-1l.72-.69c.18-.15.33-.33.47-.46s.13-.07.21-.1,0-.08,0-.11l.27-.19a.38.38,0,0,1,.19-.11s0-.09.07-.12a.58.58,0,0,1,.14,0s.06-.14.12-.16.09,0,.15-.06.06-.12.1-.17a.79.79,0,0,0,.17,0s0-.09.05-.11.08,0,.1,0,.06-.07.1-.1a.64.64,0,0,1,.16-.11c.07-.05.14-.15.19-.15s0,0,.07-.06.14-.05.22-.1,0-.08,0-.11a3,3,0,0,0,.31-.15s.07-.09.1-.1L200.9,1c.07,0,.14-.07.19-.11l.1,0c.08,0,0,0,.08,0A10.23,10.23,0,0,1,202.82,0,23,23,0,0,1,203,2.4S203,2.47,203.07,2.46Z"/><path class="cls-1" d="M635.58,186.46a3.63,3.63,0,0,1,.3-.35v-.06s25.57-29.22,54.73-11.21c11.6,7.17,6.72,27.85-8.21,29-4.54.37-8.53,1.33-24.36-9.78-8.69-6.1-17.89-6.17-20.92-4.75a2.68,2.68,0,0,1-.33.18.83.83,0,0,1-.13.07h0a1.74,1.74,0,0,1-1.58-.06C634.22,189.07,634.62,187.68,635.58,186.46Z"/><path class="cls-1" d="M621.27,178a3,3,0,0,1-.21-.59H621s-17-50,24-72c16.34-8.77,37.33,11,28.58,29.4-2.67,5.56-4.25,10.93-28.1,22-13.09,6.08-19.42,16.84-19.8,21.36,0,.19,0,.37,0,.53v.2h0a2.4,2.4,0,0,1-1.14,1.81C623.42,181.37,622,180,621.27,178Z"/><path class="cls-1" d="M683.12,319.32h-2.26v6.26h-1.19v-6.26h-2.26v-1h5.71Zm9.41,6.26h-1.19v-6h0l-2.36,6h-.75l-2.37-6h0v6h-1.19v-7.22h1.84l2.15,5.49,2.13-5.49h1.82Z"/></g></g></svg>