<?xml version="1.0" encoding="UTF-8"?>
<svg width="268px" height="61px" viewBox="0 0 268 61" version="1.1" xmlns="http://www.w3.org/2000/svg" xmlns:xlink="http://www.w3.org/1999/xlink">
    <!-- Generator: Sketch 57.1 (83088) - https://sketch.com -->
    <title>Group</title>
    <desc>Created with Sketch.</desc>
    <g id="Page-1" stroke="none" stroke-width="1" fill="none" fill-rule="evenodd">
        <g id="Group" fill="#FFFFFF">
            <path d="M148.366,47.353 C147.894,48.663 147.221,49.793 146.369,50.708 C145.519,51.624 144.458,52.36 143.218,52.897 C141.977,53.431 140.558,53.701 138.999,53.701 C137.439,53.701 136.021,53.431 134.783,52.897 C133.543,52.361 132.482,51.626 131.629,50.708 C130.773,49.789 130.102,48.66 129.632,47.354 C129.154,46.027 128.912,44.562 128.912,42.996 C128.912,41.432 129.154,39.964 129.632,38.636 C130.103,37.327 130.775,36.198 131.629,35.281 C132.48,34.366 133.542,33.632 134.783,33.096 C136.024,32.56 137.442,32.288 138.999,32.288 C140.554,32.288 141.974,32.56 143.217,33.096 C144.46,33.633 145.521,34.368 146.369,35.281 C147.22,36.195 147.892,37.324 148.366,38.636 C148.844,39.959 149.086,41.426 149.086,42.996 C149.086,44.567 148.844,46.032 148.366,47.353 Z M151.806,30.396 C150.187,28.78 148.261,27.491 146.082,26.568 C143.893,25.64 141.51,25.17 138.999,25.17 C136.485,25.17 134.104,25.64 131.917,26.568 C129.74,27.49 127.814,28.778 126.193,30.396 C124.576,32.013 123.289,33.914 122.366,36.046 C121.439,38.187 120.97,40.524 120.97,42.996 C120.97,45.465 121.439,47.813 122.365,49.977 C123.291,52.138 124.58,54.041 126.196,55.633 C127.812,57.224 129.737,58.499 131.917,59.423 C134.104,60.35 136.485,60.819 138.999,60.819 C141.51,60.819 143.893,60.35 146.083,59.423 C148.264,58.496 150.188,57.222 151.802,55.633 C153.415,54.043 154.704,52.14 155.634,49.977 C156.561,47.814 157.03,45.466 157.03,42.996 C157.03,40.523 156.561,38.187 155.633,36.046 C154.706,33.911 153.418,32.01 151.806,30.396 L151.806,30.396 Z" id="Fill-1"></path>
            <path d="M104.685,26.317 C99.668,24.239 93.983,25.095 90,28.306 L90,14 L82,14 L82,60 L90,60 L90,41.917 C90,38.475 90.88,32.701 97.5,32.701 C103.576,32.701 105,37.666 105,41.917 L105,60 L113,60 L113,39.439 C113,34 109.9,28.478 104.685,26.317" id="Fill-2"></path>
            <polyline id="Fill-3" points="204 54 204 60 233 60 233 53 214.14 53 232 32.435 232 26 205 26 205 33 222.35 33 204 53.515"></polyline>
            <polyline id="Fill-4" points="239 54 239 60 268 60 268 53 249.14 53 267 32.435 267 26 240 26 240 33 257.35 33 239 53.515"></polyline>
            <path d="M188,26 L188,44.573 C188,45.578 187.865,46.636 187.602,47.72 C187.351,48.758 186.921,49.734 186.324,50.625 L186.323,50.625 C185.751,51.48 184.981,52.194 184.032,52.747 C183.109,53.287 181.922,53.561 180.501,53.561 C179.077,53.561 177.889,53.287 176.966,52.746 C176.025,52.2 175.255,51.486 174.676,50.624 C174.081,49.739 173.651,48.763 173.398,47.721 C173.133,46.622 172.999,45.563 172.999,44.573 L172.999,26 L165,26 L165,45.324 C165,52.519 168.129,57.361 174.428,59.767 C176.301,60.484 178.344,60.848 180.502,60.848 C182.657,60.848 184.699,60.484 186.647,59.739 C194.378,56.769 196,50.261 196,45.324 L196,26 L188,26" id="Fill-5"></path>
            <polyline id="Fill-6" points="34 60 54 60 54 25.468 14 14 14 0 0 0 0 60 20 60 20 40 34 40 34 60"></polyline>
        </g>
    </g>
</svg>