<svg xmlns="http://www.w3.org/2000/svg" viewBox="0 0 720 261.36"><defs><style>.cls-1{fill:#fff;}</style></defs><title>iiD_logo</title><g id="Layer_2" data-name="Layer 2"><g id="Layer_1-2" data-name="Layer 1"><path class="cls-1" d="M277.73,49l-8.39-16.93h-9.48V49h-9.4V2h21.9c8.87,0,16.19,4.91,16.19,14.92,0,7.05-3,11.48-9,13.83l9,18.28Zm-5.57-37.89h-12.3V23.18h12.3c4.36,0,6.72-2,6.72-6.11S276.32,11.09,272.16,11.09Z"/><path class="cls-1" d="M328.79,49V29.23H309.51V49h-9.4V2h9.4V20h19.28V2h9.41V49Z"/><path class="cls-1" d="M370,49.72c-12.29,0-20.69-9-20.69-24.19s8.53-24.32,20.83-24.32,20.62,9,20.62,24.19S382.27,49.72,370,49.72ZM370,10.55c-6.59,0-11,5.31-11,14.85s4.56,15,11.15,15,10.95-5.31,10.95-14.85S376.56,10.55,370,10.55Z"/><path class="cls-1" d="M416,49H402V2h14.71c13.43,0,23.38,6.32,23.38,23.51C440.05,42,428.09,49,416,49Zm.33-37.89h-5V39.84H416c9.87,0,14.37-5.78,14.37-14.38C430.37,15.86,426.28,11.09,416.33,11.09Z"/><path class="cls-1" d="M451.13,49V2h32.65v9.21H460.54v8.12H474v9.14h-13.5V39.77h24.25V49Z"/><path class="cls-1" d="M511.46,49.72c-7.86,0-14.71-3.3-18.27-8.54l6.79-6a15.22,15.22,0,0,0,12,5.37c5.58,0,8.2-1.54,8.2-5.1,0-3-1.62-4.37-10.48-6.38C501.05,27,495,24.26,495,15c0-8.54,7.52-13.78,16.79-13.78A22.49,22.49,0,0,1,528.93,8.6l-6.79,6.59c-3-3.09-6.38-4.84-10.68-4.84-5,0-6.71,2.15-6.71,4.23,0,3,2,3.9,9.47,5.65s15.72,4.29,15.72,14.51C529.94,43.67,524.29,49.72,511.46,49.72Z"/><path class="cls-1" d="M251.13,129.6v-47h9.41v47Z"/><path class="cls-1" d="M304.67,129.6l-17.26-25.66c-1.14-1.75-2.69-4.1-3.29-5.31,0,1.74.13,7.66.13,10.28V129.6H275v-47h9l16.66,24.86c1.15,1.75,2.69,4.1,3.3,5.31,0-1.75-.14-7.66-.14-10.28V82.57h9.27v47Z"/><path class="cls-1" d="M336.25,91.78v8.86h14.18v9.14H336.25V129.6h-9.4v-47H360.5v9.21Z"/><path class="cls-1" d="M385,130.34c-12.3,0-20.69-9-20.69-24.19s8.53-24.32,20.82-24.32,20.63,9,20.63,24.19S397.18,130.34,385,130.34Zm-.07-39.17c-6.58,0-10.95,5.31-10.95,14.85s4.57,15,11.15,15,11-5.31,11-14.85S391.47,91.17,384.89,91.17Z"/><path class="cls-1" d="M441.46,129.6l-8.4-16.93h-9.47V129.6h-9.41v-47h21.9c8.87,0,16.19,4.91,16.19,14.92,0,7.05-3,11.48-9,13.83l9,18.28Zm-5.58-37.89H423.59V103.8h12.29c4.37,0,6.72-2,6.72-6.11S440.05,91.71,435.88,91.71Z"/><path class="cls-1" d="M498.43,129.6V112.33c0-2.55.13-8.53.13-10.34-.67,1.74-2.08,5.1-3.29,7.79l-9.54,20.89-9.54-20.89c-1.21-2.69-2.62-6-3.29-7.79,0,1.81.14,7.79.14,10.34V129.6h-9.21v-47h9.07l9.81,21.3c1.21,2.62,2.62,6.18,3.22,7.86.61-1.75,1.95-5.17,3.16-7.86l9.47-21.3h9.27v47Z"/><path class="cls-1" d="M552.92,129.6l-3.7-10.48H532l-3.69,10.48H518.25l18-47h9.14l17.87,47ZM543,101.65c-.94-2.75-1.88-5.57-2.35-7.32-.47,1.75-1.41,4.57-2.35,7.32l-3,8.53H546Z"/><path class="cls-1" d="M587.18,91.84V129.6h-9.4V91.84H564.27V82.57h36.41v9.27Z"/><path class="cls-1" d="M608.08,129.6v-47h9.4v47Z"/><path class="cls-1" d="M650,130.34c-12.3,0-20.69-9-20.69-24.19s8.53-24.32,20.82-24.32,20.63,9,20.63,24.19S662.22,130.34,650,130.34Zm-.07-39.17C643.35,91.17,639,96.48,639,106s4.57,15,11.15,15,11-5.31,11-14.85S656.51,91.17,649.93,91.17Z"/><path class="cls-1" d="M711.6,129.6l-17.26-25.66c-1.14-1.75-2.69-4.1-3.29-5.31,0,1.74.13,7.66.13,10.28V129.6h-9.27v-47h9l16.66,24.86c1.14,1.75,2.69,4.1,3.29,5.31,0-1.75-.13-7.66-.13-10.28V82.57H720v47Z"/><path class="cls-1" d="M251.13,210.22v-47h9.41v47Z"/><path class="cls-1" d="M304.67,210.22l-17.26-25.66c-1.14-1.75-2.69-4.1-3.29-5.31,0,1.75.13,7.66.13,10.28v20.69H275v-47h9l16.66,24.86c1.15,1.75,2.69,4.1,3.3,5.31,0-1.75-.14-7.66-.14-10.28V163.19h9.27v47Z"/><path class="cls-1" d="M327.52,210.22v-47h9.4v47Z"/><path class="cls-1" d="M371.25,172.46v37.76h-9.4V172.46h-13.5v-9.27h36.4v9.27Z"/><path class="cls-1" d="M396.18,210.22v-47h9.4v47Z"/><path class="cls-1" d="M451.33,210.22l-3.69-10.48h-17.2l-3.69,10.48H416.67l18-47h9.14l17.87,47Zm-9.94-27.95c-.94-2.75-1.88-5.57-2.35-7.32-.47,1.75-1.41,4.57-2.35,7.32l-3,8.53h10.74Z"/><path class="cls-1" d="M485.6,172.46v37.76h-9.41V172.46h-13.5v-9.27H499.1v9.27Z"/><path class="cls-1" d="M510.53,210.22v-47h9.4v47Z"/><path class="cls-1" d="M556.88,210.22h-9.14l-16.72-47h10.41l8.87,27.21c.87,2.62,1.81,6,2.21,7.73.41-1.75,1.28-5,2.15-7.73l8.67-27.21h10.28Z"/><path class="cls-1" d="M584,210.22v-47h32.65v9.21H593.43v8.13h13.5v9.13h-13.5V201h24.25v9.21Z"/><path class="cls-1" d="M264.28,261l-1.87-5.24h-8.85L251.73,261h-3.45l8-22.12h3.51L267.82,261Zm-4.65-13.3c-.54-1.59-1.42-4.15-1.68-5.09-.25.94-1,3.47-1.61,5.12l-1.77,5.06h6.83Z"/><path class="cls-1" d="M280.24,242.14V261h-3.32V242.14h-6.45v-3.25h16.22v3.25Z"/><path class="cls-1" d="M310.69,261h-6V238.89h6c5.94,0,10.78,3.25,10.78,11.06S316.47,261,310.69,261Zm0-18.9H308v15.68h2.72c5.25,0,7.4-3.19,7.4-7.84S315.94,242.11,310.69,242.11Z"/><path class="cls-1" d="M336.8,261.36c-5.47,0-8.31-3.54-8.31-9.64V238.89h3.32v12.74c0,4.17,1.74,6.41,5.06,6.41s5.12-2.15,5.12-6.19v-13h3.32v12.89C345.31,258,342.3,261.36,336.8,261.36Z"/><path class="cls-1" d="M367.12,261l-6.35-11.34-4.11,5V261h-3.23V238.89h3.23v7.58c0,.82,0,3.23-.07,3.92.38-.57,1.84-2.4,2.57-3.32l6.54-8.18h3.76l-6.48,8,7.9,14.09Z"/><path class="cls-1" d="M377.62,261V238.89h14.26v3.22H380.94v5.47h6.35v3.22h-6.35v7h11.41V261Z"/><path class="cls-1" d="M418.81,261.36c-5.47,0-8.31-3.54-8.31-9.64V238.89h3.32v12.74c0,4.17,1.74,6.41,5.06,6.41,3.47,0,5.12-2.15,5.12-6.19v-13h3.32v12.89C427.32,258,424.31,261.36,418.81,261.36Z"/><path class="cls-1" d="M449.1,261l-8.82-13.87c-.54-.83-1.3-2.15-1.64-2.72,0,.82,0,3.89,0,5.12V261h-3.23V238.89h3.39l8.41,13.49c.56.92,1.51,2.56,1.83,3.13,0-.82,0-4,0-5.21V238.89h3.22V261Z"/><path class="cls-1" d="M460.7,261V238.89H464V261Z"/><path class="cls-1" d="M482.27,261h-3.51l-7.69-22.12h3.61l4.61,14.1c.41,1.29,1,3.25,1.24,4,.19-.79.82-2.78,1.23-4.08l4.55-14.06h3.54Z"/><path class="cls-1" d="M496.75,261V238.89H511v3.22H500.06v5.47h6.36v3.22h-6.36v7h11.42V261Z"/><path class="cls-1" d="M530.67,252l4.52,9h-3.83L527,252.26h-5V261h-3.25V238.89h9.7c3.86,0,7.12,2.05,7.12,6.6C535.54,249,533.67,251.21,530.67,252Zm-2.25-10H522v7.12h6.45c2.22,0,3.76-1.14,3.76-3.54S530.67,242,528.42,242Z"/><path class="cls-1" d="M549.83,261.36a10.26,10.26,0,0,1-7.88-3.57l2.38-2.31a8.08,8.08,0,0,0,5.75,2.63c3.1,0,4.58-1.08,4.58-3.23,0-1.71-1.29-2.56-5-3.67-4.68-1.39-6.93-2.56-6.93-6.51s3.23-6.16,7.31-6.16a9.91,9.91,0,0,1,7.24,3L555,243.91a6.71,6.71,0,0,0-5.15-2.12c-2.6,0-3.7,1.27-3.7,2.75s1,2.31,4.83,3.45c4.37,1.33,7.08,2.72,7.08,6.67S555.49,261.36,549.83,261.36Z"/><path class="cls-1" d="M565.67,261V238.89H569V261Z"/><path class="cls-1" d="M585.8,242.14V261h-3.31V242.14H576v-3.25h16.21v3.25Z"/><path class="cls-1" d="M608.82,252.26V261H605.5v-8.75l-7.93-13.37h3.88l3.45,6.1c.76,1.36,1.9,3.57,2.28,4.39.38-.82,1.48-2.94,2.27-4.36l3.48-6.13h3.82Z"/><g id="iiD"><path class="cls-1" d="M106.7,0A106.71,106.71,0,1,0,213.41,106.7,106.83,106.83,0,0,0,106.7,0ZM94,56.59h19l-3.26,15.92h-19ZM39.66,158.14c-5.19,0-9-4.18-9-10,0-3.51,1.34-8.86,4-20.39l5.18-21.9c.67-3.18,1.34-5.85-.83-5.85-2,0-6.19,4.68-9.2,9.19l-3.17-2.67C37.15,92.28,45.51,86.26,51.86,86.26c4.35,0,7.19,3.84,7.19,9.53A51.36,51.36,0,0,1,57.38,107l-8.19,34.1c-1.18,4.85-1.18,6.69,1.33,6.69,2.68,0,7.52-3.85,11.7-8.7l3,2.68C55.87,152.29,46.68,158.14,39.66,158.14ZM55.37,74.39c-5,0-8.69-3.85-8.69-9.2C46.68,56.67,52,50,58.71,50c5.19,0,8.7,3.68,8.7,9.36C67.41,67.53,61.89,74.39,55.37,74.39ZM73.74,154,88.32,83.71h19.13L92.76,154Zm63.35-.15h-34.4L117.43,83.7h19.75L126,138.16h10.18q14.77,0,22.26-4.38t12.18-14.6a54.54,54.54,0,0,0,4.68-23q0-12.93-5.25-18.32t-18.73-5.4h-31.5l3.38-16.08H149.3q16.78,0,25.39,2.9T189.35,72q6,9.76,6.05,24.83,0,20.66-12.36,38.82T137.09,153.83Z"/></g></g></g></svg>