<svg xmlns="http://www.w3.org/2000/svg" viewBox="0 0 250.05 30.81"><defs><style>.cls-1,.cls-2{fill:#fff;}.cls-2{font-size:13px;font-family:OpenSans-SemiBold, Open Sans;font-weight:600;letter-spacing:0.05em;}.cls-3{letter-spacing:0.05em;}.cls-4{letter-spacing:0.05em;}.cls-5{letter-spacing:0.06em;}.cls-6{letter-spacing:0.06em;}.cls-7{letter-spacing:0em;}.cls-8{letter-spacing:0.05em;}.cls-9{letter-spacing:0.05em;}.cls-10{letter-spacing:0.05em;}.cls-11{letter-spacing:0.05em;}.cls-12{letter-spacing:0.05em;}.cls-13{letter-spacing:0.04em;}.cls-14{letter-spacing:0.05em;}.cls-15{letter-spacing:0.05em;}.cls-16{letter-spacing:0.07em;}.cls-17{letter-spacing:0.06em;}.cls-18{letter-spacing:0.05em;}.cls-19{letter-spacing:0.05em;}.cls-20{letter-spacing:0.05em;}</style></defs><title>iss</title><g id="Layer_2" data-name="Layer 2"><g id="options"><g id="design_E"><path class="cls-1" d="M4.65,26.7c-.52,0-1.16,0-1.76.07s-1.16.08-1.62.08c-.19,0-.67,0-.67-.38s.27-.63,1.38-.81c.81-.14,1.69-.27,1.69-2.43V5.63c0-.71-1.58-.64-2.55-.71S0,4.84,0,4.43c0-.64,1-.64,1.46-.64H4.87c.93,0,1.83-.07,2.77-.11s2-.11,3.21-.11c7.87,0,14.23,3.89,14.23,12.91,0,5.61-5.17,10.22-11.61,10.22ZM6.9,22c0,2.62,2.35,3.78,4.79,3.78,2.92,0,9.88-2.43,9.88-10S14.68,4.69,10,4.69C7,4.69,6.9,5.36,6.9,5.89Z"/><path class="cls-1" d="M28.25,22.11c0-2.28.07-5.77.07-8,0-.52-.64-.6-1.08-.71-.9-.22-1.12-.3-1.12-.56s.41-.34.93-.34,1.05.08,1.62.08,1.08-.08,1.65-.08.56.19.56.71c0,3.34-.07,6.67-.07,10,0,1.54,1.12,2.4,3,2.4,4.15,0,4.45-1.76,4.49-3.3,0-2.66.08-5.35.08-8,0-.45-.19-.45-2-.9-.3-.08-1.08-.3-1.08-.6s.41-.3.81-.3c.64,0,1.27.07,1.91.07s1.46-.07,2.21-.07a.74.74,0,0,1,.79.67v.11c0,3.79-.15,7.57-.15,11.36a.87.87,0,0,0,1,.9c1.46,0,1.95,0,1.95.37s-.19.38-.75.45c-2.62.41-4.15.75-4.49.75s-.3-.27-.3-.6v-.86c0-.3-.08-.45-.27-.45-.6,0-2.21,2.21-5.25,2.21C29.22,27.43,28.25,25.3,28.25,22.11Z"/><path class="cls-1" d="M47,5.42c0-2-1.84-1.35-1.84-2.06,0-.27.27-.34.79-.52l2.54-1a1.68,1.68,0,0,1,.63-.08c.19,0,.42.12.42.67V17.85c0,.41.07.6.33.6s6.1-3.37,6.1-4c0-1-1.42-1-1.42-1.54,0-.19.3-.37.53-.37.78,0,1.9.07,2.88.07s2.06-.07,2.81-.07c.33,0,.71.07.71.45s-1.31.67-1.84.89c-1.08.49-7.22,4.06-7.22,4.46a.72.72,0,0,0,.3.52l6.48,5.88c1.54,1.38,3,1.27,3,1.8,0,.18-.37.37-1,.37-.79,0-1.76-.15-2.88-.15s-1.87.15-2.77.15-1.13,0-1.13-.37.45-.45,1.09-.53c.37,0,.71-.27.71-.52s-.19-.38-.41-.6L50.12,19.5a.69.69,0,0,0-.33-.23c-.15,0-.27,0-.27.19v5.31a1.11,1.11,0,0,0,.81,1.2c.6.19,1.08.19,1.08.53s-.49.37-.86.37c-.9,0-1.69-.15-2.51-.15s-2.06.15-2.7.15c-.23,0-.9,0-.9-.37s.3-.41.67-.53c1-.3,1.84-.18,1.84-1.76Z"/><path class="cls-1" d="M64.62,18a5.74,5.74,0,0,0-.08,1.31c0,3.15.87,6.26,5.44,6.26,2.89,0,3-1.5,3.56-1.5a.31.31,0,0,1,.34.27v0c0,.27-1.58,3-5.48,3-4.12,0-6.48-2.92-6.48-7.61,0-3.52,2.16-7.91,6.82-7.91a5.6,5.6,0,0,1,5.77,5.28c0,.68-.11.87-.74.87Zm7.42-3a2.53,2.53,0,0,0-2.77-2.28A4.55,4.55,0,0,0,65,16.56c0,.27.07.34,3.26.34S72,16.42,72,15.07Z"/><text class="cls-2" transform="translate(90.93 11.14)">IN<tspan class="cls-3" x="15.32" y="0">F</tspan><tspan class="cls-4" x="22.92" y="0">O</tspan><tspan class="cls-5" x="33.77" y="0">R</tspan><tspan class="cls-6" x="42.82" y="0">M</tspan><tspan class="cls-7" x="55.62" y="0">A</tspan><tspan class="cls-8" x="64.17" y="0">T</tspan><tspan class="cls-9" x="72.22" y="0">I</tspan><tspan class="cls-4" x="76.83" y="0">O</tspan><tspan class="cls-10" x="87.68" y="0">N </tspan><tspan class="cls-11" x="102.54" y="0">S</tspan><tspan class="cls-12" x="110.35" y="0">CI</tspan><tspan class="cls-13" x="123.74" y="0">E</tspan><tspan class="cls-14" x="131.58" y="0">N</tspan><tspan class="cls-12" x="142.39" y="0">C</tspan><tspan class="cls-10" x="151.21" y="0">E</tspan><tspan class="cls-15"><tspan x="0" y="16">+ </tspan><tspan class="cls-16" x="12.1" y="16">S</tspan><tspan class="cls-17" x="20.21" y="16">T</tspan><tspan class="cls-18" x="28.31" y="16">UD</tspan><tspan class="cls-19" x="48.71" y="16">I</tspan><tspan class="cls-20" x="53.27" y="16">E</tspan><tspan class="cls-10" x="61.23" y="16">S</tspan></tspan></text><rect class="cls-1" x="82.71" y="1.79" width="0.33" height="25.64"/></g></g></g></svg>