<svg xmlns="http://www.w3.org/2000/svg" viewBox="0 0 131.29 121.23"><defs><style>.cls-1{fill:#fff;}.cls-2{fill:none;stroke:#fff;stroke-linecap:round;stroke-miterlimit:10;stroke-width:3px;}</style></defs><title>oit</title><g id="Layer_2" data-name="Layer 2"><g id="Layer_1-2" data-name="Layer 1"><path class="cls-1" d="M10.67,42c-.88,0-1.95.06-3,.13s-2,.13-2.74.13c-.31,0-1.13,0-1.13-.63s.46-1.07,2.33-1.36C7.54,40,9,39.77,9,36.13V6.47c0-1.2-2.65-1.07-4.29-1.2-1.44-.13-1.88-.13-1.88-.82,0-1.08,1.7-1.08,2.45-1.08H11c1.58,0,3.09-.12,4.67-.19S19.11,3,21.12,3c13.24,0,24,6.55,24,21.75,0,9.46-8.7,17.21-19.54,17.21Zm3.79-7.88c0,4.41,4,6.38,8.07,6.38,4.92,0,16.64-4.1,16.64-16.9S27.57,4.89,19.76,4.89c-5.17,0-5.3,1.13-5.3,2V34.08Z"/><path class="cls-1" d="M50.42,34.24c0-3.85.13-9.72.13-13.45,0-.88-1.08-1-1.82-1.19-1.52-.38-1.89-.51-1.89-1s.69-.57,1.57-.57,1.77.13,2.73.13,1.83-.13,2.78-.13.95.31.95,1.2c0,5.61-.13,11.23-.13,16.85,0,2.58,1.9,4,5,4,7,0,7.51-3,7.57-5.55,0-4.48.13-9,.13-13.51,0-.75-.31-.75-3.28-1.52-.51-.12-1.82-.5-1.82-1s.69-.5,1.36-.5c1.08,0,2.15.12,3.22.12,1.26,0,2.46-.12,3.73-.12A1.22,1.22,0,0,1,72,19.2v.19c0,6.38-.25,12.75-.25,19.13A1.47,1.47,0,0,0,73.35,40c2.46,0,3.28,0,3.28.63s-.31.63-1.26.75c-4.42.69-7,1.26-7.57,1.26s-.51-.45-.51-1V40.23c0-.51-.13-.76-.45-.76-1,0-3.73,3.73-8.84,3.73C52.06,43.2,50.42,39.6,50.42,34.24Z"/><path class="cls-1" d="M82,6.12c0-3.34-3.09-2.28-3.09-3.47,0-.45.45-.57,1.32-.88L84.49.13A3,3,0,0,1,85.56,0c.31,0,.69.19.69,1.13V27.06c0,.69.13,1,.57,1,.63,0,10.28-5.67,10.28-6.83,0-1.64-2.39-1.64-2.39-2.59,0-.31.51-.62.88-.62,1.32,0,3.22.13,4.85.13s3.47-.13,4.73-.13c.57,0,1.2.13,1.2.75s-2.21,1.14-3.09,1.52c-1.83.82-12.18,6.83-12.18,7.5a1.22,1.22,0,0,0,.51.88l10.93,9.9c2.59,2.33,5,2.15,5,3,0,.31-.63.63-1.64.63-1.32,0-3-.25-4.85-.25-1.64,0-3.15.25-4.67.25-1.33,0-1.89-.06-1.89-.63s.75-.75,1.82-.88c.63-.06,1.2-.46,1.2-.88s-.32-.63-.7-1l-9.52-9a1.18,1.18,0,0,0-.57-.38c-.25,0-.45.06-.45.31v9a1.89,1.89,0,0,0,1.37,2c1,.32,1.82.32,1.82.89s-.82.62-1.45.62c-1.51,0-2.84-.25-4.23-.25s-3.46.25-4.55.25c-.38,0-1.51-.06-1.51-.62s.5-.7,1.13-.89c1.76-.5,3.09-.31,3.09-3Z"/><path class="cls-1" d="M111.71,27.37a9.21,9.21,0,0,0-.13,2.22c0,5.3,1.45,10.55,9.15,10.55,4.87,0,5-2.53,6-2.53a.52.52,0,0,1,.57.46v0c0,.46-2.66,5-9.22,5-7,0-10.93-4.93-10.93-12.82,0-5.92,3.64-13.33,11.5-13.33a9.44,9.44,0,0,1,9.72,8.91c0,1.14-.19,1.45-1.26,1.45Zm12.51-5c0-2.14-2-3.85-4.68-3.85-4.55,0-7.28,4.42-7.28,6.38,0,.45.12.57,5.49.57,5.58,0,6.47-.8,6.47-3.08Z"/><path class="cls-2" d="M1.5,60.23H129.79"/><path class="cls-1" d="M100.83,121.23h-6.5V85.13H82.62V79.24h29.91v5.89h-11.7Z"/><path class="cls-1" d="M57.94,99.87q0,10.13-4.59,15.75t-13,5.61q-8.52,0-13.1-5.57T22.67,99.81C22.67,93,24.2,87.7,27.26,84s7.44-5.51,13.12-5.51,9.93,1.87,13,5.59,4.58,9,4.58,15.75Zm-28.74,0c0,5.1.93,9,2.81,11.61a9.57,9.57,0,0,0,8.32,4q5.49,0,8.28-3.92c1.85-2.62,2.8-6.5,2.8-11.65s-.92-8.94-2.78-11.58S44,84.35,40.38,84.35,33.9,85.66,32,88.29,29.2,94.78,29.2,99.87Z"/><path class="cls-1" d="M66.75,121.23v-42H72.6v42Z"/></g></g></svg>