<?xml version="1.0" encoding="utf-8"?>
<!-- Generator: Adobe Illustrator 23.0.6, SVG Export Plug-In . SVG Version: 6.00 Build 0)  -->
<svg version="1.1" id="Layer_1" xmlns="http://www.w3.org/2000/svg" xmlns:xlink="http://www.w3.org/1999/xlink" x="0px" y="0px"
	 viewBox="0 0 720 720" style="enable-background:new 0 0 720 720;" xml:space="preserve">
<style type="text/css">
	.st0{fill:#FFFFFF;}
	.st1{font-family:'ArialMT';}
	.st2{font-size:7.9521px;}
</style>
<g>
	<path class="st0" d="M358.95,179.45l-100.97,0.01l29.3,29.74l0,0.06c-19.51,19.38-31.65,46.6-31.66,76.74
		c0.01,58.82,46.25,106.56,103.33,106.57c57.07-0.01,103.3-47.75,103.31-106.57C462.25,227.15,416,179.46,358.95,179.45
		 M358.95,377.97c-49.25-0.09-89.09-41.2-89.18-91.96c0-28.56,12.61-54.03,32.41-70.92l6.09-5.2l-15.77-15.86
		c24.52,0.01,66.26,0.02,66.44,0.02v0.01c49.24,0.09,89.08,41.17,89.17,91.95C448.02,336.77,408.18,377.88,358.95,377.97"/>
	<path class="st0" d="M358.95,203.44c-44.23,0.01-80.06,36.97-80.07,82.57c0,45.58,35.83,82.57,80.07,82.57
		c44.22-0.01,80.05-36.99,80.05-82.57C438.99,240.4,403.16,203.45,358.95,203.44 M358.95,354.36c-36.6-0.07-66.21-30.64-66.28-68.35
		c0.07-37.75,29.67-68.28,66.28-68.35c36.59,0.07,66.21,30.6,66.27,68.35C425.15,323.73,395.54,354.3,358.95,354.36"/>
	<path class="st0" d="M416.04,286.01c-0.05-32.52-25.57-58.82-57.09-58.88c-25.26,0.05-46.64,16.92-54.19,40.34l-0.01-0.01
		l17.84,18.27l-20.68-2.47c-0.04,0.91-0.07,1.83-0.07,2.75c0.06,32.5,25.57,58.83,57.1,58.89c26.3-0.05,48.42-18.39,55.05-43.34
		l-15.57-16.61l17.59,2.27C416.03,286.81,416.03,286.41,416.04,286.01 M362.75,266.57l35.95,38.35
		c-6.95,15.52-22.12,26.31-39.76,26.31c-19.9,0.01-36.7-13.68-42.04-32.41l42.22,5.04l-38.64-39.57c7.45-14,21.88-23.5,38.47-23.49
		c19.24-0.01,35.57,12.82,41.45,30.62L362.75,266.57z"/>
</g>
<g>
	<g>
		<path class="st0" d="M491.18,526.37c7.27-0.01,13.59-2.91,18.24-7.97l-0.02,6.66h14.56l-0.02-62.27h-14.53l-0.02,6.65
			c-4.63-5.09-10.97-7.97-18.22-7.97c-15.45,0.01-28.29,14.03-28.3,32.52C462.86,512.33,475.71,526.39,491.18,526.37 M493.47,476.2
			c8.44,0,15.25,7.98,15.22,17.9c0.03,9.67-6.8,17.55-15.25,17.52c-8.4,0-15.2-7.61-15.22-17.52
			C478.24,483.93,485.06,476.21,493.47,476.2 M550.49,440.63l15.24-0.04v84.45l-15.26,0.03L550.49,440.63z M529.65,440.61
			l15.28-0.02v84.46l-15.28-0.02V440.61z M266.06,441.16h15.22l0.04,14.85l-15.26,0.01V441.16z M335.42,493.99
			c0.02,17.99,13.69,32.49,30.47,32.51c14.77-0.01,25.26-8.58,28.72-21.29h-16.28c-2.52,4.98-7.49,7.28-12.56,7.28
			c-7.19-0.01-12.95-4.75-14.91-12.34l44.88-0.01c2.21-24.67-12.32-38.91-29.85-38.91C349.14,461.22,335.4,475.97,335.42,493.99
			 M365.75,475.25c7.3-0.02,13.05,4.59,14.93,11.83l-29.58,0C353.28,479.84,358.83,475.24,365.75,475.25 M415.39,518.41
			c4.64,5.07,10.97,7.97,18.16,8c15.53-0.02,28.25-14.06,28.24-32.43c0.01-18.5-12.68-32.52-28.27-32.52
			c-6.82,0.01-12.94,2.67-17.42,7.27l-0.03-28.1l-15.34-0.01l-0.02,84.43l14.71,0.01L415.39,518.41 M431.27,476.2
			c8.49,0.01,15.32,7.74,15.3,17.88c0.01,9.91-6.79,17.53-15.24,17.54c-8.45,0-15.21-7.85-15.24-17.52
			C416.07,484.18,422.89,476.22,431.27,476.2 M302.1,507.16l0.01,17.9h-15.26l-0.01-84.43h15.27v44.77l19.5-22.59l21.02-0.01
			l-22.19,24.28l23.47,37.98l-19.41-0.02l-14.8-26.21L302.1,507.16 M266.08,462.8l15.23-0.01v62.29l-15.23-0.01L266.08,462.8z
			 M235.18,526.08c-6.78,0-12.87-2.77-17.33-7.34l-0.01,17.73h-15.28l0.01-73.68h14.59l0.01,6.51c4.58-4.94,10.93-7.95,18.05-7.95
			c15.48-0.01,28.14,13.96,28.15,32.24C263.36,512,250.71,526.09,235.18,526.08 M233.02,476.16c-8.42-0.01-15.18,7.8-15.18,17.42
			c-0.01,9.74,6.79,17.71,15.14,17.7c8.4-0.01,15.2-7.58,15.16-17.7C248.18,483.61,241.4,476.16,233.02,476.16 M197.4,466.82
			l-15.18-0.01c0.01-7.2-5.71-12.6-15.39-12.61c-8.05,0-15.49,3.26-15.5,9.64c-0.02,5.75,5.4,7.8,17.59,10.47
			c18.92,3.96,30.9,8.9,30.87,25.98c0.03,16.13-12.84,26.21-32.95,26.24c-15.62-0.03-32.66-9.04-32.63-29.12l15.15-0.01
			c0,9.86,9.42,14.54,17.47,14.55c8.73,0,17.81-3.24,17.81-11.19c0.01-5.31-4.11-8.54-18.83-11.56c-14.7-3-29.63-7.55-29.66-25.5
			c0.01-14.3,12.09-24.3,30.7-24.28C187.86,439.39,197.42,453.6,197.4,466.82"/>
	</g>
	<text transform="matrix(1 0 0 1 573.4401 446.7448)" class="st0 st1 st2">R</text>
	<path class="st0" d="M576.28,449.68c-3.03,0-5.5-2.47-5.5-5.5c0-3.04,2.47-5.51,5.5-5.51c3.04,0,5.5,2.47,5.5,5.51
		C581.78,447.21,579.32,449.68,576.28,449.68z M576.28,439.07c-2.81,0-5.1,2.29-5.1,5.11c0,2.82,2.29,5.11,5.1,5.11
		c2.81,0,5.11-2.29,5.11-5.11C581.39,441.35,579.09,439.07,576.28,439.07z"/>
</g>
</svg>
