<svg xmlns="http://www.w3.org/2000/svg" viewBox="0 0 447.57 357.02"><defs><style>.cls-1,.cls-2{fill:#fff;}.cls-2{isolation:isolate;font-size:7.95px;font-family:ArialMT, Arial;}</style></defs><title>spikeball</title><g id="Layer_2" data-name="Layer 2"><g id="Layer_1-2" data-name="Layer 1"><path class="cls-1" d="M224.74,0h-101l29.3,29.74v.06a107.9,107.9,0,0,0-31.66,76.74c0,58.82,46.25,106.56,103.33,106.57S328,165.37,328.05,106.55,281.79,0,224.74,0m0,198.52c-49.25-.09-89.09-41.2-89.18-92A92.9,92.9,0,0,1,168,35.64l6.09-5.2L158.29,14.58l66.44,0h0c49.24.09,89.08,41.17,89.17,92-.09,50.76-39.93,91.87-89.16,92"/><path class="cls-1" d="M224.74,24c-44.23,0-80.06,37-80.07,82.57s35.83,82.57,80.07,82.57,80.05-37,80.05-82.57S269,24,224.74,24m0,150.92c-36.6-.07-66.21-30.64-66.28-68.35s29.67-68.28,66.28-68.35S291,68.81,291,106.56s-29.68,68.29-66.27,68.35"/><path class="cls-1" d="M281.83,106.56c-.05-32.52-25.57-58.82-57.09-58.88-25.26,0-46.64,16.92-54.19,40.34h0l17.84,18.27-20.68-2.47c0,.91-.07,1.83-.07,2.75.06,32.5,25.57,58.83,57.1,58.89,26.3,0,48.42-18.39,55-43.34L264.21,105.5l17.59,2.27c0-.41,0-.81,0-1.21M228.54,87.12l36,38.35c-6.95,15.52-22.12,26.31-39.76,26.31-19.9,0-36.7-13.68-42-32.41l42.22,5L186.27,84.84a43.64,43.64,0,0,1,38.47-23.49c19.24,0,35.57,12.82,41.45,30.62Z"/><path class="cls-1" d="M357,346.92a24.33,24.33,0,0,0,18.24-8l0,6.66h14.56l0-62.27H375.2l0,6.65A24.14,24.14,0,0,0,357,282c-15.45,0-28.29,14-28.3,32.52,0,18.34,12.84,32.4,28.31,32.38m2.29-50.17c8.44,0,15.25,8,15.22,17.9,0,9.67-6.8,17.55-15.25,17.52S344,324.56,344,314.65c0-10.17,6.84-17.89,15.25-17.9m57-35.57,15.24,0v84.45l-15.26,0Zm-20.84,0,15.28,0V345.6l-15.28,0Zm-263.59.55h15.22l0,14.85H131.85Zm69.36,52.83c0,18,13.69,32.49,30.47,32.51,14.77,0,25.26-8.58,28.72-21.29H244.12c-2.52,5-7.49,7.28-12.56,7.28-7.19,0-12.95-4.75-14.91-12.34h44.88c2.21-24.67-12.32-38.91-29.85-38.91-16.75,0-30.49,14.74-30.47,32.76m30.33-18.74c7.3,0,13.05,4.59,14.93,11.83H216.89c2.18-7.24,7.73-11.84,14.65-11.83M281.18,339a24.33,24.33,0,0,0,18.16,8c15.53,0,28.25-14.06,28.24-32.43S314.9,282,299.31,282a24.08,24.08,0,0,0-17.42,7.27l0-28.1H266.52l0,84.43h14.71l0-6.65m15.88-42.21c8.49,0,15.32,7.74,15.3,17.88,0,9.91-6.79,17.53-15.24,17.54s-15.21-7.85-15.24-17.52c0-9.92,6.8-17.88,15.18-17.9m-129.17,31v17.9H152.64V261.18H167.9V306l19.5-22.59h21l-22.19,24.28,23.47,38-19.41,0-14.8-26.21-7.6,8.33m-36-44.36H147.1v62.29H131.87ZM101,346.63a24,24,0,0,1-17.33-7.34V357H68.35V283.34H83v6.51a24.42,24.42,0,0,1,18.05-8c15.48,0,28.14,14,28.15,32.24S116.5,346.64,101,346.63m-2.16-49.92c-8.42,0-15.18,7.8-15.18,17.42s6.79,17.71,15.14,17.7,15.2-7.58,15.16-17.7c0-10-6.74-17.42-15.12-17.42m-35.62-9.34H48c0-7.2-5.71-12.6-15.39-12.61-8,0-15.49,3.26-15.5,9.64,0,5.75,5.4,7.8,17.59,10.47,18.92,4,30.9,8.9,30.87,26,0,16.13-12.84,26.21-32.95,26.24C17,347.05,0,338,0,318H15.15c0,9.86,9.42,14.54,17.47,14.55,8.73,0,17.81-3.24,17.81-11.19,0-5.31-4.11-8.54-18.83-11.56S2,302.2,1.94,284.25C2,270,14,260,32.64,260c21,0,30.57,14.18,30.55,27.4"/><text class="cls-2" transform="translate(439.23 267.29)">R</text><path class="cls-1" d="M442.07,270.23a5.51,5.51,0,1,1,5.5-5.5A5.51,5.51,0,0,1,442.07,270.23Zm0-10.61a5.11,5.11,0,1,0,5.11,5.11A5.11,5.11,0,0,0,442.07,259.62Z"/></g></g></svg>