<?xml version="1.0" encoding="utf-8"?>
<!-- Generator: Adobe Illustrator 23.1.1, SVG Export Plug-In . SVG Version: 6.00 Build 0)  -->
<svg version="1.1" id="Layer_1" xmlns="http://www.w3.org/2000/svg" xmlns:xlink="http://www.w3.org/1999/xlink" x="0px" y="0px"
	 viewBox="0 0 516.9 75" style="enable-background:new 0 0 516.9 75;" xml:space="preserve">
<style type="text/css">
	.st0{fill:#FFFFFF;}
</style>
<path class="st0" d="M104.4,68.1c-7.2,0-13.8-0.8-19.6-6.6l7.5-7.5c3.8,3.8,8.7,4.3,12.3,4.3c4,0,8.1-1.3,8.1-4.8
	c0-2.3-1.2-3.9-4.9-4.2l-7.2-0.7c-8.3-0.8-13.4-4.4-13.4-12.9c0-9.5,8.4-14.7,17.8-14.7c7.2,0,13.2,1.2,17.6,5.4l-7.1,7.2
	c-2.7-2.4-6.7-3.1-10.7-3.1c-4.6,0-6.5,2.1-6.5,4.4c0,1.7,0.7,3.6,4.8,4l7.2,0.7c9.1,0.9,13.7,5.7,13.7,13.5
	C124,63.3,115.3,68.1,104.4,68.1z M144,67.6c-9.4,0-13.3-6.6-13.3-13.2V31.6h-4.9v-8.7h4.9V9.3h11.5v13.6h8.1v8.7h-8.1v22.1
	c0,2.6,1.2,4.2,4,4.2h4.2v9.7C150.4,67.6,144,67.6,144,67.6z M155.4,13.7V4.3h11.8v9.4H155.4z M155.6,67.6v-46h11.5v46H155.6z
	 M193,68.1c-9.2,0-20.6-4.9-20.6-23.6c0-18.6,11.4-23.5,20.6-23.5c6.4,0,11.1,1.9,15.2,6.2l-7.8,7.8c-2.4-2.6-4.4-3.6-7.4-3.6
	c-2.7,0-4.9,1-6.5,3c-1.8,2.2-2.6,5.3-2.6,10.2s0.8,8,2.6,10.3c1.7,2,3.8,3,6.5,3c3,0,5-1.1,7.4-3.6l7.8,7.7
	C204.1,66.1,199.4,68.1,193,68.1z M239.9,67.6l-11.3-19.2l-4.9,5.5v13.7h-11.5V4.7h11.5v35.7L239,21.6h13.9l-16.4,18.6l17.7,27.5
	L239.9,67.6z"/>
<path class="st0" d="M263.7,48.1c0,5.9,3.6,10.2,10.1,10.2c5,0,7.5-1.4,10.4-4.3l7,6.8c-4.7,4.7-9.2,7.2-17.5,7.2
	c-10.9,0-21.3-4.9-21.3-23.6c0-15,8.1-23.5,20.1-23.5c12.8,0,20.1,9.4,20.1,22V48L263.7,48.1z M280.2,35.3c-1.2-2.7-3.8-4.8-7.7-4.8
	s-6.5,2-7.7,4.8c-0.7,1.7-1,2.9-1.1,4.9h17.5C281.1,38.2,280.9,37,280.2,35.3L280.2,35.3z M323,34.1c-1.8-1.8-3.3-2.7-6.1-2.7
	c-3.5,0-7.4,2.7-7.4,8.5v27.7H298v-46h11.2V26c2.2-2.7,6.6-4.9,11.6-4.9c4.5,0,7.7,1.1,10.9,4.3C331.7,25.4,323,34.1,323,34.1z
	 M49.4,72.7c-0.7,0.3-1.6,0.2-2.5,0.3c-0.8,0-1.9,0-2.4-0.4c-0.3-0.2-0.3-0.7-0.3-1s0.1-0.8,0.1-1.1c0.1-0.4,0.2-1,0-1.3
	S43.4,69,43,68.8s-0.5-0.8-0.6-1.4c0-0.2-0.2-0.4-0.2-0.5c-0.1-0.9,0.2-2.2,0.4-3.1c0.2-1,0.5-1.9,0.7-2.9c0.3-1.4,0.3-3,0.2-4.5
	c0-0.8-0.2-1.4,0-2c0.1-0.6,0.4-1.1,0.5-1.7v-0.6c0-0.2,0.1-0.3,0.1-0.5c0-0.4-0.1-0.9-0.1-1.4c-0.1-1.3,0-3.2,0.1-4.3
	c0-0.4,0.2-0.8-0.1-1c-1.4,0-2.6,0.2-3.9,0.4c-3.4,0.4-7.8,0.5-11.1-0.2C28.7,45,28.4,45,28.1,45c-2.4-0.5-4.5-1.6-6.2-2.9
	c-0.3-0.2-0.6-0.4-0.9-0.7c-0.3-0.2-0.6-0.5-0.9-0.7c-1.3-0.6-3.1,0.1-3.7,1c-0.2,0.3-0.4,0.8-0.6,1.2c-0.2,0.4-0.4,0.8-0.5,1.2
	c-0.9,2-1.9,4-2.8,6c-0.5,1.2-1.1,2.5-1.5,3.8c-0.8,2.8-0.1,6.5,0.6,9.2c0.1,0.2,0.2,0.5,0.3,0.8c0.2,0.6,0.6,1.5,1.1,1.9
	c0.3,0.2,0.7,0.4,1,0.6c0.4,0.3,0.6,0.9,0.9,1.5c0.1,0.2,0.3,0.5,0.4,0.8c0.3,0.6,0.5,1.1-0.2,1.5c-0.5,0.3-1.3,0.3-2,0.4
	c-0.3,0.1-0.2,0.5-0.4,0.7c-0.1,0.1-0.6,0.3-0.8,0.4C11,72,9.4,72,8.7,71.7c-0.4-0.1-0.8-0.4-0.9-0.7c-0.2-0.6,0.3-1.3-0.1-1.7
	c-0.2-0.2-0.6-0.2-0.9-0.3c-0.5-0.2-0.9-0.7-1.2-1.2c-0.5-1.4-0.2-3.5-0.3-5.2c0-0.5-0.1-1-0.1-1.6c0-1-0.3-2-0.4-3
	c-0.1-0.5-0.2-0.9-0.3-1.3C4.3,56,4.2,55.2,4,54.5c-0.2-0.8-0.2-1.6,0-2.2c0.1-0.2,0.3-0.4,0.4-0.6c0.2-0.4,0.2-0.8,0.2-1.2
	c-0.1-0.2-0.6,0-0.7-0.2c-0.3-2.2-0.6-4.3-0.8-6.6C3,42.9,3,42.2,3,41.4c-0.1-1.5,0-3.1-0.2-4.6l-0.3-2.1c-0.3-2-0.8-4.5-0.4-6.6
	c0.3-1.3,0.7-2.4,1.5-3.4c0.5-0.7,1.1-1.3,1.7-2c0.6-0.6,1.3-1.2,2-1.7c0.5-0.3,1-0.7,1.5-1c1.1-0.5,2.6-1,4.2-1.1s3.4-0.1,4.9,0.2
	c1.5,0.3,3,0.5,4.5,0.8c1.4,0.3,2.8,0.7,4.2,1c0.2,0,0.3,0.2,0.5,0.2c0.4,0.1,0.9,0.1,1.4,0.3c1.3,0.3,2.9,0.5,4.5,0.5
	c1.7,0,3.2,0,4.6-0.4c0.2-0.1,0.4-0.2,0.6-0.2c0.2-0.1,0.5-0.1,0.7-0.1c0.1,0,0.3-0.2,0.4-0.3c0.8-0.4,1.5-0.8,2.2-1.3
	c0.6-0.4,1-0.7,1.8-1c0.3-0.1,0.7-0.3,1-0.4c0.7-0.2,1.5-0.4,2-0.8c0.9-0.5,1.5-1.3,2.2-2c0.7-0.6,1.5-1.3,2.3-1.9
	c1.6-1.3,3.2-2.4,4.7-3.6c0.8-0.6,1.6-1.2,2.5-1.7c1.7-1,3.5-2.1,6-2.3c1-0.1,2-0.1,3,0c0.3,0,0.6,0.2,0.9,0.1s0.5-0.5,0.6-0.8
	c0.4-0.7,0.6-1.1,1-1.9c0.2-0.5,0.1-1,0.6-1s0.4,1.3,0.4,1.8c0,0.6-0.1,1.4,0,1.8c0.1,0.3,0.5,0.7,0.9,0.7c0.3,0,0.5-0.2,0.7-0.4
	C72.4,6,72.6,6,72.8,5.8c0.4-0.3,0.9-0.8,1.3-1.2c0.3-0.3,0.9-1.2,1.4-1.1c1,0.1,0,1.6-0.2,2c-0.5,1.1-1,2-1.6,3
	c-0.2,0.4-0.8,1-0.8,1.5c0,0.3,0.3,0.5,0.4,0.9c0.1,0.2,0.1,0.3,0.2,0.5c0.3,0.8,0.6,1.9,0.9,2.8c0.2,0.8,0.4,1.6,0.7,2.3
	c0.3,0.7,0.7,1.4,1,2.2c0.1,0.2,0.1,0.4,0.2,0.6c0.6,1.6,1.2,3.4,2,5c0.3,0.6,0.7,1.4,0.7,2.3c0,1-0.5,1.5-1,2.3
	c-0.2,0.4-0.6,1-1,1.1c-0.3,0.1-0.6,0-0.9,0c-0.4,0.1-0.7,0.3-1,0.3c-0.9,0.1-1.8-0.6-2-1.3c-0.1-0.2,0-0.5-0.1-0.8
	c-0.2-1.1-0.8-1.6-1.5-2.4C71,25.3,70.6,25,70,24.7c-0.9-0.5-1.8-0.7-2.8-1.2c-0.3-0.2-0.8-0.4-1.1-0.3c-0.5,0.1-1,0.9-1.4,1.4
	c-2.4,3.2-4.6,6.5-6.9,9.6c-1.6,2.1-3.2,4.2-4.5,6.5c-0.3,0.6-0.5,1.3-0.8,2c-0.2,0.7-0.4,1.4-0.6,2.2c-0.9,2.6-1.2,5.8-2,8.5
	c-0.1,0.3-0.1,0.6-0.2,0.9c-0.4,1.4-0.8,3-1.2,4.5c-0.3,1.1-0.4,2.6-0.5,4c0,1.4-0.1,3.3,0.4,4.1c0.3,0.5,1.2,0.6,1.5,1.1
	c0.2,0.3,0.4,1,0.7,1.4c0.2,0.3,0.7,0.9,0.6,1.4c0,0.3-0.3,0.6-0.6,0.7s-0.7,0.1-1,0.2C49.6,72.1,49.7,72.5,49.4,72.7L49.4,72.7z"/>
<path class="st0" d="M383.3,21c-5.7,0-9.9,1.8-13.8,5.8c-2.9-4-7.1-5.8-12.2-5.8c-4.2,0-8.5,1.7-11.5,4.8v-4.2h-11.2v46h11.5V39.8
	c0-6.3,4.1-8.4,7.7-8.4s7.6,2.1,7.6,8.4v27.8h11.5V39.5c0-6,4.2-8.1,7.7-8.1c3.6,0,7.6,2.1,7.6,8.4v27.8h11.5V38.2
	c0-5-1.3-9.4-5-13.1C392,22.5,387.9,21,383.3,21L383.3,21z M433.2,49.4c0,6.3-4.1,8.4-7.7,8.4s-7.6-2.1-7.6-8.4V21.5h-11.5V51
	c0,5,1,9.4,4.7,13.1c2.6,2.6,6.3,4.1,10.9,4.1c4.2,0,8.5-1.6,11.5-4.8v4.2h11.2v-46h-11.5C433.2,21.6,433.2,49.4,433.2,49.4z
	 M463.5,53.7v-49H452v49.7c0,6.5,4,13.2,13.4,13.2h6.5v-9.7h-4.4C464.6,57.9,463.5,56.5,463.5,53.7z M514.1,43
	c0-12.6-7.2-22-20.1-22c-11.9,0-20.1,8.5-20.1,23.5c0,18.6,10.4,23.6,21.3,23.6c8.3,0,12.8-2.6,17.5-7.2l-7-6.8
	c-2.9,2.9-5.4,4.3-10.4,4.3c-6.5,0-10.1-4.3-10.1-10.2H514C514,48.2,514.1,43,514.1,43z M485.3,40.3c0.1-2,0.4-3.3,1.1-4.9
	c1.2-2.7,3.8-4.8,7.7-4.8s6.4,2,7.7,4.8c0.7,1.7,1,2.9,1.1,4.9H485.3L485.3,40.3z"/>
</svg>
