<svg xmlns="http://www.w3.org/2000/svg" viewBox="0 0 847.41 311.39"><defs><style>.cls-1,.cls-2{fill:#fff;}.cls-2{stroke:#fff;stroke-miterlimit:10;stroke-width:3.41px;}.cls-3{fill:#0f1343;}</style></defs><title>tastytrade</title><g id="Layer_2" data-name="Layer 2"><g id="Logo"><path class="cls-1" d="M82.24,311.39C36.89,311.39,0,277.57,0,236s36.89-75.4,82.24-75.4,82.24,33.82,82.24,75.4S127.59,311.39,82.24,311.39Zm0-137.14c-37.82,0-68.59,27.7-68.59,61.75s30.77,61.74,68.59,61.74S150.83,270,150.83,236,120.06,174.25,82.24,174.25Z"/><path class="cls-1" d="M157.65,236c0,37.87-33.76,68.57-75.41,68.57S6.83,273.87,6.83,236s33.76-68.57,75.41-68.57,75.41,30.7,75.41,68.57"/><path class="cls-1" d="M115.75,245.07a22.45,22.45,0,0,1-4.08-.38,20.74,20.74,0,0,1-11.76-6.48,15.35,15.35,0,0,1-3.84-13c1.41-7.6,8.61-12.91,17.51-12.91a22.42,22.42,0,0,1,4.07.38c10.24,1.91,17.24,10.64,15.6,19.46C131.83,239.76,124.63,245.07,115.75,245.07ZM113.58,226c-2.51,0-4,1.13-4.1,1.76a2.08,2.08,0,0,0,.67,1.46,7.17,7.17,0,0,0,4,2.09,8.53,8.53,0,0,0,1.58.15c2.5,0,4-1.13,4.08-1.77.17-.88-1.53-3-4.69-3.54A8.24,8.24,0,0,0,113.58,226Z"/><path class="cls-1" d="M126.54,230.91c-1,5.13-7.05,8.3-13.61,7.07s-11.11-6.38-10.16-11.51,7.06-8.3,13.63-7.07,11.1,6.38,10.14,11.51"/><path class="cls-2" d="M56,185.36C35,194.78,21,214.21,21,236c0,31.23,28.47,56.63,63.46,56.63s63.47-25.4,63.47-56.63c0-23.16-15.67-43.12-38-51.88a11.77,11.77,0,0,1,1.75,3.94,11.64,11.64,0,0,1-1.42,8.88C105.85,204,96.79,209.07,86,210.48a43.87,43.87,0,0,1-4.49.35h-1c-10.87,0-20-4.2-24.94-11.51a11.77,11.77,0,0,1,.54-14Zm34-5.77a74.88,74.88,0,0,0,2.16,7.28l.92-1.19a17.84,17.84,0,0,1,5-5A68.22,68.22,0,0,0,90.06,179.59Z"/><path class="cls-1" d="M82.24,162.3c-1.27,0-2.52,0-3.77.09C75.9,113.21,92.22,68.54,125.63,33.24l.39-.33c12.6-10.56,12.6-10.56,14.93-12.22,1.1-.78,2.71-1.92,6.31-4.65l.4-.3.14-.49c.8-2.72-1-7-3.33-11.88-.41-.85-.76-1.61-1-2.22A1.83,1.83,0,0,0,141.76,0a3.43,3.43,0,0,0-2.07,1,4.53,4.53,0,0,1-2.43,1.27,2.31,2.31,0,0,1-1.49-.7,1.65,1.65,0,0,0-1.53-1c-.83,0-1.63,0-4.93,6.43-1.55,1.77-17,19.44-20.36,23.2C86.64,53.06,64.56,112,66.88,163.67,29.8,170.25,1.71,200.17,1.71,236c0,40.64,36.12,73.7,80.53,73.7s80.53-33.06,80.53-73.7S126.64,162.3,82.24,162.3m0,137.15C43.48,299.45,12,271,12,236c0-30.81,24.46-56.55,56.77-62.25,1.06,6.66,3.11,16.45,5.15,20.5,1,2,1.67,3.64,2.27,4.93l-.1,0c-6-1-8-3.75-9.88-6.52-1.54-2.25-3.67-5.5-5.91-4A4.9,4.9,0,0,0,59,195.49c3.83,5.63,11.18,8.73,20.17,8.51a35.32,35.32,0,0,0,3.77-.29c7.49-1,15.58-4.31,19.28-10.35a4.91,4.91,0,0,0-1.62-6.77c-2.31-1.42-5,6.34-10.52,9.62-.78.46-1.67,1-2.68,1.47-4.43-8.11-6.65-17.76-7.7-24.25,0-.27-.07-.55-.12-.82.9,0,1.8-.07,2.7-.07,38.76,0,70.29,28.47,70.29,63.45S121,299.45,82.24,299.45"/><path class="cls-1" d="M285.18,176.46c-3.82-.36-4.13-.39-4.13-6.31V139.89c0-17-8.55-24.9-26.92-24.9-20.78,0-32.7,8-32.7,21.93a13.65,13.65,0,0,0,1,5.6L223,144l21.31-4.68-.8-2.37a2.35,2.35,0,0,1-.21-.83c0-2.25,3.42-4.75,8.32-4.75,3.68,0,7.08,1.16,7.08,9.58v4.72l-19.29,5.56c-11,3.24-15.92,7-18.68,14.42a24.92,24.92,0,0,0-1.34,7.9C219.4,186,229,195,242.28,195c7.21,0,13.23-2.37,19.77-7.86,3.32,5.45,7.09,6.93,16.1,6.93h5.36l3.69-17.46Zm-37.14.45c-3.66,0-5.67-2-5.67-5.67a11.82,11.82,0,0,1,1-4.63l15.36-5v10.8a23.47,23.47,0,0,1-3.91,2.6A14.62,14.62,0,0,1,248,176.91Z"/><path class="cls-1" d="M344.85,154.09c-3.63-2.76-14.49-7.53-22.33-10.25-6.53-2.33-7.84-4-7.84-5.94,0-3,4.13-5,10-5a32.17,32.17,0,0,1,15.82,4.76c1.37.76,3,1.82,4.86,3l1.87,1.24,7.31-18.67-1.35-.78c-6.69-3.82-9.3-4.82-16.44-6.28a62,62,0,0,0-12.38-1.44c-18.72,0-31.29,9.87-31.29,24.58,0,10.46,6.51,18,19.87,23.06l12.5,4.84c5.52,2.07,6.16,4.39,6.16,5.95,0,3.27-4.95,4.43-9.58,4.43a23.52,23.52,0,0,1-7.55-1.32c-5-1.61-7.73-2.85-15.21-7.46l-1.84-1.13-7.32,18.67,1.46.75c8.18,4.16,11.61,5.44,18.38,6.86a58.56,58.56,0,0,0,12.24,1.44c18.43,0,30.82-9.56,30.82-23.8C353.05,164.51,349.72,157.46,344.85,154.09Z"/><path class="cls-1" d="M452,116.35l-11.38,33.7-.21.86L427,116.35H402.69l27.5,63.35c-3.77,10.8-5.92,15.31-10.67,22.52-3.77,6-6.34,9.07-13.2,16.41l-1.47,1.57,18.46,12.06,1-1.29c6.39-8,8.58-11,12.93-18.43a110.73,110.73,0,0,0,11.85-25.14l25.19-71.05Z"/><path class="cls-1" d="M647.57,176.93c-3.74-.34-4.13-.38-4.13-6.31V140.37c0-17-8.55-24.91-26.92-24.91-20.78,0-32.69,8-32.69,21.94a13.73,13.73,0,0,0,1,5.6l.54,1.5,21.3-4.67-.79-2.38a2.31,2.31,0,0,1-.21-.83c0-2.24,3.41-4.74,8.32-4.74,3.68,0,7.09,1.16,7.09,9.58v4.72l-19.3,5.55c-11,3.25-15.91,7-18.67,14.42a24.93,24.93,0,0,0-1.34,7.91c0,12.44,9.62,21.46,22.87,21.46,7.22,0,13.24-2.37,19.78-7.86,3.31,5.45,7.08,6.92,16.09,6.92h5.37l3.68-17.46Zm-37.13.46c-3.66,0-5.68-2-5.68-5.67a11.58,11.58,0,0,1,1-4.63l15.37-5v10.8a23.88,23.88,0,0,1-3.91,2.59A14.55,14.55,0,0,1,610.44,177.39Z"/><path class="cls-1" d="M702.47,76.18v42.6a20,20,0,0,0-7.35-2.75,24.75,24.75,0,0,0-6.9-.86c-20.09,0-36.44,19-36.44,42.37,0,22,13.29,38,31.6,38a26.84,26.84,0,0,0,14.53-4.34,20.24,20.24,0,0,0,4.56-3.69v6h22.18V76.18Zm0,72.16V167c-4.09,6.14-9.26,9.65-14.25,9.65-7.75,0-13.16-8.43-13.16-20.5,0-12.57,6.93-22,16.13-22,4.95,0,9.44,2.34,10.42,5.42A38,38,0,0,1,702.47,148.34Z"/><path class="cls-1" d="M795,167.6l-1.71,1.08c-6.64,4.17-9.28,5.48-13.47,6.67a25.72,25.72,0,0,1-8,1.17c-6.21,0-11.83-3-14.66-7.83-1.33-2.31-1.83-4.22-2.14-8.83h47.93v-9.77c0-20.62-13.26-35-32.22-35-21.75,0-38.15,18.09-38.15,42.06,0,23.18,14.48,38.16,36.9,38.16A59,59,0,0,0,794,190c1.93-.88,4.56-2.14,7.91-4l1.51-.83Zm-38.79-23.06c1.81-7.65,6.46-11.82,13.24-11.82,6.3,0,10.18,2,11,11.82Z"/><path class="cls-2" d="M173.79,128.37h9.27V172c0,13.8,5.78,16.5,15.77,16.5a27.29,27.29,0,0,0,10.56-1.87v-4.16a30.13,30.13,0,0,1-4,.27c-8.59,0-13.92-5.5-13.92-14.35v-40h18.25v-5.18H191.43V103.35h-8.37v19.84h-9.27Z"/><path class="cls-1" d="M197.19,195.31c-13.47,0-22.59-5.36-22.59-23.33V135.19h-9.27V116.36h9.27V96.52h22v19.84h18.25v18.83H196.61v33.17c0,5.08,2.17,7.54,7.1,7.54a22.5,22.5,0,0,0,10.87-2.75v17.66a32.42,32.42,0,0,1-17.39,4.5"/><path class="cls-2" d="M366,128.3h9.27v43.61c0,13.8,5.78,16.5,15.77,16.5a27.26,27.26,0,0,0,10.56-1.86v-4.16a31.63,31.63,0,0,1-4,.26c-8.59,0-13.92-5.5-13.92-14.35v-40h18.25v-5.18H383.59V103.28h-8.37v19.84H366Z"/><path class="cls-1" d="M389.15,195.24c-13.47,0-22.6-5.36-22.6-23.33V135.12h-9.27V116.29h9.27V96.45h22v19.84h18.25v18.83H388.57V168.3c0,5.07,2.17,7.53,7.1,7.53a22.5,22.5,0,0,0,10.87-2.75v17.66a32.42,32.42,0,0,1-17.39,4.5"/><path class="cls-2" d="M485.09,128.3h9.27v43.61c0,13.8,5.78,16.5,15.77,16.5a27.11,27.11,0,0,0,10.56-1.87v-4.15a31.75,31.75,0,0,1-4,.26c-8.59,0-13.92-5.5-13.92-14.35v-40H521v-5.18H502.73V103.28h-8.37v19.84h-9.27Z"/><path class="cls-1" d="M508.36,195.24c-13.47,0-22.6-5.36-22.6-23.33V135.12h-9.27V116.29h9.27V96.45h22v19.84H526v18.83H507.78V168.3c0,5.07,2.17,7.53,7.1,7.53a22.49,22.49,0,0,0,10.86-2.75v17.66a32.39,32.39,0,0,1-17.38,4.5"/><path class="cls-1" d="M577.09,137.88c-14.63,0-23.61,8.83-23.61,27.38v28.68h-22V116.29h22v15.64c4.5-10.71,11.73-17.67,24.77-17.09v23Z"/><path class="cls-3" d="M159.7,236c0,37.87-33.76,68.57-75.41,68.57S8.87,273.87,8.87,236s33.77-68.57,75.42-68.57S159.7,198.13,159.7,236"/><path class="cls-1" d="M128.59,230.91c-1,5.13-7,8.3-13.62,7.07s-11.11-6.38-10.15-11.51,7.05-8.3,13.62-7.07,11.1,6.38,10.15,11.51"/><path class="cls-1" d="M84.29,162.3c-1.27,0-2.53,0-3.78.09C78,113.21,94.27,68.54,127.68,33.24l.39-.33c12.6-10.56,12.6-10.56,14.92-12.22,1.11-.78,2.72-1.92,6.31-4.65l.41-.3.14-.49c.8-2.72-1-7-3.33-11.88-.41-.85-.77-1.61-1-2.22A1.83,1.83,0,0,0,143.81,0a3.46,3.46,0,0,0-2.08,1,4.54,4.54,0,0,1-2.42,1.27,2.26,2.26,0,0,1-1.49-.7,1.66,1.66,0,0,0-1.53-1c-.84,0-1.63,0-4.93,6.43-1.55,1.77-17,19.44-20.37,23.2C88.69,53.06,66.6,112,68.93,163.67,31.85,170.25,3.76,200.17,3.76,236c0,40.64,36.12,73.7,80.53,73.7s80.53-33.06,80.53-73.7S128.69,162.3,84.29,162.3m0,137.15C45.53,299.45,14,271,14,236c0-30.81,24.46-56.55,56.76-62.25,1.07,6.66,3.12,16.45,5.16,20.5,1,2,1.66,3.64,2.27,4.93l-.11,0c-6-1-8-3.75-9.88-6.52-1.53-2.25-3.66-5.5-5.9-4A4.9,4.9,0,0,0,61,195.49c3.83,5.63,11.18,8.73,20.17,8.51a35.32,35.32,0,0,0,3.77-.29c7.49-1,15.58-4.31,19.28-10.35a4.92,4.92,0,0,0-1.62-6.77c-2.32-1.42-5,6.34-10.53,9.62-.77.46-1.66,1-2.67,1.47-4.44-8.11-6.65-17.76-7.7-24.25l-.12-.82c.9,0,1.79-.07,2.7-.07,38.76,0,70.29,28.47,70.29,63.45s-31.53,63.46-70.29,63.46"/><path class="cls-1" d="M843.87,136.23a12.06,12.06,0,0,1-17.09,0,11.74,11.74,0,0,1-3.5-8.57,12.07,12.07,0,1,1,20.59,8.57ZM828,120.33a10.53,10.53,0,0,0,0,14.75,10.36,10.36,0,0,0,14.7,0,10.49,10.49,0,0,0,0-14.75,10.35,10.35,0,0,0-14.69,0Zm7.11.67a10.06,10.06,0,0,1,3.62.48,3.29,3.29,0,0,1,2,3.36,2.87,2.87,0,0,1-1.29,2.61,5,5,0,0,1-1.91.65,3.23,3.23,0,0,1,2.27,1.29,3.68,3.68,0,0,1,.72,2.06v1c0,.3,0,.63,0,1a2.66,2.66,0,0,0,.11.69l.09.17h-2.19a.5.5,0,0,0,0-.13l0-.15,0-.43V132.5c0-1.53-.42-2.54-1.25-3a5.66,5.66,0,0,0-2.6-.43h-1.84v5.22h-2.34V121Zm2.52,2.09a6.08,6.08,0,0,0-2.83-.49h-2v4.8h2.11a6.31,6.31,0,0,0,2.23-.3,2.39,2.39,0,0,0,.48-4Z"/><path class="cls-1" d="M287.23,176.46c-3.82-.36-4.13-.39-4.13-6.31V139.89c0-17-8.56-24.9-26.93-24.9-20.78,0-32.69,8-32.69,21.93a13.65,13.65,0,0,0,1,5.6l.53,1.51,21.31-4.68-.79-2.37a2.24,2.24,0,0,1-.22-.83c0-2.25,3.42-4.75,8.33-4.75,3.68,0,7.08,1.16,7.08,9.58v4.72l-19.29,5.56c-11,3.24-15.92,7-18.68,14.42a24.92,24.92,0,0,0-1.34,7.9c0,12.44,9.62,21.46,22.87,21.46,7.22,0,13.24-2.37,19.78-7.86,3.31,5.45,7.09,6.93,16.1,6.93h5.36l3.69-17.46Zm-37.14.45c-3.66,0-5.68-2-5.68-5.67a11.82,11.82,0,0,1,1-4.63l15.37-5v10.8a23.47,23.47,0,0,1-3.91,2.6A14.62,14.62,0,0,1,250.09,176.91Z"/><path class="cls-1" d="M454.09,116.35l-11.38,33.7-.21.86L429,116.35H404.74l27.5,63.35c-3.77,10.8-5.92,15.31-10.67,22.52-3.77,6-6.34,9.07-13.2,16.41l-1.47,1.57,18.46,12.06,1-1.29c6.38-8,8.57-11,12.92-18.43a111.19,111.19,0,0,0,11.86-25.14l25.19-71.05Z"/><path class="cls-1" d="M649.62,176.93c-3.74-.34-4.13-.38-4.13-6.31V140.37c0-17-8.55-24.91-26.93-24.91-20.77,0-32.69,8-32.69,21.94a13.74,13.74,0,0,0,1,5.6l.53,1.5,21.31-4.67-.79-2.38a2.31,2.31,0,0,1-.21-.83c0-2.24,3.41-4.74,8.32-4.74,3.68,0,7.08,1.16,7.08,9.58v4.72l-19.29,5.55c-11,3.25-15.91,7-18.67,14.42a25,25,0,0,0-1.35,7.91c0,12.44,9.62,21.46,22.87,21.46,7.22,0,13.24-2.37,19.78-7.86,3.32,5.45,7.09,6.92,16.1,6.92H648l3.68-17.46Zm-37.13.46c-3.67,0-5.68-2-5.68-5.67a11.71,11.71,0,0,1,1-4.63l15.37-5v10.8a23,23,0,0,1-3.91,2.59A14.51,14.51,0,0,1,612.49,177.39Z"/><path class="cls-1" d="M690.27,115.17c-20.09,0-36.44,19-36.44,42.37,0,22,13.29,38,31.6,38A26.84,26.84,0,0,0,700,191.2a20.46,20.46,0,0,0,4.56-3.69v6H726.7V76.18H704.52v42.6m0,29.56V167c-4.09,6.14-9.27,9.65-14.25,9.65-7.75,0-13.17-8.43-13.17-20.5,0-12.57,6.94-22,16.13-22,5,0,9.45,2.34,10.43,5.42A38,38,0,0,1,704.52,148.34Z"/><path class="cls-1" d="M199.24,195.31c-13.47,0-22.6-5.36-22.6-23.33V135.19h-9.27V116.36h9.27V96.52h22v19.84h18.25v18.83H198.66v33.17c0,5.08,2.17,7.54,7.1,7.54a22.44,22.44,0,0,0,10.86-2.75v17.66a32.41,32.41,0,0,1-17.38,4.5"/><path class="cls-1" d="M391.2,195.24c-13.47,0-22.6-5.36-22.6-23.33V135.12h-9.27V116.29h9.27V96.45h22v19.84h18.25v18.83H390.62V168.3c0,5.07,2.17,7.53,7.1,7.53a22.49,22.49,0,0,0,10.86-2.75v17.66a32.36,32.36,0,0,1-17.38,4.5"/><path class="cls-1" d="M510.41,195.24c-13.48,0-22.6-5.36-22.6-23.33V135.12h-9.27V116.29h9.27V96.45h22v19.84h18.25v18.83H509.82V168.3c0,5.07,2.18,7.53,7.1,7.53a22.5,22.5,0,0,0,10.87-2.75v17.66a32.41,32.41,0,0,1-17.38,4.5"/><path class="cls-1" d="M579.14,137.88c-14.64,0-23.61,8.83-23.61,27.38v28.68h-22V116.29h22v15.64c4.49-10.71,11.73-17.67,24.77-17.09v23Z"/><path class="cls-1" d="M27.19,241.51c-5.29,20.08,14.69,40.33,27.74,46,11.44,4.94,34.07,8.26,49.95-1.38-25.53-2.38-62.2-9.4-77-44.59"/></g></g></svg>