<?xml version="1.0" encoding="utf-8"?>
<!-- Generator: Adobe Illustrator 23.0.6, SVG Export Plug-In . SVG Version: 6.00 Build 0)  -->
<svg version="1.1" id="Layer_1" xmlns="http://www.w3.org/2000/svg" xmlns:xlink="http://www.w3.org/1999/xlink" x="0px" y="0px"
	 viewBox="0 0 374 100" style="enable-background:new 0 0 374 100;" xml:space="preserve">
<style type="text/css">
	.st0{fill:#FFFFFF;}
</style>
<g>
	<g>
		<path class="st0" d="M303.27,32.18l-10.5,2.53c-0.45,0.11-0.77,0.51-0.77,0.97v42.46c0,0.55,0.45,1,1,1h10.5c0.55,0,1-0.45,1-1
			v-45C304.5,32.51,303.89,32.03,303.27,32.18z"/>
		<path class="st0" d="M372.77,6.18l-10.5,2.49c-0.45,0.11-0.77,0.51-0.77,0.97v24.66c-4.46-2.52-9.78-3.69-15.4-2.92
			c-11,1.5-19.74,10.48-20.95,21.52c-1.61,14.73,9.94,27.25,24.35,27.25c5.02,0,9.69-1.52,13.57-4.12l2.38,2.77
			c0.19,0.22,0.47,0.35,0.76,0.35H373c0.55,0,1-0.45,1-1v-71C374,6.51,373.4,6.03,372.77,6.18z M361.4,57.22
			c-0.68,5.34-5,9.66-10.34,10.33c-7.84,1-14.46-5.63-13.46-13.47c0.68-5.34,5-9.66,10.34-10.33
			C355.78,42.76,362.4,49.38,361.4,57.22z"/>
		<circle class="st0" cx="316.5" cy="38.41" r="7.25"/>
		<path class="st0" d="M184,32.16h-10.5c-0.55,0-1,0.45-1,1v45c0,0.55,0.45,1,1,1H184c0.55,0,1-0.45,1-1v-45
			C185,32.6,184.55,32.16,184,32.16z"/>
		<circle class="st0" cx="178.75" cy="13.41" r="7.25"/>
		<path class="st0" d="M232.75,32.16h-34.72h-6c-0.65,0-1.13,0.61-0.97,1.24l2.5,10c0.11,0.45,0.51,0.76,0.97,0.76h21.22
			l-24.68,23.7c-0.21,0.19-0.32,0.46-0.32,0.73v9.56c0,0.55,0.45,1,1,1h36.28h4.44c0.65,0,1.13-0.61,0.97-1.24l-2.5-10
			c-0.11-0.45-0.51-0.76-0.97-0.76h-22.22l25.68-23.7c0.21-0.19,0.32-0.46,0.32-0.73v-9.56C233.75,32.6,233.3,32.16,232.75,32.16z"
			/>
		<path class="st0" d="M284.77,32.19l-10.5,2.53c-0.01,0-0.02,0.01-0.03,0.01c-3.71-2.27-8.07-3.58-12.73-3.58
			c-13.51,0-24.5,10.99-24.5,24.5s10.99,24.5,24.5,24.5c5.03,0,9.71-1.52,13.6-4.13l2.35,2.78c0.19,0.22,0.47,0.35,0.76,0.35H285
			c0.55,0,1-0.45,1-1v-45C286,32.51,285.39,32.03,284.77,32.19z M261.5,67.66c-6.62,0-12-5.38-12-12s5.38-12,12-12s12,5.38,12,12
			S268.12,67.66,261.5,67.66z"/>
		<path class="st0" d="M165.5,32.16H155c-0.55,0-1,0.45-1,1v21.5c0,7.17-5.94,13-13.25,13s-13.25-5.83-13.25-13v-21.5
			c0-0.55-0.45-1-1-1H116c-0.55,0-1,0.45-1,1v21.5c0,14.06,11.55,25.5,25.75,25.5s25.75-11.44,25.75-25.5v-21.5
			C166.5,32.6,166.05,32.16,165.5,32.16z"/>
	</g>
	<path class="st0" d="M60,0H40C17.91,0,0,17.91,0,40v20c0,22.09,17.91,40,40,40h20c22.09,0,40-17.91,40-40V40
		C100,17.91,82.09,0,60,0z M49.8,74.16C36.68,74.16,26,63.62,26,50.68V35.96c0-0.55,0.45-1,1-1h8c0.55,0,1,0.45,1,1v14.72
		c0,7.43,6.19,13.48,13.8,13.48c7.29,0,13.28-5.55,13.77-12.56c0.04-0.53,0.5-0.92,1.02-0.92l7.98,0c0.56,0,1.03,0.46,1,1.03
		C73.03,64.17,62.57,74.16,49.8,74.16z M73.48,41.95c-0.48,1.1-1.38,2-2.48,2.48c-4.39,1.92-8.62-1.79-7.66-6.12
		c0.44-1.99,2.04-3.59,4.03-4.03C71.69,33.33,75.4,37.56,73.48,41.95z"/>
</g>
</svg>
