<svg width="203" height="67" viewBox="0 0 203 67" fill="none" xmlns="http://www.w3.org/2000/svg">
<path d="M202.218 46.6476C194.459 73.054 23.0582 73.7594 0.504193 48.7933C-0.314562 46.422 -0.118706 44.2734 0.964922 42.3371L2.11188 26.2648L6.18821 30.1063V20.0244L12.4118 30.5451L16.6851 11.5228L25.6281 31.1394L29.4641 15.556L36.6523 27.1489L32.6589 4.65043L43.3848 15.9259L48.9504 6.64815V21.7767L52.2583 25.2542L55.1397 6.64815L63.5796 20.0244L66.9997 2.40059L76.6341 26.0462L77.0834 25.84V6.64815L87.9529 18.9015L92.2752 4.65043L94.8263 15.556L102.941 4.65043L105.781 17.625L115.344 0L118.927 17.7851L129.295 8.16199L132.526 17.1225L141.789 2.40059L137.476 23.4306L150.792 7.68188V23.0657L158.413 18.2954L160.446 4.65043L163.637 15.025L169.232 11.5228L164.504 17.8431L168.142 29.6716L173.224 14.4035L178.343 26.8005L184.552 15.556L186.968 27.8888L196.932 17.0246V31.0587L201.431 25.649L201.857 37.0127C203.13 39.2649 203.464 42.4054 202.218 46.6476Z" fill="#48AB87"/>
</svg>
