<svg width="128" height="70" viewBox="0 0 128 70" fill="none" xmlns="http://www.w3.org/2000/svg">
<path d="M126.594 48.5794C121.737 76.0794 14.435 76.814 0.315638 50.814C-0.196924 48.3445 -0.0743129 46.1068 0.604066 44.0904L1.32209 27.3525L3.87398 31.3531V20.8536L7.77013 31.8101L10.4453 12L16.0438 32.429L18.4453 16.2002L22.9453 28.2732L20.4453 4.84302L27.16 16.5855L30.6442 6.92346V22.6785L32.7151 26.3L34.5189 6.92346L39.8025 20.8536L41.9436 2.5L47.9749 27.1249L48.2562 26.9101V6.92346L55.0608 19.6843L57.7667 4.84302L59.3637 16.2002L64.4436 4.84302L66.2216 18.3549L72.2086 0L74.4511 18.5216L80.9418 8.5L82.9645 17.8315L88.7638 2.5L86.0634 24.401L94.3997 8V24.0209L99.1704 19.0531L100.444 4.84302L102.441 15.6473L105.944 12L102.984 18.5821L105.261 30.9003L108.443 15L111.647 27.9103L115.534 16.2002L117.047 29.0438L123.284 17.7296V32.3449L126.101 26.7112L126.368 38.5455C127.164 40.8909 127.374 44.1615 126.594 48.5794Z" fill="#48AB87"/>
</svg>
