<svg width="260" height="210" viewBox="0 0 260 210" fill="none" xmlns="http://www.w3.org/2000/svg">
<path d="M59.0608 105.404C163.286 132.518 90.5981 191.854 196.354 188.077C252.319 175.933 241.057 81.0794 125.855 32.9482C10.6525 -15.1831 16.0191 94.207 59.0608 105.404Z" stroke="white" stroke-width="3"/>
<path d="M70.3337 97.325C152.692 119.215 96.0886 163.913 179.323 162.146C223.262 153.436 213.383 80.6239 122.156 42.5098C30.9302 4.39572 36.3223 88.285 70.3337 97.325Z" stroke="white" stroke-width="3"/>
<path d="M81.6123 94.1272C145.543 113.795 106.406 135.889 169.096 141.526C201.565 139.866 188.255 95.6697 116.326 65.6182C44.3981 35.5668 55.2111 86.005 81.6123 94.1272Z" stroke="white" stroke-width="3"/>
<path d="M106.403 96.33C133.449 103.196 114.282 119.394 141.847 117.969C156.474 114.493 153.91 89.0965 124.086 76.6361C94.2622 64.1757 95.2339 93.4945 106.403 96.33Z" stroke="white" stroke-width="3"/>
</svg>
