<svg width="292" height="281" viewBox="0 0 292 281" fill="none" xmlns="http://www.w3.org/2000/svg">
<path d="M114.426 209.49C190.756 132.068 219.302 252.956 264.05 147.648C277.127 83.2457 172.804 13.0249 69.4538 83.0745C-33.8963 153.124 82.9049 241.463 114.426 209.49Z" stroke="white" stroke-width="3"/>
<path d="M111.174 191.701C171.975 130.92 192.627 223.768 229.106 141.917C240.235 92.0593 159.585 39.3474 77.7449 94.8182C-4.09576 150.289 86.0647 216.802 111.174 191.701Z" stroke="white" stroke-width="3"/>
<path d="M113.024 178.083C163.017 133.19 168.088 189.854 202.845 134.162C216.06 101.403 163.74 76.4666 99.2117 120.203C34.6836 163.94 92.3785 196.623 113.024 178.083Z" stroke="white" stroke-width="3"/>
<path d="M126.74 156.034C146.37 135.798 154.473 168.146 165.677 140.321C168.779 123.231 141.055 103.994 114.299 122.129C87.5434 140.264 118.634 164.391 126.74 156.034Z" stroke="white" stroke-width="3"/>
</svg>
