<svg width="318" height="219" viewBox="0 0 318 219" fill="none" xmlns="http://www.w3.org/2000/svg">
<path d="M250.705 62.8355C100.396 88.0908 162.701 -49.7888 27.189 23.9289C-39.0092 78.5348 27.189 217.097 203.198 217.097C379.208 217.097 312.778 52.4059 250.705 62.8355Z" stroke="white" stroke-width="3"/>
<path d="M240.436 82.4933C121.41 101.735 170.747 -3.31573 63.4388 52.8501C11.0179 94.4546 63.4388 200.026 202.817 200.026C342.194 200.026 289.59 74.5469 240.436 82.4933Z" stroke="white" stroke-width="3"/>
<path d="M227.498 94.6499C133.65 105.474 172.551 46.3823 87.942 77.9756C46.6102 101.378 87.942 160.762 197.836 160.762C307.73 160.762 266.254 90.1801 227.498 94.6499Z" stroke="white" stroke-width="3"/>
<path d="M194.05 107.186C155.137 114.001 171.267 76.7954 136.185 96.6875C119.047 111.422 136.185 148.812 181.751 148.812C227.317 148.812 210.119 104.372 194.05 107.186Z" stroke="white" stroke-width="3"/>
</svg>
