<svg width="256" height="150" viewBox="0 0 256 150" fill="none" xmlns="http://www.w3.org/2000/svg">
<path d="M200.982 118.486C235.405 125.073 250.67 105.024 254 94.1759C254 69.8658 254 22.4219 185.231 30.6559C116.462 38.89 105.32 12.6194 47.6926 2.81693C-9.93524 -6.98553 -6.47757 74.5709 21.9521 79.2761C50.3819 83.9813 81.1167 151.03 129.14 147.893C177.163 144.757 157.954 110.252 200.982 118.486Z" stroke="white" stroke-width="2.5" stroke-linejoin="round"/>
<path d="M184.878 95.863C212.282 100.002 224.435 87.4046 227.086 80.5885C227.086 65.314 227.086 35.5041 172.338 40.6777C117.589 45.8514 108.72 29.3451 62.8412 23.186C16.9627 17.0269 19.7154 68.2704 42.3488 71.2267C64.9821 74.1831 89.4507 116.311 127.683 114.34C165.915 112.369 150.622 90.6894 184.878 95.863Z" stroke="white" stroke-width="2.5" stroke-linejoin="round"/>
<path d="M203.267 80.7074C170.183 82.6585 171.102 57.2942 190.401 56.3187C209.7 55.3431 216.133 68.0252 203.267 80.7074Z" stroke="white" stroke-width="2.5" stroke-linejoin="round"/>
<path d="M141.811 89.6081C152.911 71.5757 133.485 60.2908 122.385 56.9023C102.96 56.9023 83.0716 40.9915 59.021 43.6433C34.9703 46.2951 71.0463 62.206 83.0716 66.6257C95.0969 71.0453 127.935 112.149 141.811 89.6081Z" stroke="white" stroke-width="2.5" stroke-linejoin="round"/>
</svg>
