<svg width="190" height="104" viewBox="0 0 190 104" fill="none" xmlns="http://www.w3.org/2000/svg">
<path d="M189 96L180.304 10L9.27608 0L13.9141 86.5L189 96Z" fill="#836953"/>
<path d="M6.06252 93.0752L178.054 102.407L169.663 19.4228L1.58643 9.59539L6.06252 93.0752Z" stroke="white" stroke-width="3"/>
<path d="M45.0902 40.365L37.181 39.9521L37.5283 35.0043L58.4598 36.097L58.1125 41.0448L50.2033 40.6319L48.5902 63.6154L43.4771 63.3485L45.0902 40.365ZM57.7209 44.068L62.3545 44.3099L62.326 46.431C62.9585 45.7965 63.7452 45.2502 64.6861 44.7921C65.6537 44.3353 66.6434 44.1333 67.6554 44.1861C67.9749 44.2028 68.266 44.2447 68.5286 44.3118L67.8274 49.1611C67.3308 49.0017 66.7629 48.9053 66.1237 48.8719C65.2982 48.8288 64.5252 48.9887 63.8048 49.3516C63.0863 49.6878 62.561 50.1276 62.2288 50.671L61.2739 64.2775L56.3206 64.0189L57.7209 44.068ZM73.7903 65.3314C72.1393 65.2452 70.7918 64.6409 69.748 63.5184C68.7327 62.3708 68.2895 60.8792 68.4183 59.0437C68.5397 57.3147 69.2626 55.9641 70.587 54.992C71.9133 53.9933 73.4436 53.3256 75.1778 52.9889C76.9139 52.6257 78.5694 52.4585 80.1443 52.4873C80.1732 51.314 79.9258 50.4601 79.402 49.9255C78.9049 49.3923 78.0305 49.093 76.7789 49.0277C75.9001 48.9818 75.0262 49.0563 74.1572 49.2512C73.3148 49.4475 72.3291 49.7832 71.1999 50.2582L71.0433 46.2052C73.5489 45.1613 76.0133 44.7026 78.4367 44.8291C80.7801 44.9514 82.5196 45.683 83.655 47.0238C84.817 48.366 85.3 50.4336 85.1039 53.2268L84.7258 58.6135C84.6549 59.6244 84.6435 60.358 84.6917 60.8144C84.7683 61.2456 84.9085 61.5332 85.1122 61.6773C85.3444 61.7963 85.7268 61.8696 86.2594 61.8974L86.8985 61.9308L86.1735 65.9778L84.3759 65.884C83.2841 65.827 82.3793 65.5795 81.6617 65.1416C80.9459 64.677 80.4135 64.0752 80.0645 63.3361C79.3749 64.021 78.456 64.547 77.3076 64.9143C76.1878 65.2563 75.0153 65.3953 73.7903 65.3314ZM76.1336 61.6491C76.6395 61.6756 77.2205 61.5857 77.8764 61.3797C78.5342 61.1471 79.1187 60.8171 79.6298 60.3899L79.949 55.8411C78.3456 55.8375 76.9099 56.1097 75.642 56.6575C74.374 57.2054 73.7018 58.0247 73.6252 59.1153C73.5674 59.94 73.7375 60.5629 74.1356 60.9842C74.5355 61.3788 75.2015 61.6005 76.1336 61.6491ZM98.8709 66.6407C96.6606 66.5253 94.7883 65.9737 93.2539 64.9858C91.7481 63.9728 90.6508 62.6606 89.962 61.0495C89.2732 59.4383 88.9961 57.675 89.1305 55.7598C89.2668 53.8179 89.7895 52.083 90.6985 50.5553C91.6095 49.0009 92.8956 47.8132 94.5569 46.9922C96.2201 46.1445 98.1967 45.7805 100.487 45.9001C102.538 46.0071 104.292 46.5259 105.75 47.4563L105.071 51.4257C103.685 50.6058 102.22 50.1555 100.675 50.0749C98.7843 49.9762 97.2662 50.4709 96.1207 51.5592C94.9752 52.6474 94.3361 54.1359 94.2036 56.0246C94.0766 57.8335 94.5171 59.3649 95.5249 60.619C96.5346 61.8464 97.9449 62.5074 99.7557 62.602C101.274 62.6812 102.822 62.3215 104.402 61.5229L104.547 65.7356C103.802 66.0704 102.929 66.3186 101.929 66.4799C100.956 66.6427 99.9361 66.6963 98.8709 66.6407ZM110.103 36.7905L115.056 37.0491L113.782 55.2044L120.548 47.3478L126.14 47.6397L118.198 56.8366L124.899 67.599L119.307 67.307L113.577 58.1173L112.956 66.9755L108.002 66.7169L110.103 36.7905ZM133.307 68.4383C132.029 68.3716 130.865 68.1907 129.817 67.8957C128.795 67.6021 127.743 67.1734 126.66 66.6096L127.396 62.4029C128.468 63.1263 129.471 63.686 130.405 64.0818C131.368 64.4525 132.369 64.6649 133.408 64.7191C135.431 64.8248 136.49 64.2126 136.583 62.8825C136.634 62.1643 136.406 61.6051 135.899 61.2048C135.395 60.778 134.469 60.2625 133.121 59.6581C131.201 58.837 129.807 57.9499 128.938 56.9968C128.071 56.0171 127.693 54.7425 127.803 53.1731C127.925 51.444 128.688 50.0822 130.095 49.0876C131.503 48.0665 133.338 47.615 135.602 47.7332C137.866 47.8513 139.893 48.4778 141.684 49.6126L140.948 53.8192C139.985 53.0748 139.063 52.4927 138.184 52.073C137.331 51.6547 136.412 51.4199 135.427 51.3684C134.575 51.3239 133.897 51.4621 133.393 51.7829C132.916 52.1051 132.655 52.5854 132.611 53.2238C132.575 53.7292 132.679 54.1485 132.923 54.4816C133.194 54.8161 133.573 55.1296 134.06 55.422C134.549 55.6878 135.364 56.0774 136.504 56.5908C138.396 57.4371 139.736 58.3348 140.524 59.2837C141.315 60.206 141.658 61.412 141.553 62.9017C141.421 64.7904 140.639 66.218 139.208 67.1845C137.777 68.1511 135.81 68.569 133.307 68.4383Z" fill="white"/>
</svg>
