<svg width="381" height="215" viewBox="0 0 381 215" fill="none" xmlns="http://www.w3.org/2000/svg">
<path d="M4 0L381 98.4286V212L4 113.571V0Z" fill="#E68560"/>
<path d="M2.5 114.64V6.23651L374.5 103.36V211.763L2.5 114.64Z" stroke="white" stroke-width="5"/>
<path d="M106.775 78.3981L124.312 82.0788L123.294 86.933L110.884 84.3286L109.66 90.1615L119.29 92.1826L118.271 97.0369L108.641 95.0158L107.17 102.023L119.972 104.71L118.953 109.564L101.023 105.801L106.775 78.3981ZM146.388 84.6681L140.226 114.029L135.646 113.067L135.83 111.798C134.959 112.187 134.075 112.438 133.18 112.55C132.316 112.641 131.323 112.569 130.2 112.333C128.295 111.933 126.747 111.132 125.555 109.928C124.39 108.73 123.617 107.287 123.235 105.599C122.854 103.911 122.857 102.141 123.246 100.288C123.635 98.435 124.343 96.8126 125.371 95.4207C126.399 94.0288 127.687 93.0185 129.236 92.3899C130.811 91.7668 132.551 91.6551 134.456 92.0549C136.361 92.4548 137.948 93.3328 139.217 94.6889L141.534 83.6494L146.388 84.6681ZM131.743 108.488C133.283 108.811 134.546 108.504 135.533 107.567C136.546 106.635 137.253 105.217 137.652 103.311C138.052 101.406 137.976 99.8235 137.423 98.563C136.896 97.3081 135.863 96.519 134.323 96.1958C132.809 95.8782 131.504 96.1901 130.407 97.1315C129.337 98.0785 128.607 99.4784 128.218 101.331C127.829 103.184 127.934 104.76 128.534 106.057C129.16 107.36 130.229 108.17 131.743 108.488ZM166.143 99.032L162.035 118.606L157.494 117.653L157.662 116.462C156.969 116.779 156.198 117.013 155.349 117.162C154.506 117.284 153.719 117.269 152.988 117.116C150.092 116.508 148.153 115.229 147.172 113.279C146.218 111.335 146.05 108.889 146.669 105.939L148.879 95.4089L153.734 96.4276L151.523 106.958C151.14 108.785 151.155 110.205 151.569 111.218C152.015 112.211 152.916 112.85 154.273 113.135C155.787 113.452 157.129 113.162 158.298 112.263L161.289 98.0133L166.143 99.032ZM175.795 121.902C173.629 121.447 171.856 120.612 170.476 119.396C169.128 118.16 168.224 116.689 167.764 114.985C167.304 113.281 167.272 111.489 167.666 109.61C168.066 107.705 168.819 106.065 169.925 104.689C171.037 103.288 172.468 102.308 174.22 101.749C175.978 101.164 177.979 101.107 180.224 101.578C182.233 102 183.894 102.785 185.206 103.932L183.993 107.765C182.737 106.738 181.353 106.066 179.839 105.748C177.986 105.359 176.42 105.617 175.14 106.52C173.861 107.423 173.027 108.801 172.638 110.654C172.265 112.428 172.491 114.015 173.314 115.414C174.143 116.787 175.445 117.66 177.22 118.032C178.708 118.344 180.286 118.226 181.954 117.677L181.522 121.878C180.74 122.095 179.845 122.207 178.836 122.213C177.852 122.225 176.839 122.121 175.795 121.902ZM188.983 124.67C187.365 124.33 186.118 123.524 185.241 122.25C184.395 120.955 184.161 119.407 184.539 117.607C184.895 115.91 185.794 114.682 187.234 113.921C188.679 113.135 190.281 112.708 192.039 112.641C193.803 112.548 195.46 112.637 197.01 112.908C197.199 111.749 197.072 110.864 196.628 110.253C196.21 109.647 195.387 109.216 194.161 108.958C193.3 108.778 192.427 108.717 191.542 108.777C190.684 108.842 189.665 109.023 188.485 109.32L188.885 105.276C191.501 104.626 193.996 104.551 196.371 105.049C198.668 105.531 200.285 106.524 201.222 108.029C202.186 109.539 202.38 111.664 201.805 114.405L200.696 119.689C200.488 120.681 200.376 121.407 200.362 121.867C200.378 122.307 200.477 122.614 200.659 122.788C200.872 122.942 201.239 123.073 201.761 123.183L202.388 123.314L201.119 127.217L199.357 126.847C198.287 126.623 197.428 126.238 196.779 125.693C196.136 125.122 195.693 124.443 195.449 123.656C194.675 124.23 193.696 124.61 192.512 124.797C191.36 124.964 190.184 124.922 188.983 124.67ZM191.8 121.378C192.295 121.482 192.881 121.483 193.557 121.379C194.238 121.25 194.86 121.012 195.423 120.667L196.359 116.204C194.777 115.954 193.323 116.003 191.996 116.351C190.67 116.7 189.894 117.409 189.67 118.479C189.5 119.288 189.583 119.932 189.918 120.411C190.259 120.864 190.886 121.186 191.8 121.378ZM210.556 129.197C208.833 128.836 207.632 128.066 206.953 126.888C206.279 125.684 206.09 124.377 206.386 122.968L208.662 112.124L205.882 111.541L207.151 107.638L209.5 108.131L210.404 103.825L215.365 104.335L214.354 109.15L218.66 110.054L217.822 114.047L213.516 113.143L211.659 121.99C211.44 123.034 211.339 123.776 211.356 124.215C211.404 124.634 211.597 124.947 211.935 125.154C212.305 125.341 212.986 125.538 213.977 125.747L215.308 126.026L214.04 129.928L210.556 129.197ZM223.693 102.936L228.547 103.954L227.528 108.809L222.674 107.79L223.693 102.936ZM222.049 110.765L226.904 111.784L222.796 131.357L217.941 130.339L222.049 110.765ZM236.378 134.617C234.316 134.184 232.624 133.352 231.302 132.121C229.981 130.89 229.077 129.419 228.591 127.71C228.105 126 228.056 124.219 228.445 122.366C228.834 120.513 229.597 118.889 230.735 117.492C231.873 116.096 233.294 115.1 235 114.505C236.705 113.909 238.589 113.827 240.65 114.26C242.712 114.693 244.404 115.525 245.726 116.756C247.048 117.987 247.949 119.47 248.43 121.206C248.91 122.942 248.956 124.736 248.567 126.589C248.178 128.442 247.417 130.053 246.285 131.423C245.153 132.793 243.734 133.776 242.029 134.372C240.323 134.968 238.44 135.049 236.378 134.617ZM237.216 130.624C238.808 130.958 240.166 130.657 241.288 129.721C242.437 128.79 243.206 127.399 243.595 125.546C243.989 123.667 243.848 122.07 243.17 120.756C242.523 119.422 241.404 118.587 239.812 118.253C238.22 117.919 236.847 118.23 235.693 119.187C234.57 120.123 233.811 121.53 233.417 123.409C233.028 125.262 233.159 126.843 233.811 128.152C234.489 129.466 235.624 130.29 237.216 130.624ZM264.167 119.277C266.594 119.787 268.264 120.982 269.177 122.863C270.09 124.744 270.259 127.054 269.684 129.795L267.392 140.717L262.537 139.698L264.748 129.167C265.131 127.341 265.1 125.931 264.654 124.938C264.24 123.925 263.355 123.276 261.998 122.991C260.51 122.679 259.166 122.982 257.964 123.902L254.982 138.112L250.128 137.094L254.236 117.52L258.777 118.473L258.568 119.86C260.447 119.082 262.314 118.888 264.167 119.277Z" fill="white"/>
<path d="M65.0508 68.9666L50.0923 80.6805L60.8691 96.3276" stroke="white" stroke-width="3" stroke-miterlimit="10" stroke-linecap="round"/>
<path d="M51.2476 80.8428L76.3516 84.5603" stroke="white" stroke-width="3" stroke-linecap="round" stroke-linejoin="round"/>
</svg>
