<svg width="409" height="237" viewBox="0 0 409 237" fill="none" xmlns="http://www.w3.org/2000/svg">
<path d="M4 0L409 107.714V232L4 124.286V0Z" fill="#C06880"/>
<path d="M2.5 127.364V8.25181L402.5 114.636V233.748L2.5 127.364Z" stroke="white" stroke-width="5"/>
<path d="M23.2632 70.1733L38.9713 73.8297L37.9592 78.1774L26.8444 75.5902L25.6283 80.8145L34.2537 82.8223L33.2417 87.1701L24.6163 85.1623L23.1553 91.4385L34.6208 94.1074L33.6088 98.4551L17.5501 94.7171L23.2632 70.1733ZM49.8495 83.4586C52.0234 83.9646 53.5027 85.0728 54.2873 86.7833C55.072 88.4937 55.1787 90.5761 54.6074 93.0305L52.3303 102.813L47.9825 101.801L50.178 92.3691C50.5588 90.7328 50.5586 89.4637 50.1771 88.5618C49.8245 87.6419 49.0404 87.0404 47.8249 86.7575C46.4925 86.4474 45.2769 86.6942 44.1781 87.498L41.2154 100.226L36.8676 99.2137L40.9484 81.6824L45.0157 82.6291L44.8002 83.8726C46.5068 83.2103 48.1899 83.0723 49.8495 83.4586ZM64.809 106.087C62.7753 105.614 61.1291 104.799 59.8703 103.644C58.6403 102.471 57.8235 101.11 57.4199 99.5622C57.0451 97.9965 57.0563 96.3604 57.4535 94.654C57.8344 93.0178 58.5215 91.6007 59.515 90.4027C60.5085 89.2047 61.7405 88.358 63.2111 87.8625C64.6872 87.3436 66.3135 87.291 68.09 87.7045C69.7263 88.0854 71.0265 88.7453 71.9907 89.6844C72.9783 90.6289 73.6193 91.7391 73.9137 93.015C74.2314 94.2965 74.2244 95.6501 73.8925 97.076C73.7292 97.7772 73.4507 98.5502 73.057 99.3949L61.7317 96.7587C61.6064 98.3559 61.9448 99.6544 62.747 100.654C63.5546 101.631 64.648 102.28 66.0271 102.601C67.9205 103.041 69.7852 102.97 71.6212 102.387L70.9746 106.118C70.1341 106.341 69.1813 106.464 68.1164 106.488C67.0802 106.493 65.9777 106.359 64.809 106.087ZM69.6052 95.4866C69.8174 94.575 69.7479 93.7087 69.3969 92.8877C69.0459 92.0668 68.3328 91.5312 67.2575 91.2809C66.1823 91.0306 65.2439 91.1448 64.4425 91.6236C63.6411 92.1024 63.0011 92.8405 62.5225 93.838L69.6052 95.4866ZM78.793 90.4915L82.8603 91.4383L82.5329 93.3211C83.1832 92.8564 83.9574 92.4945 84.8555 92.2354C85.777 91.9817 86.6819 91.9582 87.5702 92.165C87.8507 92.2303 88.1023 92.3135 88.3252 92.4147L87.0139 96.6189C86.597 96.3986 86.108 96.2232 85.547 96.0926C84.8224 95.9239 84.1154 95.9442 83.426 96.1533C82.7421 96.3391 82.2145 96.6475 81.8431 97.0785L79.06 109.035L74.7122 108.023L78.793 90.4915ZM91.2611 121.19C88.7833 120.613 86.9142 119.697 85.6538 118.443C84.3879 117.212 83.9346 115.825 84.2937 114.282C84.6854 112.599 85.9531 111.44 88.0968 110.806C87.2152 109.935 86.8941 108.986 87.1335 107.957C87.2587 107.42 87.5222 106.976 87.924 106.626C88.3492 106.281 88.8605 106.043 89.458 105.911C88.7166 105.073 88.2265 104.109 87.9875 103.018C87.7719 101.933 87.8001 100.806 88.0722 99.6374C88.3714 98.3517 88.924 97.2483 89.7298 96.327C90.5411 95.3823 91.5551 94.7313 92.7719 94.3738C93.994 93.9929 95.3414 93.9739 96.814 94.3167C98.3568 94.6758 99.6021 95.36 100.55 96.3691C100.996 96.2513 101.563 96.1984 102.25 96.2105C102.966 96.2046 103.71 96.2915 104.481 96.4711L105.603 96.7322L104.686 99.4018L103.108 99.0345C102.711 98.942 102.381 98.8776 102.118 98.8411C102.569 100.08 102.621 101.447 102.273 102.943C101.973 104.228 101.418 105.344 100.607 106.288C99.8242 107.215 98.8219 107.869 97.5998 108.25C96.383 108.607 95.0384 108.614 93.5657 108.272C93.0281 108.146 92.4277 107.92 91.7645 107.594C91.4802 107.651 91.3081 107.808 91.2483 108.065C91.1775 108.369 91.2957 108.655 91.6028 108.924C91.9387 109.174 92.5255 109.459 93.3632 109.777L96.2888 110.865C100.184 112.338 101.8 114.501 101.136 117.352C100.723 119.129 99.6337 120.366 97.8695 121.064C96.1287 121.768 93.9259 121.81 91.2611 121.19ZM94.3166 105.046C95.3217 105.28 96.1693 105.132 96.8593 104.603C97.578 104.055 98.0735 103.197 98.3455 102.029C98.6176 100.86 98.5493 99.883 98.1406 99.098C97.7608 98.2949 97.0683 97.7764 96.0632 97.5425C95.0347 97.3031 94.161 97.457 93.4422 98.0043C92.7523 98.5337 92.2712 99.3827 91.9992 100.551C91.7271 101.72 91.781 102.706 92.1609 103.509C92.5695 104.294 93.2881 104.806 94.3166 105.046ZM92.2036 117.934C95.1956 118.631 96.863 118.243 97.2058 116.77C97.3581 116.116 97.2153 115.565 96.7772 115.118C96.3337 114.694 95.5376 114.25 94.389 113.786L90.6627 112.327C89.2052 112.555 88.3486 113.218 88.0928 114.316C87.897 115.158 88.1591 115.884 88.8793 116.495C89.5995 117.106 90.7076 117.586 92.2036 117.934ZM109.732 114.955L106.25 96.8828L111.089 98.0091L112.949 110.344L120.135 100.115L124.973 101.241L107.943 124.703L103.595 123.691L109.732 114.955ZM138.391 123.733C136.568 123.308 135.119 122.651 134.045 121.76C132.977 120.846 132.256 119.816 131.882 118.669C131.537 117.505 131.506 116.314 131.789 115.099C132.131 113.626 132.805 112.428 133.808 111.503C134.836 110.584 136.13 109.789 137.69 109.117C136.449 106.512 136.037 104.309 136.456 102.509C136.728 101.341 137.281 100.397 138.113 99.6793C138.951 98.938 139.939 98.4532 141.076 98.2252C142.237 98.0025 143.413 98.0299 144.605 98.3074C146.452 98.7373 147.781 99.5394 148.591 100.714C149.431 101.87 149.674 103.208 149.32 104.728C149.097 105.686 148.674 106.499 148.05 107.167C147.432 107.812 146.73 108.338 145.945 108.747C145.189 109.138 144.143 109.609 142.807 110.16L146.41 116.913C146.826 115.975 147.17 114.971 147.444 113.901C147.718 112.831 147.873 112.214 147.912 112.051L152.084 113.022C151.328 116.271 150.124 118.849 148.472 120.757L151.175 125.821L146.126 124.646L145.316 123.201C143.294 124.159 140.986 124.337 138.391 123.733ZM141.482 107.597C142.598 107.142 143.484 106.671 144.14 106.183C144.801 105.671 145.218 105.042 145.393 104.294C145.55 103.616 145.48 103.07 145.183 102.656C144.89 102.218 144.405 101.92 143.727 101.762C143.002 101.594 142.355 101.677 141.784 102.012C141.242 102.33 140.878 102.886 140.693 103.68C140.563 104.241 140.561 104.832 140.687 105.453C140.819 106.051 141.084 106.765 141.482 107.597ZM139.763 120.54C141.282 120.894 142.59 120.78 143.687 120.197L139.212 111.948C137.698 112.951 136.761 114.223 136.402 115.766C136.151 116.841 136.257 117.815 136.72 118.686C137.206 119.563 138.22 120.181 139.763 120.54ZM168.02 103.869L183.728 107.525L182.716 111.873L171.601 109.286L170.385 114.51L179.011 116.518L177.998 120.865L169.373 118.858L167.912 125.134L179.378 127.803L178.366 132.15L162.307 128.412L168.02 103.869ZM194.606 117.154C196.78 117.66 198.26 118.768 199.044 120.479C199.829 122.189 199.936 124.271 199.364 126.726L197.087 136.508L192.739 135.496L194.935 126.064C195.316 124.428 195.315 123.159 194.934 122.257C194.581 121.337 193.797 120.736 192.582 120.453C191.249 120.143 190.034 120.39 188.935 121.193L185.972 133.921L181.624 132.909L185.705 115.378L189.773 116.324L189.557 117.568C191.264 116.906 192.947 116.768 194.606 117.154ZM202.87 119.373L207.148 120.369L208.637 133.505L215.773 122.377L220.051 123.372L209.238 139.337L205.522 138.472L202.87 119.373ZM224.052 116.911L228.4 117.923L227.388 122.271L223.04 121.259L224.052 116.911ZM222.42 123.924L226.768 124.936L222.687 142.467L218.339 141.455L222.42 123.924ZM231.07 125.937L235.137 126.884L234.81 128.767C235.46 128.302 236.234 127.94 237.132 127.681C238.054 127.428 238.959 127.404 239.847 127.611C240.128 127.676 240.379 127.759 240.602 127.86L239.291 132.065C238.874 131.844 238.385 131.669 237.824 131.538C237.099 131.37 236.392 131.39 235.703 131.599C235.019 131.785 234.491 132.093 234.12 132.524L231.337 144.481L226.989 143.469L231.07 125.937ZM246.359 148.347C244.512 147.917 243.006 147.135 241.841 146.002C240.675 144.868 239.891 143.527 239.487 141.979C239.084 140.432 239.075 138.828 239.461 137.168C239.848 135.509 240.567 134.062 241.618 132.828C242.669 131.594 243.967 130.726 245.514 130.223C247.06 129.721 248.756 129.685 250.603 130.114C252.449 130.544 253.955 131.326 255.121 132.46C256.286 133.593 257.068 134.946 257.466 136.517C257.864 138.088 257.87 139.704 257.484 141.363C257.097 143.023 256.381 144.458 255.336 145.668C254.29 146.879 252.994 147.735 251.448 148.238C249.902 148.74 248.205 148.777 246.359 148.347ZM247.191 144.771C248.617 145.103 249.844 144.858 250.873 144.038C251.925 143.224 252.644 141.986 253.031 140.327C253.422 138.644 253.326 137.204 252.742 136.009C252.187 134.795 251.196 134.023 249.77 133.691C248.344 133.359 247.103 133.612 246.045 134.45C245.016 135.27 244.306 136.522 243.914 138.205C243.528 139.864 243.615 141.289 244.176 142.479C244.76 143.675 245.765 144.439 247.191 144.771ZM271.686 135.096C273.86 135.602 275.34 136.71 276.124 138.421C276.909 140.131 277.016 142.214 276.444 144.668L274.167 154.45L269.819 153.438L272.015 144.007C272.396 142.37 272.395 141.101 272.014 140.199C271.661 139.279 270.877 138.678 269.662 138.395C268.329 138.085 267.114 138.332 266.015 139.135L263.052 151.863L258.705 150.851L262.785 133.32L266.853 134.267L266.637 135.51C268.344 134.848 270.027 134.71 271.686 135.096ZM302.094 142.174C304.431 142.718 305.995 143.834 306.785 145.521C307.604 147.19 307.717 149.298 307.124 151.846L304.855 161.594L300.507 160.582L302.703 151.15C303.089 149.49 303.115 148.215 302.78 147.324C302.445 146.433 301.694 145.851 300.525 145.579C299.379 145.312 298.422 145.508 297.653 146.167C296.889 146.803 296.341 147.833 296.009 149.259L293.74 159.006L289.392 157.994L291.588 148.563C291.974 146.903 291.988 145.625 291.63 144.728C291.272 143.832 290.509 143.247 289.34 142.975C287.961 142.654 286.71 142.893 285.588 143.691L282.625 156.419L278.277 155.407L282.358 137.876L286.075 138.741L285.889 140.176C287.739 139.424 289.588 139.263 291.435 139.693C293.679 140.215 295.162 141.411 295.885 143.279C296.673 142.649 297.606 142.238 298.686 142.046C299.766 141.854 300.902 141.896 302.094 142.174ZM317.347 164.871C315.313 164.398 313.667 163.583 312.408 162.428C311.178 161.254 310.362 159.894 309.958 158.346C309.583 156.78 309.594 155.144 309.992 153.438C310.372 151.802 311.06 150.384 312.053 149.186C313.047 147.989 314.279 147.142 315.749 146.646C317.225 146.127 318.852 146.075 320.628 146.488C322.264 146.869 323.565 147.529 324.529 148.468C325.516 149.413 326.157 150.523 326.452 151.799C326.769 153.08 326.762 154.434 326.431 155.86C326.267 156.561 325.989 157.334 325.595 158.179L314.27 155.543C314.144 157.14 314.483 158.438 315.285 159.438C316.093 160.415 317.186 161.063 318.565 161.384C320.459 161.825 322.323 161.754 324.159 161.171L323.513 164.902C322.672 165.125 321.719 165.248 320.654 165.271C319.618 165.277 318.516 165.143 317.347 164.871ZM322.143 154.27C322.355 153.359 322.286 152.492 321.935 151.672C321.584 150.851 320.871 150.315 319.796 150.065C318.72 149.814 317.782 149.929 316.981 150.407C316.179 150.886 315.539 151.624 315.061 152.622L322.143 154.27ZM340.232 151.052C342.406 151.558 343.885 152.666 344.67 154.376C345.455 156.087 345.561 158.169 344.99 160.623L342.713 170.406L338.365 169.394L340.561 159.962C340.941 158.326 340.941 157.057 340.56 156.155C340.207 155.235 339.423 154.633 338.207 154.35C336.875 154.04 335.66 154.287 334.561 155.091L331.598 167.819L327.25 166.807L331.331 149.275L335.398 150.222L335.183 151.466C336.889 150.803 338.572 150.665 340.232 151.052ZM352.251 172.996C350.708 172.637 349.643 171.921 349.055 170.847C348.473 169.751 348.328 168.571 348.622 167.309L350.883 157.597L348.393 157.017L349.612 153.531L351.715 154.02L352.613 150.163L357.067 150.72L356.063 155.032L359.92 155.93L359.087 159.506L355.231 158.609L353.386 166.533C353.168 167.468 353.063 168.133 353.069 168.529C353.104 168.907 353.272 169.192 353.572 169.385C353.901 169.56 354.51 169.751 355.398 169.958L356.59 170.236L355.372 173.722L352.251 172.996Z" fill="white"/>
<path d="M375.332 180.699L387.89 172.587L380.562 159.556" stroke="white" stroke-width="3" stroke-miterlimit="10" stroke-linecap="round"/>
<path d="M386.997 172.377L367.59 167.672" stroke="white" stroke-width="3" stroke-linecap="round" stroke-linejoin="round"/>
</svg>
