<svg width="365" height="227" viewBox="0 0 365 227" fill="none" xmlns="http://www.w3.org/2000/svg">
<path d="M365 0L4 105.393V227L365 121.607V0Z" fill="#2B9B99"/>
<path d="M362.5 124.347V13.2836L2.5 112.653V223.716L362.5 124.347Z" stroke="white" stroke-width="5"/>
<path d="M26.0231 149.056L30.4989 147.96L32.8704 157.646L44.0599 154.906L41.6884 145.22L46.1642 144.124L52.1572 168.601L47.6815 169.697L45.0873 159.102L33.8978 161.842L36.492 172.437L32.0162 173.533L26.0231 149.056ZM65.155 165.79C63.1269 166.286 61.2903 166.303 59.6452 165.841C58.0178 165.35 56.6743 164.506 55.6149 163.307C54.5731 162.08 53.8439 160.615 53.4272 158.913C53.0277 157.282 53.0004 155.707 53.3454 154.189C53.6904 152.672 54.4069 151.36 55.495 150.253C56.5773 149.123 58.0043 148.342 59.776 147.908C61.4078 147.508 62.8659 147.51 64.1504 147.912C65.4582 148.308 66.5317 149.009 67.3708 150.014C68.2333 151.014 68.8386 152.224 69.1867 153.646C69.358 154.346 69.4588 155.161 69.4892 156.093L58.1948 158.858C58.8046 160.34 59.6933 161.345 60.8607 161.875C62.0224 162.381 63.291 162.466 64.6663 162.129C66.5546 161.666 68.1859 160.761 69.5604 159.411L70.6692 163.031C70.0202 163.61 69.2259 164.15 68.2863 164.652C67.3643 165.125 66.3206 165.504 65.155 165.79ZM64.6439 154.166C64.4213 153.257 63.968 152.515 63.2839 151.941C62.5998 151.368 61.7216 151.212 60.6493 151.474C59.5769 151.737 58.7915 152.263 58.2929 153.052C57.7943 153.841 57.5568 154.789 57.5805 155.895L64.6439 154.166ZM78.7263 162.467C77.281 162.821 75.9546 162.651 74.7472 161.958C73.5575 161.237 72.7657 160.072 72.3718 158.463C72.0008 156.948 72.2518 155.602 73.1249 154.424C73.9922 153.223 75.1262 152.254 76.5268 151.516C77.9217 150.754 79.3011 150.182 80.6651 149.798C80.3673 148.784 79.9194 148.115 79.3215 147.792C78.7468 147.463 77.9116 147.433 76.816 147.701C76.0467 147.89 75.3148 148.18 74.6202 148.573C73.9489 148.959 73.1924 149.503 72.3508 150.203L71.1015 146.766C72.9717 145.221 74.9674 144.188 77.0888 143.669C79.1402 143.167 80.839 143.344 82.1853 144.2C83.5549 145.051 84.5394 146.7 85.1387 149.148L86.2945 153.868C86.5114 154.754 86.7033 155.387 86.8703 155.766C87.0549 156.116 87.2547 156.326 87.4697 156.397C87.7023 156.439 88.0518 156.403 88.518 156.289L89.0775 156.152L89.5661 159.813L87.9926 160.198C87.0368 160.432 86.1898 160.454 85.4514 160.264C84.7074 160.051 84.0835 159.673 83.5797 159.129C83.1743 159.895 82.5278 160.585 81.64 161.197C80.7699 161.781 79.7986 162.204 78.7263 162.467ZM79.7312 158.7C80.1741 158.591 80.6497 158.364 81.1578 158.017C81.6602 157.647 82.0726 157.212 82.3952 156.713L81.4192 152.727C80.0376 153.139 78.8763 153.745 77.9353 154.544C76.9942 155.342 76.6407 156.22 76.8747 157.175C77.0517 157.898 77.3694 158.388 77.828 158.647C78.2809 158.882 78.9153 158.899 79.7312 158.7ZM97.0671 157.976C95.5751 158.341 94.3534 158.196 93.402 157.539C92.4448 156.859 91.8007 155.843 91.4697 154.491L86.0845 132.497L90.4204 131.435L95.369 151.646C95.5973 152.579 95.8066 153.232 95.9969 153.605C96.2047 153.95 96.4483 154.137 96.7276 154.168C97.0244 154.169 97.4992 154.09 98.1519 153.93L98.6406 157.591L97.0671 157.976ZM107.532 155.414C105.993 155.791 104.719 155.633 103.71 154.941C102.695 154.226 102.033 153.239 101.725 151.98L99.3533 142.294L96.8707 142.902L96.382 139.242L98.48 138.728L97.5383 134.881L101.763 133.365L102.816 137.666L106.662 136.724L107.536 140.291L103.689 141.233L105.624 149.135C105.852 150.068 106.059 150.709 106.243 151.059C106.446 151.38 106.724 151.559 107.079 151.596C107.452 151.604 108.081 151.499 108.967 151.282L110.155 150.991L110.644 154.652L107.532 155.414ZM118.455 133.54C120.67 132.998 122.49 133.319 123.917 134.501C125.36 135.655 126.388 137.479 126.998 139.973L129.378 149.694L125.042 150.756L122.739 141.35C122.334 139.695 121.769 138.548 121.045 137.91C120.32 137.272 119.375 137.096 118.21 137.381C116.834 137.718 115.826 138.496 115.186 139.715L118.294 152.408L113.958 153.47L107.537 127.244L111.873 126.183L114.287 136.044C114.878 135.429 115.506 134.917 116.172 134.507C116.832 134.074 117.593 133.752 118.455 133.54ZM149.002 145.779C147.184 146.224 145.594 146.292 144.234 145.983C142.867 145.65 141.758 145.057 140.907 144.203C140.073 143.32 139.508 142.272 139.211 141.06C138.851 139.592 138.91 138.218 139.388 136.94C139.889 135.656 140.684 134.362 141.773 133.057C139.488 131.294 138.126 129.515 137.687 127.72C137.401 126.554 137.468 125.463 137.886 124.447C138.298 123.407 138.96 122.528 139.872 121.811C140.807 121.088 141.869 120.58 143.058 120.289C144.899 119.838 146.447 119.954 147.701 120.635C148.973 121.287 149.794 122.371 150.165 123.886C150.399 124.842 150.389 125.759 150.134 126.637C149.874 127.491 149.486 128.278 148.97 128.997C148.472 129.687 147.752 130.58 146.809 131.676L153.074 136.072C153.021 135.047 152.875 133.996 152.636 132.918C152.396 131.84 152.257 131.219 152.217 131.056L156.378 130.037C157.171 133.277 157.262 136.121 156.651 138.569L161.35 141.866L156.314 143.099L154.939 142.176C153.569 143.944 151.59 145.145 149.002 145.779ZM144.469 129.988C145.259 129.078 145.836 128.257 146.201 127.526C146.559 126.771 146.647 126.02 146.465 125.274C146.299 124.598 145.99 124.143 145.537 123.907C145.079 123.649 144.511 123.603 143.835 123.768C143.113 123.945 142.572 124.312 142.215 124.869C141.874 125.397 141.801 126.058 141.995 126.85C142.132 127.41 142.398 127.938 142.791 128.434C143.179 128.908 143.738 129.426 144.469 129.988ZM148.783 142.312C150.298 141.941 151.414 141.247 152.129 140.232L144.41 134.895C143.512 136.474 143.251 138.032 143.627 139.571C143.89 140.643 144.424 141.464 145.231 142.032C146.06 142.595 147.245 142.688 148.783 142.312ZM164.116 115.245L168.767 114.106L177.917 130.286L179.117 111.572L182.229 110.81L192.037 126.347L192.579 108.275L197.23 107.137L196.055 133.369L192.103 134.336L182.65 119.342L181.228 136.999L176.997 138.035L164.116 115.245ZM212.83 129.632C210.802 130.129 208.965 130.146 207.32 129.684C205.693 129.193 204.349 128.348 203.29 127.15C202.248 125.922 201.519 124.458 201.102 122.756C200.703 121.124 200.675 119.549 201.02 118.032C201.365 116.514 202.082 115.202 203.17 114.096C204.252 112.966 205.679 112.184 207.451 111.75C209.083 111.351 210.541 111.352 211.825 111.754C213.133 112.15 214.207 112.851 215.046 113.857C215.908 114.856 216.513 116.067 216.862 117.489C217.033 118.188 217.134 119.004 217.164 119.935L205.87 122.701C206.48 124.182 207.368 125.188 208.536 125.717C209.697 126.223 210.966 126.308 212.341 125.971C214.229 125.509 215.861 124.603 217.235 123.253L218.344 126.874C217.695 127.453 216.901 127.993 215.961 128.495C215.039 128.968 213.995 129.347 212.83 129.632ZM212.319 118.008C212.096 117.099 211.643 116.358 210.959 115.784C210.275 115.21 209.396 115.054 208.324 115.317C207.252 115.58 206.466 116.105 205.968 116.895C205.469 117.684 205.232 118.632 205.255 119.738L212.319 118.008ZM227.1 126.138C225.609 126.503 224.387 126.358 223.435 125.701C222.478 125.021 221.834 124.005 221.503 122.653L216.118 100.659L220.454 99.5973L225.402 119.808C225.631 120.741 225.84 121.394 226.03 121.767C226.238 122.112 226.482 122.299 226.761 122.33C227.058 122.331 227.533 122.252 228.185 122.092L228.674 125.753L227.1 126.138ZM236.512 123.834C235.02 124.199 233.799 124.053 232.847 123.397C231.89 122.717 231.246 121.701 230.915 120.349L225.53 98.3545L229.866 97.2928L234.814 117.504C235.043 118.436 235.252 119.089 235.442 119.463C235.65 119.807 235.894 119.995 236.173 120.025C236.47 120.027 236.945 119.947 237.597 119.788L238.086 123.448L236.512 123.834ZM245.825 102.355C247.993 101.824 249.814 102.144 251.286 103.315C252.759 104.487 253.795 106.296 254.395 108.744L256.783 118.5L252.447 119.561L250.144 110.155C249.745 108.523 249.171 107.391 248.423 106.759C247.693 106.098 246.722 105.916 245.51 106.212C244.181 106.538 243.208 107.307 242.591 108.521L245.699 121.214L241.363 122.275L237.082 104.792L241.138 103.799L241.508 105.005C242.731 103.643 244.17 102.76 245.825 102.355ZM269.395 115.782C267.367 116.279 265.53 116.296 263.885 115.834C262.258 115.343 260.914 114.498 259.855 113.3C258.813 112.073 258.084 110.608 257.667 108.906C257.268 107.274 257.24 105.7 257.585 104.182C257.93 102.665 258.647 101.353 259.735 100.246C260.817 99.1162 262.244 98.3344 264.016 97.9006C265.648 97.5011 267.106 97.5024 268.39 97.9044C269.698 98.3008 270.772 99.0016 271.611 100.007C272.473 101.006 273.079 102.217 273.427 103.639C273.598 104.339 273.699 105.154 273.729 106.085L262.435 108.851C263.045 110.332 263.933 111.338 265.101 111.867C266.262 112.374 267.531 112.458 268.906 112.122C270.795 111.659 272.426 110.753 273.8 109.404L274.909 113.024C274.26 113.603 273.466 114.143 272.526 114.645C271.604 115.118 270.561 115.497 269.395 115.782ZM268.884 104.159C268.661 103.249 268.208 102.508 267.524 101.934C266.84 101.36 265.962 101.205 264.889 101.467C263.817 101.73 263.032 102.256 262.533 103.045C262.034 103.834 261.797 104.782 261.821 105.888L268.884 104.159ZM284.155 112.169C283.036 112.442 281.985 112.589 281.001 112.607C280.041 112.62 279.017 112.525 277.929 112.322L277.406 108.521C278.528 108.864 279.545 109.084 280.459 109.182C281.39 109.25 282.31 109.173 283.219 108.951C284.991 108.517 285.734 107.717 285.449 106.552C285.294 105.922 284.944 105.502 284.398 105.289C283.846 105.054 282.907 104.851 281.581 104.682C279.702 104.475 278.257 104.075 277.247 103.482C276.232 102.866 275.555 101.87 275.219 100.495C274.848 98.9796 275.131 97.6131 276.068 96.3953C277 95.1541 278.456 94.291 280.438 93.8058C282.419 93.3206 284.337 93.3329 286.191 93.8425L286.714 97.6432C285.68 97.254 284.727 96.9932 283.854 96.8609C283.005 96.7229 282.149 96.7595 281.287 96.9707C280.541 97.1533 279.995 97.4475 279.65 97.8533C279.327 98.2534 279.235 98.7332 279.372 99.2927C279.48 99.7356 279.685 100.068 279.987 100.291C280.312 100.508 280.724 100.679 281.224 100.803C281.719 100.905 282.527 101.028 283.65 101.173C285.511 101.409 286.912 101.832 287.852 102.442C288.786 103.029 289.413 103.975 289.733 105.28C290.138 106.935 289.858 108.363 288.892 109.563C287.925 110.764 286.346 111.632 284.155 112.169ZM299.167 108.493C298.048 108.767 296.997 108.913 296.013 108.932C295.053 108.944 294.029 108.849 292.941 108.646L292.418 104.845C293.54 105.188 294.558 105.409 295.471 105.506C296.402 105.575 297.322 105.498 298.231 105.275C300.003 104.841 300.746 104.042 300.461 102.876C300.306 102.247 299.956 101.826 299.41 101.614C298.858 101.378 297.919 101.176 296.593 101.006C294.714 100.799 293.269 100.399 292.259 99.8065C291.244 99.1904 290.567 98.1946 290.231 96.8193C289.86 95.304 290.143 93.9375 291.08 92.7196C292.012 91.4785 293.468 90.6153 295.45 90.1302C297.431 89.645 299.349 89.6572 301.203 90.1669L301.726 93.9675C300.692 93.5783 299.739 93.3176 298.866 93.1853C298.017 93.0473 297.161 93.0839 296.299 93.2951C295.553 93.4777 295.007 93.7719 294.662 94.1777C294.339 94.5778 294.247 95.0576 294.384 95.617C294.492 96.06 294.697 96.3927 294.999 96.6154C295.324 96.8324 295.736 97.0032 296.236 97.1278C296.731 97.2292 297.539 97.3524 298.662 97.4976C300.523 97.7337 301.924 98.1567 302.864 98.7666C303.799 99.3532 304.426 100.299 304.745 101.605C305.15 103.26 304.87 104.687 303.904 105.888C302.937 107.088 301.359 107.956 299.167 108.493Z" fill="white"/>
<path d="M338.164 95.2803L347.364 81.5128L332.481 74.2546" stroke="white" stroke-width="3" stroke-miterlimit="10" stroke-linecap="round"/>
<path d="M346.284 81.8047L317.863 89.5706" stroke="white" stroke-width="3" stroke-linecap="round" stroke-linejoin="round"/>
</svg>
