<svg width="381" height="224" viewBox="0 0 381 224" fill="none" xmlns="http://www.w3.org/2000/svg">
<path d="M375 0L2.23517e-05 100.75V217L375 116.25V0Z" fill="#678BE1"/>
<path d="M378.5 121.333V10.2603L8.50002 109.667V220.74L378.5 121.333Z" stroke="white" stroke-width="5"/>
<path d="M98.6077 121.584L103.581 120.366L110.24 147.563L105.267 148.78L98.6077 121.584ZM120.337 124.17C122.745 123.581 124.768 123.936 126.405 125.238C128.041 126.539 129.192 128.55 129.858 131.27L132.512 142.109L127.694 143.289L125.136 132.838C124.692 131.025 124.054 129.767 123.223 129.064C122.412 128.329 121.333 128.127 119.986 128.457C118.51 128.818 117.428 129.673 116.743 131.022L120.196 145.125L115.378 146.305L110.622 126.878L115.129 125.775L115.539 127.116C116.898 125.602 118.498 124.621 120.337 124.17ZM146.5 139.096C144.247 139.648 142.206 139.667 140.378 139.154C138.57 138.608 137.077 137.67 135.9 136.338C134.742 134.974 133.932 133.347 133.469 131.456C133.025 129.643 132.995 127.893 133.378 126.207C133.762 124.521 134.558 123.063 135.767 121.834C136.969 120.578 138.555 119.71 140.523 119.228C142.337 118.784 143.957 118.785 145.384 119.232C146.837 119.672 148.03 120.451 148.962 121.568C149.92 122.679 150.593 124.024 150.98 125.604C151.17 126.381 151.282 127.287 151.316 128.322L138.767 131.395C139.444 133.041 140.431 134.158 141.729 134.746C143.019 135.309 144.429 135.403 145.957 135.029C148.055 134.515 149.868 133.509 151.395 132.009L152.627 136.031C151.906 136.675 151.023 137.275 149.979 137.833C148.955 138.358 147.795 138.779 146.5 139.096ZM145.932 126.181C145.685 125.171 145.181 124.347 144.421 123.709C143.661 123.072 142.685 122.899 141.494 123.191C140.302 123.482 139.43 124.067 138.876 124.944C138.321 125.821 138.058 126.874 138.084 128.102L145.932 126.181ZM170.223 112.285L177.282 141.114L172.464 142.293L169.867 131.687C168.754 133.085 167.175 134.034 165.129 134.535C163.264 134.992 161.547 134.932 159.978 134.355C158.409 133.778 157.088 132.811 156.014 131.454C154.941 130.097 154.179 128.5 153.729 126.66C153.278 124.821 153.216 123.052 153.541 121.353C153.866 119.653 154.591 118.186 155.716 116.949C156.841 115.713 158.336 114.866 160.201 114.41C162.377 113.877 164.426 114.117 166.348 115.128L166.532 113.189L170.223 112.285ZM164.935 130.382C166.464 130.008 167.47 129.185 167.955 127.913C168.465 126.635 168.489 125.051 168.026 123.16C167.563 121.269 166.81 119.875 165.767 118.977C164.749 118.073 163.477 117.808 161.948 118.182C160.446 118.55 159.404 119.396 158.822 120.719C158.266 122.035 158.213 123.613 158.663 125.452C159.113 127.291 159.889 128.666 160.991 129.577C162.118 130.482 163.433 130.75 164.935 130.382ZM191.906 106.976L196.663 126.403L192.156 127.506L191.793 126.359C191.305 126.946 190.71 127.489 190.009 127.99C189.302 128.466 188.586 128.792 187.861 128.969C184.986 129.673 182.685 129.358 180.958 128.024C179.257 126.683 178.048 124.55 177.331 121.623L174.772 111.172L179.59 109.992L182.149 120.443C182.593 122.256 183.221 123.53 184.032 124.265C184.863 124.968 185.952 125.154 187.299 124.824C188.801 124.456 189.885 123.614 190.551 122.298L187.089 108.156L191.906 106.976ZM205.677 124.607C204.072 125 202.598 124.812 201.256 124.042C199.934 123.24 199.055 121.946 198.617 120.159C198.205 118.475 198.484 116.979 199.454 115.671C200.417 114.337 201.677 113.26 203.234 112.439C204.783 111.593 206.316 110.957 207.832 110.531C207.501 109.404 207.003 108.661 206.339 108.302C205.7 107.937 204.772 107.903 203.555 108.201C202.7 108.41 201.887 108.733 201.115 109.169C200.369 109.599 199.529 110.203 198.594 110.981L197.205 107.161C199.283 105.445 201.501 104.298 203.858 103.721C206.137 103.162 208.025 103.359 209.521 104.311C211.043 105.256 212.136 107.088 212.802 109.808L214.087 115.053C214.328 116.037 214.541 116.74 214.726 117.161C214.931 117.551 215.153 117.784 215.392 117.863C215.651 117.91 216.039 117.87 216.557 117.743L217.179 117.591L217.722 121.658L215.973 122.086C214.911 122.346 213.97 122.371 213.15 122.16C212.323 121.923 211.63 121.502 211.07 120.898C210.62 121.75 209.901 122.516 208.915 123.197C207.948 123.845 206.869 124.315 205.677 124.607ZM206.794 120.421C207.286 120.301 207.815 120.048 208.379 119.663C208.937 119.252 209.396 118.769 209.754 118.214L208.67 113.785C207.135 114.243 205.844 114.916 204.799 115.804C203.753 116.691 203.36 117.666 203.62 118.728C203.817 119.531 204.17 120.076 204.679 120.363C205.183 120.624 205.888 120.643 206.794 120.421ZM226.031 119.624C224.373 120.03 223.016 119.868 221.959 119.138C220.895 118.383 220.18 117.254 219.812 115.752L213.828 91.3135L218.646 90.1339L224.144 112.591C224.398 113.627 224.63 114.352 224.842 114.767C225.073 115.15 225.343 115.358 225.654 115.392C225.984 115.394 226.511 115.306 227.236 115.128L227.779 119.196L226.031 119.624ZM224.736 90.7018L229.554 89.5222L230.734 94.3399L225.916 95.5195L224.736 90.7018ZM226.639 98.4723L231.456 97.2927L236.213 116.719L231.395 117.898L226.639 98.4723ZM247.383 114.396C245.674 114.814 244.258 114.639 243.136 113.871C242.008 113.076 241.273 111.979 240.931 110.581L238.296 99.8186L235.537 100.494L234.994 96.4265L237.325 95.8557L236.279 91.5819L240.973 89.8973L242.143 94.6761L246.417 93.6297L247.387 97.5927L243.113 98.6391L245.263 107.42C245.517 108.456 245.746 109.168 245.951 109.557C246.176 109.914 246.485 110.113 246.88 110.154C247.294 110.162 247.993 110.046 248.977 109.805L250.298 109.481L250.841 113.549L247.383 114.396ZM260.089 109.514L247.566 93.3484L252.927 92.0356L260.964 103.328L262.951 89.5813L268.313 88.2686L263.211 120.075L258.393 121.254L260.089 109.514Z" fill="white"/>
<path d="M62.3359 136.369L55.3989 149.613L68.1932 157.347" stroke="white" stroke-width="3" stroke-miterlimit="10" stroke-linecap="round"/>
<path d="M56.2835 149.355L75.4922 143.896" stroke="white" stroke-width="3" stroke-linecap="round" stroke-linejoin="round"/>
</svg>
