<svg width="54" height="45" viewBox="0 0 54 45" fill="none" xmlns="http://www.w3.org/2000/svg">
<path d="M51 6C52.6569 6 54 4.65686 54 3C54 1.34314 52.6569 0 51 0C49.3432 0 48 1.34314 48 3C48 4.65686 49.3432 6 51 6Z" fill="white"/>
<path d="M3 12C4.65685 12 6 10.6569 6 9C6 7.34314 4.65685 6 3 6C1.34315 6 0 7.34314 0 9C0 10.6569 1.34315 12 3 12Z" fill="white"/>
<path d="M19 45C20.1046 45 21 43.8807 21 42.5C21 41.1193 20.1046 40 19 40C17.8954 40 17 41.1193 17 42.5C17 43.8807 17.8954 45 19 45Z" fill="white"/>
</svg>
