<svg width="541" height="108" viewBox="0 0 541 108" fill="none" xmlns="http://www.w3.org/2000/svg">
<path d="M487.5 75C489.985 75 492 72.9853 492 70.5C492 68.0147 489.985 66 487.5 66C485.015 66 483 68.0147 483 70.5C483 72.9853 485.015 75 487.5 75Z" fill="white"/>
<path d="M538.5 59C539.881 59 541 57.8807 541 56.5C541 55.1193 539.881 54 538.5 54C537.119 54 536 55.1193 536 56.5C536 57.8807 537.119 59 538.5 59Z" fill="white"/>
<path d="M4.50004 28C6.98534 28 9 25.9853 9 23.5C9 21.0147 6.98534 19 4.50004 19C2.01475 19 0 21.0147 0 23.5C0 25.9853 2.01475 28 4.50004 28Z" fill="white"/>
<path d="M124.5 10C125.881 10 127 9.10459 127 8C127 6.89541 125.881 6 124.5 6C123.119 6 122 6.89541 122 8C122 9.10459 123.119 10 124.5 10Z" fill="white"/>
<path d="M47 40C48.6569 40 50 38.433 50 36.5C50 34.567 48.6569 33 47 33C45.3432 33 44 34.567 44 36.5C44 38.433 45.3432 40 47 40Z" fill="white"/>
<path fill-rule="evenodd" clip-rule="evenodd" d="M359.875 40.6338C356.953 63.4125 336.117 79.5089 313.339 76.5861C306.668 75.7302 300.57 73.3379 295.355 69.8104C301.308 86.3595 316.103 99.0632 334.745 101.455C361.248 104.856 385.489 86.128 388.89 59.6255C392.265 33.3221 373.843 9.24616 347.656 5.56143C356.68 14.3702 361.604 27.1621 359.875 40.6338Z" fill="#FFD6BA"/>
</svg>
