<svg width="225" height="104" viewBox="0 0 225 104" fill="none" xmlns="http://www.w3.org/2000/svg">
<path fill-rule="evenodd" clip-rule="evenodd" d="M0 103.813L224.058 86.8371V0L0 22.1989V103.813ZM2.8325 101.323L221.226 84.7768V2.56274L2.8325 24.2004V101.323Z" fill="white"/>
<path d="M41.8201 68.4817C40.2528 68.6188 38.5473 68.5538 36.7037 68.2868C34.8866 68.0175 33.4513 67.6746 32.3976 67.2582L32.5212 61.7866C36.1766 63.18 39.3325 63.7605 41.989 63.5281C43.397 63.4049 44.4762 63.0428 45.2267 62.4418C45.9748 61.8142 46.3024 60.9691 46.2094 59.9065C46.1397 59.1095 45.857 58.4784 45.3612 58.0132C44.8897 57.5191 44.227 57.1354 43.3733 56.8621C42.5172 56.5622 41.1581 56.1725 39.2959 55.693C37.5446 55.2573 36.0832 54.7695 34.9117 54.2295C33.7378 53.663 32.7747 52.9041 32.0222 51.9527C31.294 50.9724 30.8648 49.7385 30.7347 48.2508C30.5255 45.86 31.2337 43.8573 32.8591 42.2428C34.4846 40.6283 36.9311 39.6782 40.1986 39.3923C41.7394 39.2575 43.282 39.2965 44.8264 39.5094C46.3974 39.7199 47.8426 40.0218 49.1619 40.415L49.1005 45.6804C47.3908 45.1072 45.8301 44.7084 44.4184 44.4839C43.0311 44.2305 41.66 44.1631 40.3052 44.2816C38.791 44.4141 37.6574 44.7675 36.9046 45.342C36.1519 45.9165 35.8173 46.6819 35.901 47.6382C35.966 48.3821 36.232 48.9745 36.6989 49.4154C37.1658 49.8564 37.7718 50.2049 38.5169 50.461C39.2886 50.7147 40.4115 51.0046 41.8855 51.3307C45.1883 52.0589 47.6283 53.0233 49.2055 54.2237C50.8071 55.3953 51.7078 57.1233 51.9077 59.4079C52.0982 61.5863 51.5073 63.5519 50.1349 65.3049C48.7624 67.0578 45.9908 68.1168 41.8201 68.4817ZM64.6677 45.523C66.5538 45.358 68.2149 45.6811 69.6511 46.4923C71.0873 47.3036 72.2193 48.4627 73.0471 49.9696C73.8749 51.4765 74.3713 53.173 74.5363 55.0592C74.7014 56.9453 74.5071 58.7023 73.9535 60.33C73.3999 61.9578 72.4864 63.2958 71.2129 64.3442C69.9395 65.3925 68.3596 65.9991 66.4735 66.1641C65.2781 66.2687 64.2437 66.2254 63.3704 66.0341C62.5259 65.8671 61.6941 65.5383 60.8749 65.0479L61.8232 75.8864L56.8821 76.3187L54.2953 46.7517L58.28 46.4031L58.9584 48.1907C59.7458 47.3991 60.5892 46.7899 61.4888 46.3632C62.386 45.91 63.4457 45.6299 64.6677 45.523ZM65.3608 62.1659C66.8219 62.0381 67.9142 61.367 68.6378 60.1526C69.3614 58.9383 69.6407 57.3881 69.4757 55.5019C69.3107 53.6158 68.7664 52.1376 67.843 51.0673C66.9195 49.9971 65.7272 49.5259 64.2661 49.6537C62.6191 49.7978 61.4326 50.4637 60.7067 51.6515C59.9808 52.8393 59.7027 54.4028 59.8724 56.3421C60.042 58.2814 60.5874 59.7728 61.5085 60.8165C62.4297 61.8602 63.7138 62.31 65.3608 62.1659ZM88.1542 64.2673C86.0555 64.4509 84.1951 64.1453 82.573 63.3503C80.9509 62.5553 79.6595 61.4102 78.6988 59.9149C77.7382 58.4196 77.1754 56.7289 77.0103 54.8427C76.8453 52.9566 77.1049 51.1805 77.7889 49.5146C78.473 47.8486 79.5448 46.4834 81.0042 45.4188C82.4636 44.3542 84.2427 43.7301 86.3413 43.5465C88.44 43.3629 90.3004 43.6686 91.9225 44.4635C93.5446 45.2585 94.8372 46.417 95.8001 47.9388C96.7631 49.4607 97.3271 51.1647 97.4921 53.0508C97.6571 54.9369 97.3964 56.6997 96.71 58.3391C96.0236 59.9785 94.9507 61.3305 93.4913 62.3951C92.0319 63.4596 90.2528 64.0837 88.1542 64.2673ZM87.7986 60.2029C89.419 60.0611 90.6309 59.3795 91.4342 58.1582C92.264 56.9346 92.5965 55.3797 92.4314 53.4936C92.2641 51.5809 91.6656 50.094 90.6359 49.0331C89.6304 47.9432 88.3174 47.4692 86.6969 47.611C85.0764 47.7527 83.8524 48.4487 83.0249 49.6989C82.2216 50.9203 81.9037 52.4873 82.071 54.4C82.236 56.2861 82.8201 57.7608 83.8233 58.8241C84.853 59.885 86.1781 60.3446 87.7986 60.2029ZM110.302 41.5305C112.773 41.3143 114.718 41.974 116.137 43.5095C117.556 45.045 118.388 47.2074 118.632 49.9967L119.604 61.1143L114.663 61.5466L113.725 50.8275C113.563 48.9679 113.124 47.6277 112.41 46.8069C111.72 45.9571 110.684 45.5926 109.303 45.7135C107.789 45.846 106.59 46.5264 105.707 47.7547L106.973 62.2194L102.031 62.6517L100.288 42.7278L104.911 42.3234L105.112 43.7111C106.686 42.4224 108.416 41.6955 110.302 41.5305ZM129.943 60.6113C128.668 60.7228 127.489 60.7056 126.405 60.5594C125.348 60.411 124.24 60.1332 123.08 59.7261L123.149 55.4639C124.322 56.0304 125.403 56.4445 126.389 56.7062C127.4 56.939 128.423 57.01 129.459 56.9194C131.478 56.7428 132.43 55.9903 132.314 54.662C132.251 53.9448 131.937 53.4234 131.374 53.098C130.807 52.746 129.81 52.3648 128.383 51.9543C126.354 51.4091 124.835 50.7255 123.827 49.9036C122.815 49.0552 122.241 47.8473 122.104 46.28C121.953 44.5532 122.495 43.1004 123.73 41.9216C124.963 40.7162 126.709 40.0148 128.967 39.8172C131.225 39.6197 133.329 39.9576 135.279 40.8309L135.211 45.0931C134.141 44.4908 133.138 44.0431 132.202 43.7502C131.293 43.455 130.347 43.3504 129.364 43.4364C128.514 43.5108 127.865 43.7416 127.417 44.1287C126.995 44.5136 126.813 45.0248 126.868 45.6624C126.913 46.1671 127.081 46.5672 127.375 46.8628C127.695 47.156 128.119 47.4134 128.647 47.6349C129.173 47.8298 130.04 48.1019 131.248 48.4513C133.252 49.0254 134.719 49.7269 135.648 50.5558C136.575 51.3581 137.104 52.503 137.234 53.9907C137.399 55.8768 136.849 57.3971 135.585 58.5517C134.321 59.7063 132.44 60.3928 129.943 60.6113ZM150.412 58.8205C148.313 59.0041 146.453 58.6984 144.831 57.9034C143.208 57.1085 141.917 55.9633 140.956 54.468C139.996 52.9727 139.433 51.282 139.268 49.3959C139.103 47.5098 139.362 45.7337 140.046 44.0678C140.731 42.4018 141.802 41.0365 143.262 39.9719C144.721 38.9074 146.5 38.2833 148.599 38.0997C150.698 37.916 152.558 38.2217 154.18 39.0167C155.802 39.8117 157.095 40.9701 158.058 42.492C159.021 44.0138 159.585 45.7178 159.75 47.604C159.915 49.4901 159.654 51.2529 158.968 52.8923C158.281 54.5316 157.208 55.8836 155.749 56.9482C154.289 58.0128 152.51 58.6369 150.412 58.8205ZM150.056 54.756C151.677 54.6143 152.888 53.9327 153.692 52.7114C154.522 51.4877 154.854 49.9328 154.689 48.0467C154.522 46.134 153.923 44.6472 152.893 43.5862C151.888 42.4964 150.575 42.0224 148.954 42.1641C147.334 42.3059 146.11 43.0019 145.282 44.2521C144.479 45.4734 144.161 47.0404 144.329 48.9531C144.494 50.8393 145.078 52.314 146.081 53.3773C147.111 54.4382 148.436 54.8978 150.056 54.756ZM162.546 37.281L167.168 36.8766L167.473 38.978C167.999 38.2628 168.692 37.6133 169.551 37.0295C170.436 36.4434 171.384 36.1062 172.393 36.0179C172.712 35.99 173.007 35.991 173.277 36.0209L173.344 40.9137C172.827 40.8251 172.25 40.8086 171.613 40.8644C170.789 40.9364 170.05 41.2019 169.394 41.6608C168.736 42.0932 168.285 42.601 168.041 43.1845L169.23 56.7726L164.289 57.2049L162.546 37.281ZM183.367 55.9373C182.092 56.0488 180.913 56.0316 179.829 55.8854C178.772 55.737 177.664 55.4592 176.504 55.0521L176.573 50.7899C177.746 51.3564 178.827 51.7705 179.813 52.0322C180.824 52.265 181.847 52.336 182.884 52.2454C184.902 52.0687 185.854 51.3163 185.738 49.988C185.675 49.2708 185.362 48.7494 184.798 48.424C184.232 48.072 183.235 47.6908 181.807 47.2803C179.778 46.7351 178.259 46.0515 177.251 45.2296C176.239 44.3812 175.665 43.1733 175.528 41.606C175.377 39.8792 175.919 38.4264 177.155 37.2476C178.388 36.0422 180.133 35.3408 182.391 35.1432C184.649 34.9457 186.753 35.2836 188.703 36.1569L188.635 40.4191C187.565 39.8168 186.562 39.3691 185.626 39.0762C184.717 38.781 183.771 38.6764 182.788 38.7624C181.938 38.8368 181.289 39.0675 180.841 39.4547C180.42 39.8396 180.237 40.3508 180.293 40.9884C180.337 41.4931 180.506 41.8932 180.799 42.1888C181.119 42.482 181.543 42.7394 182.071 42.9608C182.597 43.1558 183.464 43.4279 184.672 43.7773C186.677 44.3514 188.143 45.0529 189.072 45.8818C189.999 46.684 190.528 47.829 190.658 49.3167C190.823 51.2028 190.273 52.7231 189.009 53.8777C187.745 55.0323 185.864 55.7188 183.367 55.9373Z" fill="white"/>
</svg>
