<?xml version="1.0" encoding="utf-8"?>
<!-- Generator: Adobe Illustrator 24.2.1, SVG Export Plug-In . SVG Version: 6.00 Build 0)  -->
<svg version="1.1" id="Layer_1" xmlns="http://www.w3.org/2000/svg" xmlns:xlink="http://www.w3.org/1999/xlink" x="0px" y="0px"
	 viewBox="0 0 457.09 555.21" style="enable-background:new 0 0 457.09 555.21;" xml:space="preserve">
<style type="text/css">
	.st0{fill:#FCDD81;}
	.st1{fill:#F2C94C;}
	.st2{fill:#D6AC2C;}
	.st3{fill:#7563C1;}
	.st4{fill:url(#SVGID_1_);}
	.st5{fill:#FF6E5A;}
	.st6{fill:#54C68F;}
</style>
<g>
	
		<rect x="237.51" y="144.74" transform="matrix(0.9789 -0.2041 0.2041 0.9789 -25.6971 69.8498)" class="st0" width="176.49" height="29.51"/>
	<polygon class="st1" points="278.12,99.16 453.75,62.54 411.26,127.43 235.62,164.05 	"/>
	<path class="st2" d="M451.32,62.62l-42.03,65.18l5.89,28.08l41.91-65.78L451.32,62.62z"/>
	<circle class="st3" cx="335.81" cy="31.5" r="31.5"/>
	
		<ellipse transform="matrix(0.9858 -0.1677 0.1677 0.9858 -13.8762 58.0468)" class="st2" cx="336.7" cy="111.17" rx="30.8" ry="7.47"/>
</g>
<g>
	<polygon class="st0" points="4.51,294.3 110.92,329.47 106.41,354.96 0,319.79 	"/>
	<path class="st1" d="M103.63,272.57l106.42,30.95l-99.15,25.96L4.5,294.31L103.63,272.57z"/>
	<polygon class="st2" points="110.91,329.55 210.05,303.51 205.54,329.01 106.4,355.04 	"/>
	
		<linearGradient id="SVGID_1_" gradientUnits="userSpaceOnUse" x1="207.6981" y1="317.5207" x2="-48.3982" y2="346.8947" gradientTransform="matrix(1 0 0 -1 0 636.1754)">
		<stop  offset="0" style="stop-color:#FF6E5A;stop-opacity:0.6"/>
		<stop  offset="0.2388" style="stop-color:#E5E5E5;stop-opacity:0"/>
		<stop  offset="0.6765" style="stop-color:#E3E3E3;stop-opacity:0.01"/>
	</linearGradient>
	<path class="st4" d="M133.11,262.93c61.64,26.53,70.66,69.59,82.3,103.05l-28.13,9.79c-9.79-28.13-27.21-75.82-63.02-89.3
		c-47.07-17.72-31.62-14.4-92.12-14.4v-25.5C91.63,246.57,71.47,236.4,133.11,262.93z"/>
	<circle class="st5" cx="200.72" cy="369.07" r="14.89"/>
</g>
<g>
	
		<rect x="291.09" y="447.34" transform="matrix(0.1572 -0.9876 0.9876 0.1572 -241.1908 717.7161)" class="st0" width="17.67" height="105.66"/>
	<path class="st1" d="M286,456.35l104.81,16.34l-37.39,27.54l-104.91-16.69L286,456.35z"/>
	<path class="st2" d="M390.8,472.69l-37.39,27.53l-2.68,16.97l37.45-27.89L390.8,472.69z"/>
	
		<ellipse transform="matrix(0.1431 -0.9897 0.9897 0.1431 -196.4133 718.5671)" class="st2" cx="316.74" cy="472.71" rx="3.94" ry="27.59"/>
	<ellipse class="st6" cx="337.33" cy="463.54" rx="15" ry="14.5"/>
</g>
</svg>
