<svg width="471" height="337" viewBox="0 0 471 337" fill="none" xmlns="http://www.w3.org/2000/svg">
<path d="M186.26 330.002L161.059 330.049L173.659 300.433L186.26 330.002Z" fill="#6589DF"/>
<path d="M218.4 329.529C207.551 329.866 196.702 330.154 185.854 330.491C181.751 320.535 177.649 310.579 173.547 300.623C183.752 300.623 193.956 300.671 204.161 300.671C208.907 310.29 213.654 319.91 218.4 329.529Z" fill="#F79E1E"/>
<path d="M220.877 334.37C209.945 334.69 199.013 334.964 188.081 335.284C183.947 325.827 179.813 316.369 175.68 306.912C185.963 306.958 196.245 306.958 206.563 307.004C211.311 316.095 216.094 325.233 220.877 334.37Z" stroke="white" stroke-width="2" stroke-miterlimit="10"/>
<path d="M188.035 335.738L163.848 335.784L175.941 306.945L188.035 335.738Z" stroke="white" stroke-width="2" stroke-miterlimit="10"/>
<rect x="448.688" y="202.212" width="3.47558" height="8.10969" fill="#A7977C"/>
<circle cx="450.427" cy="191.785" r="8.68895" fill="#2B9B99"/>
<rect x="413.902" y="192.633" width="3.47558" height="8.10969" fill="#A7977C"/>
<circle cx="415.638" cy="182.207" r="8.68895" fill="#2B9B99"/>
<rect x="371.613" y="164.25" width="3.47558" height="8.10969" fill="#A7977C"/>
<circle cx="373.353" cy="153.823" r="8.68895" fill="#2B9B99"/>
<rect x="386.098" y="201.322" width="3.47558" height="8.10969" fill="#A7977C"/>
<circle cx="387.837" cy="190.895" r="8.68895" fill="#2B9B99"/>
<path d="M456.766 155.183C352.925 171.294 412.811 37.4406 315.994 52.4623C232.508 65.4156 264.181 105.903 195.455 116.566C126.73 127.229 52.3129 112.16 67.3045 208.785C86.8542 263.047 195.455 221.633 180.034 285.479" stroke="#66645E" stroke-width="4" stroke-dasharray="20 20"/>
<path d="M0 191.149L8.39092 176.464L16.7818 191.149" fill="#8283BE"/>
<path d="M16.7852 163.878L25.1761 149.194L33.567 163.878" fill="#8283BE"/>
<path d="M35.8516 143.567L44.2425 128.883L52.6334 143.567" fill="#8283BE"/>
<path d="M0 134.51L8.39092 119.826L16.7818 134.51" fill="#8283BE"/>
<path d="M194.469 28.5768C185.169 30.5753 183.459 43.7853 184.219 54.9383C204.264 67.1051 245.153 60.0078 257.682 54.9383C255.594 48.0099 253.696 9.18271 236.451 28.5768C228.898 37.0718 232.267 0.1875 218.599 0.1875C204.931 0.1875 210.984 25.0281 194.469 28.5768Z" fill="#C06880"/>
<path d="M196.274 30.1996C186.339 34.3294 184.002 56.528 186.339 61.6901C188.677 66.8522 237.031 71.0283 236.014 65.302C231.338 38.9752 220.235 46.2049 215.56 46.2038C210.885 46.2026 206.209 26.0698 196.274 30.1996Z" fill="#A84963"/>
<path d="M191.277 27.6806C196.06 26.1696 205.971 26.5725 207.348 40.2721C209.07 57.3966 217.68 55.8856 224.567 50.849C230.077 46.8197 236.429 57.2287 238.916 62.9368" stroke="white"/>
<path d="M194.524 31.6621C185.175 33.6641 183.456 46.8974 184.219 58.0699C204.37 70.2581 242.2 61.4155 254.795 56.3371C252.696 49.3966 250.84 13.6783 238.605 27.3901C231.012 35.9 229.246 4.0293 215.506 4.0293C201.767 4.0293 211.125 28.1072 194.524 31.6621Z" stroke="white"/>
</svg>
