<svg width="460" height="339" viewBox="0 0 460 339" fill="none" xmlns="http://www.w3.org/2000/svg">
<path d="M413.141 274L420.598 261.235L428.055 274" fill="#D090A2"/>
<path d="M428.055 250.294L435.512 237.529L442.969 250.294" fill="#D090A2"/>
<path d="M445 232.638L452.457 219.873L459.914 232.638" fill="#D090A2"/>
<path d="M413.141 224.765L420.598 212L428.055 224.765" fill="#D090A2"/>
<path d="M340.314 223.116L320.113 223.153L330.214 200L340.314 223.116Z" fill="#F79E1E"/>
<path d="M366.083 222.746C357.387 223.01 348.69 223.235 339.994 223.498C336.706 215.715 333.417 207.931 330.129 200.148C338.309 200.148 346.489 200.185 354.669 200.185C358.474 207.706 362.278 215.226 366.083 222.746Z" fill="#AFE0D0"/>
<path d="M368.061 226.531C359.299 226.781 350.536 226.996 341.773 227.246C338.459 219.852 335.146 212.459 331.832 205.065C340.075 205.101 348.317 205.101 356.587 205.136C360.394 212.244 364.228 219.388 368.061 226.531Z" stroke="white" stroke-width="2" stroke-miterlimit="10"/>
<path d="M341.736 227.6L322.348 227.636L332.042 205.091L341.736 227.6Z" stroke="white" stroke-width="2" stroke-miterlimit="10"/>
<path d="M354.481 182.812L332.379 182.855L343.43 156L354.481 182.812Z" fill="#2B9B99"/>
<path d="M383.547 181.783C373.751 182.083 363.955 182.34 354.159 182.641C350.455 173.76 346.751 164.88 343.047 156C352.261 156 361.475 156.043 370.69 156.043C374.975 164.623 379.261 173.203 383.547 181.783Z" fill="#EA9D8B"/>
<path d="M382.104 183.514C373.666 183.774 365.228 183.997 356.79 184.256C353.6 176.573 350.409 168.889 347.219 161.205C355.156 161.242 363.092 161.242 371.056 161.279C374.721 168.666 378.412 176.09 382.104 183.514Z" stroke="white" stroke-width="2" stroke-miterlimit="10"/>
<path d="M356.872 184.962L337.574 185L347.223 161.205L356.872 184.962Z" stroke="white" stroke-width="2" stroke-miterlimit="10"/>
<path d="M136 336.5C110.271 330.667 51.4351 326 91.1014 276C140.684 213.5 217.868 296.5 273.585 246C329.301 195.5 298.63 110.5 208.667 121.5C118.704 132.5 164.691 170.5 100.285 186.5C35.8784 202.5 -8.62731 173.504 4.21149 135C19.5499 89 56.351 121.5 100.285 104C139.285 88.4653 97.2331 42.6046 163.161 35.4999C223.479 28.9999 196.387 91.9999 262.838 86.4999C315.999 82.0999 350.758 63.4999 350.758 35.4999" stroke="#66645E" stroke-width="4" stroke-dasharray="20 20"/>
<path d="M381.891 48.8437V1.96246L378.477 0V48.8437H381.891Z" fill="#A7977C"/>
<path d="M396.02 21.7584V11.5044L364.75 20.883V31.012L396.02 21.7584Z" fill="#CCC0AC"/>
<path d="M396.602 21.3833L396.6 11.6295L363.236 1.24238L363.238 11.6213L396.602 21.3833Z" fill="#A7977C"/>
</svg>
