<svg width="181" height="88" viewBox="0 0 181 88" fill="none" xmlns="http://www.w3.org/2000/svg">
<path d="M0 81.5549V17.4394L176.019 0V68.2189L0 81.5549Z" fill="#EA7E69"/>
<path fill-rule="evenodd" clip-rule="evenodd" d="M4.98047 87.1613L181 73.8253V5.60638L4.98047 23.0458V87.1613ZM7.20567 85.2055L178.775 72.2067V7.61967L7.20567 24.6181V85.2055Z" fill="white"/>
<path d="M55.1622 56.0343L45.0047 56.9644L43.2999 63.7882L38.3605 64.2405L45.7259 35.449L50.5457 35.0076L63.0174 61.9828L58.078 62.4351L55.1622 56.0343ZM53.1604 51.7188L48.7831 42.0778L46.1896 52.3571L53.1604 51.7188ZM74.1829 40.5554C76.0683 40.3828 77.7308 40.6992 79.1702 41.5046C80.6097 42.31 81.7463 43.4645 82.5802 44.9681C83.4141 46.4716 83.9174 48.1661 84.0901 50.0516C84.2627 51.937 84.0755 53.6948 83.5286 55.3248C82.9816 56.9548 82.0735 58.2965 80.8042 59.3499C79.535 60.4034 77.9577 61.0164 76.0722 61.1891C73.9743 61.3812 72.0233 60.9841 70.2192 59.9978L70.2599 61.3196L65.6392 61.7427L62.9037 31.8677L67.8431 31.4154L68.8898 42.8476C70.4003 41.5043 72.1647 40.7402 74.1829 40.5554ZM74.9832 57.1917C76.4437 57.058 77.5201 56.3837 78.2122 55.1689C78.9309 53.9516 79.2039 52.4003 79.0312 50.5148C78.8586 48.6294 78.3084 47.1534 77.3806 46.0869C76.4794 45.0179 75.2985 44.5503 73.8379 44.6841C72.1649 44.8373 70.9679 45.5092 70.2468 46.6999C69.5257 47.8906 69.2539 49.4553 69.4314 51.3938C69.6089 53.3324 70.1603 54.8216 71.0857 55.8616C72.011 56.9015 73.3102 57.3449 74.9832 57.1917ZM97.746 59.2045C95.6481 59.3966 93.7865 59.0985 92.1611 58.31C90.5358 57.5216 89.2398 56.3817 88.2731 54.8903C87.3064 53.3989 86.7367 51.7105 86.5641 49.8251C86.3915 47.9396 86.6438 46.1625 87.3211 44.4938C87.9985 42.8251 89.0647 41.4555 90.5198 40.385C91.9749 39.3146 93.7514 38.6833 95.8493 38.4912C97.9472 38.2991 99.8088 38.5972 101.434 39.3856C103.059 40.1741 104.357 41.3272 105.326 42.8452C106.295 44.3632 106.866 46.0649 107.038 47.9503C107.211 49.8357 106.958 51.5996 106.278 53.2417C105.598 54.8839 104.531 56.2402 103.075 57.3107C101.62 58.3811 99.8438 59.0124 97.746 59.2045ZM97.3739 55.1415C98.9938 54.9932 100.203 54.3067 101.001 53.0822C101.826 51.8552 102.152 50.299 101.98 48.4135C101.805 46.5015 101.2 45.0171 100.166 43.9603C99.1561 42.8746 97.8412 42.4058 96.2213 42.5542C94.6015 42.7025 93.3803 43.4034 92.5578 44.657C91.7595 45.8816 91.4479 47.4498 91.6229 49.3618C91.7956 51.2473 92.3856 52.7196 93.3931 53.7788C94.4271 54.8356 95.754 55.2898 97.3739 55.1415ZM127.16 36.0258L128.984 55.9425L124.363 56.3656L124.174 55.1779C123.605 55.6853 122.936 56.1348 122.169 56.5264C121.399 56.8914 120.642 57.108 119.899 57.1761C116.951 57.446 114.722 56.7932 113.212 55.2176C111.729 53.6397 110.85 51.3503 110.575 48.3495L109.594 37.6343L114.533 37.182L115.514 47.8972C115.684 49.7561 116.116 51.109 116.81 51.956C117.527 52.774 118.577 53.1197 119.957 52.9933C121.498 52.8523 122.695 52.1803 123.549 50.9774L122.221 36.4781L127.16 36.0258ZM140.356 55.3029C138.604 55.4634 137.23 55.0804 136.234 54.1539C135.237 53.201 134.672 52.0075 134.541 50.5735L133.53 39.5396L130.702 39.7986L130.768 35.6955L133.158 35.4766L132.757 31.0949L137.649 30.1248L138.098 35.0243L142.479 34.6231L142.851 38.6861L138.47 39.0873L139.294 48.0897C139.391 49.1519 139.512 49.8906 139.658 50.3058C139.827 50.6919 140.103 50.9344 140.487 51.0331C140.895 51.1029 141.604 51.0915 142.613 50.9991L143.967 50.8751L143.901 54.9783L140.356 55.3029Z" fill="white"/>
</svg>
