<svg width="463" height="339" viewBox="0 0 463 339" fill="none" xmlns="http://www.w3.org/2000/svg">
<path d="M418 298L428.5 282.25L439 298" stroke="#42A4A3" stroke-width="3" stroke-miterlimit="10" stroke-linecap="round" stroke-linejoin="round"/>
<path d="M418 309.375L428.5 293.625L439 309.375" stroke="#42A4A3" stroke-width="3" stroke-miterlimit="10" stroke-linecap="round" stroke-linejoin="round"/>
<path d="M426.75 305H430.25V319H426.75V305Z" fill="#A7977C"/>
<path d="M385 276.75L395.5 261L406 276.75" stroke="#42A4A3" stroke-width="3" stroke-miterlimit="10" stroke-linecap="round" stroke-linejoin="round"/>
<path d="M385 288.125L395.5 272.375L406 288.125" stroke="#42A4A3" stroke-width="3" stroke-miterlimit="10" stroke-linecap="round" stroke-linejoin="round"/>
<path d="M393.75 283.75H397.25V297.75H393.75V283.75Z" fill="#A7977C"/>
<path d="M424 252.75L434.5 237L445 252.75" stroke="#42A4A3" stroke-width="3" stroke-miterlimit="10" stroke-linecap="round" stroke-linejoin="round"/>
<path d="M424 264.125L434.5 248.375L445 264.125" stroke="#42A4A3" stroke-width="3" stroke-miterlimit="10" stroke-linecap="round" stroke-linejoin="round"/>
<path d="M432.75 259.75H436.25V273.75H432.75V259.75Z" fill="#A7977C"/>
<path d="M65.1878 140.155C63.3403 141.297 45.5478 158.62 37.8359 170.216C37.8359 181.201 46.6679 179.613 54.0445 177.782C61.0857 168.933 84.8235 152.69 82.4094 144.634C79.3917 134.564 66.8365 139.135 65.1878 140.155Z" fill="#66645E"/>
<path d="M82.8511 157.579L37.3949 150.75C27.9084 161.676 33.0203 164.007 36.973 165.145C47.8429 167.706 71.5592 172.486 79.4646 171.12C87.37 169.755 85.1568 162.416 82.8511 157.579Z" fill="#7C7260"/>
<path d="M76.5195 164.922C76.5195 161.427 78.84 158.611 80.0002 157.64C86.2654 157.64 86.2654 170.262 82.0886 171.233C77.9118 172.204 76.5195 169.291 76.5195 164.922Z" stroke="white" stroke-width="0.5"/>
<path d="M37.3008 174.859C37.3008 177.279 41.9416 179.228 44.2621 179.9C56.7924 179.9 56.7924 171.162 48.4389 170.49C40.0853 169.817 37.3008 171.834 37.3008 174.859Z" stroke="white" stroke-width="0.5"/>
<path d="M42.3241 138.225C43.5653 135.414 42.8413 130.613 42.3241 128.564C47.755 133.834 47.7533 138.225 50.857 138.225C53.3399 138.225 55.5121 130.321 55.5121 130.321C57.0631 136.468 62.4934 132.955 62.4934 125.051C62.4934 121.539 60.4247 116.562 62.4934 111C61.7177 123.295 67.148 118.026 71.8026 140.859C76.4572 163.693 64.8213 164.571 53.1848 165.449C41.5483 166.327 40.7726 141.737 42.3241 138.225Z" fill="#F8A836"/>
<path fill-rule="evenodd" clip-rule="evenodd" d="M57.0351 165.472L54.2172 162.302L58.0773 156.811L62.0919 160.308L61.3584 165.472H57.0351Z" fill="#F06D50"/>
<path d="M58.0773 156.811L62.0919 160.308L65.0713 156.811H58.0773Z" fill="#F06D50"/>
<path d="M54.2172 162.302L58.0773 156.811L51.9783 159.524L54.2172 162.302Z" fill="#F06D50"/>
<path d="M51.9783 159.524L58.0773 156.811H65.0713L63.9494 150.282L60.0113 138.236L54.2172 144.353V148.672L49.5078 153.15L51.9783 159.524Z" fill="#F06D50"/>
<path d="M40.3792 141.145C41.6204 138.837 38.0586 134.992 40.3792 133.21C42.6998 131.427 45.8084 141.145 48.9121 141.145C51.395 141.145 52.0163 129.603 53.5672 134.652C55.1182 139.702 60.5485 133.112 60.5485 130.324C60.5485 127.536 58.9433 120.727 60.5485 118.782C62.1538 116.836 65.2031 124.553 69.8577 143.309C74.5123 162.065 62.8764 162.787 51.2399 163.508C39.6034 164.229 38.8277 144.031 40.3792 141.145Z" stroke="white" stroke-width="0.7"/>
<path d="M325 56C315.4 70.3528 306.826 74.6105 290.5 81C282.494 86.4301 276.198 88.0236 262.5 89C236.007 85.3852 218.43 85.666 183.5 89C161.422 96.0903 149.055 100.197 127.5 116C107.652 137.88 103.134 151.724 106.5 179C109.33 194.671 112.93 203.44 127.5 219C140.248 235.136 149.988 241.74 170 251C198.006 258.828 213.744 260.592 242 257C264.585 252.046 274.947 246.908 285 229C287.357 198.082 289.337 188.112 294 181.5C306.465 162.014 318.434 154.221 350 147C372.868 144.735 384.937 144.84 405 147C430.825 150.743 442.632 155.956 460 171C461.905 190.421 458.415 200.941 443.5 219C431.616 230.331 423.824 232.707 409 233.5C386.087 235.834 374.416 239.761 355.5 251C334.755 269.426 323.052 278.709 302 293C287.475 304.154 279.92 309.163 268 314.5C250.447 320.037 239.701 321.663 218.5 321.5C194.814 322.389 181.12 320.875 157 314.5C136.285 308.409 122.004 305.459 83.5 302.5C66.4918 304.527 36 314.5 36 314.5C36 314.5 9.99184 324.649 2 337" stroke="#66645E" stroke-width="4" stroke-dasharray="20 20"/>
<path d="M324.641 36.7008C325.828 44.8812 353.617 43.3093 355.948 34.9294C357.196 30.4419 355.332 19.9254 350.836 18.6085C346.957 8.46651 340.587 -1.845 334.198 0.280981C330.9 1.37821 330.798 1.42355 330.798 10.7329C325.918 16.5191 324.975 29.3463 324.641 36.7008Z" fill="#2E3192"/>
<path d="M325.793 30.7019C326.824 37.327 353.348 37.4886 355.373 30.7019C356.457 27.0676 352.46 17.1159 348.553 16.0495C345.183 7.83573 339.045 0.357151 333.493 2.07892C330.628 2.96754 330.034 2.07892 330.034 9.61832C325.793 14.3043 326.084 24.7457 325.793 30.7019Z" stroke="white"/>
<path d="M338.177 35.7316C338.082 32.4635 336.539 24.8468 339.165 24.8468C342.692 24.8468 339.932 13.476 342.194 13.1158C344.456 12.7557 347.915 13.2018 348.042 15.1626" stroke="white"/>
<path d="M316.836 31.2302C312.533 31.2302 310.81 38.3628 310.484 42.933C310.158 47.5032 331.888 45.2344 332.345 41.1756C333.241 33.2163 327.604 20.47 322.596 21.8731C317.588 23.2763 321.14 31.2302 316.836 31.2302Z" fill="#8283BE"/>
<path d="M319.148 27.0855C321.262 27.8032 325.761 28.534 326.853 25.7152" stroke="white"/>
<path d="M316.384 32.7712C312.061 32.7712 310.331 39.9038 310.004 44.4739C309.676 49.0441 331.502 46.7753 331.96 42.7165C332.86 34.7573 327.198 22.011 322.169 23.4141C317.139 24.8172 320.706 32.7712 316.384 32.7712Z" stroke="white"/>
</svg>
