<svg width="133" height="43" viewBox="0 0 133 43" fill="none" xmlns="http://www.w3.org/2000/svg">
<path d="M4.05859 41.5661C54.5574 34.5661 33.0699 15.0659 61.5965 12.5666C90.123 10.0674 102.595 45.5662 130.052 9.0667" stroke="#66645E" stroke-width="2" stroke-dasharray="15 15"/>
<path d="M62.8468 29.3318L54.0977 29.3483L58.4722 19.0667L62.8468 29.3318Z" fill="#6589DF"/>
<path d="M74.0013 29.1677C70.2349 29.2846 66.4686 29.3848 62.7022 29.5016C61.278 26.0452 59.8539 22.5888 58.4297 19.1324C61.9724 19.1324 65.5152 19.1491 69.0579 19.1491C70.7057 22.4886 72.3535 25.8282 74.0013 29.1677Z" fill="#F79E1E"/>
<path d="M74.8667 30.8483C71.0715 30.9593 67.2762 31.0545 63.481 31.1655C62.0459 27.8823 60.6109 24.599 59.1758 21.3158C62.7457 21.3317 66.3156 21.3317 69.8973 21.3475C71.5459 24.5039 73.2063 27.6761 74.8667 30.8483Z" stroke="white" stroke-width="0.798743" stroke-miterlimit="10"/>
<path d="M63.4634 31.3232L55.0664 31.3392L59.2649 21.3274L63.4634 31.3232Z" stroke="white" stroke-width="0.798743" stroke-miterlimit="10"/>
</svg>
