<svg width="209" height="61" viewBox="0 0 209 61" fill="none" xmlns="http://www.w3.org/2000/svg">
<path d="M204.584 1.00002C132.01 12.2602 234.828 22.7308 175.086 32.0001C115.344 41.2694 162.776 1.00001 101.584 40C54.476 70.0234 19.4485 3.00001 6.04307 58.5001" stroke="#66645E" stroke-width="2" stroke-dasharray="15 15"/>
<path d="M74.8086 32.8644C75.5159 37.7378 92.0713 36.8014 93.4596 31.8091C94.2031 29.1357 93.0929 22.8705 90.4143 22.086C88.1037 16.044 84.3086 9.90098 80.5023 11.1675C78.5378 11.8212 78.477 11.8482 78.477 17.3942C75.5693 20.8412 75.0079 28.483 74.8086 32.8644Z" fill="#2E3192"/>
<path d="M75.4961 29.2906C76.1106 33.2374 91.9119 33.3337 93.1181 29.2906C93.7641 27.1254 91.3826 21.1968 89.0553 20.5615C87.0477 15.6682 83.3907 11.2129 80.0836 12.2386C78.3767 12.768 78.0224 12.2386 78.0224 16.7302C75.4961 19.5218 75.6692 25.7422 75.4961 29.2906Z" stroke="white" stroke-width="0.595744"/>
<path d="M82.8706 32.287C82.8136 30.3401 81.8945 25.8025 83.459 25.8025C85.56 25.8025 83.9158 19.0284 85.2635 18.8138C86.6112 18.5992 88.6716 18.865 88.7475 20.0332" stroke="white" stroke-width="0.595744"/>
<path d="M70.1576 29.6053C67.5938 29.6053 66.5673 33.8545 66.3733 36.5772C66.1792 39.2998 79.1246 37.9482 79.3967 35.5302C79.9303 30.7885 76.5722 23.195 73.5888 24.0309C70.6054 24.8668 72.7215 29.6053 70.1576 29.6053Z" fill="#8283BE"/>
<path d="M71.5352 27.1361C72.7942 27.5637 75.4748 27.9991 76.1253 26.3198" stroke="white" stroke-width="0.595744"/>
<path d="M69.8891 30.5234C67.314 30.5234 66.283 34.7725 66.0881 37.4952C65.8932 40.2179 78.8954 38.8662 79.1687 36.4482C79.7046 31.7066 76.3318 24.113 73.3353 24.9489C70.3388 25.7848 72.4642 30.5234 69.8891 30.5234Z" stroke="white" stroke-width="0.595744"/>
</svg>
