<svg width="369" height="116" viewBox="0 0 369 116" fill="none" xmlns="http://www.w3.org/2000/svg">
<path d="M0 104V22.239L333 0V86.9938L0 104Z" fill="#F8A836"/>
<path fill-rule="evenodd" clip-rule="evenodd" d="M9.33984 115.949L345 98.9736V12.1365L9.33984 34.3354V115.949ZM13.5832 113.46L340.757 96.9132V14.6992L13.5832 36.3369V113.46Z" fill="white"/>
<path d="M72.027 49.5882L77.0478 49.1489L90.5381 66.1177L88.9623 48.1065L94.0628 47.6603L96.5032 75.5538L92.3192 75.9198L77.8945 57.9085L79.5679 77.0354L74.4674 77.4816L72.027 49.5882ZM110.651 74.7175C108.553 74.9011 106.692 74.5954 105.07 73.8004C103.448 73.0054 102.157 71.8603 101.196 70.365C100.235 68.8697 99.6725 67.179 99.5075 65.2929C99.3425 63.4067 99.602 61.6307 100.286 59.9647C100.97 58.2988 102.042 56.9335 103.501 55.8689C104.961 54.8043 106.74 54.1802 108.839 53.9966C110.937 53.813 112.798 54.1187 114.42 54.9137C116.042 55.7087 117.334 56.8671 118.297 58.389C119.26 59.9108 119.824 61.6148 119.989 63.5009C120.154 65.3871 119.894 67.1498 119.207 68.7892C118.521 70.4286 117.448 71.7806 115.988 72.8452C114.529 73.9098 112.75 74.5339 110.651 74.7175ZM110.296 70.653C111.916 70.5112 113.128 69.8297 113.931 68.6084C114.761 67.3847 115.094 65.8298 114.929 63.9437C114.761 62.031 114.163 60.5442 113.133 59.4832C112.128 58.3934 110.815 57.9193 109.194 58.0611C107.574 58.2029 106.35 58.8989 105.522 60.1491C104.719 61.3704 104.401 62.9374 104.568 64.8501C104.733 66.7362 105.317 68.2109 106.32 69.2742C107.35 70.3352 108.675 70.7948 110.296 70.653ZM132.799 51.9806C135.27 51.7645 137.215 52.4242 138.634 53.9596C140.053 55.4951 140.885 57.6575 141.129 60.4469L142.102 71.5644L137.16 71.9967L136.223 61.2777C136.06 59.4181 135.621 58.0779 134.907 57.257C134.217 56.4072 133.181 56.0428 131.8 56.1636C130.286 56.2961 129.087 56.9765 128.204 58.2048L129.47 72.6696L124.529 73.1018L122.786 53.178L127.408 52.7735L127.61 54.1612C129.183 52.8725 130.913 52.1457 132.799 51.9806ZM154.246 42.395L164.168 41.5269C170.783 40.9482 174.353 43.6607 174.878 49.6644C175.15 52.7726 174.515 55.1569 172.974 56.8176C171.433 58.4782 169.068 59.448 165.881 59.7269L160.94 60.1592L161.787 69.8422L156.686 70.2884L154.246 42.395ZM164.91 55.5155C166.663 55.3621 167.93 54.8497 168.71 53.9784C169.517 53.1047 169.849 51.8444 169.705 50.1973C169.561 48.5503 169.017 47.3799 168.072 46.6862C167.126 45.966 165.75 45.6849 163.943 45.8429L159.719 46.2124L160.567 55.8955L164.91 55.5155ZM177.844 48.361L182.466 47.9566L182.771 50.058C183.297 49.3428 183.99 48.6933 184.849 48.1095C185.734 47.5234 186.682 47.1862 187.691 47.0979C188.01 47.07 188.305 47.071 188.575 47.1009L188.642 51.9937C188.125 51.905 187.548 51.8886 186.911 51.9444C186.087 52.0164 185.348 52.2819 184.692 52.7408C184.034 53.1731 183.583 53.681 183.339 54.2645L184.528 67.8526L179.587 68.2848L177.844 48.361ZM201.702 66.7516C199.603 66.9352 197.743 66.6295 196.121 65.8345C194.499 65.0395 193.207 63.8944 192.247 62.3991C191.286 60.9038 190.723 59.2131 190.558 57.327C190.393 55.4408 190.653 53.6648 191.337 51.9988C192.021 50.3329 193.093 48.9676 194.552 47.903C196.012 46.8384 197.791 46.2143 199.889 46.0307C201.988 45.8471 203.848 46.1528 205.47 46.9478C207.093 47.7428 208.385 48.9012 209.348 50.423C210.311 51.9449 210.875 53.6489 211.04 55.535C211.205 57.4212 210.944 59.1839 210.258 60.8233C209.572 62.4627 208.499 63.8147 207.039 64.8793C205.58 65.9439 203.801 66.568 201.702 66.7516ZM201.346 62.6871C202.967 62.5453 204.179 61.8638 204.982 60.6425C205.812 59.4188 206.144 57.8639 205.979 55.9778C205.812 54.0651 205.213 52.5783 204.184 51.5173C203.178 50.4275 201.865 49.9534 200.245 50.0952C198.624 50.237 197.4 50.933 196.573 52.1832C195.77 53.4045 195.452 54.9715 195.619 56.8842C195.784 58.7703 196.368 60.245 197.371 61.3083C198.401 62.3693 199.726 62.8289 201.346 62.6871ZM215.154 49.1924L212.325 49.4399L212.407 45.3371L214.798 45.1279L214.429 40.904C214.273 39.1241 214.669 37.6842 215.617 36.584C216.589 35.455 218.044 34.8057 219.984 34.636C221.073 34.5407 222.159 34.5662 223.243 34.7123L223.153 38.7354C222.69 38.6421 222.166 38.621 221.581 38.6721C220.014 38.8093 219.302 39.7013 219.447 41.3484L219.739 44.6956L224.123 44.3121L224.478 48.3766L220.095 48.7601L221.482 64.6195L216.541 65.0518L215.154 49.1924ZM226.68 36.0578L231.621 35.6256L232.053 40.5667L227.112 40.999L226.68 36.0578ZM227.377 44.0274L232.318 43.5951L234.061 63.519L229.12 63.9513L227.377 44.0274ZM245.455 62.9237C243.701 63.0771 242.329 62.6886 241.337 61.7581C240.344 60.8011 239.784 59.6053 239.658 58.1708L238.693 47.133L235.864 47.3805L235.946 43.2777L238.337 43.0685L237.954 38.6852L242.849 37.7349L243.278 42.6362L247.662 42.2527L248.017 46.3172L243.634 46.7007L244.422 55.7063C244.515 56.7689 244.633 57.5081 244.776 57.9238C244.944 58.3107 245.22 58.5542 245.603 58.6545C246.011 58.7259 246.72 58.7175 247.729 58.6291L249.084 58.5106L249.001 62.6134L245.455 62.9237ZM258.548 61.7782C257.272 61.8898 256.093 61.8725 255.01 61.7264C253.953 61.578 252.844 61.3002 251.684 60.893L251.753 56.6308C252.927 57.1973 254.007 57.6114 254.994 57.8731C256.004 58.1059 257.028 58.177 258.064 58.0863C260.083 57.9097 261.034 57.1573 260.918 55.829C260.855 55.1117 260.542 54.5904 259.978 54.265C259.412 53.913 258.415 53.5317 256.987 53.1213C254.959 52.576 253.44 51.8925 252.431 51.0706C251.42 50.2221 250.846 49.0143 250.709 47.4469C250.558 45.7202 251.1 44.2674 252.335 43.0886C253.568 41.8832 255.313 41.1817 257.572 40.9842C259.83 40.7866 261.934 41.1245 263.884 41.9979L263.815 46.2601C262.745 45.6577 261.742 45.2101 260.807 44.9172C259.897 44.622 258.951 44.5174 257.968 44.6034C257.118 44.6777 256.469 44.9085 256.021 45.2957C255.6 45.6805 255.417 46.1918 255.473 46.8293C255.517 47.3341 255.686 47.7342 255.98 48.0297C256.3 48.323 256.724 48.5803 257.252 48.8018C257.777 48.9967 258.644 49.2689 259.853 49.6182C261.857 50.1924 263.324 50.8939 264.253 51.7227C265.18 52.525 265.708 53.67 265.838 55.1576C266.003 57.0437 265.454 58.5641 264.19 59.7187C262.925 60.8732 261.045 61.5598 258.548 61.7782Z" fill="white"/>
</svg>
