<svg width="516" height="1237" viewBox="0 0 516 1237" fill="none" xmlns="http://www.w3.org/2000/svg">
<path d="M227.961 526L215.961 508L203.961 526" stroke="#AFE0D0" stroke-width="3" stroke-miterlimit="10" stroke-linecap="round" stroke-linejoin="round"/>
<path d="M227.961 539L215.961 521L203.961 539" stroke="#AFE0D0" stroke-width="3" stroke-miterlimit="10" stroke-linecap="round" stroke-linejoin="round"/>
<path d="M217.961 534H213.961V550H217.961V534Z" fill="#A7977C"/>
<path d="M415.961 698L403.961 680L391.961 698" stroke="#AFE0D0" stroke-width="3" stroke-miterlimit="10" stroke-linecap="round" stroke-linejoin="round"/>
<path d="M415.961 711L403.961 693L391.961 711" stroke="#AFE0D0" stroke-width="3" stroke-miterlimit="10" stroke-linecap="round" stroke-linejoin="round"/>
<path d="M405.961 706H401.961V722H405.961V706Z" fill="#A7977C"/>
<path d="M180.961 557L168.961 539L156.961 557" stroke="#AFE0D0" stroke-width="3" stroke-miterlimit="10" stroke-linecap="round" stroke-linejoin="round"/>
<path d="M180.961 570L168.961 552L156.961 570" stroke="#AFE0D0" stroke-width="3" stroke-miterlimit="10" stroke-linecap="round" stroke-linejoin="round"/>
<path d="M170.961 565H166.961V581H170.961V565Z" fill="#A7977C"/>
<path d="M224.628 663.399L260.961 663.477L242.794 615L224.628 663.399Z" fill="#F79E1E"/>
<path d="M178.28 662.625C193.921 663.176 209.562 663.649 225.203 664.2C231.117 647.903 237.031 631.606 242.945 615.31C228.233 615.31 213.521 615.388 198.809 615.388C191.966 631.134 185.123 646.88 178.28 662.625Z" fill="#AFE0D0"/>
<path d="M174.722 670.55C190.483 671.073 206.244 671.522 222.004 672.046C227.964 656.565 233.923 641.085 239.883 625.605C225.058 625.68 210.233 625.68 195.359 625.755C188.513 640.636 181.617 655.593 174.722 670.55Z" stroke="white" stroke-width="2" stroke-miterlimit="10"/>
<path d="M222.067 672.788L256.938 672.864L239.502 625.659L222.067 672.788Z" stroke="white" stroke-width="2" stroke-miterlimit="10"/>
<path d="M314.703 729.613L350.797 729.682L332.75 686.705L314.703 729.613Z" stroke="white" stroke-width="2" stroke-miterlimit="10"/>
<path d="M317.353 721.065L354.961 721.136L336.157 677L317.353 721.065Z" fill="#6589DF"/>
<path d="M269.378 720.36C285.568 720.862 301.758 721.292 317.947 721.794C324.069 706.956 330.191 692.119 336.312 677.282C321.084 677.282 305.856 677.353 290.627 677.353C283.544 691.689 276.461 706.025 269.378 720.36Z" fill="#F79E1E"/>
<path d="M265.694 727.576C282.007 728.052 298.321 728.461 314.635 728.937C320.803 714.843 326.972 700.749 333.141 686.656C317.796 686.724 302.45 686.724 287.054 686.792C279.968 700.341 272.831 713.958 265.694 727.576Z" stroke="white" stroke-width="2" stroke-miterlimit="10"/>
<path d="M314.703 729.613L350.797 729.682L332.75 686.705L314.703 729.613Z" stroke="white" stroke-width="2" stroke-miterlimit="10"/>
<path d="M317.353 721.065L354.961 721.136L336.157 677L317.353 721.065Z" fill="#6589DF"/>
<path d="M269.378 720.36C285.568 720.862 301.758 721.292 317.947 721.794C324.069 706.956 330.191 692.119 336.312 677.282C321.084 677.282 305.856 677.353 290.627 677.353C283.544 691.689 276.461 706.025 269.378 720.36Z" fill="#A84963"/>
<path d="M265.694 727.576C282.007 728.052 298.321 728.461 314.635 728.937C320.803 714.843 326.972 700.749 333.141 686.656C317.796 686.724 302.45 686.724 287.054 686.792C279.968 700.341 272.831 713.958 265.694 727.576Z" stroke="white" stroke-width="2" stroke-miterlimit="10"/>
<path d="M314.703 729.613L350.797 729.682L332.75 686.705L314.703 729.613Z" stroke="white" stroke-width="2" stroke-miterlimit="10"/>
<path d="M287.184 568.058L316.961 568.115L302.072 532L287.184 568.058Z" fill="#2E3192"/>
<path d="M248.018 566.673C261.215 567.077 274.413 567.423 287.611 567.827C292.601 555.885 297.592 543.942 302.582 532C290.168 532 277.754 532.058 265.34 532.058C259.566 543.596 253.792 555.135 248.018 566.673Z" fill="#EA9D8B"/>
<path d="M249.961 569.002C261.329 569.351 272.697 569.651 284.065 570C288.364 559.667 292.662 549.333 296.961 539C286.268 539.05 275.575 539.05 264.846 539.1C259.908 549.034 254.934 559.018 249.961 569.002Z" stroke="white" stroke-width="2" stroke-miterlimit="10"/>
<path d="M283.961 570.949L309.961 571L296.961 539L283.961 570.949Z" stroke="white" stroke-width="2" stroke-miterlimit="10"/>
<path d="M352.534 634.659L380.336 634.719L366.435 597L352.534 634.659Z" fill="#EA9D8B"/>
<path d="M315.814 633.213C328.136 633.635 340.458 633.996 352.78 634.418C357.439 621.945 362.099 609.473 366.758 597C355.167 597 343.577 597.06 331.986 597.06C326.596 609.111 321.205 621.162 315.814 633.213Z" fill="#F36633"/>
<path d="M308.47 640.146C320.792 640.568 333.114 640.929 345.436 641.351C350.095 628.879 354.755 616.406 359.414 603.933C347.824 603.994 336.233 603.994 324.604 604.054C319.252 616.044 313.861 628.095 308.47 640.146Z" stroke="white" stroke-width="2" stroke-miterlimit="10"/>
<path d="M345.558 641.592L373.359 641.653L359.991 603.933L345.558 641.592Z" stroke="white" stroke-width="2" stroke-miterlimit="10"/>
<path d="M401.961 349.9L389.461 364.4L376.961 349.9" stroke="#FFF164" stroke-width="3" stroke-miterlimit="10" stroke-linecap="round"/>
<path d="M389.461 363V340" stroke="#FFF164" stroke-width="3" stroke-linecap="round" stroke-linejoin="round"/>
<path d="M347.961 372.9L335.461 387.4L322.961 372.9" stroke="#FFF164" stroke-width="3" stroke-miterlimit="10" stroke-linecap="round"/>
<path d="M335.461 386V363" stroke="#FFF164" stroke-width="3" stroke-linecap="round" stroke-linejoin="round"/>
<path d="M370.461 294.9L357.961 309.44L345.461 294.94" stroke="#FFF164" stroke-width="3" stroke-miterlimit="10" stroke-linecap="round"/>
<path d="M357.961 308V285" stroke="#FFF164" stroke-width="3" stroke-linecap="round" stroke-linejoin="round"/>
<path d="M94 904.9L81.5 919.4L69 904.9" stroke="#FFEFB7" stroke-width="3" stroke-miterlimit="10" stroke-linecap="round"/>
<path d="M81.5 918V895" stroke="#FFEFB7" stroke-width="3" stroke-linecap="round" stroke-linejoin="round"/>
<path d="M132 933.9L119.5 948.4L107 933.9" stroke="#FFEFB7" stroke-width="3" stroke-miterlimit="10" stroke-linecap="round"/>
<path d="M119.5 947V924" stroke="#FFEFB7" stroke-width="3" stroke-linecap="round" stroke-linejoin="round"/>
<path d="M144 871.9L131.5 886.44L119 871.94" stroke="#FFEFB7" stroke-width="3" stroke-miterlimit="10" stroke-linecap="round"/>
<path d="M131.5 885V862" stroke="#FFEFB7" stroke-width="3" stroke-linecap="round" stroke-linejoin="round"/>
<path d="M14.9716 71.5C79.805 82.6667 197.071 123.5 147.471 197.5C85.4715 290 226.971 291.5 222.471 362.5C217.971 433.5 70.9702 402.5 51.9702 608C32.8399 814.909 193.591 772.203 268.465 811.5C358.968 859 373.418 993.187 356.971 1060C340.97 1125 211.47 1232 30.4697 1190" stroke="white" stroke-width="4"/>
<path d="M10.4697 62.5C65.6364 70 175.97 96 175.97 140C175.97 195 144.97 171 144.97 235C144.97 299 277.47 277 244.47 365C211.47 453 83.4716 442 78.9716 592C74.4716 742 153.972 775.5 281.972 804C409.972 832.5 435.9 1013.1 372.472 1104C327.465 1168.5 197.97 1241 30.4703 1205.5" stroke="white" stroke-width="4"/>
<path d="M10.4886 51.5C59.822 72.1667 154.088 122.3 136.488 157.5C114.488 201.5 70.4881 263 158.488 303C246.488 343 191.488 392 100.988 449C10.4882 506 -107.988 786.5 237.508 822.5C409.012 840.37 321.961 1127 237.512 1159C182.397 1179.88 -60.0352 1189.5 -173.999 1035.5" stroke="white" stroke-width="4"/>
<path d="M21.4528 30.5C82.7861 44.3333 204.353 83.8 199.953 131C194.453 190 152.952 167.5 160.452 230C167.952 292.5 287.452 258.5 270.452 342C253.452 425.5 125.965 459.5 104.965 518.5C73.7756 606.127 80.4648 746.854 173.456 765.5C372.956 805.503 452.453 904.5 420.453 1018.5C388.453 1132.5 319.458 1204.5 239.955 1214C160.452 1223.5 61.4505 1233 21.4528 1214" stroke="white" stroke-width="4"/>
<path d="M25.4606 2C93.1272 10.8333 227.36 45.6 222.96 114C217.46 199.5 116.46 203 222.96 264C329.461 325 325.461 373.5 241.961 421.5C158.461 469.5 91.9648 482.5 91.9648 604C91.9648 673.818 128.774 740.901 163.965 748.5C314.465 781 470.462 826.5 447.462 990C424.462 1153.5 350.459 1231 241.961 1233C133.462 1235 15.4621 1238.5 0.462128 1206.5" stroke="white" stroke-width="4"/>
<path d="M428 1148L440 1130L452 1148" stroke="#AFE0D0" stroke-width="3" stroke-miterlimit="10" stroke-linecap="round" stroke-linejoin="round"/>
<path d="M428 1161L440 1143L452 1161" stroke="#AFE0D0" stroke-width="3" stroke-miterlimit="10" stroke-linecap="round" stroke-linejoin="round"/>
<path d="M438 1156H442V1172H438V1156Z" fill="#A7977C"/>
<path d="M455 1092L467 1074L479 1092" stroke="#AFE0D0" stroke-width="3" stroke-miterlimit="10" stroke-linecap="round" stroke-linejoin="round"/>
<path d="M455 1105L467 1087L479 1105" stroke="#AFE0D0" stroke-width="3" stroke-miterlimit="10" stroke-linecap="round" stroke-linejoin="round"/>
<path d="M465 1100H469V1116H465V1100Z" fill="#A7977C"/>
<path d="M490 1165L502 1147L514 1165" stroke="#AFE0D0" stroke-width="3" stroke-miterlimit="10" stroke-linecap="round" stroke-linejoin="round"/>
<path d="M490 1178L502 1160L514 1178" stroke="#AFE0D0" stroke-width="3" stroke-miterlimit="10" stroke-linecap="round" stroke-linejoin="round"/>
<path d="M500 1173H504V1189H500V1173Z" fill="#A7977C"/>
<path d="M180.23 1141.8V1026.81L171.223 1022V1141.8H180.23Z" fill="#A7977C"/>
<path d="M212.957 1076.96V1050.09L138.441 1069.79V1098.24L212.957 1076.96Z" fill="#CCC0AC"/>
<path d="M217.735 1078.18L218.019 1050.36L135.559 1022.57L135.284 1049.52L217.735 1078.18Z" fill="#A7977C"/>
<path d="M146.064 1084.16L156.764 1080.74M146.064 1084.16L150.636 1087.05M146.064 1084.16L148.314 1078.09" stroke="#EFECDB" stroke-width="4" stroke-linecap="round" stroke-linejoin="round"/>
<path d="M205.787 1060.8L195.232 1057.52M205.787 1060.8L201.285 1063.62M205.787 1060.8L203.557 1054.92" stroke="#EFECDB" stroke-width="4" stroke-linecap="round" stroke-linejoin="round"/>
</svg>
