<svg width="518" height="1237" viewBox="0 0 518 1237" fill="none" xmlns="http://www.w3.org/2000/svg">
<path d="M229.961 526L217.961 508L205.961 526" stroke="#AFE0D0" stroke-width="3" stroke-miterlimit="10" stroke-linecap="round" stroke-linejoin="round"/>
<path d="M229.961 539L217.961 521L205.961 539" stroke="#AFE0D0" stroke-width="3" stroke-miterlimit="10" stroke-linecap="round" stroke-linejoin="round"/>
<path d="M219.961 534H215.961V550H219.961V534Z" fill="#A7977C"/>
<path d="M417.961 698L405.961 680L393.961 698" stroke="#AFE0D0" stroke-width="3" stroke-miterlimit="10" stroke-linecap="round" stroke-linejoin="round"/>
<path d="M417.961 711L405.961 693L393.961 711" stroke="#AFE0D0" stroke-width="3" stroke-miterlimit="10" stroke-linecap="round" stroke-linejoin="round"/>
<path d="M407.961 706H403.961V722H407.961V706Z" fill="#A7977C"/>
<path d="M182.961 557L170.961 539L158.961 557" stroke="#AFE0D0" stroke-width="3" stroke-miterlimit="10" stroke-linecap="round" stroke-linejoin="round"/>
<path d="M182.961 570L170.961 552L158.961 570" stroke="#AFE0D0" stroke-width="3" stroke-miterlimit="10" stroke-linecap="round" stroke-linejoin="round"/>
<path d="M172.961 565H168.961V581H172.961V565Z" fill="#A7977C"/>
<path d="M226.628 663.399L262.961 663.477L244.794 615L226.628 663.399Z" fill="#F79E1E"/>
<path d="M180.28 662.625C195.921 663.176 211.562 663.649 227.203 664.2C233.117 647.903 239.031 631.606 244.945 615.31C230.233 615.31 215.521 615.388 200.809 615.388C193.966 631.134 187.123 646.88 180.28 662.625Z" fill="#AFE0D0"/>
<path d="M176.722 670.55C192.483 671.073 208.244 671.522 224.004 672.046C229.964 656.565 235.923 641.085 241.883 625.605C227.058 625.68 212.233 625.68 197.359 625.755C190.513 640.636 183.617 655.593 176.722 670.55Z" stroke="white" stroke-width="2" stroke-miterlimit="10"/>
<path d="M224.067 672.788L258.938 672.864L241.502 625.659L224.067 672.788Z" stroke="white" stroke-width="2" stroke-miterlimit="10"/>
<path d="M316.703 729.613L352.797 729.682L334.75 686.705L316.703 729.613Z" stroke="white" stroke-width="2" stroke-miterlimit="10"/>
<path d="M319.353 721.065L356.961 721.136L338.157 677L319.353 721.065Z" fill="#6589DF"/>
<path d="M271.378 720.36C287.568 720.862 303.758 721.292 319.947 721.794C326.069 706.956 332.191 692.119 338.312 677.282C323.084 677.282 307.856 677.353 292.627 677.353C285.544 691.689 278.461 706.025 271.378 720.36Z" fill="#F79E1E"/>
<path d="M267.694 727.575C284.007 728.052 300.321 728.46 316.635 728.937C322.803 714.843 328.972 700.749 335.141 686.655C319.796 686.723 304.45 686.723 289.054 686.791C281.968 700.341 274.831 713.958 267.694 727.575Z" stroke="white" stroke-width="2" stroke-miterlimit="10"/>
<path d="M316.703 729.613L352.797 729.682L334.75 686.705L316.703 729.613Z" stroke="white" stroke-width="2" stroke-miterlimit="10"/>
<path d="M319.353 721.065L356.961 721.136L338.157 677L319.353 721.065Z" fill="#6589DF"/>
<path d="M271.378 720.36C287.568 720.862 303.758 721.292 319.947 721.794C326.069 706.956 332.191 692.119 338.312 677.282C323.084 677.282 307.856 677.353 292.627 677.353C285.544 691.689 278.461 706.025 271.378 720.36Z" fill="#A84963"/>
<path d="M267.694 727.575C284.007 728.052 300.321 728.46 316.635 728.937C322.803 714.843 328.972 700.749 335.141 686.655C319.796 686.723 304.45 686.723 289.054 686.791C281.968 700.341 274.831 713.958 267.694 727.575Z" stroke="white" stroke-width="2" stroke-miterlimit="10"/>
<path d="M316.703 729.613L352.797 729.682L334.75 686.705L316.703 729.613Z" stroke="white" stroke-width="2" stroke-miterlimit="10"/>
<path d="M289.184 568.058L318.961 568.115L304.072 532L289.184 568.058Z" fill="#2E3192"/>
<path d="M250.018 566.673C263.215 567.077 276.413 567.423 289.611 567.827C294.601 555.885 299.592 543.942 304.582 532C292.168 532 279.754 532.058 267.34 532.058C261.566 543.596 255.792 555.135 250.018 566.673Z" fill="#EA9D8B"/>
<path d="M251.961 569.002C263.329 569.351 274.697 569.651 286.065 570C290.364 559.667 294.662 549.333 298.961 539C288.268 539.05 277.575 539.05 266.846 539.1C261.908 549.034 256.934 559.018 251.961 569.002Z" stroke="white" stroke-width="2" stroke-miterlimit="10"/>
<path d="M285.961 570.949L311.961 571L298.961 539L285.961 570.949Z" stroke="white" stroke-width="2" stroke-miterlimit="10"/>
<path d="M354.534 634.659L382.336 634.719L368.435 597L354.534 634.659Z" fill="#EA9D8B"/>
<path d="M317.814 633.213C330.136 633.635 342.458 633.996 354.78 634.418C359.439 621.945 364.099 609.473 368.758 597C357.167 597 345.577 597.06 333.986 597.06C328.596 609.111 323.205 621.162 317.814 633.213Z" fill="#F36633"/>
<path d="M310.47 640.146C322.792 640.568 335.114 640.929 347.436 641.351C352.095 628.878 356.755 616.406 361.414 603.933C349.824 603.993 338.233 603.993 326.604 604.054C321.252 616.044 315.861 628.095 310.47 640.146Z" stroke="white" stroke-width="2" stroke-miterlimit="10"/>
<path d="M347.558 641.592L375.359 641.652L361.991 603.933L347.558 641.592Z" stroke="white" stroke-width="2" stroke-miterlimit="10"/>
<path d="M403.961 349.9L391.461 364.4L378.961 349.9" stroke="#FFF164" stroke-width="3" stroke-miterlimit="10" stroke-linecap="round"/>
<path d="M391.461 363V340" stroke="#FFF164" stroke-width="3" stroke-linecap="round" stroke-linejoin="round"/>
<path d="M349.961 372.9L337.461 387.4L324.961 372.9" stroke="#FFF164" stroke-width="3" stroke-miterlimit="10" stroke-linecap="round"/>
<path d="M337.461 386V363" stroke="#FFF164" stroke-width="3" stroke-linecap="round" stroke-linejoin="round"/>
<path d="M372.461 294.9L359.961 309.44L347.461 294.94" stroke="#FFF164" stroke-width="3" stroke-miterlimit="10" stroke-linecap="round"/>
<path d="M359.961 308V285" stroke="#FFF164" stroke-width="3" stroke-linecap="round" stroke-linejoin="round"/>
<path d="M96 904.9L83.5 919.4L71 904.9" stroke="#FFEFB7" stroke-width="3" stroke-miterlimit="10" stroke-linecap="round"/>
<path d="M83.5 918V895" stroke="#FFEFB7" stroke-width="3" stroke-linecap="round" stroke-linejoin="round"/>
<path d="M134 933.9L121.5 948.4L109 933.9" stroke="#FFEFB7" stroke-width="3" stroke-miterlimit="10" stroke-linecap="round"/>
<path d="M121.5 947V924" stroke="#FFEFB7" stroke-width="3" stroke-linecap="round" stroke-linejoin="round"/>
<path d="M146 871.9L133.5 886.44L121 871.94" stroke="#FFEFB7" stroke-width="3" stroke-miterlimit="10" stroke-linecap="round"/>
<path d="M133.5 885V862" stroke="#FFEFB7" stroke-width="3" stroke-linecap="round" stroke-linejoin="round"/>
<path d="M16.9716 71.5C81.805 82.6667 199.071 123.5 149.471 197.5C87.4715 290 228.971 291.5 224.471 362.5C219.971 433.5 72.9702 402.5 53.9702 608C34.8399 814.909 195.591 772.203 270.465 811.5C360.968 859 375.418 993.187 358.971 1060C342.97 1125 213.47 1232 32.4697 1190" stroke="white" stroke-width="4"/>
<path d="M12.4697 62.5C67.6364 70 177.97 96 177.97 140C177.97 195 146.97 171 146.97 235C146.97 299 279.47 277 246.47 365C213.47 453 85.4716 442 80.9716 592C76.4716 742 155.972 775.5 283.972 804C411.972 832.5 437.9 1013.1 374.472 1104C329.465 1168.5 199.97 1241 32.4703 1205.5" stroke="white" stroke-width="4"/>
<path d="M12.4886 51.5C61.822 72.1667 156.088 122.3 138.488 157.5C116.488 201.5 72.4881 263 160.488 303C248.488 343 193.488 392 102.988 449C12.4882 506 -105.988 786.5 239.508 822.5C411.012 840.37 323.961 1127 239.512 1159C209.758 1170.27 125.408 1178.27 36.1517 1159" stroke="white" stroke-width="4"/>
<path d="M23.4528 30.5C84.7861 44.3333 206.353 83.8 201.953 131C196.453 190 154.952 167.5 162.452 230C169.952 292.5 289.452 258.5 272.452 342C255.452 425.5 127.965 459.5 106.965 518.5C75.7756 606.127 82.4648 746.854 175.456 765.5C374.956 805.503 454.453 904.5 422.453 1018.5C390.453 1132.5 321.458 1204.5 241.955 1214C162.452 1223.5 63.4505 1233 23.4528 1214" stroke="white" stroke-width="4"/>
<path d="M27.4606 2C95.1272 10.8333 229.36 45.6 224.96 114C219.46 199.5 118.46 203 224.96 264C331.461 325 327.461 373.5 243.961 421.5C160.461 469.5 93.9648 482.5 93.9648 604C93.9648 673.818 130.774 740.901 165.965 748.5C316.465 781 472.462 826.5 449.462 990C426.462 1153.5 352.459 1231 243.961 1233C135.462 1235 17.4621 1238.5 2.46213 1206.5" stroke="white" stroke-width="4"/>
<path d="M430 1148L442 1130L454 1148" stroke="#AFE0D0" stroke-width="3" stroke-miterlimit="10" stroke-linecap="round" stroke-linejoin="round"/>
<path d="M430 1161L442 1143L454 1161" stroke="#AFE0D0" stroke-width="3" stroke-miterlimit="10" stroke-linecap="round" stroke-linejoin="round"/>
<path d="M440 1156H444V1172H440V1156Z" fill="#A7977C"/>
<path d="M457 1092L469 1074L481 1092" stroke="#AFE0D0" stroke-width="3" stroke-miterlimit="10" stroke-linecap="round" stroke-linejoin="round"/>
<path d="M457 1105L469 1087L481 1105" stroke="#AFE0D0" stroke-width="3" stroke-miterlimit="10" stroke-linecap="round" stroke-linejoin="round"/>
<path d="M467 1100H471V1116H467V1100Z" fill="#A7977C"/>
<path d="M492 1165L504 1147L516 1165" stroke="#AFE0D0" stroke-width="3" stroke-miterlimit="10" stroke-linecap="round" stroke-linejoin="round"/>
<path d="M492 1178L504 1160L516 1178" stroke="#AFE0D0" stroke-width="3" stroke-miterlimit="10" stroke-linecap="round" stroke-linejoin="round"/>
<path d="M502 1173H506V1189H502V1173Z" fill="#A7977C"/>
<path d="M182.23 1141.8V1026.81L173.223 1022V1141.8H182.23Z" fill="#A7977C"/>
<path d="M214.957 1076.96V1050.09L140.441 1069.79V1098.24L214.957 1076.96Z" fill="#CCC0AC"/>
<path d="M219.735 1078.18L220.019 1050.36L137.559 1022.57L137.284 1049.52L219.735 1078.18Z" fill="#A7977C"/>
<path d="M148.064 1084.16L158.764 1080.74M148.064 1084.16L152.636 1087.05M148.064 1084.16L150.314 1078.09" stroke="#EFECDB" stroke-width="4" stroke-linecap="round" stroke-linejoin="round"/>
<path d="M207.787 1060.8L197.232 1057.52M207.787 1060.8L203.285 1063.62M207.787 1060.8L205.557 1054.92" stroke="#EFECDB" stroke-width="4" stroke-linecap="round" stroke-linejoin="round"/>
</svg>
