<svg width="234" height="116" viewBox="0 0 234 116" fill="none" xmlns="http://www.w3.org/2000/svg">
<path d="M0 103.813V22.1989L224.058 0V86.8371L0 103.813Z" fill="#EA7E69"/>
<path fill-rule="evenodd" clip-rule="evenodd" d="M9.33984 115.949L233.398 98.9736V12.1365L9.33984 34.3354V115.949ZM12.1723 113.46L230.566 96.9132V14.6992L12.1723 36.3369V113.46Z" fill="white"/>
<path d="M51.1599 80.6181C49.5926 80.7553 47.8871 80.6903 46.0435 80.4233C44.2264 80.154 42.7911 79.8111 41.7375 79.3947L41.8611 73.9231C45.5164 75.3165 48.6723 75.897 51.3289 75.6646C52.7368 75.5414 53.816 75.1793 54.5665 74.5782C55.3146 73.9507 55.6422 73.1056 55.5493 72.0429C55.4795 71.246 55.1968 70.6149 54.701 70.1497C54.2295 69.6556 53.5669 69.2718 52.7131 68.9985C51.8571 68.6987 50.498 68.309 48.6357 67.8295C46.8844 67.3938 45.423 66.906 44.2515 66.366C43.0777 65.7995 42.1145 65.0405 41.3621 64.0892C40.6339 63.1089 40.2047 61.875 40.0745 60.3873C39.8654 57.9964 40.5735 55.9938 42.199 54.3793C43.8245 52.7648 46.271 51.8146 49.5385 51.5288C51.0793 51.394 52.6219 51.433 54.1663 51.6459C55.7373 51.8564 57.1824 52.1583 58.5017 52.5515L58.4404 57.8168C56.7306 57.2437 55.1699 56.8448 53.7583 56.6204C52.3709 56.367 50.9998 56.2995 49.645 56.4181C48.1308 56.5506 46.9973 56.904 46.2445 57.4785C45.4917 58.053 45.1571 58.8184 45.2408 59.7747C45.3059 60.5185 45.5719 61.1109 46.0387 61.5519C46.5056 61.9929 47.1116 62.3414 47.8568 62.5974C48.6285 62.8512 49.7514 63.1411 51.2254 63.4672C54.5281 64.1954 56.9681 65.1598 58.5454 66.3602C60.1469 67.5317 61.0476 69.2598 61.2475 71.5444C61.4381 73.7228 60.8472 75.6884 59.4747 77.4414C58.1023 79.1943 55.3307 80.2532 51.1599 80.6181ZM74.8913 78.3813C72.6863 78.5742 70.7474 78.2888 69.0745 77.525C67.4258 76.7323 66.1344 75.5872 65.2003 74.0896C64.2663 72.592 63.7155 70.8868 63.5482 68.9741C63.3785 67.0349 63.6236 65.2467 64.2835 63.6096C64.941 61.946 66.0272 60.5928 67.5421 59.5502C69.0546 58.4809 70.9532 57.8464 73.2378 57.6465C75.2833 57.4675 77.1004 57.7369 78.689 58.4545L78.6391 62.4741C77.1395 61.8558 75.6193 61.614 74.0786 61.7488C72.1924 61.9139 70.768 62.614 69.8054 63.8493C68.8427 65.0845 68.4439 66.6452 68.6089 68.5314C68.7669 70.3378 69.4428 71.7911 70.6366 72.8912C71.828 73.9648 73.3269 74.4226 75.1334 74.2645C76.6476 74.1321 78.1235 73.5612 79.561 72.5521L80.3654 76.6978C79.6806 77.1325 78.8561 77.499 77.8918 77.7976C76.954 78.0938 75.9539 78.2883 74.8913 78.3813ZM92.2482 56.0636C94.7718 55.8428 96.7167 56.5025 98.0828 58.0426C99.4732 59.5539 100.293 61.7307 100.541 64.5732L101.511 75.6509L96.5694 76.0832L95.6316 65.3641C95.4666 63.478 95.0402 62.1233 94.3526 61.3001C93.6649 60.4769 92.6569 60.1234 91.3286 60.2397C89.7613 60.3768 88.5228 61.0607 87.6133 62.2913L88.8788 76.756L83.9377 77.1883L81.323 47.3025L86.2641 46.8702L87.2472 58.1073C88 57.5328 88.7766 57.0767 89.5769 56.739C90.3748 56.3747 91.2652 56.1496 92.2482 56.0636ZM115.795 74.8027C113.484 75.0049 111.464 74.7131 109.736 73.9275C108.032 73.1129 106.699 71.9579 105.739 70.4626C104.802 68.9385 104.249 67.2067 104.079 65.2675C103.917 63.4079 104.153 61.674 104.789 60.0659C105.424 58.4577 106.433 57.1381 107.815 56.107C109.195 55.0494 110.894 54.4323 112.913 54.2557C114.773 54.093 116.374 54.341 117.716 54.9999C119.086 55.6564 120.146 56.6076 120.897 57.8535C121.675 59.0971 122.135 60.5291 122.277 62.1496C122.347 62.9466 122.319 63.8591 122.195 64.8871L109.324 66.0132C109.743 67.7432 110.549 68.9978 111.742 69.7768C112.932 70.5293 114.31 70.837 115.878 70.6999C118.03 70.5116 119.974 69.7927 121.712 68.5432L122.317 72.7063C121.507 73.2322 120.543 73.6913 119.426 74.0835C118.334 74.4467 117.123 74.6865 115.795 74.8027ZM117.2 61.9513C117.11 60.9153 116.737 60.0243 116.083 59.2785C115.429 58.5327 114.491 58.2132 113.269 58.3201C112.047 58.427 111.095 58.8717 110.414 59.654C109.733 60.4363 109.312 61.4368 109.151 62.6555L117.2 61.9513ZM142.452 41.9543L145.067 71.8402L140.405 72.2481L140.214 70.9799C139.492 71.6052 138.719 72.1011 137.894 72.4677C137.094 72.8054 136.123 73.0242 134.981 73.1242C133.041 73.2938 131.327 72.9754 129.838 72.1688C128.375 71.3598 127.216 70.2031 126.362 68.6985C125.508 67.1939 124.998 65.4985 124.833 63.6124C124.668 61.7263 124.875 59.9682 125.456 58.3381C126.036 56.708 126.976 55.3676 128.276 54.3169C129.602 53.264 131.235 52.6527 133.175 52.483C135.114 52.3133 136.887 52.6936 138.494 53.6237L137.511 42.3866L142.452 41.9543ZM135.342 68.9969C136.91 68.8598 138.03 68.1997 138.702 67.0165C139.402 65.8311 139.667 64.2687 139.497 62.3295C139.327 60.3902 138.795 58.8976 137.901 57.8516C137.033 56.8032 135.815 56.3476 134.248 56.4847C132.707 56.6195 131.548 57.2964 130.771 58.5154C130.021 59.7321 129.729 61.2835 129.894 63.1696C130.059 65.0558 130.616 66.5328 131.566 67.6007C132.543 68.6663 133.801 69.1317 135.342 68.9969ZM165.524 49.9741L167.267 69.898L162.644 70.3024L162.46 69.1139C161.889 69.619 161.218 70.0658 160.449 70.4543C159.678 70.8162 158.92 71.0297 158.176 71.0948C155.228 71.3528 153.001 70.6909 151.498 69.1093C150.021 67.5253 149.151 65.2324 148.888 62.2306L147.951 51.5115L152.892 51.0792L153.83 61.7983C153.992 63.6578 154.419 65.0125 155.109 65.8623C155.823 66.6831 156.871 67.0331 158.252 66.9123C159.793 66.7775 160.993 66.1104 161.851 64.911L160.582 50.4064L165.524 49.9741ZM177.247 69.4264C175.546 69.5751 174.23 69.2085 173.296 68.3265C172.36 67.418 171.824 66.1933 171.689 64.6525L169.497 39.5883L174.438 39.156L176.453 62.188C176.546 63.2506 176.665 64.0031 176.811 64.4454C176.981 64.8588 177.217 65.1059 177.518 65.1866C177.844 65.2384 178.379 65.2317 179.123 65.1667L179.04 69.2695L177.247 69.4264ZM192.255 68.1133C189.943 68.3155 187.924 68.0238 186.195 67.2381C184.491 66.4235 183.159 65.2686 182.198 63.7733C181.262 62.2491 180.709 60.5174 180.539 58.5781C180.376 56.7186 180.613 54.9847 181.248 53.3765C181.884 51.7683 182.893 50.4487 184.275 49.4177C185.655 48.3601 187.354 47.7429 189.373 47.5663C191.232 47.4036 192.833 47.6517 194.176 48.3105C195.545 48.967 196.605 49.9182 197.357 51.1641C198.135 52.4077 198.595 53.8398 198.737 55.4603C198.806 56.2572 198.779 57.1697 198.655 58.1978L185.784 59.3238C186.203 61.0539 187.009 62.3085 188.201 63.0875C189.391 63.84 190.77 64.1476 192.337 64.0105C194.489 63.8223 196.434 63.1034 198.172 61.8538L198.777 66.0169C197.966 66.5429 197.003 67.002 195.886 67.3941C194.793 67.7574 193.583 67.9971 192.255 68.1133ZM193.66 55.262C193.569 54.2259 193.197 53.335 192.543 52.5892C191.889 51.8433 190.95 51.5239 189.728 51.6308C188.506 51.7377 187.555 52.1823 186.874 52.9647C186.193 53.747 185.772 54.7475 185.611 55.9662L193.66 55.262Z" fill="white"/>
</svg>
