<svg width="1280" height="913" viewBox="0 0 1280 913" fill="none" xmlns="http://www.w3.org/2000/svg">
<rect x="-3" y="289" width="1282" height="624" fill="#34357B"/>
<path d="M803.617 179.704L882 300.411C882 300.411 797.355 302.622 743.15 304.882C691.528 307.035 662.594 308.513 611.018 311.588C538.368 315.92 425.138 325 425.138 325C425.138 325 418.727 275.888 436.336 228.881C450.719 190.486 463.21 161.822 472.168 128.292C481.126 94.762 492.708 45.1237 519.198 29.9377C526.393 25.8131 538.651 26.2341 546.072 29.9377C577.425 45.585 561.749 72.4089 577.425 83.5854C597.058 97.5824 599.646 57.9314 623.684 56C673.466 52 656.602 126.056 678.998 128.292C701.393 130.527 700.665 93.1632 720.483 98.9386C736.16 107.88 749.058 114.911 764.734 139.5C780.411 164.089 803.617 179.704 803.617 179.704Z" fill="#220C62"/>
<path d="M811.275 190.729L890 312.246C890 312.246 804.986 314.472 750.544 316.747C698.696 318.914 669.635 320.402 617.835 323.498C544.867 327.859 431.143 337 431.143 337C431.143 337 424.704 287.558 442.39 240.236C456.835 201.583 469.381 172.726 478.378 138.972C487.376 105.217 499.008 55.2453 525.614 39.9574C532.84 35.8051 545.152 36.229 552.605 39.9574C584.095 55.7097 568.351 82.7136 584.095 93.9652C603.814 108.056 606.413 68.139 630.556 66.1946C680.556 62.1678 663.618 136.721 686.111 138.972C708.604 141.222 707.873 103.607 727.778 109.421C743.523 118.423 756.477 125.501 772.222 150.255C787.967 175.009 811.275 190.729 811.275 190.729Z" stroke="white" stroke-width="3"/>
<path d="M595.818 88.6619C595.818 80.6875 585.226 85.0835 581.62 86.3614C579.445 104.512 583.52 159.205 585.677 164.572C589.644 174.444 593.295 177.212 601.903 181.702C635.706 199.338 607.987 202.405 593.114 220.808C581.215 235.53 590.86 262.099 601.903 269L656 261.952C642.479 261.697 615.153 243.703 611.367 228.981C606.635 210.579 645.847 209.812 634.354 193.71C622.861 177.607 599.874 175.307 599.198 156.138C598.522 136.968 595.818 100.164 595.818 88.6619Z" fill="#5052FF"/>
<path d="M617.301 242.875C600.261 249.261 599.994 312.78 601.991 343.741L596 351.723C669.666 359.463 817.93 368.703 821.657 343.741C826.317 312.538 782.383 187 756.423 187C730.462 187 729.797 198.61 714.487 221.831C699.177 245.052 638.602 234.893 617.301 242.875Z" fill="#572046"/>
<path d="M613.301 252.354C596.261 258.223 595.994 316.601 597.991 345.057L592 352.393C665.666 359.507 813.93 367.999 817.657 345.057C822.317 316.379 778.383 201 752.423 201C726.462 201 725.797 211.671 710.487 233.013C695.177 254.354 634.602 245.017 613.301 252.354Z" stroke="white" stroke-width="3"/>
<path d="M868.994 260.263C824.31 260.263 806.42 334.321 803.038 381.773C799.656 429.225 1025.28 405.668 1030.02 363.526C1039.32 280.885 980.791 148.54 928.794 163.109C876.797 177.677 913.678 260.263 868.994 260.263Z" fill="#8283BE"/>
<path d="M893 217.227C914.943 224.68 961.663 232.268 973 203" stroke="white" stroke-width="3"/>
<path d="M864.284 276.263C819.404 276.263 801.435 350.321 798.038 397.773C794.641 445.225 1021.25 421.668 1026.01 379.526C1035.35 296.885 976.571 164.54 924.346 179.109C872.121 193.677 909.164 276.263 864.284 276.263Z" stroke="white" stroke-width="3"/>
<path d="M212.636 137.811C188.93 144.617 207.969 0 146.014 0C91.9628 0 94.1233 137.811 54.6129 188.482C32.2232 198.09 31.3072 259.35 32.2231 294.172C64.7096 359.428 434.333 339.984 444.869 311.559C455.405 283.135 425.716 162.408 381.376 154C337.037 145.593 334.681 230.725 297.366 162.667C260.051 94.6088 236.342 131.005 212.636 137.811Z" fill="#3368AD"/>
<path d="M216.323 149.246C192.658 156.023 216.323 12 149.151 12C107.884 12 98.0158 149.246 58.5738 199.708C36.2228 209.276 35.3084 270.284 36.2228 304.963C68.653 369.95 437.637 388.462 448.154 360.154C458.672 331.847 422.736 172.37 378.474 163.997C334.211 155.625 338.155 231.775 300.904 163.997C263.654 96.2192 239.989 142.468 216.323 149.246Z" stroke="white" stroke-width="3"/>
<path d="M341.995 373C339.18 343.902 340.662 281.961 369.108 266.973C404.665 248.239 378.886 225.121 430 237.477" stroke="white" stroke-width="3"/>
<path d="M108 203.961C131.803 204.627 176.656 197.01 165.643 161.215C151.878 116.471 146.716 98.493 165.643 66.533C180.786 40.965 165.357 20.191 155.749 13" stroke="white" stroke-width="3"/>
<path d="M139.923 487.923C210.42 428.296 322.913 452.793 322.913 421.447C322.913 390.102 165.422 416.613 165.422 367.058C165.422 339.461 233.557 338.642 264.475 322.378C273.428 317.443 279.416 311.377 279.416 303C279.416 311.501 273.548 317.604 264.475 322.378C237.955 336.993 185.421 341.678 185.421 367.058C185.421 392.88 373.911 374.31 368.411 421.447C362.757 469.904 274.055 450.364 192.921 487.923C169.423 498.801 122.498 679.651 435.907 697.018C784.887 716.357 1152.87 667.608 1283.36 789.681C1387.75 887.34 1326.86 905.443 1283.36 897.251C1230.69 859.111 885.881 765.508 546.901 765.508C80.4062 765.508 69.4273 547.549 139.923 487.923Z" fill="#FFB98B"/>
<path d="M121.544 671.888C115.934 673.746 110.017 674.388 104.158 673.775C98.2997 673.161 92.6252 671.306 87.4869 668.323C81.4389 664.734 76.3228 659.673 72.5797 653.577C68.8365 647.481 66.5784 640.532 66 633.33C66.2567 624.295 69.5215 615.632 75.2394 608.812C82.0092 602.445 89.188 596.562 96.7263 591.204C101.453 587.638 104.569 585.298 105.966 580.729C107.362 576.16 105.966 574.711 105.966 566.687C105.294 560.663 106.379 554.568 109.081 549.191C110.773 546.641 113.118 544.633 115.851 543.392C118.585 542.152 121.599 541.728 124.552 542.17C127.285 542.723 129.843 543.968 131.999 545.796C134.155 547.624 135.841 549.977 136.907 552.646C138.149 559.607 138.149 566.746 136.907 573.708C136.262 582.735 135.832 584.852 136.907 587.75C138.841 593.322 142.493 593.879 146.253 598.225C152.008 607.581 154.192 618.826 152.377 629.763C153.167 639.555 151.028 649.361 146.253 657.847C143.324 661.865 139.608 665.194 135.349 667.614C131.09 670.034 126.385 671.491 121.544 671.888Z" fill="#FFEFB7"/>
<path d="M105.436 677.442C98.0053 677.646 90.7075 675.527 84.6495 671.407C68.76 660.275 71.9162 639.466 73.7663 631.038C76.0892 618.348 87.4116 601.991 98.2267 594.305L99.315 593.576C102.633 591.964 105.281 589.323 106.824 586.085C107.249 584.445 107.249 582.731 106.824 581.091C106.671 578.839 106.671 576.58 106.824 574.328C106.095 568.487 107.355 562.576 110.416 557.473C112.509 554.817 115.311 552.75 118.528 551.486C121.745 550.223 125.259 549.811 128.7 550.294C131.827 550.779 135.461 552.645 138 554.456C140.539 556.267 137.907 562.971 139.283 565.698C140.667 572.221 140.667 578.944 139.283 585.467V589.004C139.283 593.999 139.283 595.143 139.283 596.912C140.224 599.024 141.869 600.78 143.963 601.906C145.526 602.991 146.984 604.21 148.316 605.547C151.492 609.775 153.754 614.566 154.969 619.64C156.183 624.714 156.327 629.969 155.39 635.096C156.178 644.318 153.769 653.532 148.534 661.315C145.248 665.178 141.166 668.354 136.541 670.645C131.917 672.936 126.849 674.294 121.652 674.633C116.435 676.377 110.962 677.325 105.436 677.442ZM125.761 554.56C123.532 554.609 121.342 555.129 119.348 556.083C117.353 557.036 115.604 558.399 114.225 560.074C111.826 564.451 110.877 569.423 111.504 574.328C111.504 577.138 111.504 579.114 111.504 580.675C112.143 582.923 112.143 585.294 111.504 587.542C109.643 591.761 106.292 595.222 102.036 597.322L101.056 598.05C91.2784 605.131 80.699 620.515 78.6637 632.079C76.8136 639.57 73.9839 658.194 87.4791 667.87C92.3813 670.581 97.847 672.228 103.489 672.696C109.131 673.163 114.812 672.44 120.129 670.575C124.729 670.366 129.231 669.229 133.338 667.238C137.446 665.248 141.067 662.449 143.963 659.026C148.588 651.984 150.689 643.693 149.949 635.408C151.673 626.217 149.606 616.745 144.181 608.981C143.016 607.859 141.741 606.849 140.372 605.964C137.589 604.321 135.418 601.882 134.168 598.993C133.186 595.588 133.186 591.993 134.168 588.588V585.051C135.191 579.23 135.191 573.288 134.168 567.467C133.151 565.401 136.061 558.866 134.168 557.473C132.275 556.08 129.635 554.867 127.285 554.456L125.761 554.56Z" fill="#66645E"/>
<path d="M117.027 635.742L110.727 635.974L113.856 714L120.157 713.768L117.027 635.742Z" fill="#66645E"/>
<path d="M876.538 661.919C881.401 662.953 886.405 662.843 891.227 661.596C896.049 660.349 900.581 657.994 904.533 654.682C909.203 650.749 912.953 645.628 915.467 639.749C917.98 633.871 919.185 627.407 918.977 620.904C917.804 612.829 914.145 605.456 908.623 600.042C902.273 595.231 895.655 590.87 888.81 586.985C885.075 585.442 881.921 582.54 879.862 578.753C878.328 575.205 879.862 573.36 878.456 566.264C878.329 560.782 876.775 555.459 873.982 550.937C872.314 548.878 870.163 547.376 867.77 546.599C865.377 545.822 862.836 545.8 860.432 546.537C858.211 547.413 856.208 548.86 854.586 550.759C852.965 552.658 851.77 554.956 851.101 557.465C850.899 563.81 851.677 570.146 853.401 576.199C854.808 584.146 855.447 585.849 854.808 588.688C853.785 593.939 850.845 594.932 848.161 599.19C844.49 608.094 843.81 618.162 846.243 627.574C846.633 636.411 849.492 644.894 854.424 651.843C857.212 655.231 860.64 657.892 864.464 659.634C868.287 661.376 872.411 662.156 876.538 661.919Z" fill="#ECC700"/>
<path d="M889.913 664.278C895.942 663.64 901.608 660.766 906.011 656.112C910.033 650.668 912.574 644.046 913.332 637.032C914.09 630.019 913.033 622.909 910.287 616.549C907.052 604.663 899.904 594.598 890.29 588.39H889.284C886.415 587.268 883.975 585.082 882.367 582.195C881.768 580.743 881.508 579.144 881.613 577.548C881.761 575.393 881.761 573.228 881.613 571.072C881.54 565.404 879.818 559.917 876.708 555.444C874.733 553.2 872.252 551.597 869.528 550.804C866.805 550.01 863.941 550.057 861.239 550.938C858.736 551.752 856.451 553.244 854.587 555.282C852.722 557.321 851.335 559.842 850.549 562.624C850.12 569 850.804 575.407 852.561 581.491L853.316 584.87C854.196 589.516 854.448 590.502 853.316 592.332C852.82 594.453 851.716 596.333 850.172 597.682C848.961 598.863 847.865 600.185 846.902 601.624C842.718 610.51 841.859 620.892 844.513 630.487C844.899 639.327 847.858 647.782 852.939 654.563C856.015 657.864 859.674 660.409 863.681 662.034C867.688 663.658 871.954 664.327 876.205 663.996C880.734 664.884 885.358 664.979 889.913 664.278V664.278ZM863.629 554.458C865.432 554.253 867.253 554.487 868.968 555.143C870.682 555.799 872.25 556.862 873.564 558.26C876.028 562.12 877.347 566.749 877.337 571.494C877.337 574.169 877.337 576 877.337 577.548C877.171 579.783 877.563 582.025 878.469 584.025C880.456 587.765 883.514 590.643 887.146 592.191H888.152C896.81 597.768 903.242 606.832 906.137 617.534C908.587 623.107 909.581 629.343 909.002 635.521C908.424 641.699 906.297 647.568 902.867 652.451C899.193 655.657 894.931 657.913 890.387 659.057C885.842 660.201 881.128 660.205 876.582 659.068V659.068C872.834 659.427 869.06 658.898 865.506 657.515C861.952 656.132 858.699 653.927 855.957 651.043C851.507 644.815 848.912 637.184 848.537 629.22C846.072 620.754 846.706 611.54 850.298 603.595C851.124 602.375 852.05 601.244 853.064 600.216C855.17 598.309 856.67 595.692 857.34 592.754C857.845 589.591 857.584 586.334 856.586 583.321V580.083C855.107 574.658 854.427 568.999 854.574 563.328C855.192 561.265 856.229 559.39 857.604 557.851C858.979 556.312 860.654 555.151 862.497 554.458H863.629Z" fill="#66645E"/>
<path d="M880.942 625.242L887.02 700.472L881.843 701L875.766 625.771L880.942 625.242Z" fill="#66645E"/>
<path d="M991.433 802.71C987.146 803.617 982.735 803.52 978.484 802.426C974.233 801.332 970.237 799.266 966.754 796.359C962.637 792.909 959.331 788.415 957.115 783.257C954.899 778.099 953.837 772.428 954.02 766.722C955.054 759.637 958.28 753.168 963.148 748.417C968.746 744.196 974.58 740.369 980.615 736.961C983.907 735.607 986.688 733.061 988.503 729.738C989.856 726.625 988.503 725.006 989.743 718.78C989.855 713.97 991.224 709.299 993.687 705.332C995.157 703.526 997.053 702.208 999.163 701.526C1001.27 700.844 1003.51 700.825 1005.63 701.471C1007.59 702.24 1009.36 703.51 1010.79 705.176C1012.22 706.842 1013.27 708.858 1013.86 711.06C1014.04 716.627 1013.35 722.186 1011.83 727.497C1010.59 734.47 1010.03 735.964 1010.59 738.455C1011.49 743.062 1014.08 743.934 1016.45 747.67C1019.69 755.483 1020.29 764.317 1018.14 772.575C1017.8 780.329 1015.28 787.771 1010.93 793.869C1008.47 796.841 1005.45 799.176 1002.08 800.704C998.707 802.233 995.072 802.918 991.433 802.71Z" fill="#FFF164"/>
<path d="M979.641 804.779C974.326 804.22 969.331 801.698 965.45 797.614C961.904 792.838 959.664 787.027 958.996 780.873C958.327 774.72 959.259 768.482 961.68 762.901C964.532 752.472 970.833 743.641 979.308 738.193H980.195C982.724 737.209 984.876 735.291 986.293 732.758C986.821 731.484 987.05 730.081 986.958 728.681C986.828 726.79 986.828 724.89 986.958 722.998C987.022 718.025 988.54 713.211 991.282 709.286C993.024 707.318 995.211 705.911 997.612 705.215C1000.01 704.519 1002.54 704.56 1004.92 705.333C1007.13 706.047 1009.14 707.356 1010.78 709.144C1012.43 710.933 1013.65 713.145 1014.34 715.586C1014.72 721.18 1014.12 726.803 1012.57 732.14L1011.9 735.105C1011.13 739.182 1010.91 740.047 1011.9 741.652C1012.34 743.514 1013.31 745.163 1014.68 746.347C1015.74 747.383 1016.71 748.543 1017.56 749.806C1021.25 757.602 1022 766.712 1019.66 775.131C1019.32 782.887 1016.72 790.305 1012.24 796.255C1009.52 799.152 1006.3 801.385 1002.77 802.81C999.234 804.236 995.473 804.822 991.726 804.532C987.733 805.311 983.656 805.394 979.641 804.779V804.779ZM1002.81 708.421C1001.22 708.241 999.618 708.446 998.106 709.022C996.594 709.598 995.212 710.53 994.054 711.757C991.882 715.144 990.718 719.206 990.728 723.369C990.728 725.716 990.728 727.322 990.728 728.681C990.874 730.642 990.528 732.609 989.73 734.364C987.978 737.645 985.282 740.17 982.08 741.529H981.193C973.561 746.422 967.891 754.375 965.339 763.765C963.178 768.655 962.302 774.126 962.812 779.547C963.322 784.968 965.197 790.118 968.221 794.402C971.46 797.215 975.217 799.194 979.223 800.198C983.23 801.202 987.385 801.205 991.393 800.208V800.208C994.698 800.523 998.025 800.059 1001.16 798.845C1004.29 797.632 1007.16 795.697 1009.58 793.167C1013.5 787.702 1015.79 781.006 1016.12 774.019C1018.29 766.591 1017.73 758.506 1014.56 751.535C1013.84 750.464 1013.02 749.472 1012.13 748.57C1010.27 746.897 1008.95 744.601 1008.36 742.023C1007.91 739.247 1008.14 736.39 1009.02 733.746V730.905C1010.33 726.145 1010.92 721.179 1010.8 716.204C1010.25 714.394 1009.34 712.749 1008.12 711.398C1006.91 710.048 1005.44 709.029 1003.81 708.421H1002.81Z" fill="#66645E"/>
<path d="M987.553 770.528L982.195 836.536L986.759 837L992.117 770.992L987.553 770.528Z" fill="#66645E"/>
<path d="M1068.27 824.761C1071.79 825.508 1075.41 825.428 1078.9 824.528C1082.39 823.627 1085.67 821.925 1088.53 819.531C1091.91 816.69 1094.62 812.989 1096.44 808.741C1098.26 804.494 1099.13 799.823 1098.98 795.124C1098.13 789.289 1095.49 783.962 1091.49 780.049C1086.89 776.573 1082.11 773.422 1077.15 770.615C1074.45 769.5 1072.17 767.403 1070.68 764.667C1069.57 762.103 1070.68 760.77 1069.66 755.642C1069.57 751.681 1068.44 747.835 1066.42 744.567C1065.21 743.08 1063.66 741.994 1061.93 741.433C1060.19 740.871 1058.35 740.856 1056.62 741.388C1055.01 742.021 1053.56 743.067 1052.38 744.439C1051.21 745.811 1050.35 747.471 1049.86 749.284C1049.72 753.869 1050.28 758.447 1051.53 762.821C1052.54 768.564 1053.01 769.794 1052.54 771.845C1051.8 775.64 1049.68 776.358 1047.73 779.434C1045.08 785.868 1044.59 793.143 1046.35 799.944C1046.63 806.329 1048.7 812.459 1052.27 817.48C1054.28 819.928 1056.77 821.851 1059.53 823.11C1062.3 824.368 1065.28 824.932 1068.27 824.761Z" fill="#C06880"/>
<path d="M1077.95 826.465C1082.31 826.005 1086.41 823.928 1089.6 820.564C1092.51 816.631 1094.35 811.846 1094.9 806.778C1095.45 801.71 1094.68 796.573 1092.69 791.977C1090.35 783.389 1085.18 776.116 1078.22 771.63H1077.49C1075.42 770.819 1073.65 769.24 1072.49 767.154C1072.06 766.104 1071.87 764.949 1071.94 763.796C1072.05 762.238 1072.05 760.674 1071.94 759.116C1071.89 755.021 1070.64 751.056 1068.39 747.824C1066.96 746.203 1065.17 745.044 1063.2 744.471C1061.23 743.898 1059.15 743.931 1057.2 744.568C1055.39 745.156 1053.73 746.234 1052.38 747.707C1051.04 749.18 1050.03 751.002 1049.46 753.012C1049.15 757.619 1049.65 762.249 1050.92 766.645L1051.47 769.086C1052.1 772.444 1052.28 773.156 1051.47 774.478C1051.11 776.011 1050.31 777.37 1049.19 778.344C1048.31 779.198 1047.52 780.153 1046.82 781.193C1043.8 787.614 1043.17 795.115 1045.09 802.049C1045.37 808.436 1047.52 814.546 1051.19 819.445C1053.42 821.831 1056.07 823.67 1058.97 824.844C1061.87 826.018 1064.95 826.501 1068.03 826.262C1071.31 826.903 1074.65 826.972 1077.95 826.465V826.465ZM1058.93 747.112C1060.23 746.963 1061.55 747.132 1062.79 747.606C1064.03 748.08 1065.17 748.849 1066.12 749.858C1067.9 752.648 1068.86 755.993 1068.85 759.422C1068.85 761.354 1068.85 762.677 1068.85 763.796C1068.73 765.411 1069.01 767.031 1069.67 768.476C1071.11 771.178 1073.32 773.258 1075.95 774.377H1076.68C1082.94 778.407 1087.6 784.956 1089.69 792.689C1091.46 796.716 1092.18 801.222 1091.76 805.686C1091.35 810.15 1089.81 814.391 1087.32 817.919C1084.67 820.236 1081.58 821.866 1078.29 822.692C1075 823.519 1071.59 823.522 1068.3 822.701V822.701C1065.59 822.96 1062.86 822.578 1060.29 821.578C1057.72 820.579 1055.36 818.986 1053.38 816.902C1050.16 812.402 1048.28 806.887 1048.01 801.133C1046.22 795.016 1046.68 788.358 1049.28 782.617C1049.88 781.735 1050.55 780.918 1051.28 780.176C1052.81 778.798 1053.89 776.907 1054.38 774.784C1054.74 772.498 1054.55 770.144 1053.83 767.967V765.628C1052.76 761.707 1052.27 757.618 1052.38 753.521C1052.82 752.03 1053.57 750.675 1054.57 749.563C1055.56 748.451 1056.78 747.612 1058.11 747.112H1058.93Z" fill="#66645E"/>
<path d="M1071.46 798.259L1075.86 852.618L1072.11 853L1067.71 798.641L1071.46 798.259Z" fill="#66645E"/>
<path d="M1025.11 858.313C1028.89 859.655 1032.91 860.15 1036.91 859.767C1040.9 859.384 1044.79 858.132 1048.32 856.09C1052.48 853.664 1056.04 850.234 1058.7 846.09C1061.35 841.947 1063.02 837.211 1063.56 832.282C1063.5 826.055 1061.37 820.071 1057.54 815.349C1052.98 810.986 1048.15 806.931 1043.1 803.21C1040.27 801.614 1038.06 799.061 1036.83 795.967C1035.98 793.113 1037.41 791.899 1037.06 786.384C1037.56 782.234 1036.89 778.039 1035.15 774.305C1034.04 772.56 1032.48 771.178 1030.64 770.315C1028.81 769.453 1026.78 769.142 1024.78 769.42C1022.9 769.824 1021.14 770.684 1019.63 771.929C1018.13 773.174 1016.92 774.769 1016.11 776.585C1015.26 781.347 1015.19 786.216 1015.92 790.981C1016.18 797.138 1016.5 798.497 1015.68 800.564C1014.29 804.406 1011.83 804.816 1009.22 807.717C1005.31 814.009 1003.67 821.525 1004.59 828.906C1003.94 835.616 1005.31 842.345 1008.5 848.157C1010.36 851.034 1012.82 853.438 1015.69 855.194C1018.56 856.95 1021.78 858.015 1025.11 858.313Z" fill="#FFA500"/>
<path d="M1035.57 861.638C1040.46 861.854 1045.31 860.341 1049.35 857.339C1053.16 853.698 1055.91 848.997 1057.28 843.794C1058.66 838.592 1058.58 833.107 1057.08 827.992C1055.78 818.653 1051.15 810.235 1044.13 804.44L1043.32 804.324C1041.15 803.146 1039.43 801.215 1038.46 798.852C1038.14 797.687 1038.1 796.451 1038.36 795.26C1038.71 793.651 1038.95 792.018 1039.07 790.375C1039.63 786.091 1038.84 781.753 1036.84 778.02C1035.5 776.099 1033.69 774.603 1031.6 773.69C1029.5 772.777 1027.2 772.481 1024.94 772.833C1022.85 773.158 1020.86 774.019 1019.14 775.341C1017.43 776.663 1016.04 778.405 1015.11 780.412C1014.07 785.171 1013.92 790.084 1014.67 794.875L1014.9 797.512C1015.1 801.118 1015.2 801.89 1014.09 803.14C1013.46 804.683 1012.38 805.973 1010.99 806.812C1009.89 807.563 1008.87 808.433 1007.94 809.408C1003.63 815.627 1001.81 823.358 1002.89 830.902C1002.24 837.615 1003.68 844.334 1007.01 850.036C1009.12 852.882 1011.77 855.225 1014.8 856.913C1017.83 858.602 1021.18 859.599 1024.62 859.841C1028.15 861.035 1031.84 861.641 1035.57 861.638V861.638ZM1026.47 775.765C1027.94 775.818 1029.37 776.205 1030.67 776.898C1031.98 777.591 1033.12 778.574 1034.02 779.78C1035.57 782.977 1036.12 786.621 1035.6 790.199C1035.31 792.217 1035.11 793.597 1034.94 794.766C1034.56 796.432 1034.63 798.169 1035.14 799.782C1036.32 802.832 1038.46 805.357 1041.2 806.944L1042 807.061C1048.33 812.268 1052.49 819.848 1053.65 828.255C1055 832.742 1055.12 837.56 1053.98 842.154C1052.85 846.747 1050.5 850.928 1047.23 854.215C1043.94 856.208 1040.28 857.417 1036.51 857.755C1032.75 858.092 1028.97 857.55 1025.46 856.168V856.168C1022.42 856.005 1019.45 855.17 1016.76 853.716C1014.06 852.262 1011.7 850.223 1009.81 847.73C1006.93 842.519 1005.68 836.462 1006.25 830.412C1005.2 823.741 1006.71 816.864 1010.45 811.287C1011.24 810.462 1012.11 809.716 1013.03 809.058C1014.93 807.863 1016.41 806.062 1017.27 803.924C1018.02 801.596 1018.16 799.109 1017.69 796.721L1018.04 794.279C1017.45 790.015 1017.52 785.668 1018.26 781.408C1018.98 779.923 1020.01 778.629 1021.28 777.627C1022.55 776.625 1024.02 775.943 1025.57 775.634L1026.47 775.765Z" fill="#66645E"/>
<path d="M1032.63 831.157L1029.3 888.604L1025.1 888.404L1028.43 830.957L1032.63 831.157Z" fill="#66645E"/>
<path d="M807.055 638.066C816.032 634.292 824.006 628.652 830.391 621.562C838.821 612.759 843.334 601.188 842.981 589.285C841.772 580.849 838.513 572.798 833.462 565.77C828.088 557.153 825.632 557.007 822.561 549.997C820.707 542.74 819.374 535.371 818.57 527.943C817.289 520.363 814.19 513.166 809.511 506.911C804.173 500.107 796.783 495.013 788.324 492.306C780.58 489.958 772.33 489.556 764.374 491.138C757.027 491.736 750.105 494.668 744.722 499.462C742.018 502.782 740.064 506.597 738.981 510.668C737.898 514.739 737.709 518.979 738.427 523.123C740.345 531.439 743.608 539.421 748.1 546.783C752.859 556.131 755.776 560.366 754.241 565.77C753.32 568.837 751.938 568.983 747.793 574.387C743.013 579.997 739.699 586.603 738.12 593.666C738.007 600.499 740.155 607.192 744.262 612.799C749.013 621.408 755.791 628.855 764.067 634.561C770.503 639.767 778.516 642.888 786.943 643.47C794.026 643.359 800.957 641.497 807.055 638.066V638.066Z" fill="#FECA7D"/>
<path d="M788.228 642.741C779.786 644.425 770.997 643.171 763.425 639.201C743.062 628.432 741.99 602.027 742.449 591.259C741.888 575.577 747.338 560.244 757.76 548.186L758.832 547.005C762.334 544.339 764.769 540.586 765.721 536.384C765.896 534.291 765.636 532.184 764.956 530.189C764.089 527.434 763.424 524.625 762.965 521.781C760.713 514.766 760.713 507.259 762.965 500.244C764.609 496.686 767.265 493.648 770.624 491.482C773.983 489.316 777.91 488.108 781.95 488C785.72 488.122 789.399 489.143 792.659 490.971C795.918 492.798 798.657 495.376 800.629 498.474C803.752 506.283 805.311 514.592 805.222 522.961V527.386C805.085 530.737 805.766 534.072 807.213 537.122C808.643 539.564 810.919 541.444 813.643 542.432C815.69 543.419 817.594 544.659 819.308 546.12C828.826 555.602 834.292 568.188 834.618 581.376C837.562 592.556 836.921 604.334 832.781 615.157C830.107 620.447 826.271 625.112 821.539 628.831C816.807 632.55 811.291 635.233 805.375 636.693C800.04 639.597 794.248 641.64 788.228 642.741ZM780.266 493.901C777.691 494.32 775.27 495.367 773.234 496.942C771.197 498.517 769.612 500.567 768.63 502.899C766.76 508.813 766.76 515.129 768.63 521.043C768.63 524.436 770.008 526.796 770.467 528.714C771.546 531.49 771.913 534.475 771.539 537.417C770.419 542.816 767.455 547.698 763.118 551.283L762.047 552.316C752.482 563.337 747.42 577.341 747.808 591.702C747.808 601.437 747.808 624.892 765.721 634.333C771.805 636.784 778.406 637.808 784.98 637.32C791.555 636.833 797.915 634.849 803.538 631.53V631.53C808.749 630.306 813.617 627.994 817.797 624.756C821.977 621.519 825.368 617.436 827.729 612.796C831.442 603.049 831.923 592.431 829.107 582.409C829.166 570.797 824.809 559.567 816.858 550.841C815.31 549.688 813.672 548.653 811.959 547.743C808.257 546.248 805.184 543.599 803.232 540.22C801.346 536.398 800.402 532.208 800.476 527.976V523.698C800.459 516.279 799.218 508.91 796.802 501.866C795.326 499.515 793.266 497.555 790.806 496.164C788.347 494.773 785.566 493.995 782.716 493.901H780.266Z" fill="#66645E"/>
<path d="M805.203 603.702L798.145 605.154L817.744 693L824.802 691.547L805.203 603.702Z" fill="#66645E"/>
<path d="M755.729 668.795C752.21 669.435 748.589 669.367 745.099 668.595C741.61 667.823 738.329 666.364 735.47 664.312C732.09 661.877 729.376 658.705 727.557 655.064C725.738 651.423 724.866 647.42 725.017 643.392C725.865 638.391 728.514 633.824 732.51 630.471C737.105 627.491 741.894 624.79 746.848 622.384C749.551 621.428 751.833 619.631 753.324 617.286C754.434 615.088 753.324 613.946 754.341 609.551C754.433 606.156 755.557 602.858 757.579 600.058C758.786 598.783 760.342 597.852 762.074 597.371C763.806 596.89 765.645 596.876 767.385 597.332C768.992 597.875 770.442 598.771 771.615 599.948C772.789 601.124 773.653 602.547 774.138 604.101C774.283 608.03 773.72 611.955 772.473 615.704C771.455 620.626 770.992 621.681 771.455 623.439C772.195 626.691 774.323 627.307 776.265 629.944C778.922 635.458 779.414 641.694 777.653 647.524C777.371 652.997 775.302 658.25 771.733 662.554C769.715 664.653 767.234 666.301 764.467 667.38C761.7 668.459 758.716 668.942 755.729 668.795Z" fill="#FFD6BA"/>
<path d="M746.05 670.255C741.687 669.861 737.587 668.081 734.4 665.198C731.49 661.826 729.651 657.725 729.102 653.381C728.554 649.037 729.319 644.634 731.306 640.694C733.647 633.333 738.82 627.099 745.777 623.254H746.505C748.581 622.559 750.347 621.205 751.511 619.417C751.945 618.518 752.132 617.527 752.057 616.539C751.95 615.204 751.95 613.863 752.057 612.528C752.109 609.018 753.355 605.619 755.606 602.849C757.036 601.459 758.831 600.466 760.802 599.975C762.773 599.483 764.846 599.512 766.801 600.058C768.612 600.562 770.266 601.486 771.615 602.749C772.965 604.011 773.968 605.573 774.537 607.296C774.847 611.245 774.353 615.213 773.081 618.981L772.535 621.074C771.898 623.952 771.716 624.562 772.535 625.696C772.893 627.009 773.693 628.174 774.81 629.009C775.687 629.741 776.48 630.559 777.176 631.451C780.204 636.954 780.826 643.384 778.906 649.327C778.626 654.802 776.484 660.039 772.808 664.239C770.582 666.283 767.934 667.86 765.034 668.866C762.134 669.872 759.047 670.286 755.97 670.081C752.693 670.631 749.346 670.69 746.05 670.255ZM765.072 602.238C763.767 602.111 762.449 602.256 761.208 602.662C759.967 603.069 758.832 603.727 757.882 604.593C756.099 606.984 755.144 609.851 755.151 612.79C755.151 614.447 755.151 615.58 755.151 616.539C755.271 617.923 754.988 619.312 754.332 620.551C752.894 622.867 750.681 624.649 748.052 625.608H747.324C741.059 629.063 736.404 634.676 734.309 641.304C732.536 644.756 731.817 648.618 732.236 652.445C732.654 656.271 734.194 659.906 736.676 662.931C739.334 664.916 742.419 666.313 745.707 667.022C748.996 667.73 752.408 667.733 755.697 667.029C758.41 667.251 761.141 666.923 763.713 666.067C766.285 665.211 768.639 663.845 770.623 662.059C773.844 658.201 775.722 653.475 775.993 648.542C777.777 643.299 777.319 637.592 774.719 632.672C774.121 631.916 773.451 631.215 772.717 630.579C771.193 629.398 770.107 627.777 769.622 625.957C769.257 623.998 769.446 621.981 770.168 620.115V618.109C771.239 614.749 771.731 611.244 771.625 607.732C771.177 606.454 770.426 605.293 769.432 604.34C768.437 603.386 767.225 602.667 765.891 602.238H765.072Z" fill="#66645E"/>
<path d="M752.543 646.079L748.145 692.672L751.89 693L756.289 646.406L752.543 646.079Z" fill="#66645E"/>
<path d="M1241.34 735.387C1250.75 731.428 1259.1 725.514 1265.79 718.078C1274.62 708.844 1279.35 696.71 1278.98 684.226C1277.71 675.379 1274.3 666.935 1269.01 659.564C1263.38 650.526 1260.8 650.373 1257.59 643.021C1255.65 635.41 1254.25 627.682 1253.41 619.891C1252.06 611.942 1248.82 604.394 1243.92 597.834C1238.32 590.698 1230.58 585.355 1221.72 582.516C1213.61 580.054 1204.96 579.632 1196.63 581.291C1188.93 581.918 1181.68 584.993 1176.04 590.021C1173.21 593.503 1171.16 597.504 1170.03 601.774C1168.89 606.044 1168.7 610.491 1169.45 614.836C1171.46 623.558 1174.87 631.929 1179.58 639.651C1184.57 649.454 1187.62 653.896 1186.01 659.564C1185.05 662.781 1183.6 662.934 1179.26 668.601C1174.25 674.484 1170.78 681.413 1169.13 688.821C1169.01 695.987 1171.26 703.007 1175.56 708.887C1180.54 717.916 1187.64 725.726 1196.31 731.71C1203.05 737.17 1211.45 740.443 1220.27 741.054C1227.69 740.937 1234.96 738.984 1241.34 735.387V735.387Z" fill="#FFEFB7"/>
<path d="M1221.62 740.29C1212.77 742.056 1203.57 740.74 1195.63 736.576C1174.3 725.283 1173.18 697.59 1173.66 686.296C1173.07 669.849 1178.78 653.768 1189.7 641.121L1190.82 639.883C1194.49 637.088 1197.04 633.151 1198.04 628.744C1198.22 626.549 1197.95 624.34 1197.24 622.247C1196.33 619.358 1195.63 616.411 1195.15 613.428C1192.79 606.071 1192.79 598.198 1195.15 590.841C1196.88 587.11 1199.66 583.924 1203.18 581.652C1206.7 579.38 1210.81 578.114 1215.04 578C1218.99 578.128 1222.85 579.199 1226.26 581.116C1229.68 583.033 1232.54 585.736 1234.61 588.985C1237.88 597.175 1239.51 605.889 1239.42 614.666V619.307C1239.28 622.822 1239.99 626.319 1241.51 629.518C1243.01 632.08 1245.39 634.051 1248.24 635.088C1250.39 636.123 1252.38 637.423 1254.18 638.955C1264.15 648.9 1269.88 662.1 1270.22 675.931C1273.3 687.657 1272.63 700.009 1268.29 711.359C1265.49 716.907 1261.47 721.801 1256.52 725.701C1251.56 729.602 1245.78 732.415 1239.58 733.947C1233.99 736.992 1227.92 739.134 1221.62 740.29ZM1213.28 584.189C1210.58 584.628 1208.04 585.726 1205.91 587.378C1203.78 589.03 1202.12 591.18 1201.09 593.626C1199.13 599.828 1199.13 606.453 1201.09 612.655C1201.09 616.213 1202.53 618.689 1203.01 620.7C1204.14 623.611 1204.53 626.742 1204.13 629.827C1202.96 635.49 1199.86 640.61 1195.31 644.37L1194.19 645.453C1184.17 657.012 1178.87 671.699 1179.27 686.76C1179.27 696.971 1179.27 721.57 1198.04 731.471C1204.41 734.042 1211.33 735.115 1218.22 734.604C1225.1 734.093 1231.77 732.012 1237.66 728.532V728.532C1243.12 727.248 1248.22 724.823 1252.6 721.428C1256.97 718.032 1260.53 713.75 1263 708.884C1266.89 698.661 1267.39 687.525 1264.44 677.014C1264.51 664.836 1259.94 653.058 1251.61 643.906C1249.99 642.698 1248.27 641.612 1246.48 640.657C1242.6 639.089 1239.38 636.311 1237.34 632.767C1235.36 628.759 1234.37 624.364 1234.45 619.926V615.44C1234.43 607.659 1233.13 599.93 1230.6 592.543C1229.05 590.076 1226.9 588.021 1224.32 586.562C1221.74 585.103 1218.83 584.288 1215.84 584.189H1213.28Z" fill="#66645E"/>
<path d="M1239.4 699.346L1232.01 700.869L1252.54 793L1259.94 791.476L1239.4 699.346Z" fill="#66645E"/>
<path d="M197.48 583.61C199.77 584.124 202.183 584.13 204.478 583.628C206.772 583.126 208.868 582.133 210.554 580.748C214.486 577.599 216.792 573.308 216.987 568.777C217.181 564.247 215.249 559.83 211.597 556.457C208.635 554.24 205.47 552.215 202.132 550.401C200.244 549.535 198.751 548.179 197.881 546.542C197.294 544.718 196.997 542.839 196.998 540.952C196.825 538.618 196.03 536.345 194.672 534.297C194.009 533.41 193.019 532.723 191.848 532.34C190.678 531.956 189.39 531.896 188.175 532.167C187.065 532.601 186.107 533.263 185.392 534.09C184.676 534.916 184.226 535.881 184.084 536.892C184.002 539.725 184.435 542.551 185.368 545.277C186.034 547.087 186.332 548.976 186.25 550.867C186.25 553.197 184.485 553.596 183.282 555.459C181.739 559.645 181.739 564.118 183.282 568.303C183.568 572.161 184.971 575.905 187.373 579.217C188.535 580.547 190.052 581.634 191.806 582.396C193.559 583.158 195.501 583.574 197.48 583.61Z" fill="#FFD6BA"/>
<path d="M203.683 585.821C205.21 585.74 206.7 585.395 208.063 584.806C209.426 584.217 210.631 583.397 211.604 582.398C213.409 579.702 214.468 576.695 214.701 573.603C214.934 570.51 214.336 567.413 212.951 564.545C211.482 559.435 208.022 554.895 203.129 551.659H202.654C201.21 550.991 200.047 549.959 199.327 548.706C199.03 548.042 198.895 547.334 198.931 546.625C198.931 545.887 198.931 544.947 198.931 543.672C198.86 541.15 197.984 538.692 196.396 536.558C195.623 535.553 194.491 534.784 193.167 534.361C191.842 533.939 190.393 533.885 189.03 534.209C187.757 534.651 186.642 535.366 185.795 536.284C184.948 537.202 184.398 538.291 184.198 539.444C184.105 542.323 184.532 545.198 185.465 547.968V549.444C185.724 550.575 185.724 551.736 185.465 552.867C185.341 553.77 184.834 554.605 184.039 555.216C183.491 555.752 183.013 556.337 182.614 556.961C180.741 561.149 180.491 565.733 181.901 570.048C182.187 573.978 183.69 577.774 186.257 581.056C187.548 582.51 189.224 583.686 191.15 584.491C193.077 585.295 195.199 585.705 197.346 585.687C199.432 586.053 201.579 586.099 203.683 585.821ZM189.742 535.752C190.646 535.702 191.55 535.848 192.368 536.177C193.186 536.506 193.891 537.007 194.416 537.632C195.706 539.457 196.39 541.544 196.396 543.672C196.396 544.88 196.396 545.685 196.396 546.357C196.375 547.367 196.59 548.37 197.03 549.31C197.878 550.951 199.358 552.299 201.228 553.135H201.703C206.233 556.067 209.469 560.204 210.891 564.881C212.119 567.408 212.664 570.136 212.485 572.866C212.307 575.595 211.411 578.255 209.862 580.653C208.32 582.032 206.346 583.011 204.172 583.474C201.998 583.938 199.713 583.867 197.584 583.27C195.691 583.332 193.809 583.004 192.098 582.314C190.388 581.624 188.9 580.594 187.762 579.31C185.525 576.325 184.217 572.907 183.96 569.377C182.699 565.558 182.865 561.502 184.435 557.766C184.775 557.243 185.173 556.749 185.624 556.29C186.634 555.372 187.32 554.233 187.604 553.001C187.758 551.557 187.597 550.101 187.129 548.706V547.162C186.337 544.713 185.937 542.185 185.94 539.645C186.086 538.782 186.49 537.965 187.114 537.272C187.738 536.578 188.561 536.032 189.505 535.685L189.742 535.752Z" fill="#66645E"/>
<path d="M203.5 600.804L199.281 568L196.75 568.131L200.969 601L203.5 600.804Z" fill="#66645E"/>
<path d="M277.722 622.927C283.543 620.12 288.633 616.13 292.593 611.272C297.789 605.244 300.425 597.729 299.981 590.208C298.902 584.91 296.507 579.961 292.982 575.743C290.192 572.781 287.658 569.617 285.402 566.281C282.851 561.254 284.347 559.739 282.125 552.549C281.051 547.782 278.78 543.355 275.491 539.619C271.765 535.691 266.812 532.923 261.262 531.666C256.107 530.583 250.678 530.787 245.524 532.257C240.741 532.986 236.295 535.161 232.893 538.437C231.222 540.678 230.061 543.197 229.483 545.834C228.905 548.47 228.924 551.167 229.538 553.752C231.016 558.907 233.349 563.792 236.458 568.235C239.858 573.986 241.976 576.491 241.047 580.033C240.604 582.068 239.628 582.224 237.191 585.817C234.273 589.558 232.399 593.883 231.745 598.388C231.842 602.725 233.451 606.862 236.335 610.185C239.685 615.442 244.353 619.854 249.967 623.067C254.367 625.835 259.628 627.272 265.055 627.186C269.549 626.727 273.897 625.265 277.722 622.927Z" fill="#ECC700"/>
<path d="M267.066 628.128C260.999 629.576 254.772 626.109 246.369 621.304C241.829 619.209 237.957 616.094 235.092 612.233C233.56 610.414 232.486 608.295 231.943 606.019C231.4 603.744 231.401 601.368 231.946 599.054C232.639 597.228 233.948 595.638 235.675 594.527C237.071 593.632 238.155 592.375 238.78 590.922C239.823 587.448 239.518 583.793 237.92 580.602C236.868 577.766 235.379 575.099 233.498 572.681C232.396 571.241 231.091 569.309 229.371 566.701C225.297 561.343 222.586 555.173 221.43 548.63C221.258 546.08 221.839 543.507 223.113 541.186C223.71 540.068 224.529 539.058 225.525 538.211C227.39 536.844 229.567 535.899 231.87 535.458C235.691 534.318 239.784 534.591 243.273 536.219C247.714 538.326 251.399 541.541 253.929 545.517C256.56 549.725 258.452 554.312 259.537 559.114C260.302 561.508 260.886 563.954 261.285 566.436C261.513 568.592 262.017 570.706 262.788 572.733C262.788 572.733 263.154 574.27 264.01 575.381C264.866 576.493 268.484 578.57 271.103 579.647C272.041 580.043 272.962 580.365 273.643 580.744C281.729 584.928 282.22 596.883 282.313 600.808C282.588 607.028 280.911 613.26 277.484 618.754C275.649 622.658 272.364 625.863 268.245 627.769L267.066 628.128ZM233.29 537.519L232.652 537.671C230.733 538.019 228.919 538.797 227.371 539.937C226.607 540.583 225.96 541.339 225.458 542.174C224.439 544.115 223.989 546.253 224.152 548.367C225.334 554.532 227.9 560.35 231.689 565.451C233.39 567.986 234.758 569.826 235.798 571.358C237.843 573.893 239.43 576.727 240.502 579.754C242.347 583.429 242.636 587.659 241.312 591.633C240.5 593.492 239.127 595.111 237.362 596.291C236.074 597.157 235.067 598.337 234.461 599.692C234.017 601.672 234.026 603.7 234.49 605.644C234.954 607.587 235.861 609.401 237.152 610.967C239.768 614.555 243.358 617.428 247.581 619.313C256.196 624.299 261.937 627.495 267.305 625.594C270.851 623.861 273.65 621.022 275.184 617.6C278.304 612.52 279.858 606.787 279.671 601.052C279.488 597.458 279.065 586.492 272.147 582.958L269.784 581.897C266.527 580.958 263.683 579.131 261.613 576.65C261.1 575.728 260.648 574.776 260.258 573.801C259.401 571.59 258.85 569.278 258.615 566.918C258.231 564.434 257.647 561.986 256.868 559.596C255.806 555.051 254.002 550.707 251.515 546.712C249.253 543.066 245.92 540.112 241.884 538.176C239.22 537.062 236.191 536.83 233.29 537.519Z" fill="#66645E"/>
<path d="M262.356 605L259 605.684L270.048 656.572L273.404 655.889L262.356 605Z" fill="#66645E"/>
</svg>
